%TF.GenerationSoftware,KiCad,Pcbnew,(5.1.9)-1*%
%TF.CreationDate,2021-10-04T18:28:26-04:00*%
%TF.ProjectId,In9 Music Visualizer RevC,496e3920-4d75-4736-9963-205669737561,rev?*%
%TF.SameCoordinates,Original*%
%TF.FileFunction,Soldermask,Bot*%
%TF.FilePolarity,Negative*%
%FSLAX46Y46*%
G04 Gerber Fmt 4.6, Leading zero omitted, Abs format (unit mm)*
G04 Created by KiCad (PCBNEW (5.1.9)-1) date 2021-10-04 18:28:26*
%MOMM*%
%LPD*%
G01*
G04 APERTURE LIST*
%ADD10O,1.905000X2.000000*%
%ADD11R,1.905000X2.000000*%
%ADD12C,1.600000*%
%ADD13R,1.600000X1.600000*%
%ADD14C,5.715000*%
%ADD15O,1.700000X1.700000*%
%ADD16R,1.700000X1.700000*%
%ADD17C,1.700000*%
%ADD18C,4.000000*%
%ADD19C,2.400000*%
%ADD20R,2.400000X2.400000*%
G04 APERTURE END LIST*
%TO.C,R13*%
G36*
G01*
X67829000Y-78476001D02*
X67829000Y-77225999D01*
G75*
G02*
X68078999Y-76976000I249999J0D01*
G01*
X68879001Y-76976000D01*
G75*
G02*
X69129000Y-77225999I0J-249999D01*
G01*
X69129000Y-78476001D01*
G75*
G02*
X68879001Y-78726000I-249999J0D01*
G01*
X68078999Y-78726000D01*
G75*
G02*
X67829000Y-78476001I0J249999D01*
G01*
G37*
G36*
G01*
X64729000Y-78476001D02*
X64729000Y-77225999D01*
G75*
G02*
X64978999Y-76976000I249999J0D01*
G01*
X65779001Y-76976000D01*
G75*
G02*
X66029000Y-77225999I0J-249999D01*
G01*
X66029000Y-78476001D01*
G75*
G02*
X65779001Y-78726000I-249999J0D01*
G01*
X64978999Y-78726000D01*
G75*
G02*
X64729000Y-78476001I0J249999D01*
G01*
G37*
%TD*%
D10*
%TO.C,Q2*%
X65405000Y-74549000D03*
X67945000Y-74549000D03*
D11*
X70485000Y-74549000D03*
%TD*%
D12*
%TO.C,C22*%
X87884000Y-123658000D03*
D13*
X87884000Y-121158000D03*
%TD*%
D14*
%TO.C,REF\u002A\u002A*%
X172720000Y-121920000D03*
%TD*%
%TO.C,R10*%
G36*
G01*
X60775001Y-66005000D02*
X59874999Y-66005000D01*
G75*
G02*
X59625000Y-65755001I0J249999D01*
G01*
X59625000Y-65054999D01*
G75*
G02*
X59874999Y-64805000I249999J0D01*
G01*
X60775001Y-64805000D01*
G75*
G02*
X61025000Y-65054999I0J-249999D01*
G01*
X61025000Y-65755001D01*
G75*
G02*
X60775001Y-66005000I-249999J0D01*
G01*
G37*
G36*
G01*
X60775001Y-68005000D02*
X59874999Y-68005000D01*
G75*
G02*
X59625000Y-67755001I0J249999D01*
G01*
X59625000Y-67054999D01*
G75*
G02*
X59874999Y-66805000I249999J0D01*
G01*
X60775001Y-66805000D01*
G75*
G02*
X61025000Y-67054999I0J-249999D01*
G01*
X61025000Y-67755001D01*
G75*
G02*
X60775001Y-68005000I-249999J0D01*
G01*
G37*
%TD*%
%TO.C,REF\u002A\u002A*%
X172720000Y-55880000D03*
%TD*%
%TO.C,REF\u002A\u002A*%
X55880000Y-121920000D03*
%TD*%
%TO.C,REF\u002A\u002A*%
X55880000Y-55880000D03*
%TD*%
%TO.C,U2*%
G36*
G01*
X62715000Y-69645000D02*
X63015000Y-69645000D01*
G75*
G02*
X63165000Y-69795000I0J-150000D01*
G01*
X63165000Y-71245000D01*
G75*
G02*
X63015000Y-71395000I-150000J0D01*
G01*
X62715000Y-71395000D01*
G75*
G02*
X62565000Y-71245000I0J150000D01*
G01*
X62565000Y-69795000D01*
G75*
G02*
X62715000Y-69645000I150000J0D01*
G01*
G37*
G36*
G01*
X63985000Y-69645000D02*
X64285000Y-69645000D01*
G75*
G02*
X64435000Y-69795000I0J-150000D01*
G01*
X64435000Y-71245000D01*
G75*
G02*
X64285000Y-71395000I-150000J0D01*
G01*
X63985000Y-71395000D01*
G75*
G02*
X63835000Y-71245000I0J150000D01*
G01*
X63835000Y-69795000D01*
G75*
G02*
X63985000Y-69645000I150000J0D01*
G01*
G37*
G36*
G01*
X65255000Y-69645000D02*
X65555000Y-69645000D01*
G75*
G02*
X65705000Y-69795000I0J-150000D01*
G01*
X65705000Y-71245000D01*
G75*
G02*
X65555000Y-71395000I-150000J0D01*
G01*
X65255000Y-71395000D01*
G75*
G02*
X65105000Y-71245000I0J150000D01*
G01*
X65105000Y-69795000D01*
G75*
G02*
X65255000Y-69645000I150000J0D01*
G01*
G37*
G36*
G01*
X66525000Y-69645000D02*
X66825000Y-69645000D01*
G75*
G02*
X66975000Y-69795000I0J-150000D01*
G01*
X66975000Y-71245000D01*
G75*
G02*
X66825000Y-71395000I-150000J0D01*
G01*
X66525000Y-71395000D01*
G75*
G02*
X66375000Y-71245000I0J150000D01*
G01*
X66375000Y-69795000D01*
G75*
G02*
X66525000Y-69645000I150000J0D01*
G01*
G37*
G36*
G01*
X66525000Y-64495000D02*
X66825000Y-64495000D01*
G75*
G02*
X66975000Y-64645000I0J-150000D01*
G01*
X66975000Y-66095000D01*
G75*
G02*
X66825000Y-66245000I-150000J0D01*
G01*
X66525000Y-66245000D01*
G75*
G02*
X66375000Y-66095000I0J150000D01*
G01*
X66375000Y-64645000D01*
G75*
G02*
X66525000Y-64495000I150000J0D01*
G01*
G37*
G36*
G01*
X65255000Y-64495000D02*
X65555000Y-64495000D01*
G75*
G02*
X65705000Y-64645000I0J-150000D01*
G01*
X65705000Y-66095000D01*
G75*
G02*
X65555000Y-66245000I-150000J0D01*
G01*
X65255000Y-66245000D01*
G75*
G02*
X65105000Y-66095000I0J150000D01*
G01*
X65105000Y-64645000D01*
G75*
G02*
X65255000Y-64495000I150000J0D01*
G01*
G37*
G36*
G01*
X63985000Y-64495000D02*
X64285000Y-64495000D01*
G75*
G02*
X64435000Y-64645000I0J-150000D01*
G01*
X64435000Y-66095000D01*
G75*
G02*
X64285000Y-66245000I-150000J0D01*
G01*
X63985000Y-66245000D01*
G75*
G02*
X63835000Y-66095000I0J150000D01*
G01*
X63835000Y-64645000D01*
G75*
G02*
X63985000Y-64495000I150000J0D01*
G01*
G37*
G36*
G01*
X62715000Y-64495000D02*
X63015000Y-64495000D01*
G75*
G02*
X63165000Y-64645000I0J-150000D01*
G01*
X63165000Y-66095000D01*
G75*
G02*
X63015000Y-66245000I-150000J0D01*
G01*
X62715000Y-66245000D01*
G75*
G02*
X62565000Y-66095000I0J150000D01*
G01*
X62565000Y-64645000D01*
G75*
G02*
X62715000Y-64495000I150000J0D01*
G01*
G37*
%TD*%
%TO.C,R14*%
G36*
G01*
X69980000Y-62680001D02*
X69980000Y-61779999D01*
G75*
G02*
X70229999Y-61530000I249999J0D01*
G01*
X70930001Y-61530000D01*
G75*
G02*
X71180000Y-61779999I0J-249999D01*
G01*
X71180000Y-62680001D01*
G75*
G02*
X70930001Y-62930000I-249999J0D01*
G01*
X70229999Y-62930000D01*
G75*
G02*
X69980000Y-62680001I0J249999D01*
G01*
G37*
G36*
G01*
X67980000Y-62680001D02*
X67980000Y-61779999D01*
G75*
G02*
X68229999Y-61530000I249999J0D01*
G01*
X68930001Y-61530000D01*
G75*
G02*
X69180000Y-61779999I0J-249999D01*
G01*
X69180000Y-62680001D01*
G75*
G02*
X68930001Y-62930000I-249999J0D01*
G01*
X68229999Y-62930000D01*
G75*
G02*
X67980000Y-62680001I0J249999D01*
G01*
G37*
%TD*%
%TO.C,R12*%
G36*
G01*
X60775001Y-75403000D02*
X59874999Y-75403000D01*
G75*
G02*
X59625000Y-75153001I0J249999D01*
G01*
X59625000Y-74452999D01*
G75*
G02*
X59874999Y-74203000I249999J0D01*
G01*
X60775001Y-74203000D01*
G75*
G02*
X61025000Y-74452999I0J-249999D01*
G01*
X61025000Y-75153001D01*
G75*
G02*
X60775001Y-75403000I-249999J0D01*
G01*
G37*
G36*
G01*
X60775001Y-77403000D02*
X59874999Y-77403000D01*
G75*
G02*
X59625000Y-77153001I0J249999D01*
G01*
X59625000Y-76452999D01*
G75*
G02*
X59874999Y-76203000I249999J0D01*
G01*
X60775001Y-76203000D01*
G75*
G02*
X61025000Y-76452999I0J-249999D01*
G01*
X61025000Y-77153001D01*
G75*
G02*
X60775001Y-77403000I-249999J0D01*
G01*
G37*
%TD*%
%TO.C,R11*%
G36*
G01*
X75060000Y-66998001D02*
X75060000Y-66097999D01*
G75*
G02*
X75309999Y-65848000I249999J0D01*
G01*
X76010001Y-65848000D01*
G75*
G02*
X76260000Y-66097999I0J-249999D01*
G01*
X76260000Y-66998001D01*
G75*
G02*
X76010001Y-67248000I-249999J0D01*
G01*
X75309999Y-67248000D01*
G75*
G02*
X75060000Y-66998001I0J249999D01*
G01*
G37*
G36*
G01*
X73060000Y-66998001D02*
X73060000Y-66097999D01*
G75*
G02*
X73309999Y-65848000I249999J0D01*
G01*
X74010001Y-65848000D01*
G75*
G02*
X74260000Y-66097999I0J-249999D01*
G01*
X74260000Y-66998001D01*
G75*
G02*
X74010001Y-67248000I-249999J0D01*
G01*
X73309999Y-67248000D01*
G75*
G02*
X73060000Y-66998001I0J249999D01*
G01*
G37*
%TD*%
%TO.C,R8*%
G36*
G01*
X73209999Y-63630000D02*
X74110001Y-63630000D01*
G75*
G02*
X74360000Y-63879999I0J-249999D01*
G01*
X74360000Y-64580001D01*
G75*
G02*
X74110001Y-64830000I-249999J0D01*
G01*
X73209999Y-64830000D01*
G75*
G02*
X72960000Y-64580001I0J249999D01*
G01*
X72960000Y-63879999D01*
G75*
G02*
X73209999Y-63630000I249999J0D01*
G01*
G37*
G36*
G01*
X73209999Y-61630000D02*
X74110001Y-61630000D01*
G75*
G02*
X74360000Y-61879999I0J-249999D01*
G01*
X74360000Y-62580001D01*
G75*
G02*
X74110001Y-62830000I-249999J0D01*
G01*
X73209999Y-62830000D01*
G75*
G02*
X72960000Y-62580001I0J249999D01*
G01*
X72960000Y-61879999D01*
G75*
G02*
X73209999Y-61630000I249999J0D01*
G01*
G37*
%TD*%
%TO.C,R7*%
G36*
G01*
X58235001Y-71355000D02*
X57334999Y-71355000D01*
G75*
G02*
X57085000Y-71105001I0J249999D01*
G01*
X57085000Y-70404999D01*
G75*
G02*
X57334999Y-70155000I249999J0D01*
G01*
X58235001Y-70155000D01*
G75*
G02*
X58485000Y-70404999I0J-249999D01*
G01*
X58485000Y-71105001D01*
G75*
G02*
X58235001Y-71355000I-249999J0D01*
G01*
G37*
G36*
G01*
X58235001Y-73355000D02*
X57334999Y-73355000D01*
G75*
G02*
X57085000Y-73105001I0J249999D01*
G01*
X57085000Y-72404999D01*
G75*
G02*
X57334999Y-72155000I249999J0D01*
G01*
X58235001Y-72155000D01*
G75*
G02*
X58485000Y-72404999I0J-249999D01*
G01*
X58485000Y-73105001D01*
G75*
G02*
X58235001Y-73355000I-249999J0D01*
G01*
G37*
%TD*%
%TO.C,R1*%
G36*
G01*
X146285000Y-123374999D02*
X146285000Y-124275001D01*
G75*
G02*
X146035001Y-124525000I-249999J0D01*
G01*
X145334999Y-124525000D01*
G75*
G02*
X145085000Y-124275001I0J249999D01*
G01*
X145085000Y-123374999D01*
G75*
G02*
X145334999Y-123125000I249999J0D01*
G01*
X146035001Y-123125000D01*
G75*
G02*
X146285000Y-123374999I0J-249999D01*
G01*
G37*
G36*
G01*
X148285000Y-123374999D02*
X148285000Y-124275001D01*
G75*
G02*
X148035001Y-124525000I-249999J0D01*
G01*
X147334999Y-124525000D01*
G75*
G02*
X147085000Y-124275001I0J249999D01*
G01*
X147085000Y-123374999D01*
G75*
G02*
X147334999Y-123125000I249999J0D01*
G01*
X148035001Y-123125000D01*
G75*
G02*
X148285000Y-123374999I0J-249999D01*
G01*
G37*
%TD*%
D15*
%TO.C,J4*%
X127635000Y-53975000D03*
X127635000Y-56515000D03*
X125095000Y-53975000D03*
X125095000Y-56515000D03*
X122555000Y-53975000D03*
X122555000Y-56515000D03*
X120015000Y-53975000D03*
X120015000Y-56515000D03*
X117475000Y-53975000D03*
X117475000Y-56515000D03*
X114935000Y-53975000D03*
D16*
X114935000Y-56515000D03*
%TD*%
D17*
%TO.C,J3*%
X163195000Y-121920000D03*
D16*
X160655000Y-121920000D03*
D17*
X165735000Y-121920000D03*
%TD*%
%TO.C,J2*%
X118745000Y-121920000D03*
D16*
X116205000Y-121920000D03*
%TD*%
D15*
%TO.C,MCU1*%
X158750000Y-110490000D03*
X156210000Y-110490000D03*
D17*
X173990000Y-110490000D03*
D15*
X166370000Y-110490000D03*
X171450000Y-110490000D03*
X163830000Y-110490000D03*
X168910000Y-110490000D03*
X161290000Y-110490000D03*
X153670000Y-110490000D03*
X151130000Y-110490000D03*
X148590000Y-110490000D03*
X146050000Y-110490000D03*
X143510000Y-110490000D03*
X140970000Y-110490000D03*
X125730000Y-110490000D03*
X133350000Y-110490000D03*
X135890000Y-110490000D03*
X138430000Y-110490000D03*
X118110000Y-110490000D03*
X130810000Y-110490000D03*
X123190000Y-110490000D03*
X128270000Y-110490000D03*
X120650000Y-110490000D03*
X115570000Y-110490000D03*
X115570000Y-95250000D03*
X118110000Y-95250000D03*
X120650000Y-95250000D03*
X123190000Y-95250000D03*
X125730000Y-95250000D03*
X128270000Y-95250000D03*
X130810000Y-95250000D03*
X133350000Y-95250000D03*
X135890000Y-95250000D03*
X138430000Y-95250000D03*
X140970000Y-95250000D03*
X143510000Y-95250000D03*
X146050000Y-95250000D03*
X148590000Y-95250000D03*
X151130000Y-95250000D03*
X153670000Y-95250000D03*
X156210000Y-95250000D03*
X158750000Y-95250000D03*
X161290000Y-95250000D03*
X163830000Y-95250000D03*
X166370000Y-95250000D03*
X168910000Y-95250000D03*
X171450000Y-95250000D03*
D16*
X173990000Y-95250000D03*
%TD*%
D17*
%TO.C,J1*%
X79375000Y-121920000D03*
D16*
X76835000Y-121920000D03*
%TD*%
D18*
%TO.C,HS1*%
X80645000Y-78105000D03*
X55245000Y-78105000D03*
%TD*%
%TO.C,C17*%
G36*
G01*
X66871000Y-80739000D02*
X66871000Y-79789000D01*
G75*
G02*
X67121000Y-79539000I250000J0D01*
G01*
X67796000Y-79539000D01*
G75*
G02*
X68046000Y-79789000I0J-250000D01*
G01*
X68046000Y-80739000D01*
G75*
G02*
X67796000Y-80989000I-250000J0D01*
G01*
X67121000Y-80989000D01*
G75*
G02*
X66871000Y-80739000I0J250000D01*
G01*
G37*
G36*
G01*
X64796000Y-80739000D02*
X64796000Y-79789000D01*
G75*
G02*
X65046000Y-79539000I250000J0D01*
G01*
X65721000Y-79539000D01*
G75*
G02*
X65971000Y-79789000I0J-250000D01*
G01*
X65971000Y-80739000D01*
G75*
G02*
X65721000Y-80989000I-250000J0D01*
G01*
X65046000Y-80989000D01*
G75*
G02*
X64796000Y-80739000I0J250000D01*
G01*
G37*
%TD*%
%TO.C,C16*%
G36*
G01*
X59875000Y-61755000D02*
X59875000Y-62705000D01*
G75*
G02*
X59625000Y-62955000I-250000J0D01*
G01*
X58950000Y-62955000D01*
G75*
G02*
X58700000Y-62705000I0J250000D01*
G01*
X58700000Y-61755000D01*
G75*
G02*
X58950000Y-61505000I250000J0D01*
G01*
X59625000Y-61505000D01*
G75*
G02*
X59875000Y-61755000I0J-250000D01*
G01*
G37*
G36*
G01*
X61950000Y-61755000D02*
X61950000Y-62705000D01*
G75*
G02*
X61700000Y-62955000I-250000J0D01*
G01*
X61025000Y-62955000D01*
G75*
G02*
X60775000Y-62705000I0J250000D01*
G01*
X60775000Y-61755000D01*
G75*
G02*
X61025000Y-61505000I250000J0D01*
G01*
X61700000Y-61505000D01*
G75*
G02*
X61950000Y-61755000I0J-250000D01*
G01*
G37*
%TD*%
%TO.C,C15*%
G36*
G01*
X65622500Y-62705000D02*
X65622500Y-61755000D01*
G75*
G02*
X65872500Y-61505000I250000J0D01*
G01*
X66547500Y-61505000D01*
G75*
G02*
X66797500Y-61755000I0J-250000D01*
G01*
X66797500Y-62705000D01*
G75*
G02*
X66547500Y-62955000I-250000J0D01*
G01*
X65872500Y-62955000D01*
G75*
G02*
X65622500Y-62705000I0J250000D01*
G01*
G37*
G36*
G01*
X63547500Y-62705000D02*
X63547500Y-61755000D01*
G75*
G02*
X63797500Y-61505000I250000J0D01*
G01*
X64472500Y-61505000D01*
G75*
G02*
X64722500Y-61755000I0J-250000D01*
G01*
X64722500Y-62705000D01*
G75*
G02*
X64472500Y-62955000I-250000J0D01*
G01*
X63797500Y-62955000D01*
G75*
G02*
X63547500Y-62705000I0J250000D01*
G01*
G37*
%TD*%
%TO.C,C14*%
G36*
G01*
X59850000Y-72205000D02*
X60800000Y-72205000D01*
G75*
G02*
X61050000Y-72455000I0J-250000D01*
G01*
X61050000Y-73130000D01*
G75*
G02*
X60800000Y-73380000I-250000J0D01*
G01*
X59850000Y-73380000D01*
G75*
G02*
X59600000Y-73130000I0J250000D01*
G01*
X59600000Y-72455000D01*
G75*
G02*
X59850000Y-72205000I250000J0D01*
G01*
G37*
G36*
G01*
X59850000Y-70130000D02*
X60800000Y-70130000D01*
G75*
G02*
X61050000Y-70380000I0J-250000D01*
G01*
X61050000Y-71055000D01*
G75*
G02*
X60800000Y-71305000I-250000J0D01*
G01*
X59850000Y-71305000D01*
G75*
G02*
X59600000Y-71055000I0J250000D01*
G01*
X59600000Y-70380000D01*
G75*
G02*
X59850000Y-70130000I250000J0D01*
G01*
G37*
%TD*%
D19*
%TO.C,C9*%
X98940000Y-69850000D03*
D20*
X91440000Y-69850000D03*
%TD*%
D19*
%TO.C,C8*%
X98940000Y-88900000D03*
D20*
X91440000Y-88900000D03*
%TD*%
D12*
%TO.C,C5*%
X74168000Y-112101000D03*
D13*
X74168000Y-109601000D03*
%TD*%
M02*
