%TF.GenerationSoftware,KiCad,Pcbnew,(5.1.9)-1*%
%TF.CreationDate,2021-10-04T18:28:26-04:00*%
%TF.ProjectId,In9 Music Visualizer RevC,496e3920-4d75-4736-9963-205669737561,rev?*%
%TF.SameCoordinates,Original*%
%TF.FileFunction,Copper,L1,Top*%
%TF.FilePolarity,Positive*%
%FSLAX46Y46*%
G04 Gerber Fmt 4.6, Leading zero omitted, Abs format (unit mm)*
G04 Created by KiCad (PCBNEW (5.1.9)-1) date 2021-10-04 18:28:26*
%MOMM*%
%LPD*%
G01*
G04 APERTURE LIST*
%TA.AperFunction,NonConductor*%
%ADD10C,0.300000*%
%TD*%
%TA.AperFunction,EtchedComponent*%
%ADD11C,0.381000*%
%TD*%
%TA.AperFunction,ComponentPad*%
%ADD12O,1.905000X2.000000*%
%TD*%
%TA.AperFunction,ComponentPad*%
%ADD13R,1.905000X2.000000*%
%TD*%
%TA.AperFunction,ComponentPad*%
%ADD14C,1.600000*%
%TD*%
%TA.AperFunction,ComponentPad*%
%ADD15R,1.600000X1.600000*%
%TD*%
%TA.AperFunction,SMDPad,CuDef*%
%ADD16R,5.100000X2.350000*%
%TD*%
%TA.AperFunction,SMDPad,CuDef*%
%ADD17R,1.060000X0.650000*%
%TD*%
%TA.AperFunction,ComponentPad*%
%ADD18C,5.715000*%
%TD*%
%TA.AperFunction,SMDPad,CuDef*%
%ADD19R,1.500000X2.000000*%
%TD*%
%TA.AperFunction,SMDPad,CuDef*%
%ADD20R,3.800000X2.000000*%
%TD*%
%TA.AperFunction,SMDPad,CuDef*%
%ADD21R,1.900000X0.800000*%
%TD*%
%TA.AperFunction,SMDPad,CuDef*%
%ADD22R,14.000000X3.000000*%
%TD*%
%TA.AperFunction,ComponentPad*%
%ADD23O,1.700000X1.700000*%
%TD*%
%TA.AperFunction,ComponentPad*%
%ADD24R,1.700000X1.700000*%
%TD*%
%TA.AperFunction,ComponentPad*%
%ADD25C,1.700000*%
%TD*%
%TA.AperFunction,ComponentPad*%
%ADD26C,4.000000*%
%TD*%
%TA.AperFunction,SMDPad,CuDef*%
%ADD27R,4.500000X3.300000*%
%TD*%
%TA.AperFunction,ComponentPad*%
%ADD28C,2.400000*%
%TD*%
%TA.AperFunction,ComponentPad*%
%ADD29R,2.400000X2.400000*%
%TD*%
%TA.AperFunction,ViaPad*%
%ADD30C,0.762000*%
%TD*%
%TA.AperFunction,ViaPad*%
%ADD31C,1.016000*%
%TD*%
%TA.AperFunction,Conductor*%
%ADD32C,0.254000*%
%TD*%
%TA.AperFunction,Conductor*%
%ADD33C,1.016000*%
%TD*%
%TA.AperFunction,Conductor*%
%ADD34C,0.762000*%
%TD*%
%TA.AperFunction,Conductor*%
%ADD35C,0.508000*%
%TD*%
%TA.AperFunction,Conductor*%
%ADD36C,0.250000*%
%TD*%
%TA.AperFunction,Conductor*%
%ADD37C,0.100000*%
%TD*%
G04 APERTURE END LIST*
D10*
X91107571Y-104564571D02*
X91107571Y-103064571D01*
X91107571Y-103778857D02*
X91964714Y-103778857D01*
X91964714Y-104564571D02*
X91964714Y-103064571D01*
X92679000Y-104564571D02*
X92679000Y-103064571D01*
X94179000Y-103136000D02*
X94036142Y-103064571D01*
X93821857Y-103064571D01*
X93607571Y-103136000D01*
X93464714Y-103278857D01*
X93393285Y-103421714D01*
X93321857Y-103707428D01*
X93321857Y-103921714D01*
X93393285Y-104207428D01*
X93464714Y-104350285D01*
X93607571Y-104493142D01*
X93821857Y-104564571D01*
X93964714Y-104564571D01*
X94179000Y-104493142D01*
X94250428Y-104421714D01*
X94250428Y-103921714D01*
X93964714Y-103921714D01*
X94893285Y-104564571D02*
X94893285Y-103064571D01*
X94893285Y-103778857D02*
X95750428Y-103778857D01*
X95750428Y-104564571D02*
X95750428Y-103064571D01*
X97393285Y-103064571D02*
X97893285Y-104564571D01*
X98393285Y-103064571D01*
X99179000Y-103064571D02*
X99464714Y-103064571D01*
X99607571Y-103136000D01*
X99750428Y-103278857D01*
X99821857Y-103564571D01*
X99821857Y-104064571D01*
X99750428Y-104350285D01*
X99607571Y-104493142D01*
X99464714Y-104564571D01*
X99179000Y-104564571D01*
X99036142Y-104493142D01*
X98893285Y-104350285D01*
X98821857Y-104064571D01*
X98821857Y-103564571D01*
X98893285Y-103278857D01*
X99036142Y-103136000D01*
X99179000Y-103064571D01*
X101179000Y-104564571D02*
X100464714Y-104564571D01*
X100464714Y-103064571D01*
X101464714Y-103064571D02*
X102321857Y-103064571D01*
X101893285Y-104564571D02*
X101893285Y-103064571D01*
X102750428Y-104136000D02*
X103464714Y-104136000D01*
X102607571Y-104564571D02*
X103107571Y-103064571D01*
X103607571Y-104564571D01*
X104893285Y-103136000D02*
X104750428Y-103064571D01*
X104536142Y-103064571D01*
X104321857Y-103136000D01*
X104179000Y-103278857D01*
X104107571Y-103421714D01*
X104036142Y-103707428D01*
X104036142Y-103921714D01*
X104107571Y-104207428D01*
X104179000Y-104350285D01*
X104321857Y-104493142D01*
X104536142Y-104564571D01*
X104679000Y-104564571D01*
X104893285Y-104493142D01*
X104964714Y-104421714D01*
X104964714Y-103921714D01*
X104679000Y-103921714D01*
X105607571Y-103778857D02*
X106107571Y-103778857D01*
X106321857Y-104564571D02*
X105607571Y-104564571D01*
X105607571Y-103064571D01*
X106321857Y-103064571D01*
D11*
%TO.C,REF\u002A\u002A*%
X88900000Y-100965000D02*
X87503000Y-102870000D01*
X87503000Y-102870000D02*
X88773000Y-102870000D01*
X87249000Y-104775000D02*
X87122000Y-105791000D01*
X87122000Y-105791000D02*
X87884000Y-105156000D01*
X87884000Y-105156000D02*
X87376000Y-105410000D01*
X87376000Y-105410000D02*
X89154000Y-102616000D01*
X89154000Y-102616000D02*
X87884000Y-102616000D01*
X87884000Y-102616000D02*
X89662000Y-100584000D01*
X89662000Y-100584000D02*
X88900000Y-101092000D01*
X88900000Y-101092000D02*
X88773000Y-100584000D01*
X88646000Y-100711000D02*
X87122000Y-102997000D01*
X87122000Y-102997000D02*
X88519000Y-102997000D01*
X88519000Y-102997000D02*
X87376000Y-105283000D01*
X87376000Y-105283000D02*
X87249000Y-104775000D01*
X110236000Y-101092000D02*
X108839000Y-102997000D01*
X108839000Y-102997000D02*
X110109000Y-102997000D01*
X108585000Y-104902000D02*
X108458000Y-105918000D01*
X108458000Y-105918000D02*
X109220000Y-105283000D01*
X109220000Y-105283000D02*
X108712000Y-105537000D01*
X108712000Y-105537000D02*
X110490000Y-102743000D01*
X110490000Y-102743000D02*
X109220000Y-102743000D01*
X109220000Y-102743000D02*
X110998000Y-100711000D01*
X110998000Y-100711000D02*
X110236000Y-101219000D01*
X110236000Y-101219000D02*
X110109000Y-100711000D01*
X109982000Y-100838000D02*
X108458000Y-103124000D01*
X108458000Y-103124000D02*
X109855000Y-103124000D01*
X109855000Y-103124000D02*
X108712000Y-105410000D01*
X108712000Y-105410000D02*
X108585000Y-104902000D01*
%TD*%
D12*
%TO.P,Q2,3*%
%TO.N,Net-(C17-Pad1)*%
X65405000Y-74549000D03*
%TO.P,Q2,2*%
%TO.N,Net-(D1-Pad2)*%
X67945000Y-74549000D03*
D13*
%TO.P,Q2,1*%
%TO.N,Net-(Q2-Pad1)*%
X70485000Y-74549000D03*
%TD*%
D14*
%TO.P,C22,2*%
%TO.N,GND*%
X87884000Y-123658000D03*
D15*
%TO.P,C22,1*%
%TO.N,+12V*%
X87884000Y-121158000D03*
%TD*%
D16*
%TO.P,L2,2*%
%TO.N,Net-(C18-Pad2)*%
X92710000Y-117010000D03*
%TO.P,L2,1*%
%TO.N,+5V*%
X92710000Y-112860000D03*
%TD*%
%TO.P,C18,2*%
%TO.N,Net-(C18-Pad2)*%
%TA.AperFunction,SMDPad,CuDef*%
G36*
G01*
X99880000Y-112555000D02*
X99880000Y-113505000D01*
G75*
G02*
X99630000Y-113755000I-250000J0D01*
G01*
X98955000Y-113755000D01*
G75*
G02*
X98705000Y-113505000I0J250000D01*
G01*
X98705000Y-112555000D01*
G75*
G02*
X98955000Y-112305000I250000J0D01*
G01*
X99630000Y-112305000D01*
G75*
G02*
X99880000Y-112555000I0J-250000D01*
G01*
G37*
%TD.AperFunction*%
%TO.P,C18,1*%
%TO.N,Net-(C18-Pad1)*%
%TA.AperFunction,SMDPad,CuDef*%
G36*
G01*
X101955000Y-112555000D02*
X101955000Y-113505000D01*
G75*
G02*
X101705000Y-113755000I-250000J0D01*
G01*
X101030000Y-113755000D01*
G75*
G02*
X100780000Y-113505000I0J250000D01*
G01*
X100780000Y-112555000D01*
G75*
G02*
X101030000Y-112305000I250000J0D01*
G01*
X101705000Y-112305000D01*
G75*
G02*
X101955000Y-112555000I0J-250000D01*
G01*
G37*
%TD.AperFunction*%
%TD*%
%TO.P,R6,2*%
%TO.N,GND*%
%TA.AperFunction,SMDPad,CuDef*%
G36*
G01*
X140150001Y-115805000D02*
X139249999Y-115805000D01*
G75*
G02*
X139000000Y-115555001I0J249999D01*
G01*
X139000000Y-114854999D01*
G75*
G02*
X139249999Y-114605000I249999J0D01*
G01*
X140150001Y-114605000D01*
G75*
G02*
X140400000Y-114854999I0J-249999D01*
G01*
X140400000Y-115555001D01*
G75*
G02*
X140150001Y-115805000I-249999J0D01*
G01*
G37*
%TD.AperFunction*%
%TO.P,R6,1*%
%TO.N,/0.625V*%
%TA.AperFunction,SMDPad,CuDef*%
G36*
G01*
X140150001Y-117805000D02*
X139249999Y-117805000D01*
G75*
G02*
X139000000Y-117555001I0J249999D01*
G01*
X139000000Y-116854999D01*
G75*
G02*
X139249999Y-116605000I249999J0D01*
G01*
X140150001Y-116605000D01*
G75*
G02*
X140400000Y-116854999I0J-249999D01*
G01*
X140400000Y-117555001D01*
G75*
G02*
X140150001Y-117805000I-249999J0D01*
G01*
G37*
%TD.AperFunction*%
%TD*%
%TO.P,R2,2*%
%TO.N,/0.625V*%
%TA.AperFunction,SMDPad,CuDef*%
G36*
G01*
X140150001Y-119885000D02*
X139249999Y-119885000D01*
G75*
G02*
X139000000Y-119635001I0J249999D01*
G01*
X139000000Y-118934999D01*
G75*
G02*
X139249999Y-118685000I249999J0D01*
G01*
X140150001Y-118685000D01*
G75*
G02*
X140400000Y-118934999I0J-249999D01*
G01*
X140400000Y-119635001D01*
G75*
G02*
X140150001Y-119885000I-249999J0D01*
G01*
G37*
%TD.AperFunction*%
%TO.P,R2,1*%
%TO.N,+5V*%
%TA.AperFunction,SMDPad,CuDef*%
G36*
G01*
X140150001Y-121885000D02*
X139249999Y-121885000D01*
G75*
G02*
X139000000Y-121635001I0J249999D01*
G01*
X139000000Y-120934999D01*
G75*
G02*
X139249999Y-120685000I249999J0D01*
G01*
X140150001Y-120685000D01*
G75*
G02*
X140400000Y-120934999I0J-249999D01*
G01*
X140400000Y-121635001D01*
G75*
G02*
X140150001Y-121885000I-249999J0D01*
G01*
G37*
%TD.AperFunction*%
%TD*%
D17*
%TO.P,U3,5*%
%TO.N,+12V*%
X101430000Y-116840000D03*
%TO.P,U3,6*%
%TO.N,Net-(C18-Pad1)*%
X101430000Y-115890000D03*
%TO.P,U3,4*%
%TO.N,Net-(C23-Pad2)*%
X101430000Y-117790000D03*
%TO.P,U3,3*%
%TO.N,+12V*%
X99230000Y-117790000D03*
%TO.P,U3,2*%
%TO.N,Net-(C18-Pad2)*%
X99230000Y-116840000D03*
%TO.P,U3,1*%
%TO.N,GND*%
X99230000Y-115890000D03*
%TD*%
%TO.P,C13,2*%
%TO.N,GND*%
%TA.AperFunction,SMDPad,CuDef*%
G36*
G01*
X87540002Y-54230000D02*
X82639998Y-54230000D01*
G75*
G02*
X82390000Y-53980002I0J249998D01*
G01*
X82390000Y-52504998D01*
G75*
G02*
X82639998Y-52255000I249998J0D01*
G01*
X87540002Y-52255000D01*
G75*
G02*
X87790000Y-52504998I0J-249998D01*
G01*
X87790000Y-53980002D01*
G75*
G02*
X87540002Y-54230000I-249998J0D01*
G01*
G37*
%TD.AperFunction*%
%TO.P,C13,1*%
%TO.N,150V*%
%TA.AperFunction,SMDPad,CuDef*%
G36*
G01*
X87540002Y-59505000D02*
X82639998Y-59505000D01*
G75*
G02*
X82390000Y-59255002I0J249998D01*
G01*
X82390000Y-57779998D01*
G75*
G02*
X82639998Y-57530000I249998J0D01*
G01*
X87540002Y-57530000D01*
G75*
G02*
X87790000Y-57779998I0J-249998D01*
G01*
X87790000Y-59255002D01*
G75*
G02*
X87540002Y-59505000I-249998J0D01*
G01*
G37*
%TD.AperFunction*%
%TD*%
%TO.P,C12,2*%
%TO.N,GND*%
%TA.AperFunction,SMDPad,CuDef*%
G36*
G01*
X80555002Y-54230000D02*
X75654998Y-54230000D01*
G75*
G02*
X75405000Y-53980002I0J249998D01*
G01*
X75405000Y-52504998D01*
G75*
G02*
X75654998Y-52255000I249998J0D01*
G01*
X80555002Y-52255000D01*
G75*
G02*
X80805000Y-52504998I0J-249998D01*
G01*
X80805000Y-53980002D01*
G75*
G02*
X80555002Y-54230000I-249998J0D01*
G01*
G37*
%TD.AperFunction*%
%TO.P,C12,1*%
%TO.N,150V*%
%TA.AperFunction,SMDPad,CuDef*%
G36*
G01*
X80555002Y-59505000D02*
X75654998Y-59505000D01*
G75*
G02*
X75405000Y-59255002I0J249998D01*
G01*
X75405000Y-57779998D01*
G75*
G02*
X75654998Y-57530000I249998J0D01*
G01*
X80555002Y-57530000D01*
G75*
G02*
X80805000Y-57779998I0J-249998D01*
G01*
X80805000Y-59255002D01*
G75*
G02*
X80555002Y-59505000I-249998J0D01*
G01*
G37*
%TD.AperFunction*%
%TD*%
%TO.P,C11,2*%
%TO.N,GND*%
%TA.AperFunction,SMDPad,CuDef*%
G36*
G01*
X73570002Y-54230000D02*
X68669998Y-54230000D01*
G75*
G02*
X68420000Y-53980002I0J249998D01*
G01*
X68420000Y-52504998D01*
G75*
G02*
X68669998Y-52255000I249998J0D01*
G01*
X73570002Y-52255000D01*
G75*
G02*
X73820000Y-52504998I0J-249998D01*
G01*
X73820000Y-53980002D01*
G75*
G02*
X73570002Y-54230000I-249998J0D01*
G01*
G37*
%TD.AperFunction*%
%TO.P,C11,1*%
%TO.N,150V*%
%TA.AperFunction,SMDPad,CuDef*%
G36*
G01*
X73570002Y-59505000D02*
X68669998Y-59505000D01*
G75*
G02*
X68420000Y-59255002I0J249998D01*
G01*
X68420000Y-57779998D01*
G75*
G02*
X68669998Y-57530000I249998J0D01*
G01*
X73570002Y-57530000D01*
G75*
G02*
X73820000Y-57779998I0J-249998D01*
G01*
X73820000Y-59255002D01*
G75*
G02*
X73570002Y-59505000I-249998J0D01*
G01*
G37*
%TD.AperFunction*%
%TD*%
%TO.P,C10,2*%
%TO.N,GND*%
%TA.AperFunction,SMDPad,CuDef*%
G36*
G01*
X66585002Y-54230000D02*
X61684998Y-54230000D01*
G75*
G02*
X61435000Y-53980002I0J249998D01*
G01*
X61435000Y-52504998D01*
G75*
G02*
X61684998Y-52255000I249998J0D01*
G01*
X66585002Y-52255000D01*
G75*
G02*
X66835000Y-52504998I0J-249998D01*
G01*
X66835000Y-53980002D01*
G75*
G02*
X66585002Y-54230000I-249998J0D01*
G01*
G37*
%TD.AperFunction*%
%TO.P,C10,1*%
%TO.N,150V*%
%TA.AperFunction,SMDPad,CuDef*%
G36*
G01*
X66585002Y-59505000D02*
X61684998Y-59505000D01*
G75*
G02*
X61435000Y-59255002I0J249998D01*
G01*
X61435000Y-57779998D01*
G75*
G02*
X61684998Y-57530000I249998J0D01*
G01*
X66585002Y-57530000D01*
G75*
G02*
X66835000Y-57779998I0J-249998D01*
G01*
X66835000Y-59255002D01*
G75*
G02*
X66585002Y-59505000I-249998J0D01*
G01*
G37*
%TD.AperFunction*%
%TD*%
D18*
%TO.P,REF\u002A\u002A,1*%
%TO.N,N/C*%
X172720000Y-121920000D03*
%TD*%
%TO.P,REF\u002A\u002A,1*%
%TO.N,N/C*%
X172720000Y-55880000D03*
%TD*%
%TO.P,REF\u002A\u002A,1*%
%TO.N,N/C*%
X55880000Y-121920000D03*
%TD*%
%TO.P,REF\u002A\u002A,1*%
%TO.N,N/C*%
X55880000Y-55880000D03*
%TD*%
%TO.P,U1,8*%
%TO.N,+5V*%
%TA.AperFunction,SMDPad,CuDef*%
G36*
G01*
X146455000Y-121135000D02*
X146455000Y-121435000D01*
G75*
G02*
X146305000Y-121585000I-150000J0D01*
G01*
X144655000Y-121585000D01*
G75*
G02*
X144505000Y-121435000I0J150000D01*
G01*
X144505000Y-121135000D01*
G75*
G02*
X144655000Y-120985000I150000J0D01*
G01*
X146305000Y-120985000D01*
G75*
G02*
X146455000Y-121135000I0J-150000D01*
G01*
G37*
%TD.AperFunction*%
%TO.P,U1,7*%
%TO.N,/ADC_in*%
%TA.AperFunction,SMDPad,CuDef*%
G36*
G01*
X146455000Y-119865000D02*
X146455000Y-120165000D01*
G75*
G02*
X146305000Y-120315000I-150000J0D01*
G01*
X144655000Y-120315000D01*
G75*
G02*
X144505000Y-120165000I0J150000D01*
G01*
X144505000Y-119865000D01*
G75*
G02*
X144655000Y-119715000I150000J0D01*
G01*
X146305000Y-119715000D01*
G75*
G02*
X146455000Y-119865000I0J-150000D01*
G01*
G37*
%TD.AperFunction*%
%TO.P,U1,6*%
%TO.N,Net-(R1-Pad2)*%
%TA.AperFunction,SMDPad,CuDef*%
G36*
G01*
X146455000Y-118595000D02*
X146455000Y-118895000D01*
G75*
G02*
X146305000Y-119045000I-150000J0D01*
G01*
X144655000Y-119045000D01*
G75*
G02*
X144505000Y-118895000I0J150000D01*
G01*
X144505000Y-118595000D01*
G75*
G02*
X144655000Y-118445000I150000J0D01*
G01*
X146305000Y-118445000D01*
G75*
G02*
X146455000Y-118595000I0J-150000D01*
G01*
G37*
%TD.AperFunction*%
%TO.P,U1,5*%
%TO.N,/0.625V*%
%TA.AperFunction,SMDPad,CuDef*%
G36*
G01*
X146455000Y-117325000D02*
X146455000Y-117625000D01*
G75*
G02*
X146305000Y-117775000I-150000J0D01*
G01*
X144655000Y-117775000D01*
G75*
G02*
X144505000Y-117625000I0J150000D01*
G01*
X144505000Y-117325000D01*
G75*
G02*
X144655000Y-117175000I150000J0D01*
G01*
X146305000Y-117175000D01*
G75*
G02*
X146455000Y-117325000I0J-150000D01*
G01*
G37*
%TD.AperFunction*%
%TO.P,U1,4*%
%TO.N,GND*%
%TA.AperFunction,SMDPad,CuDef*%
G36*
G01*
X151405000Y-117325000D02*
X151405000Y-117625000D01*
G75*
G02*
X151255000Y-117775000I-150000J0D01*
G01*
X149605000Y-117775000D01*
G75*
G02*
X149455000Y-117625000I0J150000D01*
G01*
X149455000Y-117325000D01*
G75*
G02*
X149605000Y-117175000I150000J0D01*
G01*
X151255000Y-117175000D01*
G75*
G02*
X151405000Y-117325000I0J-150000D01*
G01*
G37*
%TD.AperFunction*%
%TO.P,U1,3*%
%TO.N,Net-(C2-Pad1)*%
%TA.AperFunction,SMDPad,CuDef*%
G36*
G01*
X151405000Y-118595000D02*
X151405000Y-118895000D01*
G75*
G02*
X151255000Y-119045000I-150000J0D01*
G01*
X149605000Y-119045000D01*
G75*
G02*
X149455000Y-118895000I0J150000D01*
G01*
X149455000Y-118595000D01*
G75*
G02*
X149605000Y-118445000I150000J0D01*
G01*
X151255000Y-118445000D01*
G75*
G02*
X151405000Y-118595000I0J-150000D01*
G01*
G37*
%TD.AperFunction*%
%TO.P,U1,2*%
%TO.N,Net-(C1-Pad2)*%
%TA.AperFunction,SMDPad,CuDef*%
G36*
G01*
X151405000Y-119865000D02*
X151405000Y-120165000D01*
G75*
G02*
X151255000Y-120315000I-150000J0D01*
G01*
X149605000Y-120315000D01*
G75*
G02*
X149455000Y-120165000I0J150000D01*
G01*
X149455000Y-119865000D01*
G75*
G02*
X149605000Y-119715000I150000J0D01*
G01*
X151255000Y-119715000D01*
G75*
G02*
X151405000Y-119865000I0J-150000D01*
G01*
G37*
%TD.AperFunction*%
%TO.P,U1,1*%
%TA.AperFunction,SMDPad,CuDef*%
G36*
G01*
X151405000Y-121135000D02*
X151405000Y-121435000D01*
G75*
G02*
X151255000Y-121585000I-150000J0D01*
G01*
X149605000Y-121585000D01*
G75*
G02*
X149455000Y-121435000I0J150000D01*
G01*
X149455000Y-121135000D01*
G75*
G02*
X149605000Y-120985000I150000J0D01*
G01*
X151255000Y-120985000D01*
G75*
G02*
X151405000Y-121135000I0J-150000D01*
G01*
G37*
%TD.AperFunction*%
%TD*%
%TO.P,R38,2*%
%TO.N,GND*%
%TA.AperFunction,SMDPad,CuDef*%
G36*
G01*
X169729999Y-89030000D02*
X170630001Y-89030000D01*
G75*
G02*
X170880000Y-89279999I0J-249999D01*
G01*
X170880000Y-89980001D01*
G75*
G02*
X170630001Y-90230000I-249999J0D01*
G01*
X169729999Y-90230000D01*
G75*
G02*
X169480000Y-89980001I0J249999D01*
G01*
X169480000Y-89279999D01*
G75*
G02*
X169729999Y-89030000I249999J0D01*
G01*
G37*
%TD.AperFunction*%
%TO.P,R38,1*%
%TO.N,Net-(Q13-Pad3)*%
%TA.AperFunction,SMDPad,CuDef*%
G36*
G01*
X169729999Y-87030000D02*
X170630001Y-87030000D01*
G75*
G02*
X170880000Y-87279999I0J-249999D01*
G01*
X170880000Y-87980001D01*
G75*
G02*
X170630001Y-88230000I-249999J0D01*
G01*
X169729999Y-88230000D01*
G75*
G02*
X169480000Y-87980001I0J249999D01*
G01*
X169480000Y-87279999D01*
G75*
G02*
X169729999Y-87030000I249999J0D01*
G01*
G37*
%TD.AperFunction*%
%TD*%
%TO.P,R37,2*%
%TO.N,GND*%
%TA.AperFunction,SMDPad,CuDef*%
G36*
G01*
X159823999Y-73282000D02*
X160724001Y-73282000D01*
G75*
G02*
X160974000Y-73531999I0J-249999D01*
G01*
X160974000Y-74232001D01*
G75*
G02*
X160724001Y-74482000I-249999J0D01*
G01*
X159823999Y-74482000D01*
G75*
G02*
X159574000Y-74232001I0J249999D01*
G01*
X159574000Y-73531999D01*
G75*
G02*
X159823999Y-73282000I249999J0D01*
G01*
G37*
%TD.AperFunction*%
%TO.P,R37,1*%
%TO.N,Net-(Q12-Pad3)*%
%TA.AperFunction,SMDPad,CuDef*%
G36*
G01*
X159823999Y-71282000D02*
X160724001Y-71282000D01*
G75*
G02*
X160974000Y-71531999I0J-249999D01*
G01*
X160974000Y-72232001D01*
G75*
G02*
X160724001Y-72482000I-249999J0D01*
G01*
X159823999Y-72482000D01*
G75*
G02*
X159574000Y-72232001I0J249999D01*
G01*
X159574000Y-71531999D01*
G75*
G02*
X159823999Y-71282000I249999J0D01*
G01*
G37*
%TD.AperFunction*%
%TD*%
%TO.P,R36,2*%
%TO.N,GND*%
%TA.AperFunction,SMDPad,CuDef*%
G36*
G01*
X159569999Y-89030000D02*
X160470001Y-89030000D01*
G75*
G02*
X160720000Y-89279999I0J-249999D01*
G01*
X160720000Y-89980001D01*
G75*
G02*
X160470001Y-90230000I-249999J0D01*
G01*
X159569999Y-90230000D01*
G75*
G02*
X159320000Y-89980001I0J249999D01*
G01*
X159320000Y-89279999D01*
G75*
G02*
X159569999Y-89030000I249999J0D01*
G01*
G37*
%TD.AperFunction*%
%TO.P,R36,1*%
%TO.N,Net-(Q11-Pad3)*%
%TA.AperFunction,SMDPad,CuDef*%
G36*
G01*
X159569999Y-87030000D02*
X160470001Y-87030000D01*
G75*
G02*
X160720000Y-87279999I0J-249999D01*
G01*
X160720000Y-87980001D01*
G75*
G02*
X160470001Y-88230000I-249999J0D01*
G01*
X159569999Y-88230000D01*
G75*
G02*
X159320000Y-87980001I0J249999D01*
G01*
X159320000Y-87279999D01*
G75*
G02*
X159569999Y-87030000I249999J0D01*
G01*
G37*
%TD.AperFunction*%
%TD*%
%TO.P,R35,2*%
%TO.N,GND*%
%TA.AperFunction,SMDPad,CuDef*%
G36*
G01*
X149409999Y-73425000D02*
X150310001Y-73425000D01*
G75*
G02*
X150560000Y-73674999I0J-249999D01*
G01*
X150560000Y-74375001D01*
G75*
G02*
X150310001Y-74625000I-249999J0D01*
G01*
X149409999Y-74625000D01*
G75*
G02*
X149160000Y-74375001I0J249999D01*
G01*
X149160000Y-73674999D01*
G75*
G02*
X149409999Y-73425000I249999J0D01*
G01*
G37*
%TD.AperFunction*%
%TO.P,R35,1*%
%TO.N,Net-(Q10-Pad3)*%
%TA.AperFunction,SMDPad,CuDef*%
G36*
G01*
X149409999Y-71425000D02*
X150310001Y-71425000D01*
G75*
G02*
X150560000Y-71674999I0J-249999D01*
G01*
X150560000Y-72375001D01*
G75*
G02*
X150310001Y-72625000I-249999J0D01*
G01*
X149409999Y-72625000D01*
G75*
G02*
X149160000Y-72375001I0J249999D01*
G01*
X149160000Y-71674999D01*
G75*
G02*
X149409999Y-71425000I249999J0D01*
G01*
G37*
%TD.AperFunction*%
%TD*%
%TO.P,R34,2*%
%TO.N,GND*%
%TA.AperFunction,SMDPad,CuDef*%
G36*
G01*
X149409999Y-89030000D02*
X150310001Y-89030000D01*
G75*
G02*
X150560000Y-89279999I0J-249999D01*
G01*
X150560000Y-89980001D01*
G75*
G02*
X150310001Y-90230000I-249999J0D01*
G01*
X149409999Y-90230000D01*
G75*
G02*
X149160000Y-89980001I0J249999D01*
G01*
X149160000Y-89279999D01*
G75*
G02*
X149409999Y-89030000I249999J0D01*
G01*
G37*
%TD.AperFunction*%
%TO.P,R34,1*%
%TO.N,Net-(Q9-Pad3)*%
%TA.AperFunction,SMDPad,CuDef*%
G36*
G01*
X149409999Y-87030000D02*
X150310001Y-87030000D01*
G75*
G02*
X150560000Y-87279999I0J-249999D01*
G01*
X150560000Y-87980001D01*
G75*
G02*
X150310001Y-88230000I-249999J0D01*
G01*
X149409999Y-88230000D01*
G75*
G02*
X149160000Y-87980001I0J249999D01*
G01*
X149160000Y-87279999D01*
G75*
G02*
X149409999Y-87030000I249999J0D01*
G01*
G37*
%TD.AperFunction*%
%TD*%
%TO.P,R33,2*%
%TO.N,/PWM_10*%
%TA.AperFunction,SMDPad,CuDef*%
G36*
G01*
X166500000Y-90620001D02*
X166500000Y-89719999D01*
G75*
G02*
X166749999Y-89470000I249999J0D01*
G01*
X167450001Y-89470000D01*
G75*
G02*
X167700000Y-89719999I0J-249999D01*
G01*
X167700000Y-90620001D01*
G75*
G02*
X167450001Y-90870000I-249999J0D01*
G01*
X166749999Y-90870000D01*
G75*
G02*
X166500000Y-90620001I0J249999D01*
G01*
G37*
%TD.AperFunction*%
%TO.P,R33,1*%
%TO.N,Net-(C36-Pad1)*%
%TA.AperFunction,SMDPad,CuDef*%
G36*
G01*
X164500000Y-90620001D02*
X164500000Y-89719999D01*
G75*
G02*
X164749999Y-89470000I249999J0D01*
G01*
X165450001Y-89470000D01*
G75*
G02*
X165700000Y-89719999I0J-249999D01*
G01*
X165700000Y-90620001D01*
G75*
G02*
X165450001Y-90870000I-249999J0D01*
G01*
X164749999Y-90870000D01*
G75*
G02*
X164500000Y-90620001I0J249999D01*
G01*
G37*
%TD.AperFunction*%
%TD*%
%TO.P,R32,2*%
%TO.N,/PWM_9*%
%TA.AperFunction,SMDPad,CuDef*%
G36*
G01*
X156610000Y-74745001D02*
X156610000Y-73844999D01*
G75*
G02*
X156859999Y-73595000I249999J0D01*
G01*
X157560001Y-73595000D01*
G75*
G02*
X157810000Y-73844999I0J-249999D01*
G01*
X157810000Y-74745001D01*
G75*
G02*
X157560001Y-74995000I-249999J0D01*
G01*
X156859999Y-74995000D01*
G75*
G02*
X156610000Y-74745001I0J249999D01*
G01*
G37*
%TD.AperFunction*%
%TO.P,R32,1*%
%TO.N,Net-(C35-Pad1)*%
%TA.AperFunction,SMDPad,CuDef*%
G36*
G01*
X154610000Y-74745001D02*
X154610000Y-73844999D01*
G75*
G02*
X154859999Y-73595000I249999J0D01*
G01*
X155560001Y-73595000D01*
G75*
G02*
X155810000Y-73844999I0J-249999D01*
G01*
X155810000Y-74745001D01*
G75*
G02*
X155560001Y-74995000I-249999J0D01*
G01*
X154859999Y-74995000D01*
G75*
G02*
X154610000Y-74745001I0J249999D01*
G01*
G37*
%TD.AperFunction*%
%TD*%
%TO.P,R31,2*%
%TO.N,/PWM_8*%
%TA.AperFunction,SMDPad,CuDef*%
G36*
G01*
X156610000Y-90620001D02*
X156610000Y-89719999D01*
G75*
G02*
X156859999Y-89470000I249999J0D01*
G01*
X157560001Y-89470000D01*
G75*
G02*
X157810000Y-89719999I0J-249999D01*
G01*
X157810000Y-90620001D01*
G75*
G02*
X157560001Y-90870000I-249999J0D01*
G01*
X156859999Y-90870000D01*
G75*
G02*
X156610000Y-90620001I0J249999D01*
G01*
G37*
%TD.AperFunction*%
%TO.P,R31,1*%
%TO.N,Net-(C34-Pad1)*%
%TA.AperFunction,SMDPad,CuDef*%
G36*
G01*
X154610000Y-90620001D02*
X154610000Y-89719999D01*
G75*
G02*
X154859999Y-89470000I249999J0D01*
G01*
X155560001Y-89470000D01*
G75*
G02*
X155810000Y-89719999I0J-249999D01*
G01*
X155810000Y-90620001D01*
G75*
G02*
X155560001Y-90870000I-249999J0D01*
G01*
X154859999Y-90870000D01*
G75*
G02*
X154610000Y-90620001I0J249999D01*
G01*
G37*
%TD.AperFunction*%
%TD*%
%TO.P,R30,2*%
%TO.N,/PWM_7*%
%TA.AperFunction,SMDPad,CuDef*%
G36*
G01*
X146450000Y-74745001D02*
X146450000Y-73844999D01*
G75*
G02*
X146699999Y-73595000I249999J0D01*
G01*
X147400001Y-73595000D01*
G75*
G02*
X147650000Y-73844999I0J-249999D01*
G01*
X147650000Y-74745001D01*
G75*
G02*
X147400001Y-74995000I-249999J0D01*
G01*
X146699999Y-74995000D01*
G75*
G02*
X146450000Y-74745001I0J249999D01*
G01*
G37*
%TD.AperFunction*%
%TO.P,R30,1*%
%TO.N,Net-(C33-Pad1)*%
%TA.AperFunction,SMDPad,CuDef*%
G36*
G01*
X144450000Y-74745001D02*
X144450000Y-73844999D01*
G75*
G02*
X144699999Y-73595000I249999J0D01*
G01*
X145400001Y-73595000D01*
G75*
G02*
X145650000Y-73844999I0J-249999D01*
G01*
X145650000Y-74745001D01*
G75*
G02*
X145400001Y-74995000I-249999J0D01*
G01*
X144699999Y-74995000D01*
G75*
G02*
X144450000Y-74745001I0J249999D01*
G01*
G37*
%TD.AperFunction*%
%TD*%
%TO.P,R29,2*%
%TO.N,/PWM_6*%
%TA.AperFunction,SMDPad,CuDef*%
G36*
G01*
X146450000Y-90620001D02*
X146450000Y-89719999D01*
G75*
G02*
X146699999Y-89470000I249999J0D01*
G01*
X147400001Y-89470000D01*
G75*
G02*
X147650000Y-89719999I0J-249999D01*
G01*
X147650000Y-90620001D01*
G75*
G02*
X147400001Y-90870000I-249999J0D01*
G01*
X146699999Y-90870000D01*
G75*
G02*
X146450000Y-90620001I0J249999D01*
G01*
G37*
%TD.AperFunction*%
%TO.P,R29,1*%
%TO.N,Net-(C32-Pad1)*%
%TA.AperFunction,SMDPad,CuDef*%
G36*
G01*
X144450000Y-90620001D02*
X144450000Y-89719999D01*
G75*
G02*
X144699999Y-89470000I249999J0D01*
G01*
X145400001Y-89470000D01*
G75*
G02*
X145650000Y-89719999I0J-249999D01*
G01*
X145650000Y-90620001D01*
G75*
G02*
X145400001Y-90870000I-249999J0D01*
G01*
X144699999Y-90870000D01*
G75*
G02*
X144450000Y-90620001I0J249999D01*
G01*
G37*
%TD.AperFunction*%
%TD*%
%TO.P,R28,2*%
%TO.N,GND*%
%TA.AperFunction,SMDPad,CuDef*%
G36*
G01*
X139249999Y-73155000D02*
X140150001Y-73155000D01*
G75*
G02*
X140400000Y-73404999I0J-249999D01*
G01*
X140400000Y-74105001D01*
G75*
G02*
X140150001Y-74355000I-249999J0D01*
G01*
X139249999Y-74355000D01*
G75*
G02*
X139000000Y-74105001I0J249999D01*
G01*
X139000000Y-73404999D01*
G75*
G02*
X139249999Y-73155000I249999J0D01*
G01*
G37*
%TD.AperFunction*%
%TO.P,R28,1*%
%TO.N,Net-(Q8-Pad3)*%
%TA.AperFunction,SMDPad,CuDef*%
G36*
G01*
X139249999Y-71155000D02*
X140150001Y-71155000D01*
G75*
G02*
X140400000Y-71404999I0J-249999D01*
G01*
X140400000Y-72105001D01*
G75*
G02*
X140150001Y-72355000I-249999J0D01*
G01*
X139249999Y-72355000D01*
G75*
G02*
X139000000Y-72105001I0J249999D01*
G01*
X139000000Y-71404999D01*
G75*
G02*
X139249999Y-71155000I249999J0D01*
G01*
G37*
%TD.AperFunction*%
%TD*%
%TO.P,R27,2*%
%TO.N,GND*%
%TA.AperFunction,SMDPad,CuDef*%
G36*
G01*
X139249999Y-89030000D02*
X140150001Y-89030000D01*
G75*
G02*
X140400000Y-89279999I0J-249999D01*
G01*
X140400000Y-89980001D01*
G75*
G02*
X140150001Y-90230000I-249999J0D01*
G01*
X139249999Y-90230000D01*
G75*
G02*
X139000000Y-89980001I0J249999D01*
G01*
X139000000Y-89279999D01*
G75*
G02*
X139249999Y-89030000I249999J0D01*
G01*
G37*
%TD.AperFunction*%
%TO.P,R27,1*%
%TO.N,Net-(Q7-Pad3)*%
%TA.AperFunction,SMDPad,CuDef*%
G36*
G01*
X139249999Y-87030000D02*
X140150001Y-87030000D01*
G75*
G02*
X140400000Y-87279999I0J-249999D01*
G01*
X140400000Y-87980001D01*
G75*
G02*
X140150001Y-88230000I-249999J0D01*
G01*
X139249999Y-88230000D01*
G75*
G02*
X139000000Y-87980001I0J249999D01*
G01*
X139000000Y-87279999D01*
G75*
G02*
X139249999Y-87030000I249999J0D01*
G01*
G37*
%TD.AperFunction*%
%TD*%
%TO.P,R26,2*%
%TO.N,GND*%
%TA.AperFunction,SMDPad,CuDef*%
G36*
G01*
X129089999Y-73155000D02*
X129990001Y-73155000D01*
G75*
G02*
X130240000Y-73404999I0J-249999D01*
G01*
X130240000Y-74105001D01*
G75*
G02*
X129990001Y-74355000I-249999J0D01*
G01*
X129089999Y-74355000D01*
G75*
G02*
X128840000Y-74105001I0J249999D01*
G01*
X128840000Y-73404999D01*
G75*
G02*
X129089999Y-73155000I249999J0D01*
G01*
G37*
%TD.AperFunction*%
%TO.P,R26,1*%
%TO.N,Net-(Q6-Pad3)*%
%TA.AperFunction,SMDPad,CuDef*%
G36*
G01*
X129089999Y-71155000D02*
X129990001Y-71155000D01*
G75*
G02*
X130240000Y-71404999I0J-249999D01*
G01*
X130240000Y-72105001D01*
G75*
G02*
X129990001Y-72355000I-249999J0D01*
G01*
X129089999Y-72355000D01*
G75*
G02*
X128840000Y-72105001I0J249999D01*
G01*
X128840000Y-71404999D01*
G75*
G02*
X129089999Y-71155000I249999J0D01*
G01*
G37*
%TD.AperFunction*%
%TD*%
%TO.P,R25,2*%
%TO.N,GND*%
%TA.AperFunction,SMDPad,CuDef*%
G36*
G01*
X129089999Y-89030000D02*
X129990001Y-89030000D01*
G75*
G02*
X130240000Y-89279999I0J-249999D01*
G01*
X130240000Y-89980001D01*
G75*
G02*
X129990001Y-90230000I-249999J0D01*
G01*
X129089999Y-90230000D01*
G75*
G02*
X128840000Y-89980001I0J249999D01*
G01*
X128840000Y-89279999D01*
G75*
G02*
X129089999Y-89030000I249999J0D01*
G01*
G37*
%TD.AperFunction*%
%TO.P,R25,1*%
%TO.N,Net-(Q5-Pad3)*%
%TA.AperFunction,SMDPad,CuDef*%
G36*
G01*
X129089999Y-87030000D02*
X129990001Y-87030000D01*
G75*
G02*
X130240000Y-87279999I0J-249999D01*
G01*
X130240000Y-87980001D01*
G75*
G02*
X129990001Y-88230000I-249999J0D01*
G01*
X129089999Y-88230000D01*
G75*
G02*
X128840000Y-87980001I0J249999D01*
G01*
X128840000Y-87279999D01*
G75*
G02*
X129089999Y-87030000I249999J0D01*
G01*
G37*
%TD.AperFunction*%
%TD*%
%TO.P,R24,2*%
%TO.N,GND*%
%TA.AperFunction,SMDPad,CuDef*%
G36*
G01*
X118929999Y-73060000D02*
X119830001Y-73060000D01*
G75*
G02*
X120080000Y-73309999I0J-249999D01*
G01*
X120080000Y-74010001D01*
G75*
G02*
X119830001Y-74260000I-249999J0D01*
G01*
X118929999Y-74260000D01*
G75*
G02*
X118680000Y-74010001I0J249999D01*
G01*
X118680000Y-73309999D01*
G75*
G02*
X118929999Y-73060000I249999J0D01*
G01*
G37*
%TD.AperFunction*%
%TO.P,R24,1*%
%TO.N,Net-(Q4-Pad3)*%
%TA.AperFunction,SMDPad,CuDef*%
G36*
G01*
X118929999Y-71060000D02*
X119830001Y-71060000D01*
G75*
G02*
X120080000Y-71309999I0J-249999D01*
G01*
X120080000Y-72010001D01*
G75*
G02*
X119830001Y-72260000I-249999J0D01*
G01*
X118929999Y-72260000D01*
G75*
G02*
X118680000Y-72010001I0J249999D01*
G01*
X118680000Y-71309999D01*
G75*
G02*
X118929999Y-71060000I249999J0D01*
G01*
G37*
%TD.AperFunction*%
%TD*%
%TO.P,R23,2*%
%TO.N,GND*%
%TA.AperFunction,SMDPad,CuDef*%
G36*
G01*
X118929999Y-88935000D02*
X119830001Y-88935000D01*
G75*
G02*
X120080000Y-89184999I0J-249999D01*
G01*
X120080000Y-89885001D01*
G75*
G02*
X119830001Y-90135000I-249999J0D01*
G01*
X118929999Y-90135000D01*
G75*
G02*
X118680000Y-89885001I0J249999D01*
G01*
X118680000Y-89184999D01*
G75*
G02*
X118929999Y-88935000I249999J0D01*
G01*
G37*
%TD.AperFunction*%
%TO.P,R23,1*%
%TO.N,Net-(Q3-Pad3)*%
%TA.AperFunction,SMDPad,CuDef*%
G36*
G01*
X118929999Y-86935000D02*
X119830001Y-86935000D01*
G75*
G02*
X120080000Y-87184999I0J-249999D01*
G01*
X120080000Y-87885001D01*
G75*
G02*
X119830001Y-88135000I-249999J0D01*
G01*
X118929999Y-88135000D01*
G75*
G02*
X118680000Y-87885001I0J249999D01*
G01*
X118680000Y-87184999D01*
G75*
G02*
X118929999Y-86935000I249999J0D01*
G01*
G37*
%TD.AperFunction*%
%TD*%
%TO.P,R22,2*%
%TO.N,/PWM_5*%
%TA.AperFunction,SMDPad,CuDef*%
G36*
G01*
X136290000Y-74745001D02*
X136290000Y-73844999D01*
G75*
G02*
X136539999Y-73595000I249999J0D01*
G01*
X137240001Y-73595000D01*
G75*
G02*
X137490000Y-73844999I0J-249999D01*
G01*
X137490000Y-74745001D01*
G75*
G02*
X137240001Y-74995000I-249999J0D01*
G01*
X136539999Y-74995000D01*
G75*
G02*
X136290000Y-74745001I0J249999D01*
G01*
G37*
%TD.AperFunction*%
%TO.P,R22,1*%
%TO.N,Net-(C31-Pad1)*%
%TA.AperFunction,SMDPad,CuDef*%
G36*
G01*
X134290000Y-74745001D02*
X134290000Y-73844999D01*
G75*
G02*
X134539999Y-73595000I249999J0D01*
G01*
X135240001Y-73595000D01*
G75*
G02*
X135490000Y-73844999I0J-249999D01*
G01*
X135490000Y-74745001D01*
G75*
G02*
X135240001Y-74995000I-249999J0D01*
G01*
X134539999Y-74995000D01*
G75*
G02*
X134290000Y-74745001I0J249999D01*
G01*
G37*
%TD.AperFunction*%
%TD*%
%TO.P,R21,2*%
%TO.N,/PWM_4*%
%TA.AperFunction,SMDPad,CuDef*%
G36*
G01*
X136290000Y-90620001D02*
X136290000Y-89719999D01*
G75*
G02*
X136539999Y-89470000I249999J0D01*
G01*
X137240001Y-89470000D01*
G75*
G02*
X137490000Y-89719999I0J-249999D01*
G01*
X137490000Y-90620001D01*
G75*
G02*
X137240001Y-90870000I-249999J0D01*
G01*
X136539999Y-90870000D01*
G75*
G02*
X136290000Y-90620001I0J249999D01*
G01*
G37*
%TD.AperFunction*%
%TO.P,R21,1*%
%TO.N,Net-(C30-Pad1)*%
%TA.AperFunction,SMDPad,CuDef*%
G36*
G01*
X134290000Y-90620001D02*
X134290000Y-89719999D01*
G75*
G02*
X134539999Y-89470000I249999J0D01*
G01*
X135240001Y-89470000D01*
G75*
G02*
X135490000Y-89719999I0J-249999D01*
G01*
X135490000Y-90620001D01*
G75*
G02*
X135240001Y-90870000I-249999J0D01*
G01*
X134539999Y-90870000D01*
G75*
G02*
X134290000Y-90620001I0J249999D01*
G01*
G37*
%TD.AperFunction*%
%TD*%
%TO.P,R20,2*%
%TO.N,/PWM_3*%
%TA.AperFunction,SMDPad,CuDef*%
G36*
G01*
X126130000Y-74745001D02*
X126130000Y-73844999D01*
G75*
G02*
X126379999Y-73595000I249999J0D01*
G01*
X127080001Y-73595000D01*
G75*
G02*
X127330000Y-73844999I0J-249999D01*
G01*
X127330000Y-74745001D01*
G75*
G02*
X127080001Y-74995000I-249999J0D01*
G01*
X126379999Y-74995000D01*
G75*
G02*
X126130000Y-74745001I0J249999D01*
G01*
G37*
%TD.AperFunction*%
%TO.P,R20,1*%
%TO.N,Net-(C29-Pad1)*%
%TA.AperFunction,SMDPad,CuDef*%
G36*
G01*
X124130000Y-74745001D02*
X124130000Y-73844999D01*
G75*
G02*
X124379999Y-73595000I249999J0D01*
G01*
X125080001Y-73595000D01*
G75*
G02*
X125330000Y-73844999I0J-249999D01*
G01*
X125330000Y-74745001D01*
G75*
G02*
X125080001Y-74995000I-249999J0D01*
G01*
X124379999Y-74995000D01*
G75*
G02*
X124130000Y-74745001I0J249999D01*
G01*
G37*
%TD.AperFunction*%
%TD*%
%TO.P,R19,2*%
%TO.N,/PWM_2*%
%TA.AperFunction,SMDPad,CuDef*%
G36*
G01*
X126130000Y-90620001D02*
X126130000Y-89719999D01*
G75*
G02*
X126379999Y-89470000I249999J0D01*
G01*
X127080001Y-89470000D01*
G75*
G02*
X127330000Y-89719999I0J-249999D01*
G01*
X127330000Y-90620001D01*
G75*
G02*
X127080001Y-90870000I-249999J0D01*
G01*
X126379999Y-90870000D01*
G75*
G02*
X126130000Y-90620001I0J249999D01*
G01*
G37*
%TD.AperFunction*%
%TO.P,R19,1*%
%TO.N,Net-(C28-Pad1)*%
%TA.AperFunction,SMDPad,CuDef*%
G36*
G01*
X124130000Y-90620001D02*
X124130000Y-89719999D01*
G75*
G02*
X124379999Y-89470000I249999J0D01*
G01*
X125080001Y-89470000D01*
G75*
G02*
X125330000Y-89719999I0J-249999D01*
G01*
X125330000Y-90620001D01*
G75*
G02*
X125080001Y-90870000I-249999J0D01*
G01*
X124379999Y-90870000D01*
G75*
G02*
X124130000Y-90620001I0J249999D01*
G01*
G37*
%TD.AperFunction*%
%TD*%
%TO.P,R18,2*%
%TO.N,/PWM_1*%
%TA.AperFunction,SMDPad,CuDef*%
G36*
G01*
X115970000Y-74745001D02*
X115970000Y-73844999D01*
G75*
G02*
X116219999Y-73595000I249999J0D01*
G01*
X116920001Y-73595000D01*
G75*
G02*
X117170000Y-73844999I0J-249999D01*
G01*
X117170000Y-74745001D01*
G75*
G02*
X116920001Y-74995000I-249999J0D01*
G01*
X116219999Y-74995000D01*
G75*
G02*
X115970000Y-74745001I0J249999D01*
G01*
G37*
%TD.AperFunction*%
%TO.P,R18,1*%
%TO.N,Net-(C27-Pad1)*%
%TA.AperFunction,SMDPad,CuDef*%
G36*
G01*
X113970000Y-74745001D02*
X113970000Y-73844999D01*
G75*
G02*
X114219999Y-73595000I249999J0D01*
G01*
X114920001Y-73595000D01*
G75*
G02*
X115170000Y-73844999I0J-249999D01*
G01*
X115170000Y-74745001D01*
G75*
G02*
X114920001Y-74995000I-249999J0D01*
G01*
X114219999Y-74995000D01*
G75*
G02*
X113970000Y-74745001I0J249999D01*
G01*
G37*
%TD.AperFunction*%
%TD*%
%TO.P,R17,2*%
%TO.N,/PWM_0*%
%TA.AperFunction,SMDPad,CuDef*%
G36*
G01*
X115970000Y-90620001D02*
X115970000Y-89719999D01*
G75*
G02*
X116219999Y-89470000I249999J0D01*
G01*
X116920001Y-89470000D01*
G75*
G02*
X117170000Y-89719999I0J-249999D01*
G01*
X117170000Y-90620001D01*
G75*
G02*
X116920001Y-90870000I-249999J0D01*
G01*
X116219999Y-90870000D01*
G75*
G02*
X115970000Y-90620001I0J249999D01*
G01*
G37*
%TD.AperFunction*%
%TO.P,R17,1*%
%TO.N,Net-(C26-Pad1)*%
%TA.AperFunction,SMDPad,CuDef*%
G36*
G01*
X113970000Y-90620001D02*
X113970000Y-89719999D01*
G75*
G02*
X114219999Y-89470000I249999J0D01*
G01*
X114920001Y-89470000D01*
G75*
G02*
X115170000Y-89719999I0J-249999D01*
G01*
X115170000Y-90620001D01*
G75*
G02*
X114920001Y-90870000I-249999J0D01*
G01*
X114219999Y-90870000D01*
G75*
G02*
X113970000Y-90620001I0J249999D01*
G01*
G37*
%TD.AperFunction*%
%TD*%
%TO.P,R16,2*%
%TO.N,GND*%
%TA.AperFunction,SMDPad,CuDef*%
G36*
G01*
X104590001Y-116440000D02*
X103689999Y-116440000D01*
G75*
G02*
X103440000Y-116190001I0J249999D01*
G01*
X103440000Y-115489999D01*
G75*
G02*
X103689999Y-115240000I249999J0D01*
G01*
X104590001Y-115240000D01*
G75*
G02*
X104840000Y-115489999I0J-249999D01*
G01*
X104840000Y-116190001D01*
G75*
G02*
X104590001Y-116440000I-249999J0D01*
G01*
G37*
%TD.AperFunction*%
%TO.P,R16,1*%
%TO.N,Net-(C23-Pad2)*%
%TA.AperFunction,SMDPad,CuDef*%
G36*
G01*
X104590001Y-118440000D02*
X103689999Y-118440000D01*
G75*
G02*
X103440000Y-118190001I0J249999D01*
G01*
X103440000Y-117489999D01*
G75*
G02*
X103689999Y-117240000I249999J0D01*
G01*
X104590001Y-117240000D01*
G75*
G02*
X104840000Y-117489999I0J-249999D01*
G01*
X104840000Y-118190001D01*
G75*
G02*
X104590001Y-118440000I-249999J0D01*
G01*
G37*
%TD.AperFunction*%
%TD*%
%TO.P,R15,2*%
%TO.N,Net-(C23-Pad2)*%
%TA.AperFunction,SMDPad,CuDef*%
G36*
G01*
X108769999Y-117240000D02*
X109670001Y-117240000D01*
G75*
G02*
X109920000Y-117489999I0J-249999D01*
G01*
X109920000Y-118190001D01*
G75*
G02*
X109670001Y-118440000I-249999J0D01*
G01*
X108769999Y-118440000D01*
G75*
G02*
X108520000Y-118190001I0J249999D01*
G01*
X108520000Y-117489999D01*
G75*
G02*
X108769999Y-117240000I249999J0D01*
G01*
G37*
%TD.AperFunction*%
%TO.P,R15,1*%
%TO.N,+5V*%
%TA.AperFunction,SMDPad,CuDef*%
G36*
G01*
X108769999Y-115240000D02*
X109670001Y-115240000D01*
G75*
G02*
X109920000Y-115489999I0J-249999D01*
G01*
X109920000Y-116190001D01*
G75*
G02*
X109670001Y-116440000I-249999J0D01*
G01*
X108769999Y-116440000D01*
G75*
G02*
X108520000Y-116190001I0J249999D01*
G01*
X108520000Y-115489999D01*
G75*
G02*
X108769999Y-115240000I249999J0D01*
G01*
G37*
%TD.AperFunction*%
%TD*%
%TO.P,R9,2*%
%TO.N,GND*%
%TA.AperFunction,SMDPad,CuDef*%
G36*
G01*
X82861999Y-63519000D02*
X83762001Y-63519000D01*
G75*
G02*
X84012000Y-63768999I0J-249999D01*
G01*
X84012000Y-64469001D01*
G75*
G02*
X83762001Y-64719000I-249999J0D01*
G01*
X82861999Y-64719000D01*
G75*
G02*
X82612000Y-64469001I0J249999D01*
G01*
X82612000Y-63768999D01*
G75*
G02*
X82861999Y-63519000I249999J0D01*
G01*
G37*
%TD.AperFunction*%
%TO.P,R9,1*%
%TO.N,150V*%
%TA.AperFunction,SMDPad,CuDef*%
G36*
G01*
X82861999Y-61519000D02*
X83762001Y-61519000D01*
G75*
G02*
X84012000Y-61768999I0J-249999D01*
G01*
X84012000Y-62469001D01*
G75*
G02*
X83762001Y-62719000I-249999J0D01*
G01*
X82861999Y-62719000D01*
G75*
G02*
X82612000Y-62469001I0J249999D01*
G01*
X82612000Y-61768999D01*
G75*
G02*
X82861999Y-61519000I249999J0D01*
G01*
G37*
%TD.AperFunction*%
%TD*%
%TO.P,R5,2*%
%TO.N,/MIC_out*%
%TA.AperFunction,SMDPad,CuDef*%
G36*
G01*
X155705000Y-119195001D02*
X155705000Y-118294999D01*
G75*
G02*
X155954999Y-118045000I249999J0D01*
G01*
X156655001Y-118045000D01*
G75*
G02*
X156905000Y-118294999I0J-249999D01*
G01*
X156905000Y-119195001D01*
G75*
G02*
X156655001Y-119445000I-249999J0D01*
G01*
X155954999Y-119445000D01*
G75*
G02*
X155705000Y-119195001I0J249999D01*
G01*
G37*
%TD.AperFunction*%
%TO.P,R5,1*%
%TO.N,Net-(C2-Pad1)*%
%TA.AperFunction,SMDPad,CuDef*%
G36*
G01*
X153705000Y-119195001D02*
X153705000Y-118294999D01*
G75*
G02*
X153954999Y-118045000I249999J0D01*
G01*
X154655001Y-118045000D01*
G75*
G02*
X154905000Y-118294999I0J-249999D01*
G01*
X154905000Y-119195001D01*
G75*
G02*
X154655001Y-119445000I-249999J0D01*
G01*
X153954999Y-119445000D01*
G75*
G02*
X153705000Y-119195001I0J249999D01*
G01*
G37*
%TD.AperFunction*%
%TD*%
%TO.P,R4,2*%
%TO.N,Net-(C1-Pad1)*%
%TA.AperFunction,SMDPad,CuDef*%
G36*
G01*
X147085000Y-124275001D02*
X147085000Y-123374999D01*
G75*
G02*
X147334999Y-123125000I249999J0D01*
G01*
X148035001Y-123125000D01*
G75*
G02*
X148285000Y-123374999I0J-249999D01*
G01*
X148285000Y-124275001D01*
G75*
G02*
X148035001Y-124525000I-249999J0D01*
G01*
X147334999Y-124525000D01*
G75*
G02*
X147085000Y-124275001I0J249999D01*
G01*
G37*
%TD.AperFunction*%
%TO.P,R4,1*%
%TO.N,Net-(R1-Pad2)*%
%TA.AperFunction,SMDPad,CuDef*%
G36*
G01*
X145085000Y-124275001D02*
X145085000Y-123374999D01*
G75*
G02*
X145334999Y-123125000I249999J0D01*
G01*
X146035001Y-123125000D01*
G75*
G02*
X146285000Y-123374999I0J-249999D01*
G01*
X146285000Y-124275001D01*
G75*
G02*
X146035001Y-124525000I-249999J0D01*
G01*
X145334999Y-124525000D01*
G75*
G02*
X145085000Y-124275001I0J249999D01*
G01*
G37*
%TD.AperFunction*%
%TD*%
%TO.P,R3,2*%
%TO.N,Net-(Q1-Pad3)*%
%TA.AperFunction,SMDPad,CuDef*%
G36*
G01*
X123374999Y-122320000D02*
X124275001Y-122320000D01*
G75*
G02*
X124525000Y-122569999I0J-249999D01*
G01*
X124525000Y-123270001D01*
G75*
G02*
X124275001Y-123520000I-249999J0D01*
G01*
X123374999Y-123520000D01*
G75*
G02*
X123125000Y-123270001I0J249999D01*
G01*
X123125000Y-122569999D01*
G75*
G02*
X123374999Y-122320000I249999J0D01*
G01*
G37*
%TD.AperFunction*%
%TO.P,R3,1*%
%TO.N,Net-(J2-Pad2)*%
%TA.AperFunction,SMDPad,CuDef*%
G36*
G01*
X123374999Y-120320000D02*
X124275001Y-120320000D01*
G75*
G02*
X124525000Y-120569999I0J-249999D01*
G01*
X124525000Y-121270001D01*
G75*
G02*
X124275001Y-121520000I-249999J0D01*
G01*
X123374999Y-121520000D01*
G75*
G02*
X123125000Y-121270001I0J249999D01*
G01*
X123125000Y-120569999D01*
G75*
G02*
X123374999Y-120320000I249999J0D01*
G01*
G37*
%TD.AperFunction*%
%TD*%
D19*
%TO.P,Q13,1*%
%TO.N,Net-(C36-Pad1)*%
X165340000Y-84430000D03*
%TO.P,Q13,3*%
%TO.N,Net-(Q13-Pad3)*%
X169940000Y-84430000D03*
%TO.P,Q13,2*%
%TO.N,Net-(J4-Pad12)*%
X167640000Y-84430000D03*
D20*
X167640000Y-78130000D03*
%TD*%
D19*
%TO.P,Q12,1*%
%TO.N,Net-(C35-Pad1)*%
X155180000Y-68555000D03*
%TO.P,Q12,3*%
%TO.N,Net-(Q12-Pad3)*%
X159780000Y-68555000D03*
%TO.P,Q12,2*%
%TO.N,Net-(J4-Pad11)*%
X157480000Y-68555000D03*
D20*
X157480000Y-62255000D03*
%TD*%
D19*
%TO.P,Q11,1*%
%TO.N,Net-(C34-Pad1)*%
X155180000Y-84430000D03*
%TO.P,Q11,3*%
%TO.N,Net-(Q11-Pad3)*%
X159780000Y-84430000D03*
%TO.P,Q11,2*%
%TO.N,Net-(J4-Pad10)*%
X157480000Y-84430000D03*
D20*
X157480000Y-78130000D03*
%TD*%
D19*
%TO.P,Q10,1*%
%TO.N,Net-(C33-Pad1)*%
X145020000Y-68555000D03*
%TO.P,Q10,3*%
%TO.N,Net-(Q10-Pad3)*%
X149620000Y-68555000D03*
%TO.P,Q10,2*%
%TO.N,Net-(J4-Pad9)*%
X147320000Y-68555000D03*
D20*
X147320000Y-62255000D03*
%TD*%
D19*
%TO.P,Q9,1*%
%TO.N,Net-(C32-Pad1)*%
X145020000Y-84430000D03*
%TO.P,Q9,3*%
%TO.N,Net-(Q9-Pad3)*%
X149620000Y-84430000D03*
%TO.P,Q9,2*%
%TO.N,Net-(J4-Pad8)*%
X147320000Y-84430000D03*
D20*
X147320000Y-78130000D03*
%TD*%
D19*
%TO.P,Q8,1*%
%TO.N,Net-(C31-Pad1)*%
X134860000Y-68555000D03*
%TO.P,Q8,3*%
%TO.N,Net-(Q8-Pad3)*%
X139460000Y-68555000D03*
%TO.P,Q8,2*%
%TO.N,Net-(J4-Pad7)*%
X137160000Y-68555000D03*
D20*
X137160000Y-62255000D03*
%TD*%
D19*
%TO.P,Q7,1*%
%TO.N,Net-(C30-Pad1)*%
X134860000Y-84430000D03*
%TO.P,Q7,3*%
%TO.N,Net-(Q7-Pad3)*%
X139460000Y-84430000D03*
%TO.P,Q7,2*%
%TO.N,Net-(J4-Pad6)*%
X137160000Y-84430000D03*
D20*
X137160000Y-78130000D03*
%TD*%
D19*
%TO.P,Q6,1*%
%TO.N,Net-(C29-Pad1)*%
X124700000Y-68555000D03*
%TO.P,Q6,3*%
%TO.N,Net-(Q6-Pad3)*%
X129300000Y-68555000D03*
%TO.P,Q6,2*%
%TO.N,Net-(J4-Pad5)*%
X127000000Y-68555000D03*
D20*
X127000000Y-62255000D03*
%TD*%
D19*
%TO.P,Q5,1*%
%TO.N,Net-(C28-Pad1)*%
X124700000Y-84430000D03*
%TO.P,Q5,3*%
%TO.N,Net-(Q5-Pad3)*%
X129300000Y-84430000D03*
%TO.P,Q5,2*%
%TO.N,Net-(J4-Pad4)*%
X127000000Y-84430000D03*
D20*
X127000000Y-78130000D03*
%TD*%
D19*
%TO.P,Q4,1*%
%TO.N,Net-(C27-Pad1)*%
X114540000Y-68555000D03*
%TO.P,Q4,3*%
%TO.N,Net-(Q4-Pad3)*%
X119140000Y-68555000D03*
%TO.P,Q4,2*%
%TO.N,Net-(J4-Pad3)*%
X116840000Y-68555000D03*
D20*
X116840000Y-62255000D03*
%TD*%
D19*
%TO.P,Q3,1*%
%TO.N,Net-(C26-Pad1)*%
X114540000Y-84430000D03*
%TO.P,Q3,3*%
%TO.N,Net-(Q3-Pad3)*%
X119140000Y-84430000D03*
%TO.P,Q3,2*%
%TO.N,Net-(J4-Pad2)*%
X116840000Y-84430000D03*
D20*
X116840000Y-78130000D03*
%TD*%
D21*
%TO.P,Q1,3*%
%TO.N,Net-(Q1-Pad3)*%
X127405000Y-121920000D03*
%TO.P,Q1,2*%
%TO.N,GND*%
X130405000Y-120970000D03*
%TO.P,Q1,1*%
%TO.N,/pwr_led*%
X130405000Y-122870000D03*
%TD*%
D22*
%TO.P,L1,2*%
%TO.N,+12V*%
X66675000Y-104380000D03*
%TO.P,L1,1*%
%TO.N,Net-(D1-Pad2)*%
X66675000Y-83580000D03*
%TD*%
D23*
%TO.P,J4,12*%
%TO.N,Net-(J4-Pad12)*%
X127635000Y-53975000D03*
%TO.P,J4,11*%
%TO.N,Net-(J4-Pad11)*%
X127635000Y-56515000D03*
%TO.P,J4,10*%
%TO.N,Net-(J4-Pad10)*%
X125095000Y-53975000D03*
%TO.P,J4,9*%
%TO.N,Net-(J4-Pad9)*%
X125095000Y-56515000D03*
%TO.P,J4,8*%
%TO.N,Net-(J4-Pad8)*%
X122555000Y-53975000D03*
%TO.P,J4,7*%
%TO.N,Net-(J4-Pad7)*%
X122555000Y-56515000D03*
%TO.P,J4,6*%
%TO.N,Net-(J4-Pad6)*%
X120015000Y-53975000D03*
%TO.P,J4,5*%
%TO.N,Net-(J4-Pad5)*%
X120015000Y-56515000D03*
%TO.P,J4,4*%
%TO.N,Net-(J4-Pad4)*%
X117475000Y-53975000D03*
%TO.P,J4,3*%
%TO.N,Net-(J4-Pad3)*%
X117475000Y-56515000D03*
%TO.P,J4,2*%
%TO.N,Net-(J4-Pad2)*%
X114935000Y-53975000D03*
D24*
%TO.P,J4,1*%
%TO.N,150V*%
X114935000Y-56515000D03*
%TD*%
D25*
%TO.P,J3,2*%
%TO.N,/MIC_out*%
X163195000Y-121920000D03*
D24*
%TO.P,J3,1*%
%TO.N,+5V*%
X160655000Y-121920000D03*
D25*
%TO.P,J3,3*%
%TO.N,GND*%
X165735000Y-121920000D03*
%TD*%
%TO.P,J2,2*%
%TO.N,Net-(J2-Pad2)*%
X118745000Y-121920000D03*
D24*
%TO.P,J2,1*%
%TO.N,+5V*%
X116205000Y-121920000D03*
%TD*%
D23*
%TO.P,MCU1,42*%
%TO.N,Net-(MCU1-Pad42)*%
X158750000Y-110490000D03*
%TO.P,MCU1,41*%
%TO.N,Net-(MCU1-Pad41)*%
X156210000Y-110490000D03*
D25*
%TO.P,MCU1,48*%
%TO.N,+5V*%
X173990000Y-110490000D03*
D23*
%TO.P,MCU1,45*%
%TO.N,Net-(MCU1-Pad45)*%
X166370000Y-110490000D03*
%TO.P,MCU1,47*%
%TO.N,GND*%
X171450000Y-110490000D03*
%TO.P,MCU1,44*%
%TO.N,Net-(MCU1-Pad44)*%
X163830000Y-110490000D03*
%TO.P,MCU1,46*%
%TO.N,Net-(MCU1-Pad46)*%
X168910000Y-110490000D03*
%TO.P,MCU1,43*%
%TO.N,Net-(MCU1-Pad43)*%
X161290000Y-110490000D03*
%TO.P,MCU1,40*%
%TO.N,Net-(MCU1-Pad40)*%
X153670000Y-110490000D03*
%TO.P,MCU1,39*%
%TO.N,Net-(MCU1-Pad39)*%
X151130000Y-110490000D03*
%TO.P,MCU1,38*%
%TO.N,/ADC_in*%
X148590000Y-110490000D03*
%TO.P,MCU1,37*%
%TO.N,Net-(MCU1-Pad37)*%
X146050000Y-110490000D03*
%TO.P,MCU1,36*%
%TO.N,Net-(MCU1-Pad36)*%
X143510000Y-110490000D03*
%TO.P,MCU1,35*%
%TO.N,/pwr_led*%
X140970000Y-110490000D03*
%TO.P,MCU1,29*%
%TO.N,Net-(MCU1-Pad29)*%
X125730000Y-110490000D03*
%TO.P,MCU1,32*%
%TO.N,Net-(MCU1-Pad32)*%
X133350000Y-110490000D03*
%TO.P,MCU1,33*%
%TO.N,Net-(MCU1-Pad33)*%
X135890000Y-110490000D03*
%TO.P,MCU1,34*%
%TO.N,GND*%
X138430000Y-110490000D03*
%TO.P,MCU1,26*%
%TO.N,Net-(MCU1-Pad26)*%
X118110000Y-110490000D03*
%TO.P,MCU1,31*%
%TO.N,Net-(MCU1-Pad31)*%
X130810000Y-110490000D03*
%TO.P,MCU1,28*%
%TO.N,Net-(MCU1-Pad28)*%
X123190000Y-110490000D03*
%TO.P,MCU1,30*%
%TO.N,Net-(MCU1-Pad30)*%
X128270000Y-110490000D03*
%TO.P,MCU1,27*%
%TO.N,Net-(MCU1-Pad27)*%
X120650000Y-110490000D03*
%TO.P,MCU1,25*%
%TO.N,Net-(MCU1-Pad25)*%
X115570000Y-110490000D03*
%TO.P,MCU1,24*%
%TO.N,Net-(MCU1-Pad24)*%
X115570000Y-95250000D03*
%TO.P,MCU1,23*%
%TO.N,Net-(MCU1-Pad23)*%
X118110000Y-95250000D03*
%TO.P,MCU1,22*%
%TO.N,/PWM_0*%
X120650000Y-95250000D03*
%TO.P,MCU1,21*%
%TO.N,/PWM_1*%
X123190000Y-95250000D03*
%TO.P,MCU1,20*%
%TO.N,Net-(MCU1-Pad20)*%
X125730000Y-95250000D03*
%TO.P,MCU1,19*%
%TO.N,Net-(MCU1-Pad19)*%
X128270000Y-95250000D03*
%TO.P,MCU1,18*%
%TO.N,Net-(MCU1-Pad18)*%
X130810000Y-95250000D03*
%TO.P,MCU1,17*%
%TO.N,Net-(MCU1-Pad17)*%
X133350000Y-95250000D03*
%TO.P,MCU1,16*%
%TO.N,Net-(MCU1-Pad16)*%
X135890000Y-95250000D03*
%TO.P,MCU1,15*%
%TO.N,Net-(MCU1-Pad15)*%
X138430000Y-95250000D03*
%TO.P,MCU1,14*%
%TO.N,Net-(MCU1-Pad14)*%
X140970000Y-95250000D03*
%TO.P,MCU1,13*%
%TO.N,Net-(MCU1-Pad13)*%
X143510000Y-95250000D03*
%TO.P,MCU1,12*%
%TO.N,/PWM_2*%
X146050000Y-95250000D03*
%TO.P,MCU1,11*%
%TO.N,/PWM_3*%
X148590000Y-95250000D03*
%TO.P,MCU1,10*%
%TO.N,/PWM_4*%
X151130000Y-95250000D03*
%TO.P,MCU1,9*%
%TO.N,/PWM_5*%
X153670000Y-95250000D03*
%TO.P,MCU1,8*%
%TO.N,/PWM_6*%
X156210000Y-95250000D03*
%TO.P,MCU1,7*%
%TO.N,/PWM_7*%
X158750000Y-95250000D03*
%TO.P,MCU1,6*%
%TO.N,/PWM_8*%
X161290000Y-95250000D03*
%TO.P,MCU1,5*%
%TO.N,/PWM_9*%
X163830000Y-95250000D03*
%TO.P,MCU1,4*%
%TO.N,/PWM_10*%
X166370000Y-95250000D03*
%TO.P,MCU1,3*%
%TO.N,Net-(MCU1-Pad3)*%
X168910000Y-95250000D03*
%TO.P,MCU1,2*%
%TO.N,Net-(MCU1-Pad2)*%
X171450000Y-95250000D03*
D24*
%TO.P,MCU1,1*%
%TO.N,GND*%
X173990000Y-95250000D03*
%TD*%
D25*
%TO.P,J1,2*%
%TO.N,GND*%
X79375000Y-121920000D03*
D24*
%TO.P,J1,1*%
%TO.N,+12V*%
X76835000Y-121920000D03*
%TD*%
D26*
%TO.P,HS1,1*%
%TO.N,N/C*%
X80645000Y-78105000D03*
X55245000Y-78105000D03*
%TD*%
D27*
%TO.P,D1,2*%
%TO.N,Net-(D1-Pad2)*%
X63545000Y-64770000D03*
%TO.P,D1,1*%
%TO.N,150V*%
X72345000Y-64770000D03*
%TD*%
%TO.P,C36,2*%
%TO.N,GND*%
%TA.AperFunction,SMDPad,CuDef*%
G36*
G01*
X166587500Y-88105000D02*
X166587500Y-87155000D01*
G75*
G02*
X166837500Y-86905000I250000J0D01*
G01*
X167512500Y-86905000D01*
G75*
G02*
X167762500Y-87155000I0J-250000D01*
G01*
X167762500Y-88105000D01*
G75*
G02*
X167512500Y-88355000I-250000J0D01*
G01*
X166837500Y-88355000D01*
G75*
G02*
X166587500Y-88105000I0J250000D01*
G01*
G37*
%TD.AperFunction*%
%TO.P,C36,1*%
%TO.N,Net-(C36-Pad1)*%
%TA.AperFunction,SMDPad,CuDef*%
G36*
G01*
X164512500Y-88105000D02*
X164512500Y-87155000D01*
G75*
G02*
X164762500Y-86905000I250000J0D01*
G01*
X165437500Y-86905000D01*
G75*
G02*
X165687500Y-87155000I0J-250000D01*
G01*
X165687500Y-88105000D01*
G75*
G02*
X165437500Y-88355000I-250000J0D01*
G01*
X164762500Y-88355000D01*
G75*
G02*
X164512500Y-88105000I0J250000D01*
G01*
G37*
%TD.AperFunction*%
%TD*%
%TO.P,C35,2*%
%TO.N,GND*%
%TA.AperFunction,SMDPad,CuDef*%
G36*
G01*
X156660000Y-72230000D02*
X156660000Y-71280000D01*
G75*
G02*
X156910000Y-71030000I250000J0D01*
G01*
X157585000Y-71030000D01*
G75*
G02*
X157835000Y-71280000I0J-250000D01*
G01*
X157835000Y-72230000D01*
G75*
G02*
X157585000Y-72480000I-250000J0D01*
G01*
X156910000Y-72480000D01*
G75*
G02*
X156660000Y-72230000I0J250000D01*
G01*
G37*
%TD.AperFunction*%
%TO.P,C35,1*%
%TO.N,Net-(C35-Pad1)*%
%TA.AperFunction,SMDPad,CuDef*%
G36*
G01*
X154585000Y-72230000D02*
X154585000Y-71280000D01*
G75*
G02*
X154835000Y-71030000I250000J0D01*
G01*
X155510000Y-71030000D01*
G75*
G02*
X155760000Y-71280000I0J-250000D01*
G01*
X155760000Y-72230000D01*
G75*
G02*
X155510000Y-72480000I-250000J0D01*
G01*
X154835000Y-72480000D01*
G75*
G02*
X154585000Y-72230000I0J250000D01*
G01*
G37*
%TD.AperFunction*%
%TD*%
%TO.P,C34,2*%
%TO.N,GND*%
%TA.AperFunction,SMDPad,CuDef*%
G36*
G01*
X156660000Y-88105000D02*
X156660000Y-87155000D01*
G75*
G02*
X156910000Y-86905000I250000J0D01*
G01*
X157585000Y-86905000D01*
G75*
G02*
X157835000Y-87155000I0J-250000D01*
G01*
X157835000Y-88105000D01*
G75*
G02*
X157585000Y-88355000I-250000J0D01*
G01*
X156910000Y-88355000D01*
G75*
G02*
X156660000Y-88105000I0J250000D01*
G01*
G37*
%TD.AperFunction*%
%TO.P,C34,1*%
%TO.N,Net-(C34-Pad1)*%
%TA.AperFunction,SMDPad,CuDef*%
G36*
G01*
X154585000Y-88105000D02*
X154585000Y-87155000D01*
G75*
G02*
X154835000Y-86905000I250000J0D01*
G01*
X155510000Y-86905000D01*
G75*
G02*
X155760000Y-87155000I0J-250000D01*
G01*
X155760000Y-88105000D01*
G75*
G02*
X155510000Y-88355000I-250000J0D01*
G01*
X154835000Y-88355000D01*
G75*
G02*
X154585000Y-88105000I0J250000D01*
G01*
G37*
%TD.AperFunction*%
%TD*%
%TO.P,C33,2*%
%TO.N,GND*%
%TA.AperFunction,SMDPad,CuDef*%
G36*
G01*
X146500000Y-72230000D02*
X146500000Y-71280000D01*
G75*
G02*
X146750000Y-71030000I250000J0D01*
G01*
X147425000Y-71030000D01*
G75*
G02*
X147675000Y-71280000I0J-250000D01*
G01*
X147675000Y-72230000D01*
G75*
G02*
X147425000Y-72480000I-250000J0D01*
G01*
X146750000Y-72480000D01*
G75*
G02*
X146500000Y-72230000I0J250000D01*
G01*
G37*
%TD.AperFunction*%
%TO.P,C33,1*%
%TO.N,Net-(C33-Pad1)*%
%TA.AperFunction,SMDPad,CuDef*%
G36*
G01*
X144425000Y-72230000D02*
X144425000Y-71280000D01*
G75*
G02*
X144675000Y-71030000I250000J0D01*
G01*
X145350000Y-71030000D01*
G75*
G02*
X145600000Y-71280000I0J-250000D01*
G01*
X145600000Y-72230000D01*
G75*
G02*
X145350000Y-72480000I-250000J0D01*
G01*
X144675000Y-72480000D01*
G75*
G02*
X144425000Y-72230000I0J250000D01*
G01*
G37*
%TD.AperFunction*%
%TD*%
%TO.P,C32,2*%
%TO.N,GND*%
%TA.AperFunction,SMDPad,CuDef*%
G36*
G01*
X146500000Y-88105000D02*
X146500000Y-87155000D01*
G75*
G02*
X146750000Y-86905000I250000J0D01*
G01*
X147425000Y-86905000D01*
G75*
G02*
X147675000Y-87155000I0J-250000D01*
G01*
X147675000Y-88105000D01*
G75*
G02*
X147425000Y-88355000I-250000J0D01*
G01*
X146750000Y-88355000D01*
G75*
G02*
X146500000Y-88105000I0J250000D01*
G01*
G37*
%TD.AperFunction*%
%TO.P,C32,1*%
%TO.N,Net-(C32-Pad1)*%
%TA.AperFunction,SMDPad,CuDef*%
G36*
G01*
X144425000Y-88105000D02*
X144425000Y-87155000D01*
G75*
G02*
X144675000Y-86905000I250000J0D01*
G01*
X145350000Y-86905000D01*
G75*
G02*
X145600000Y-87155000I0J-250000D01*
G01*
X145600000Y-88105000D01*
G75*
G02*
X145350000Y-88355000I-250000J0D01*
G01*
X144675000Y-88355000D01*
G75*
G02*
X144425000Y-88105000I0J250000D01*
G01*
G37*
%TD.AperFunction*%
%TD*%
%TO.P,C31,2*%
%TO.N,GND*%
%TA.AperFunction,SMDPad,CuDef*%
G36*
G01*
X136340000Y-72230000D02*
X136340000Y-71280000D01*
G75*
G02*
X136590000Y-71030000I250000J0D01*
G01*
X137265000Y-71030000D01*
G75*
G02*
X137515000Y-71280000I0J-250000D01*
G01*
X137515000Y-72230000D01*
G75*
G02*
X137265000Y-72480000I-250000J0D01*
G01*
X136590000Y-72480000D01*
G75*
G02*
X136340000Y-72230000I0J250000D01*
G01*
G37*
%TD.AperFunction*%
%TO.P,C31,1*%
%TO.N,Net-(C31-Pad1)*%
%TA.AperFunction,SMDPad,CuDef*%
G36*
G01*
X134265000Y-72230000D02*
X134265000Y-71280000D01*
G75*
G02*
X134515000Y-71030000I250000J0D01*
G01*
X135190000Y-71030000D01*
G75*
G02*
X135440000Y-71280000I0J-250000D01*
G01*
X135440000Y-72230000D01*
G75*
G02*
X135190000Y-72480000I-250000J0D01*
G01*
X134515000Y-72480000D01*
G75*
G02*
X134265000Y-72230000I0J250000D01*
G01*
G37*
%TD.AperFunction*%
%TD*%
%TO.P,C30,2*%
%TO.N,GND*%
%TA.AperFunction,SMDPad,CuDef*%
G36*
G01*
X136340000Y-88105000D02*
X136340000Y-87155000D01*
G75*
G02*
X136590000Y-86905000I250000J0D01*
G01*
X137265000Y-86905000D01*
G75*
G02*
X137515000Y-87155000I0J-250000D01*
G01*
X137515000Y-88105000D01*
G75*
G02*
X137265000Y-88355000I-250000J0D01*
G01*
X136590000Y-88355000D01*
G75*
G02*
X136340000Y-88105000I0J250000D01*
G01*
G37*
%TD.AperFunction*%
%TO.P,C30,1*%
%TO.N,Net-(C30-Pad1)*%
%TA.AperFunction,SMDPad,CuDef*%
G36*
G01*
X134265000Y-88105000D02*
X134265000Y-87155000D01*
G75*
G02*
X134515000Y-86905000I250000J0D01*
G01*
X135190000Y-86905000D01*
G75*
G02*
X135440000Y-87155000I0J-250000D01*
G01*
X135440000Y-88105000D01*
G75*
G02*
X135190000Y-88355000I-250000J0D01*
G01*
X134515000Y-88355000D01*
G75*
G02*
X134265000Y-88105000I0J250000D01*
G01*
G37*
%TD.AperFunction*%
%TD*%
%TO.P,C29,2*%
%TO.N,GND*%
%TA.AperFunction,SMDPad,CuDef*%
G36*
G01*
X126180000Y-72230000D02*
X126180000Y-71280000D01*
G75*
G02*
X126430000Y-71030000I250000J0D01*
G01*
X127105000Y-71030000D01*
G75*
G02*
X127355000Y-71280000I0J-250000D01*
G01*
X127355000Y-72230000D01*
G75*
G02*
X127105000Y-72480000I-250000J0D01*
G01*
X126430000Y-72480000D01*
G75*
G02*
X126180000Y-72230000I0J250000D01*
G01*
G37*
%TD.AperFunction*%
%TO.P,C29,1*%
%TO.N,Net-(C29-Pad1)*%
%TA.AperFunction,SMDPad,CuDef*%
G36*
G01*
X124105000Y-72230000D02*
X124105000Y-71280000D01*
G75*
G02*
X124355000Y-71030000I250000J0D01*
G01*
X125030000Y-71030000D01*
G75*
G02*
X125280000Y-71280000I0J-250000D01*
G01*
X125280000Y-72230000D01*
G75*
G02*
X125030000Y-72480000I-250000J0D01*
G01*
X124355000Y-72480000D01*
G75*
G02*
X124105000Y-72230000I0J250000D01*
G01*
G37*
%TD.AperFunction*%
%TD*%
%TO.P,C28,2*%
%TO.N,GND*%
%TA.AperFunction,SMDPad,CuDef*%
G36*
G01*
X126180000Y-88105000D02*
X126180000Y-87155000D01*
G75*
G02*
X126430000Y-86905000I250000J0D01*
G01*
X127105000Y-86905000D01*
G75*
G02*
X127355000Y-87155000I0J-250000D01*
G01*
X127355000Y-88105000D01*
G75*
G02*
X127105000Y-88355000I-250000J0D01*
G01*
X126430000Y-88355000D01*
G75*
G02*
X126180000Y-88105000I0J250000D01*
G01*
G37*
%TD.AperFunction*%
%TO.P,C28,1*%
%TO.N,Net-(C28-Pad1)*%
%TA.AperFunction,SMDPad,CuDef*%
G36*
G01*
X124105000Y-88105000D02*
X124105000Y-87155000D01*
G75*
G02*
X124355000Y-86905000I250000J0D01*
G01*
X125030000Y-86905000D01*
G75*
G02*
X125280000Y-87155000I0J-250000D01*
G01*
X125280000Y-88105000D01*
G75*
G02*
X125030000Y-88355000I-250000J0D01*
G01*
X124355000Y-88355000D01*
G75*
G02*
X124105000Y-88105000I0J250000D01*
G01*
G37*
%TD.AperFunction*%
%TD*%
%TO.P,C27,2*%
%TO.N,GND*%
%TA.AperFunction,SMDPad,CuDef*%
G36*
G01*
X116020000Y-72230000D02*
X116020000Y-71280000D01*
G75*
G02*
X116270000Y-71030000I250000J0D01*
G01*
X116945000Y-71030000D01*
G75*
G02*
X117195000Y-71280000I0J-250000D01*
G01*
X117195000Y-72230000D01*
G75*
G02*
X116945000Y-72480000I-250000J0D01*
G01*
X116270000Y-72480000D01*
G75*
G02*
X116020000Y-72230000I0J250000D01*
G01*
G37*
%TD.AperFunction*%
%TO.P,C27,1*%
%TO.N,Net-(C27-Pad1)*%
%TA.AperFunction,SMDPad,CuDef*%
G36*
G01*
X113945000Y-72230000D02*
X113945000Y-71280000D01*
G75*
G02*
X114195000Y-71030000I250000J0D01*
G01*
X114870000Y-71030000D01*
G75*
G02*
X115120000Y-71280000I0J-250000D01*
G01*
X115120000Y-72230000D01*
G75*
G02*
X114870000Y-72480000I-250000J0D01*
G01*
X114195000Y-72480000D01*
G75*
G02*
X113945000Y-72230000I0J250000D01*
G01*
G37*
%TD.AperFunction*%
%TD*%
%TO.P,C26,2*%
%TO.N,GND*%
%TA.AperFunction,SMDPad,CuDef*%
G36*
G01*
X116020000Y-88105000D02*
X116020000Y-87155000D01*
G75*
G02*
X116270000Y-86905000I250000J0D01*
G01*
X116945000Y-86905000D01*
G75*
G02*
X117195000Y-87155000I0J-250000D01*
G01*
X117195000Y-88105000D01*
G75*
G02*
X116945000Y-88355000I-250000J0D01*
G01*
X116270000Y-88355000D01*
G75*
G02*
X116020000Y-88105000I0J250000D01*
G01*
G37*
%TD.AperFunction*%
%TO.P,C26,1*%
%TO.N,Net-(C26-Pad1)*%
%TA.AperFunction,SMDPad,CuDef*%
G36*
G01*
X113945000Y-88105000D02*
X113945000Y-87155000D01*
G75*
G02*
X114195000Y-86905000I250000J0D01*
G01*
X114870000Y-86905000D01*
G75*
G02*
X115120000Y-87155000I0J-250000D01*
G01*
X115120000Y-88105000D01*
G75*
G02*
X114870000Y-88355000I-250000J0D01*
G01*
X114195000Y-88355000D01*
G75*
G02*
X113945000Y-88105000I0J250000D01*
G01*
G37*
%TD.AperFunction*%
%TD*%
%TO.P,C25,2*%
%TO.N,GND*%
%TA.AperFunction,SMDPad,CuDef*%
G36*
G01*
X94645500Y-107944500D02*
X93695500Y-107944500D01*
G75*
G02*
X93445500Y-107694500I0J250000D01*
G01*
X93445500Y-107019500D01*
G75*
G02*
X93695500Y-106769500I250000J0D01*
G01*
X94645500Y-106769500D01*
G75*
G02*
X94895500Y-107019500I0J-250000D01*
G01*
X94895500Y-107694500D01*
G75*
G02*
X94645500Y-107944500I-250000J0D01*
G01*
G37*
%TD.AperFunction*%
%TO.P,C25,1*%
%TO.N,+5V*%
%TA.AperFunction,SMDPad,CuDef*%
G36*
G01*
X94645500Y-110019500D02*
X93695500Y-110019500D01*
G75*
G02*
X93445500Y-109769500I0J250000D01*
G01*
X93445500Y-109094500D01*
G75*
G02*
X93695500Y-108844500I250000J0D01*
G01*
X94645500Y-108844500D01*
G75*
G02*
X94895500Y-109094500I0J-250000D01*
G01*
X94895500Y-109769500D01*
G75*
G02*
X94645500Y-110019500I-250000J0D01*
G01*
G37*
%TD.AperFunction*%
%TD*%
%TO.P,C24,2*%
%TO.N,GND*%
%TA.AperFunction,SMDPad,CuDef*%
G36*
G01*
X92105500Y-107944500D02*
X91155500Y-107944500D01*
G75*
G02*
X90905500Y-107694500I0J250000D01*
G01*
X90905500Y-107019500D01*
G75*
G02*
X91155500Y-106769500I250000J0D01*
G01*
X92105500Y-106769500D01*
G75*
G02*
X92355500Y-107019500I0J-250000D01*
G01*
X92355500Y-107694500D01*
G75*
G02*
X92105500Y-107944500I-250000J0D01*
G01*
G37*
%TD.AperFunction*%
%TO.P,C24,1*%
%TO.N,+5V*%
%TA.AperFunction,SMDPad,CuDef*%
G36*
G01*
X92105500Y-110019500D02*
X91155500Y-110019500D01*
G75*
G02*
X90905500Y-109769500I0J250000D01*
G01*
X90905500Y-109094500D01*
G75*
G02*
X91155500Y-108844500I250000J0D01*
G01*
X92105500Y-108844500D01*
G75*
G02*
X92355500Y-109094500I0J-250000D01*
G01*
X92355500Y-109769500D01*
G75*
G02*
X92105500Y-110019500I-250000J0D01*
G01*
G37*
%TD.AperFunction*%
%TD*%
%TO.P,C23,2*%
%TO.N,Net-(C23-Pad2)*%
%TA.AperFunction,SMDPad,CuDef*%
G36*
G01*
X106205000Y-117290000D02*
X107155000Y-117290000D01*
G75*
G02*
X107405000Y-117540000I0J-250000D01*
G01*
X107405000Y-118215000D01*
G75*
G02*
X107155000Y-118465000I-250000J0D01*
G01*
X106205000Y-118465000D01*
G75*
G02*
X105955000Y-118215000I0J250000D01*
G01*
X105955000Y-117540000D01*
G75*
G02*
X106205000Y-117290000I250000J0D01*
G01*
G37*
%TD.AperFunction*%
%TO.P,C23,1*%
%TO.N,+5V*%
%TA.AperFunction,SMDPad,CuDef*%
G36*
G01*
X106205000Y-115215000D02*
X107155000Y-115215000D01*
G75*
G02*
X107405000Y-115465000I0J-250000D01*
G01*
X107405000Y-116140000D01*
G75*
G02*
X107155000Y-116390000I-250000J0D01*
G01*
X106205000Y-116390000D01*
G75*
G02*
X105955000Y-116140000I0J250000D01*
G01*
X105955000Y-115465000D01*
G75*
G02*
X106205000Y-115215000I250000J0D01*
G01*
G37*
%TD.AperFunction*%
%TD*%
%TO.P,C21,2*%
%TO.N,GND*%
%TA.AperFunction,SMDPad,CuDef*%
G36*
G01*
X98775500Y-121735000D02*
X99725500Y-121735000D01*
G75*
G02*
X99975500Y-121985000I0J-250000D01*
G01*
X99975500Y-122660000D01*
G75*
G02*
X99725500Y-122910000I-250000J0D01*
G01*
X98775500Y-122910000D01*
G75*
G02*
X98525500Y-122660000I0J250000D01*
G01*
X98525500Y-121985000D01*
G75*
G02*
X98775500Y-121735000I250000J0D01*
G01*
G37*
%TD.AperFunction*%
%TO.P,C21,1*%
%TO.N,+12V*%
%TA.AperFunction,SMDPad,CuDef*%
G36*
G01*
X98775500Y-119660000D02*
X99725500Y-119660000D01*
G75*
G02*
X99975500Y-119910000I0J-250000D01*
G01*
X99975500Y-120585000D01*
G75*
G02*
X99725500Y-120835000I-250000J0D01*
G01*
X98775500Y-120835000D01*
G75*
G02*
X98525500Y-120585000I0J250000D01*
G01*
X98525500Y-119910000D01*
G75*
G02*
X98775500Y-119660000I250000J0D01*
G01*
G37*
%TD.AperFunction*%
%TD*%
%TO.P,C20,2*%
%TO.N,GND*%
%TA.AperFunction,SMDPad,CuDef*%
G36*
G01*
X96235500Y-121735000D02*
X97185500Y-121735000D01*
G75*
G02*
X97435500Y-121985000I0J-250000D01*
G01*
X97435500Y-122660000D01*
G75*
G02*
X97185500Y-122910000I-250000J0D01*
G01*
X96235500Y-122910000D01*
G75*
G02*
X95985500Y-122660000I0J250000D01*
G01*
X95985500Y-121985000D01*
G75*
G02*
X96235500Y-121735000I250000J0D01*
G01*
G37*
%TD.AperFunction*%
%TO.P,C20,1*%
%TO.N,+12V*%
%TA.AperFunction,SMDPad,CuDef*%
G36*
G01*
X96235500Y-119660000D02*
X97185500Y-119660000D01*
G75*
G02*
X97435500Y-119910000I0J-250000D01*
G01*
X97435500Y-120585000D01*
G75*
G02*
X97185500Y-120835000I-250000J0D01*
G01*
X96235500Y-120835000D01*
G75*
G02*
X95985500Y-120585000I0J250000D01*
G01*
X95985500Y-119910000D01*
G75*
G02*
X96235500Y-119660000I250000J0D01*
G01*
G37*
%TD.AperFunction*%
%TD*%
%TO.P,C19,2*%
%TO.N,GND*%
%TA.AperFunction,SMDPad,CuDef*%
G36*
G01*
X93695500Y-121735000D02*
X94645500Y-121735000D01*
G75*
G02*
X94895500Y-121985000I0J-250000D01*
G01*
X94895500Y-122660000D01*
G75*
G02*
X94645500Y-122910000I-250000J0D01*
G01*
X93695500Y-122910000D01*
G75*
G02*
X93445500Y-122660000I0J250000D01*
G01*
X93445500Y-121985000D01*
G75*
G02*
X93695500Y-121735000I250000J0D01*
G01*
G37*
%TD.AperFunction*%
%TO.P,C19,1*%
%TO.N,+12V*%
%TA.AperFunction,SMDPad,CuDef*%
G36*
G01*
X93695500Y-119660000D02*
X94645500Y-119660000D01*
G75*
G02*
X94895500Y-119910000I0J-250000D01*
G01*
X94895500Y-120585000D01*
G75*
G02*
X94645500Y-120835000I-250000J0D01*
G01*
X93695500Y-120835000D01*
G75*
G02*
X93445500Y-120585000I0J250000D01*
G01*
X93445500Y-119910000D01*
G75*
G02*
X93695500Y-119660000I250000J0D01*
G01*
G37*
%TD.AperFunction*%
%TD*%
D28*
%TO.P,C9,2*%
%TO.N,GND*%
X98940000Y-69850000D03*
D29*
%TO.P,C9,1*%
%TO.N,150V*%
X91440000Y-69850000D03*
%TD*%
D28*
%TO.P,C8,2*%
%TO.N,GND*%
X98940000Y-88900000D03*
D29*
%TO.P,C8,1*%
%TO.N,150V*%
X91440000Y-88900000D03*
%TD*%
%TO.P,C7,2*%
%TO.N,GND*%
%TA.AperFunction,SMDPad,CuDef*%
G36*
G01*
X63660000Y-111067000D02*
X64610000Y-111067000D01*
G75*
G02*
X64860000Y-111317000I0J-250000D01*
G01*
X64860000Y-111992000D01*
G75*
G02*
X64610000Y-112242000I-250000J0D01*
G01*
X63660000Y-112242000D01*
G75*
G02*
X63410000Y-111992000I0J250000D01*
G01*
X63410000Y-111317000D01*
G75*
G02*
X63660000Y-111067000I250000J0D01*
G01*
G37*
%TD.AperFunction*%
%TO.P,C7,1*%
%TO.N,+12V*%
%TA.AperFunction,SMDPad,CuDef*%
G36*
G01*
X63660000Y-108992000D02*
X64610000Y-108992000D01*
G75*
G02*
X64860000Y-109242000I0J-250000D01*
G01*
X64860000Y-109917000D01*
G75*
G02*
X64610000Y-110167000I-250000J0D01*
G01*
X63660000Y-110167000D01*
G75*
G02*
X63410000Y-109917000I0J250000D01*
G01*
X63410000Y-109242000D01*
G75*
G02*
X63660000Y-108992000I250000J0D01*
G01*
G37*
%TD.AperFunction*%
%TD*%
%TO.P,C6,2*%
%TO.N,GND*%
%TA.AperFunction,SMDPad,CuDef*%
G36*
G01*
X66200000Y-111067000D02*
X67150000Y-111067000D01*
G75*
G02*
X67400000Y-111317000I0J-250000D01*
G01*
X67400000Y-111992000D01*
G75*
G02*
X67150000Y-112242000I-250000J0D01*
G01*
X66200000Y-112242000D01*
G75*
G02*
X65950000Y-111992000I0J250000D01*
G01*
X65950000Y-111317000D01*
G75*
G02*
X66200000Y-111067000I250000J0D01*
G01*
G37*
%TD.AperFunction*%
%TO.P,C6,1*%
%TO.N,+12V*%
%TA.AperFunction,SMDPad,CuDef*%
G36*
G01*
X66200000Y-108992000D02*
X67150000Y-108992000D01*
G75*
G02*
X67400000Y-109242000I0J-250000D01*
G01*
X67400000Y-109917000D01*
G75*
G02*
X67150000Y-110167000I-250000J0D01*
G01*
X66200000Y-110167000D01*
G75*
G02*
X65950000Y-109917000I0J250000D01*
G01*
X65950000Y-109242000D01*
G75*
G02*
X66200000Y-108992000I250000J0D01*
G01*
G37*
%TD.AperFunction*%
%TD*%
D14*
%TO.P,C5,2*%
%TO.N,GND*%
X74168000Y-112101000D03*
D15*
%TO.P,C5,1*%
%TO.N,+12V*%
X74168000Y-109601000D03*
%TD*%
%TO.P,C4,2*%
%TO.N,GND*%
%TA.AperFunction,SMDPad,CuDef*%
G36*
G01*
X141765000Y-122772500D02*
X142715000Y-122772500D01*
G75*
G02*
X142965000Y-123022500I0J-250000D01*
G01*
X142965000Y-123697500D01*
G75*
G02*
X142715000Y-123947500I-250000J0D01*
G01*
X141765000Y-123947500D01*
G75*
G02*
X141515000Y-123697500I0J250000D01*
G01*
X141515000Y-123022500D01*
G75*
G02*
X141765000Y-122772500I250000J0D01*
G01*
G37*
%TD.AperFunction*%
%TO.P,C4,1*%
%TO.N,+5V*%
%TA.AperFunction,SMDPad,CuDef*%
G36*
G01*
X141765000Y-120697500D02*
X142715000Y-120697500D01*
G75*
G02*
X142965000Y-120947500I0J-250000D01*
G01*
X142965000Y-121622500D01*
G75*
G02*
X142715000Y-121872500I-250000J0D01*
G01*
X141765000Y-121872500D01*
G75*
G02*
X141515000Y-121622500I0J250000D01*
G01*
X141515000Y-120947500D01*
G75*
G02*
X141765000Y-120697500I250000J0D01*
G01*
G37*
%TD.AperFunction*%
%TD*%
%TO.P,C3,2*%
%TO.N,GND*%
%TA.AperFunction,SMDPad,CuDef*%
G36*
G01*
X142715000Y-115755000D02*
X141765000Y-115755000D01*
G75*
G02*
X141515000Y-115505000I0J250000D01*
G01*
X141515000Y-114830000D01*
G75*
G02*
X141765000Y-114580000I250000J0D01*
G01*
X142715000Y-114580000D01*
G75*
G02*
X142965000Y-114830000I0J-250000D01*
G01*
X142965000Y-115505000D01*
G75*
G02*
X142715000Y-115755000I-250000J0D01*
G01*
G37*
%TD.AperFunction*%
%TO.P,C3,1*%
%TO.N,/0.625V*%
%TA.AperFunction,SMDPad,CuDef*%
G36*
G01*
X142715000Y-117830000D02*
X141765000Y-117830000D01*
G75*
G02*
X141515000Y-117580000I0J250000D01*
G01*
X141515000Y-116905000D01*
G75*
G02*
X141765000Y-116655000I250000J0D01*
G01*
X142715000Y-116655000D01*
G75*
G02*
X142965000Y-116905000I0J-250000D01*
G01*
X142965000Y-117580000D01*
G75*
G02*
X142715000Y-117830000I-250000J0D01*
G01*
G37*
%TD.AperFunction*%
%TD*%
%TO.P,C2,2*%
%TO.N,GND*%
%TA.AperFunction,SMDPad,CuDef*%
G36*
G01*
X155792500Y-121760000D02*
X155792500Y-120810000D01*
G75*
G02*
X156042500Y-120560000I250000J0D01*
G01*
X156717500Y-120560000D01*
G75*
G02*
X156967500Y-120810000I0J-250000D01*
G01*
X156967500Y-121760000D01*
G75*
G02*
X156717500Y-122010000I-250000J0D01*
G01*
X156042500Y-122010000D01*
G75*
G02*
X155792500Y-121760000I0J250000D01*
G01*
G37*
%TD.AperFunction*%
%TO.P,C2,1*%
%TO.N,Net-(C2-Pad1)*%
%TA.AperFunction,SMDPad,CuDef*%
G36*
G01*
X153717500Y-121760000D02*
X153717500Y-120810000D01*
G75*
G02*
X153967500Y-120560000I250000J0D01*
G01*
X154642500Y-120560000D01*
G75*
G02*
X154892500Y-120810000I0J-250000D01*
G01*
X154892500Y-121760000D01*
G75*
G02*
X154642500Y-122010000I-250000J0D01*
G01*
X153967500Y-122010000D01*
G75*
G02*
X153717500Y-121760000I0J250000D01*
G01*
G37*
%TD.AperFunction*%
%TD*%
%TO.P,C1,2*%
%TO.N,Net-(C1-Pad2)*%
%TA.AperFunction,SMDPad,CuDef*%
G36*
G01*
X152215000Y-124300000D02*
X152215000Y-123350000D01*
G75*
G02*
X152465000Y-123100000I250000J0D01*
G01*
X153140000Y-123100000D01*
G75*
G02*
X153390000Y-123350000I0J-250000D01*
G01*
X153390000Y-124300000D01*
G75*
G02*
X153140000Y-124550000I-250000J0D01*
G01*
X152465000Y-124550000D01*
G75*
G02*
X152215000Y-124300000I0J250000D01*
G01*
G37*
%TD.AperFunction*%
%TO.P,C1,1*%
%TO.N,Net-(C1-Pad1)*%
%TA.AperFunction,SMDPad,CuDef*%
G36*
G01*
X150140000Y-124300000D02*
X150140000Y-123350000D01*
G75*
G02*
X150390000Y-123100000I250000J0D01*
G01*
X151065000Y-123100000D01*
G75*
G02*
X151315000Y-123350000I0J-250000D01*
G01*
X151315000Y-124300000D01*
G75*
G02*
X151065000Y-124550000I-250000J0D01*
G01*
X150390000Y-124550000D01*
G75*
G02*
X150140000Y-124300000I0J250000D01*
G01*
G37*
%TD.AperFunction*%
%TD*%
D30*
%TO.N,GND*%
X100076000Y-115887500D03*
D31*
X104140000Y-114808000D03*
X64135000Y-112649000D03*
X66675000Y-112649000D03*
X83312000Y-54610000D03*
X85090000Y-54610000D03*
X86995000Y-54610000D03*
X76327000Y-54610000D03*
X78105000Y-54610000D03*
X80010000Y-54610000D03*
X69342000Y-54610000D03*
X71120000Y-54610000D03*
X73025000Y-54610000D03*
X62357000Y-54610000D03*
X64135000Y-54610000D03*
X66040000Y-54610000D03*
X83312000Y-65151000D03*
X60325000Y-73787000D03*
X58293000Y-62230000D03*
X68453000Y-80264000D03*
X67437000Y-65405000D03*
X71628000Y-62230000D03*
X76708000Y-66548000D03*
X69469000Y-77851000D03*
D30*
X66675000Y-71882000D03*
X119380000Y-74549000D03*
X117475000Y-71755000D03*
X129540000Y-74676000D03*
X127635000Y-71755000D03*
X137795000Y-71755000D03*
X139700000Y-74676000D03*
X147955000Y-71755000D03*
X149860000Y-74930000D03*
X158115000Y-71755000D03*
X160274000Y-74803000D03*
X117475000Y-87630000D03*
X119380000Y-90424000D03*
X127635000Y-87630000D03*
X129540000Y-90551000D03*
X137795000Y-87630000D03*
X139700000Y-90551000D03*
X147955000Y-87630000D03*
X149860000Y-90551000D03*
X168021000Y-87630000D03*
X170180000Y-90551000D03*
X158115000Y-87630000D03*
X160020000Y-90551000D03*
X142240000Y-114300000D03*
X139700000Y-114300000D03*
X142240000Y-124206000D03*
X157226000Y-121285000D03*
X151765000Y-117475000D03*
X131635500Y-120967500D03*
D31*
X94170500Y-106362500D03*
X91630500Y-106362500D03*
X94170500Y-123317000D03*
X96710500Y-123317000D03*
X99250500Y-123317000D03*
%TO.N,+5V*%
X89090500Y-110426500D03*
X96710500Y-110426500D03*
D30*
X139700000Y-122174000D03*
D31*
X109220000Y-114808000D03*
X106680000Y-114808000D03*
X91630500Y-110426500D03*
X94170500Y-110426500D03*
%TO.N,+12V*%
X60960000Y-107315000D03*
X62865000Y-107315000D03*
X64770000Y-107315000D03*
X66675000Y-107315000D03*
X68580000Y-107315000D03*
X70485000Y-107315000D03*
X72390000Y-107315000D03*
X64135000Y-108585000D03*
X66675000Y-108585000D03*
X57785000Y-73787000D03*
X94170500Y-119253000D03*
X96710500Y-119253000D03*
X99250500Y-119253000D03*
D30*
%TO.N,/ADC_in*%
X146812000Y-120015000D03*
%TO.N,Net-(R1-Pad2)*%
X144145000Y-118745000D03*
X144780000Y-123825000D03*
D31*
%TO.N,150V*%
X83312000Y-59944000D03*
X85090000Y-59944000D03*
X86995000Y-59944000D03*
X76327000Y-59944000D03*
X78105000Y-59944000D03*
X80010000Y-59944000D03*
X69342000Y-59944000D03*
X71120000Y-59944000D03*
X73025000Y-59944000D03*
X62357000Y-59944000D03*
X66040000Y-59944000D03*
X64135000Y-59944000D03*
%TD*%
D32*
%TO.N,Net-(C1-Pad2)*%
X150430000Y-120015000D02*
X152019000Y-120015000D01*
X152019000Y-120015000D02*
X152802500Y-120798500D01*
X150451500Y-121306500D02*
X150430000Y-121285000D01*
X152802500Y-121306500D02*
X150451500Y-121306500D01*
X152802500Y-120798500D02*
X152802500Y-121306500D01*
X152802500Y-121306500D02*
X152802500Y-123825000D01*
%TO.N,Net-(C1-Pad1)*%
X147685000Y-123825000D02*
X150727500Y-123825000D01*
D33*
%TO.N,GND*%
X86995000Y-54610000D02*
X86995000Y-53183500D01*
X83312000Y-54610000D02*
X83312000Y-53183500D01*
X85090000Y-54610000D02*
X85090000Y-53183500D01*
X80010000Y-54610000D02*
X80010000Y-53183500D01*
X76327000Y-54610000D02*
X76327000Y-53183500D01*
X78105000Y-54610000D02*
X78105000Y-53183500D01*
X73025000Y-54610000D02*
X73025000Y-53183500D01*
X69342000Y-54610000D02*
X69342000Y-53183500D01*
X71120000Y-54610000D02*
X71120000Y-53183500D01*
X66040000Y-54610000D02*
X66040000Y-53183500D01*
X62357000Y-54610000D02*
X62357000Y-53183500D01*
X64135000Y-54610000D02*
X64135000Y-53183500D01*
X83312000Y-65151000D02*
X83312000Y-64119000D01*
D34*
X117475000Y-71755000D02*
X116607500Y-71755000D01*
X119380000Y-74549000D02*
X119380000Y-73660000D01*
X127635000Y-71755000D02*
X126767500Y-71755000D01*
X129540000Y-74676000D02*
X129540000Y-73755000D01*
X136927500Y-71755000D02*
X137795000Y-71755000D01*
X139700000Y-74676000D02*
X139700000Y-73755000D01*
X147955000Y-71755000D02*
X147087500Y-71755000D01*
X149860000Y-74930000D02*
X149860000Y-74025000D01*
X158115000Y-71755000D02*
X157247500Y-71755000D01*
X160274000Y-74803000D02*
X160274000Y-73882000D01*
X117475000Y-87630000D02*
X116607500Y-87630000D01*
X119380000Y-90424000D02*
X119380000Y-89535000D01*
X127635000Y-87630000D02*
X126767500Y-87630000D01*
X129540000Y-90551000D02*
X129540000Y-89630000D01*
X137795000Y-87630000D02*
X136927500Y-87630000D01*
X139700000Y-90551000D02*
X139700000Y-89630000D01*
X147955000Y-87630000D02*
X147087500Y-87630000D01*
X149860000Y-90551000D02*
X149860000Y-89630000D01*
X168021000Y-87630000D02*
X167175000Y-87630000D01*
X170180000Y-90551000D02*
X170180000Y-89630000D01*
X158115000Y-87630000D02*
X157247500Y-87630000D01*
X160020000Y-90551000D02*
X160020000Y-89630000D01*
D33*
X64135000Y-112649000D02*
X64135000Y-111654500D01*
X66675000Y-112649000D02*
X66675000Y-111654500D01*
D34*
X139700000Y-115205000D02*
X139700000Y-114300000D01*
X142240000Y-114300000D02*
X142240000Y-115167500D01*
X142240000Y-124206000D02*
X142240000Y-123360000D01*
X157226000Y-121285000D02*
X156380000Y-121285000D01*
D35*
X150430000Y-117475000D02*
X151765000Y-117475000D01*
D34*
X131633000Y-120970000D02*
X131635500Y-120967500D01*
X130405000Y-120970000D02*
X131633000Y-120970000D01*
D33*
X91630500Y-106362500D02*
X91630500Y-107357000D01*
X94170500Y-106362500D02*
X94170500Y-107357000D01*
X94170500Y-123317000D02*
X94170500Y-122322500D01*
X96710500Y-122322500D02*
X96710500Y-123317000D01*
X99377500Y-122449500D02*
X99250500Y-122322500D01*
X99250500Y-123317000D02*
X99250500Y-122449500D01*
X104140000Y-114808000D02*
X104140000Y-115840000D01*
D35*
X99232500Y-115887500D02*
X99230000Y-115890000D01*
X100076000Y-115887500D02*
X99232500Y-115887500D01*
D32*
%TO.N,Net-(C2-Pad1)*%
X154305000Y-121285000D02*
X154305000Y-118745000D01*
X154305000Y-118745000D02*
X150430000Y-118745000D01*
%TO.N,/0.625V*%
X139737500Y-117242500D02*
X139700000Y-117205000D01*
X142240000Y-117242500D02*
X139737500Y-117242500D01*
X139700000Y-117205000D02*
X139700000Y-119285000D01*
X142472500Y-117475000D02*
X142240000Y-117242500D01*
X145480000Y-117475000D02*
X142472500Y-117475000D01*
D34*
%TO.N,+5V*%
X139700000Y-122174000D02*
X139700000Y-121285000D01*
D32*
X145480000Y-121285000D02*
X139700000Y-121285000D01*
D33*
X106680000Y-114808000D02*
X106680000Y-115802500D01*
X109220000Y-114808000D02*
X109220000Y-115840000D01*
X91630500Y-110426500D02*
X91630500Y-109432000D01*
X94170500Y-110426500D02*
X94170500Y-109432000D01*
%TO.N,+12V*%
X64135000Y-109579500D02*
X64135000Y-108585000D01*
X66675000Y-109579500D02*
X66675000Y-108585000D01*
X94170500Y-120247500D02*
X94170500Y-120015000D01*
X94170500Y-120015000D02*
X94170500Y-119253000D01*
X96710500Y-120247500D02*
X96710500Y-119253000D01*
X99250500Y-120247500D02*
X99250500Y-119253000D01*
X94170500Y-120247500D02*
X99250500Y-120247500D01*
D32*
X99365500Y-119138000D02*
X99250500Y-119253000D01*
X101430000Y-116840000D02*
X100711000Y-116840000D01*
X99761000Y-117790000D02*
X99230000Y-117790000D01*
X100711000Y-116840000D02*
X99761000Y-117790000D01*
D34*
X99230000Y-119232500D02*
X99250500Y-119253000D01*
X99230000Y-117983000D02*
X99230000Y-119425500D01*
D33*
X88794500Y-120247500D02*
X87884000Y-121158000D01*
X94170500Y-120247500D02*
X88794500Y-120247500D01*
D32*
%TO.N,Net-(C26-Pad1)*%
X114570000Y-84460000D02*
X114540000Y-84430000D01*
X114570000Y-90170000D02*
X114570000Y-84460000D01*
%TO.N,Net-(C27-Pad1)*%
X114570000Y-68585000D02*
X114540000Y-68555000D01*
X114570000Y-74295000D02*
X114570000Y-68585000D01*
%TO.N,Net-(C28-Pad1)*%
X124730000Y-84460000D02*
X124700000Y-84430000D01*
X124730000Y-90170000D02*
X124730000Y-84460000D01*
%TO.N,Net-(C29-Pad1)*%
X124730000Y-68585000D02*
X124700000Y-68555000D01*
X124730000Y-74295000D02*
X124730000Y-68585000D01*
%TO.N,Net-(C30-Pad1)*%
X134890000Y-84460000D02*
X134860000Y-84430000D01*
X134890000Y-90170000D02*
X134890000Y-84460000D01*
%TO.N,Net-(C31-Pad1)*%
X134890000Y-68585000D02*
X134860000Y-68555000D01*
X134890000Y-74295000D02*
X134890000Y-68585000D01*
%TO.N,Net-(C32-Pad1)*%
X145050000Y-84460000D02*
X145020000Y-84430000D01*
X145050000Y-90170000D02*
X145050000Y-84460000D01*
%TO.N,/ADC_in*%
X145480000Y-120015000D02*
X146812000Y-120015000D01*
%TO.N,/pwr_led*%
X130405000Y-122870000D02*
X132781000Y-122870000D01*
X132781000Y-122870000D02*
X135509000Y-120142000D01*
X135509000Y-115951000D02*
X135509000Y-118364000D01*
X140970000Y-110490000D02*
X135509000Y-115951000D01*
X135509000Y-118364000D02*
X135509000Y-116713000D01*
X135509000Y-120142000D02*
X135509000Y-118364000D01*
%TO.N,/PWM_10*%
X167100000Y-94520000D02*
X166370000Y-95250000D01*
X167100000Y-90170000D02*
X167100000Y-94520000D01*
%TO.N,/PWM_9*%
X155252999Y-79391601D02*
X155252999Y-76252001D01*
X155252999Y-76252001D02*
X157210000Y-74295000D01*
X157268398Y-81407000D02*
X155252999Y-79391601D01*
X163830000Y-85471000D02*
X159766000Y-81407000D01*
X159766000Y-81407000D02*
X157268398Y-81407000D01*
X163830000Y-95250000D02*
X163830000Y-85471000D01*
%TO.N,/PWM_8*%
X157210000Y-91170000D02*
X161290000Y-95250000D01*
X157210000Y-90170000D02*
X157210000Y-91170000D01*
%TO.N,/PWM_7*%
X147955000Y-74295000D02*
X147050000Y-74295000D01*
X152273000Y-78613000D02*
X147955000Y-74295000D01*
X152273000Y-88849018D02*
X152273000Y-78613000D01*
X158673982Y-95250000D02*
X152273000Y-88849018D01*
X158750000Y-95250000D02*
X158673982Y-95250000D01*
%TO.N,/PWM_6*%
X147050000Y-90170000D02*
X147050000Y-90916000D01*
X148043960Y-91909960D02*
X152869960Y-91909960D01*
X152869960Y-91909960D02*
X156210000Y-95250000D01*
X147050000Y-90916000D02*
X148043960Y-91909960D01*
%TO.N,/PWM_5*%
X136890000Y-74295000D02*
X138176000Y-74295000D01*
X138176000Y-74295000D02*
X142621000Y-78740000D01*
X142621000Y-78740000D02*
X142621000Y-90932000D01*
X150783970Y-92363970D02*
X153670000Y-95250000D01*
X144052970Y-92363970D02*
X150783970Y-92363970D01*
X142621000Y-90932000D02*
X144052970Y-92363970D01*
%TO.N,/PWM_4*%
X148697980Y-92817980D02*
X151130000Y-95250000D01*
X136890000Y-91805000D02*
X137902980Y-92817980D01*
X137902980Y-92817980D02*
X148697980Y-92817980D01*
X136890000Y-90170000D02*
X136890000Y-91805000D01*
%TO.N,/PWM_3*%
X126730000Y-74295000D02*
X127762000Y-74295000D01*
X127762000Y-74295000D02*
X132588000Y-79121000D01*
X146611990Y-93271990D02*
X148590000Y-95250000D01*
X135054990Y-93271990D02*
X146611990Y-93271990D01*
X132588000Y-90805000D02*
X135054990Y-93271990D01*
X132588000Y-79121000D02*
X132588000Y-90805000D01*
%TO.N,/PWM_2*%
X126730000Y-90170000D02*
X126730000Y-92186000D01*
X126730000Y-92186000D02*
X128270000Y-93726000D01*
X144526000Y-93726000D02*
X146050000Y-95250000D01*
X128270000Y-93726000D02*
X144526000Y-93726000D01*
%TO.N,/PWM_1*%
X123190000Y-95250000D02*
X123190000Y-80010000D01*
X117475000Y-74295000D02*
X119697500Y-76517500D01*
X116570000Y-74295000D02*
X117475000Y-74295000D01*
X119697500Y-76517500D02*
X119126000Y-75946000D01*
X123190000Y-80010000D02*
X119697500Y-76517500D01*
%TO.N,/PWM_0*%
X116570000Y-90170000D02*
X117729000Y-90170000D01*
X120650000Y-93091000D02*
X120650000Y-95250000D01*
X117729000Y-90170000D02*
X120650000Y-93091000D01*
%TO.N,Net-(J2-Pad2)*%
X119745000Y-120920000D02*
X118745000Y-121920000D01*
X123825000Y-120920000D02*
X119745000Y-120920000D01*
%TO.N,/MIC_out*%
X156305000Y-118745000D02*
X161290000Y-118745000D01*
X163195000Y-120650000D02*
X163195000Y-121920000D01*
X161290000Y-118745000D02*
X163195000Y-120650000D01*
%TO.N,Net-(Q1-Pad3)*%
X127405000Y-121920000D02*
X125984000Y-121920000D01*
X124984000Y-122920000D02*
X123825000Y-122920000D01*
X125984000Y-121920000D02*
X124984000Y-122920000D01*
%TO.N,Net-(Q3-Pad3)*%
X119380000Y-84670000D02*
X119140000Y-84430000D01*
X119380000Y-87535000D02*
X119380000Y-84670000D01*
%TO.N,Net-(Q4-Pad3)*%
X119380000Y-68795000D02*
X119140000Y-68555000D01*
X119380000Y-71660000D02*
X119380000Y-68795000D01*
%TO.N,Net-(Q5-Pad3)*%
X129540000Y-84670000D02*
X129300000Y-84430000D01*
X129540000Y-87630000D02*
X129540000Y-84670000D01*
D36*
%TO.N,Net-(Q6-Pad3)*%
X129540000Y-68795000D02*
X129300000Y-68555000D01*
X129540000Y-71755000D02*
X129540000Y-68795000D01*
D32*
%TO.N,Net-(Q7-Pad3)*%
X139700000Y-84670000D02*
X139460000Y-84430000D01*
X139700000Y-87630000D02*
X139700000Y-84670000D01*
%TO.N,Net-(Q8-Pad3)*%
X139700000Y-68795000D02*
X139460000Y-68555000D01*
X139700000Y-71755000D02*
X139700000Y-68795000D01*
%TO.N,Net-(Q9-Pad3)*%
X149860000Y-84670000D02*
X149620000Y-84430000D01*
X149860000Y-87630000D02*
X149860000Y-84670000D01*
%TO.N,Net-(Q10-Pad3)*%
X149860000Y-68795000D02*
X149620000Y-68555000D01*
X149860000Y-72025000D02*
X149860000Y-68795000D01*
%TO.N,Net-(Q11-Pad3)*%
X160020000Y-84670000D02*
X159780000Y-84430000D01*
X160020000Y-87630000D02*
X160020000Y-84670000D01*
%TO.N,Net-(Q12-Pad3)*%
X160274000Y-69049000D02*
X159780000Y-68555000D01*
X160274000Y-71882000D02*
X160274000Y-69049000D01*
%TO.N,Net-(Q13-Pad3)*%
X170180000Y-84670000D02*
X169940000Y-84430000D01*
X170180000Y-87630000D02*
X170180000Y-84670000D01*
D34*
%TO.N,Net-(R1-Pad2)*%
X144780000Y-123825000D02*
X145685000Y-123825000D01*
D32*
X145480000Y-118745000D02*
X144145000Y-118745000D01*
D33*
%TO.N,150V*%
X86995000Y-59944000D02*
X86995000Y-58517500D01*
X83312000Y-59944000D02*
X83312000Y-58517500D01*
X85090000Y-59944000D02*
X85090000Y-58517500D01*
X80010000Y-59944000D02*
X80010000Y-58517500D01*
X76327000Y-59944000D02*
X76327000Y-58517500D01*
X78105000Y-59944000D02*
X78105000Y-58517500D01*
X73025000Y-59944000D02*
X73025000Y-58517500D01*
X69342000Y-59944000D02*
X69342000Y-58517500D01*
X71120000Y-59944000D02*
X71120000Y-58517500D01*
X62357000Y-59944000D02*
X62357000Y-58517500D01*
X66040000Y-59944000D02*
X66040000Y-58517500D01*
X64135000Y-59944000D02*
X64135000Y-58517500D01*
X83312000Y-59944000D02*
X83312000Y-62119000D01*
D32*
%TO.N,Net-(C33-Pad1)*%
X145050000Y-68585000D02*
X145020000Y-68555000D01*
X145050000Y-74295000D02*
X145050000Y-68585000D01*
%TO.N,Net-(C34-Pad1)*%
X155210000Y-84460000D02*
X155180000Y-84430000D01*
X155210000Y-90170000D02*
X155210000Y-84460000D01*
D34*
%TO.N,Net-(C18-Pad2)*%
X92880000Y-116840000D02*
X92710000Y-117010000D01*
X99230000Y-116840000D02*
X96774000Y-116840000D01*
D32*
X99292500Y-113030000D02*
X98552000Y-113030000D01*
X98552000Y-113030000D02*
X97790000Y-113792000D01*
X97790000Y-113792000D02*
X97790000Y-116078000D01*
%TO.N,Net-(C18-Pad1)*%
X101430000Y-113092500D02*
X101367500Y-113030000D01*
X101430000Y-115890000D02*
X101430000Y-113092500D01*
%TO.N,Net-(C35-Pad1)*%
X155210000Y-68585000D02*
X155180000Y-68555000D01*
X155210000Y-74295000D02*
X155210000Y-68585000D01*
%TO.N,Net-(J4-Pad12)*%
X127635000Y-53975000D02*
X157607000Y-53975000D01*
X167640000Y-64008000D02*
X167640000Y-78130000D01*
X157607000Y-53975000D02*
X167640000Y-64008000D01*
%TO.N,Net-(J4-Pad11)*%
X127635000Y-56515000D02*
X154559000Y-56515000D01*
X157480000Y-59436000D02*
X157480000Y-62255000D01*
X154559000Y-56515000D02*
X157480000Y-59436000D01*
%TO.N,Net-(J4-Pad10)*%
X126457999Y-55337999D02*
X157445999Y-55337999D01*
X125095000Y-53975000D02*
X126457999Y-55337999D01*
X157445999Y-55337999D02*
X163830000Y-61722000D01*
X163830000Y-61722000D02*
X163830000Y-76454000D01*
X162154000Y-78130000D02*
X157480000Y-78130000D01*
X163830000Y-76454000D02*
X162154000Y-78130000D01*
%TO.N,Net-(J4-Pad9)*%
X126599980Y-58019980D02*
X145141980Y-58019980D01*
X125095000Y-56515000D02*
X126599980Y-58019980D01*
X147320000Y-60198000D02*
X147320000Y-62255000D01*
X145141980Y-58019980D02*
X147320000Y-60198000D01*
%TO.N,Net-(J4-Pad8)*%
X144170000Y-78130000D02*
X147320000Y-78130000D01*
X143256000Y-77216000D02*
X144170000Y-78130000D01*
X123917999Y-57079961D02*
X125766038Y-58928000D01*
X123917999Y-55337999D02*
X123917999Y-57079961D01*
X122555000Y-53975000D02*
X123917999Y-55337999D01*
X125766038Y-58928000D02*
X141224000Y-58928000D01*
X143256000Y-60960000D02*
X143256000Y-64770000D01*
X141224000Y-58928000D02*
X143256000Y-60960000D01*
X143256000Y-64770000D02*
X143256000Y-77216000D01*
X143256000Y-64516000D02*
X143256000Y-64770000D01*
%TO.N,Net-(J4-Pad7)*%
X137160000Y-60198000D02*
X137160000Y-62255000D01*
X136652000Y-59690000D02*
X137160000Y-60198000D01*
X125730000Y-59690000D02*
X136652000Y-59690000D01*
X122555000Y-56515000D02*
X125730000Y-59690000D01*
%TO.N,Net-(J4-Pad6)*%
X137160000Y-78130000D02*
X134264000Y-78130000D01*
X134264000Y-78130000D02*
X132080000Y-75946000D01*
X132080000Y-75946000D02*
X132080000Y-61976000D01*
X121377999Y-55337999D02*
X120015000Y-53975000D01*
X121377999Y-57079961D02*
X121377999Y-55337999D01*
X123226038Y-58928000D02*
X121377999Y-57079961D01*
X123226038Y-58928000D02*
X123226038Y-58964038D01*
X124714000Y-60452000D02*
X130556000Y-60452000D01*
X123226038Y-58964038D02*
X124714000Y-60452000D01*
X132080000Y-61976000D02*
X130556000Y-60452000D01*
%TO.N,Net-(J4-Pad5)*%
X123469000Y-62255000D02*
X127000000Y-62255000D01*
X120015000Y-58801000D02*
X123469000Y-62255000D01*
X120015000Y-56515000D02*
X120015000Y-58801000D01*
%TO.N,Net-(J4-Pad4)*%
X127000000Y-78130000D02*
X124612000Y-78130000D01*
X124612000Y-78130000D02*
X121412000Y-74930000D01*
X118652001Y-55152001D02*
X117475000Y-53975000D01*
X118652001Y-58842067D02*
X118652001Y-55152001D01*
X121412000Y-61602066D02*
X118652001Y-58842067D01*
X121412000Y-74930000D02*
X121412000Y-61602066D01*
%TO.N,Net-(J4-Pad3)*%
X116840000Y-57150000D02*
X117475000Y-56515000D01*
X116840000Y-62255000D02*
X116840000Y-57150000D01*
%TO.N,Net-(J4-Pad2)*%
X114935000Y-53975000D02*
X112522000Y-56388000D01*
X112522000Y-56388000D02*
X112522000Y-76454000D01*
X114198000Y-78130000D02*
X116840000Y-78130000D01*
X112522000Y-76454000D02*
X114198000Y-78130000D01*
%TO.N,Net-(C23-Pad2)*%
X109182500Y-117877500D02*
X109220000Y-117840000D01*
X101480000Y-117840000D02*
X101430000Y-117790000D01*
X109220000Y-117840000D02*
X101480000Y-117840000D01*
%TO.N,Net-(C36-Pad1)*%
X165100000Y-84670000D02*
X165340000Y-84430000D01*
X165100000Y-90170000D02*
X165100000Y-84670000D01*
%TD*%
%TO.N,Net-(D1-Pad2)*%
X66806197Y-63010369D02*
X66928454Y-63061010D01*
X67033436Y-63141564D01*
X67113990Y-63246546D01*
X67164631Y-63368803D01*
X67183000Y-63508328D01*
X67183000Y-64031155D01*
X67029510Y-64061686D01*
X66775273Y-64166995D01*
X66546465Y-64319880D01*
X66351880Y-64514465D01*
X66198995Y-64743273D01*
X66093686Y-64997510D01*
X66040000Y-65267408D01*
X66040000Y-65542592D01*
X66093686Y-65812490D01*
X66198995Y-66066727D01*
X66351880Y-66295535D01*
X66546465Y-66490120D01*
X66775273Y-66643005D01*
X67029510Y-66748314D01*
X67183000Y-66778845D01*
X67183000Y-70717782D01*
X67045445Y-70660805D01*
X66800084Y-70612000D01*
X66549916Y-70612000D01*
X66304555Y-70660805D01*
X66073429Y-70756541D01*
X65865422Y-70895527D01*
X65688527Y-71072422D01*
X65549541Y-71280429D01*
X65453805Y-71511555D01*
X65405000Y-71756916D01*
X65405000Y-72007084D01*
X65453805Y-72252445D01*
X65549541Y-72483571D01*
X65679541Y-72678130D01*
X65405000Y-72651090D01*
X65044004Y-72686645D01*
X64696880Y-72791944D01*
X64376968Y-72962940D01*
X64096563Y-73193063D01*
X63866440Y-73473467D01*
X63695444Y-73793379D01*
X63590145Y-74140503D01*
X63563500Y-74411035D01*
X63563500Y-74686964D01*
X63590145Y-74957496D01*
X63695444Y-75304620D01*
X63866440Y-75624532D01*
X64096563Y-75904937D01*
X64376967Y-76135060D01*
X64696879Y-76306056D01*
X65044003Y-76411355D01*
X65405000Y-76446910D01*
X65765996Y-76411355D01*
X66113120Y-76306056D01*
X66433032Y-76135060D01*
X66713437Y-75904937D01*
X66943560Y-75624533D01*
X67114556Y-75304621D01*
X67219855Y-74957497D01*
X67246500Y-74686965D01*
X67246500Y-74411036D01*
X67219855Y-74140504D01*
X67114556Y-73793380D01*
X66983933Y-73549000D01*
X68639199Y-73549000D01*
X68639199Y-75549000D01*
X68656364Y-75723274D01*
X68707197Y-75890851D01*
X68789747Y-76045291D01*
X68900841Y-76180659D01*
X69036209Y-76291753D01*
X69190649Y-76374303D01*
X69358226Y-76425136D01*
X69532500Y-76442301D01*
X71437500Y-76442301D01*
X71611774Y-76425136D01*
X71779351Y-76374303D01*
X71933791Y-76291753D01*
X72069159Y-76180659D01*
X72180253Y-76045291D01*
X72262803Y-75890851D01*
X72313636Y-75723274D01*
X72330801Y-75549000D01*
X72330801Y-73549000D01*
X72313636Y-73374726D01*
X72262803Y-73207149D01*
X72180253Y-73052709D01*
X72069159Y-72917341D01*
X71933791Y-72806247D01*
X71779351Y-72723697D01*
X71611774Y-72672864D01*
X71437500Y-72655699D01*
X69532500Y-72655699D01*
X69358226Y-72672864D01*
X69190649Y-72723697D01*
X69036209Y-72806247D01*
X68900841Y-72917341D01*
X68789747Y-73052709D01*
X68707197Y-73207149D01*
X68656364Y-73374726D01*
X68639199Y-73549000D01*
X66983933Y-73549000D01*
X66943560Y-73473467D01*
X66713437Y-73193063D01*
X66663402Y-73152000D01*
X66800084Y-73152000D01*
X67045445Y-73103195D01*
X67276571Y-73007459D01*
X67484578Y-72868473D01*
X67661473Y-72691578D01*
X67800459Y-72483571D01*
X67896195Y-72252445D01*
X67945000Y-72007084D01*
X67945000Y-71882000D01*
X74286672Y-71882000D01*
X74426197Y-71900369D01*
X74548454Y-71951010D01*
X74653436Y-72031564D01*
X74733990Y-72136546D01*
X74784631Y-72258803D01*
X74803000Y-72398328D01*
X74803000Y-85716672D01*
X74784631Y-85856197D01*
X74733990Y-85978454D01*
X74653436Y-86083436D01*
X74548454Y-86163990D01*
X74426197Y-86214631D01*
X74286672Y-86233000D01*
X59063328Y-86233000D01*
X58923803Y-86214631D01*
X58801546Y-86163990D01*
X58696564Y-86083436D01*
X58616010Y-85978454D01*
X58565369Y-85856197D01*
X58547000Y-85716672D01*
X58547000Y-80126408D01*
X67056000Y-80126408D01*
X67056000Y-80401592D01*
X67109686Y-80671490D01*
X67214995Y-80925727D01*
X67367880Y-81154535D01*
X67562465Y-81349120D01*
X67791273Y-81502005D01*
X68045510Y-81607314D01*
X68315408Y-81661000D01*
X68590592Y-81661000D01*
X68860490Y-81607314D01*
X69114727Y-81502005D01*
X69343535Y-81349120D01*
X69538120Y-81154535D01*
X69691005Y-80925727D01*
X69796314Y-80671490D01*
X69850000Y-80401592D01*
X69850000Y-80126408D01*
X69796314Y-79856510D01*
X69691005Y-79602273D01*
X69538120Y-79373465D01*
X69412655Y-79248000D01*
X69606592Y-79248000D01*
X69876490Y-79194314D01*
X70130727Y-79089005D01*
X70359535Y-78936120D01*
X70554120Y-78741535D01*
X70707005Y-78512727D01*
X70812314Y-78258490D01*
X70866000Y-77988592D01*
X70866000Y-77713408D01*
X70812314Y-77443510D01*
X70707005Y-77189273D01*
X70554120Y-76960465D01*
X70359535Y-76765880D01*
X70130727Y-76612995D01*
X69876490Y-76507686D01*
X69606592Y-76454000D01*
X69331408Y-76454000D01*
X69061510Y-76507686D01*
X68807273Y-76612995D01*
X68578465Y-76765880D01*
X68383880Y-76960465D01*
X68230995Y-77189273D01*
X68125686Y-77443510D01*
X68072000Y-77713408D01*
X68072000Y-77988592D01*
X68125686Y-78258490D01*
X68230995Y-78512727D01*
X68383880Y-78741535D01*
X68509345Y-78867000D01*
X68315408Y-78867000D01*
X68045510Y-78920686D01*
X67791273Y-79025995D01*
X67562465Y-79178880D01*
X67367880Y-79373465D01*
X67214995Y-79602273D01*
X67109686Y-79856510D01*
X67056000Y-80126408D01*
X58547000Y-80126408D01*
X58547000Y-74958005D01*
X58675535Y-74872120D01*
X58870120Y-74677535D01*
X59023005Y-74448727D01*
X59055000Y-74371485D01*
X59086995Y-74448727D01*
X59239880Y-74677535D01*
X59434465Y-74872120D01*
X59663273Y-75025005D01*
X59917510Y-75130314D01*
X60187408Y-75184000D01*
X60462592Y-75184000D01*
X60732490Y-75130314D01*
X60986727Y-75025005D01*
X61215535Y-74872120D01*
X61410120Y-74677535D01*
X61563005Y-74448727D01*
X61668314Y-74194490D01*
X61722000Y-73924592D01*
X61722000Y-73649408D01*
X61668314Y-73379510D01*
X61563005Y-73125273D01*
X61410120Y-72896465D01*
X61215535Y-72701880D01*
X60986727Y-72548995D01*
X60732490Y-72443686D01*
X60462592Y-72390000D01*
X60187408Y-72390000D01*
X59917510Y-72443686D01*
X59663273Y-72548995D01*
X59434465Y-72701880D01*
X59239880Y-72896465D01*
X59086995Y-73125273D01*
X59055000Y-73202515D01*
X59023005Y-73125273D01*
X58870120Y-72896465D01*
X58675535Y-72701880D01*
X58547000Y-72615995D01*
X58547000Y-63603845D01*
X58700490Y-63573314D01*
X58954727Y-63468005D01*
X59183535Y-63315120D01*
X59378120Y-63120535D01*
X59464005Y-62992000D01*
X66666672Y-62992000D01*
X66806197Y-63010369D01*
%TA.AperFunction,Conductor*%
D37*
G36*
X66806197Y-63010369D02*
G01*
X66928454Y-63061010D01*
X67033436Y-63141564D01*
X67113990Y-63246546D01*
X67164631Y-63368803D01*
X67183000Y-63508328D01*
X67183000Y-64031155D01*
X67029510Y-64061686D01*
X66775273Y-64166995D01*
X66546465Y-64319880D01*
X66351880Y-64514465D01*
X66198995Y-64743273D01*
X66093686Y-64997510D01*
X66040000Y-65267408D01*
X66040000Y-65542592D01*
X66093686Y-65812490D01*
X66198995Y-66066727D01*
X66351880Y-66295535D01*
X66546465Y-66490120D01*
X66775273Y-66643005D01*
X67029510Y-66748314D01*
X67183000Y-66778845D01*
X67183000Y-70717782D01*
X67045445Y-70660805D01*
X66800084Y-70612000D01*
X66549916Y-70612000D01*
X66304555Y-70660805D01*
X66073429Y-70756541D01*
X65865422Y-70895527D01*
X65688527Y-71072422D01*
X65549541Y-71280429D01*
X65453805Y-71511555D01*
X65405000Y-71756916D01*
X65405000Y-72007084D01*
X65453805Y-72252445D01*
X65549541Y-72483571D01*
X65679541Y-72678130D01*
X65405000Y-72651090D01*
X65044004Y-72686645D01*
X64696880Y-72791944D01*
X64376968Y-72962940D01*
X64096563Y-73193063D01*
X63866440Y-73473467D01*
X63695444Y-73793379D01*
X63590145Y-74140503D01*
X63563500Y-74411035D01*
X63563500Y-74686964D01*
X63590145Y-74957496D01*
X63695444Y-75304620D01*
X63866440Y-75624532D01*
X64096563Y-75904937D01*
X64376967Y-76135060D01*
X64696879Y-76306056D01*
X65044003Y-76411355D01*
X65405000Y-76446910D01*
X65765996Y-76411355D01*
X66113120Y-76306056D01*
X66433032Y-76135060D01*
X66713437Y-75904937D01*
X66943560Y-75624533D01*
X67114556Y-75304621D01*
X67219855Y-74957497D01*
X67246500Y-74686965D01*
X67246500Y-74411036D01*
X67219855Y-74140504D01*
X67114556Y-73793380D01*
X66983933Y-73549000D01*
X68639199Y-73549000D01*
X68639199Y-75549000D01*
X68656364Y-75723274D01*
X68707197Y-75890851D01*
X68789747Y-76045291D01*
X68900841Y-76180659D01*
X69036209Y-76291753D01*
X69190649Y-76374303D01*
X69358226Y-76425136D01*
X69532500Y-76442301D01*
X71437500Y-76442301D01*
X71611774Y-76425136D01*
X71779351Y-76374303D01*
X71933791Y-76291753D01*
X72069159Y-76180659D01*
X72180253Y-76045291D01*
X72262803Y-75890851D01*
X72313636Y-75723274D01*
X72330801Y-75549000D01*
X72330801Y-73549000D01*
X72313636Y-73374726D01*
X72262803Y-73207149D01*
X72180253Y-73052709D01*
X72069159Y-72917341D01*
X71933791Y-72806247D01*
X71779351Y-72723697D01*
X71611774Y-72672864D01*
X71437500Y-72655699D01*
X69532500Y-72655699D01*
X69358226Y-72672864D01*
X69190649Y-72723697D01*
X69036209Y-72806247D01*
X68900841Y-72917341D01*
X68789747Y-73052709D01*
X68707197Y-73207149D01*
X68656364Y-73374726D01*
X68639199Y-73549000D01*
X66983933Y-73549000D01*
X66943560Y-73473467D01*
X66713437Y-73193063D01*
X66663402Y-73152000D01*
X66800084Y-73152000D01*
X67045445Y-73103195D01*
X67276571Y-73007459D01*
X67484578Y-72868473D01*
X67661473Y-72691578D01*
X67800459Y-72483571D01*
X67896195Y-72252445D01*
X67945000Y-72007084D01*
X67945000Y-71882000D01*
X74286672Y-71882000D01*
X74426197Y-71900369D01*
X74548454Y-71951010D01*
X74653436Y-72031564D01*
X74733990Y-72136546D01*
X74784631Y-72258803D01*
X74803000Y-72398328D01*
X74803000Y-85716672D01*
X74784631Y-85856197D01*
X74733990Y-85978454D01*
X74653436Y-86083436D01*
X74548454Y-86163990D01*
X74426197Y-86214631D01*
X74286672Y-86233000D01*
X59063328Y-86233000D01*
X58923803Y-86214631D01*
X58801546Y-86163990D01*
X58696564Y-86083436D01*
X58616010Y-85978454D01*
X58565369Y-85856197D01*
X58547000Y-85716672D01*
X58547000Y-80126408D01*
X67056000Y-80126408D01*
X67056000Y-80401592D01*
X67109686Y-80671490D01*
X67214995Y-80925727D01*
X67367880Y-81154535D01*
X67562465Y-81349120D01*
X67791273Y-81502005D01*
X68045510Y-81607314D01*
X68315408Y-81661000D01*
X68590592Y-81661000D01*
X68860490Y-81607314D01*
X69114727Y-81502005D01*
X69343535Y-81349120D01*
X69538120Y-81154535D01*
X69691005Y-80925727D01*
X69796314Y-80671490D01*
X69850000Y-80401592D01*
X69850000Y-80126408D01*
X69796314Y-79856510D01*
X69691005Y-79602273D01*
X69538120Y-79373465D01*
X69412655Y-79248000D01*
X69606592Y-79248000D01*
X69876490Y-79194314D01*
X70130727Y-79089005D01*
X70359535Y-78936120D01*
X70554120Y-78741535D01*
X70707005Y-78512727D01*
X70812314Y-78258490D01*
X70866000Y-77988592D01*
X70866000Y-77713408D01*
X70812314Y-77443510D01*
X70707005Y-77189273D01*
X70554120Y-76960465D01*
X70359535Y-76765880D01*
X70130727Y-76612995D01*
X69876490Y-76507686D01*
X69606592Y-76454000D01*
X69331408Y-76454000D01*
X69061510Y-76507686D01*
X68807273Y-76612995D01*
X68578465Y-76765880D01*
X68383880Y-76960465D01*
X68230995Y-77189273D01*
X68125686Y-77443510D01*
X68072000Y-77713408D01*
X68072000Y-77988592D01*
X68125686Y-78258490D01*
X68230995Y-78512727D01*
X68383880Y-78741535D01*
X68509345Y-78867000D01*
X68315408Y-78867000D01*
X68045510Y-78920686D01*
X67791273Y-79025995D01*
X67562465Y-79178880D01*
X67367880Y-79373465D01*
X67214995Y-79602273D01*
X67109686Y-79856510D01*
X67056000Y-80126408D01*
X58547000Y-80126408D01*
X58547000Y-74958005D01*
X58675535Y-74872120D01*
X58870120Y-74677535D01*
X59023005Y-74448727D01*
X59055000Y-74371485D01*
X59086995Y-74448727D01*
X59239880Y-74677535D01*
X59434465Y-74872120D01*
X59663273Y-75025005D01*
X59917510Y-75130314D01*
X60187408Y-75184000D01*
X60462592Y-75184000D01*
X60732490Y-75130314D01*
X60986727Y-75025005D01*
X61215535Y-74872120D01*
X61410120Y-74677535D01*
X61563005Y-74448727D01*
X61668314Y-74194490D01*
X61722000Y-73924592D01*
X61722000Y-73649408D01*
X61668314Y-73379510D01*
X61563005Y-73125273D01*
X61410120Y-72896465D01*
X61215535Y-72701880D01*
X60986727Y-72548995D01*
X60732490Y-72443686D01*
X60462592Y-72390000D01*
X60187408Y-72390000D01*
X59917510Y-72443686D01*
X59663273Y-72548995D01*
X59434465Y-72701880D01*
X59239880Y-72896465D01*
X59086995Y-73125273D01*
X59055000Y-73202515D01*
X59023005Y-73125273D01*
X58870120Y-72896465D01*
X58675535Y-72701880D01*
X58547000Y-72615995D01*
X58547000Y-63603845D01*
X58700490Y-63573314D01*
X58954727Y-63468005D01*
X59183535Y-63315120D01*
X59378120Y-63120535D01*
X59464005Y-62992000D01*
X66666672Y-62992000D01*
X66806197Y-63010369D01*
G37*
%TD.AperFunction*%
%TD*%
D32*
%TO.N,150V*%
X87888197Y-57295369D02*
X88010454Y-57346010D01*
X88115436Y-57426564D01*
X88195990Y-57531546D01*
X88246631Y-57653803D01*
X88265000Y-57793328D01*
X88265000Y-60316672D01*
X88246631Y-60456197D01*
X88195990Y-60578454D01*
X88115436Y-60683436D01*
X88010454Y-60763990D01*
X87888197Y-60814631D01*
X87748672Y-60833000D01*
X80645000Y-60833000D01*
X80628423Y-60834086D01*
X80464073Y-60855723D01*
X80432049Y-60864304D01*
X80278899Y-60927741D01*
X80250188Y-60944318D01*
X80118675Y-61045231D01*
X80095231Y-61068675D01*
X79994318Y-61200188D01*
X79977741Y-61228899D01*
X79914304Y-61382049D01*
X79905723Y-61414073D01*
X79884086Y-61578423D01*
X79883000Y-61595000D01*
X79883000Y-66158672D01*
X79864631Y-66298197D01*
X79813990Y-66420454D01*
X79733436Y-66525436D01*
X79628454Y-66605990D01*
X79506197Y-66656631D01*
X79366672Y-66675000D01*
X78105000Y-66675000D01*
X78105000Y-66410408D01*
X78051314Y-66140510D01*
X77946005Y-65886273D01*
X77793120Y-65657465D01*
X77598535Y-65462880D01*
X77369727Y-65309995D01*
X77115490Y-65204686D01*
X76845592Y-65151000D01*
X76570408Y-65151000D01*
X76300510Y-65204686D01*
X76046273Y-65309995D01*
X75817465Y-65462880D01*
X75622880Y-65657465D01*
X75469995Y-65886273D01*
X75364686Y-66140510D01*
X75311000Y-66410408D01*
X75311000Y-66675000D01*
X70239328Y-66675000D01*
X70099803Y-66656631D01*
X69977546Y-66605990D01*
X69872564Y-66525436D01*
X69792010Y-66420454D01*
X69741369Y-66298197D01*
X69723000Y-66158672D01*
X69723000Y-62092408D01*
X70231000Y-62092408D01*
X70231000Y-62367592D01*
X70284686Y-62637490D01*
X70389995Y-62891727D01*
X70542880Y-63120535D01*
X70737465Y-63315120D01*
X70966273Y-63468005D01*
X71220510Y-63573314D01*
X71490408Y-63627000D01*
X71765592Y-63627000D01*
X72035490Y-63573314D01*
X72289727Y-63468005D01*
X72518535Y-63315120D01*
X72713120Y-63120535D01*
X72866005Y-62891727D01*
X72971314Y-62637490D01*
X73025000Y-62367592D01*
X73025000Y-62092408D01*
X72971314Y-61822510D01*
X72866005Y-61568273D01*
X72713120Y-61339465D01*
X72518535Y-61144880D01*
X72289727Y-60991995D01*
X72035490Y-60886686D01*
X71765592Y-60833000D01*
X71490408Y-60833000D01*
X71220510Y-60886686D01*
X70966273Y-60991995D01*
X70737465Y-61144880D01*
X70542880Y-61339465D01*
X70389995Y-61568273D01*
X70284686Y-61822510D01*
X70231000Y-62092408D01*
X69723000Y-62092408D01*
X69723000Y-61341000D01*
X69721914Y-61324423D01*
X69700277Y-61160073D01*
X69691696Y-61128049D01*
X69628259Y-60974899D01*
X69611682Y-60946188D01*
X69510769Y-60814675D01*
X69487325Y-60791231D01*
X69355812Y-60690318D01*
X69327101Y-60673741D01*
X69173951Y-60610304D01*
X69141927Y-60601723D01*
X68977577Y-60580086D01*
X68961000Y-60579000D01*
X61603328Y-60579000D01*
X61463803Y-60560631D01*
X61341546Y-60509990D01*
X61236564Y-60429436D01*
X61156010Y-60324454D01*
X61105369Y-60202197D01*
X61087000Y-60062672D01*
X61087000Y-57793328D01*
X61105369Y-57653803D01*
X61156010Y-57531546D01*
X61236564Y-57426564D01*
X61341546Y-57346010D01*
X61463803Y-57295369D01*
X61603328Y-57277000D01*
X87748672Y-57277000D01*
X87888197Y-57295369D01*
%TA.AperFunction,Conductor*%
D37*
G36*
X87888197Y-57295369D02*
G01*
X88010454Y-57346010D01*
X88115436Y-57426564D01*
X88195990Y-57531546D01*
X88246631Y-57653803D01*
X88265000Y-57793328D01*
X88265000Y-60316672D01*
X88246631Y-60456197D01*
X88195990Y-60578454D01*
X88115436Y-60683436D01*
X88010454Y-60763990D01*
X87888197Y-60814631D01*
X87748672Y-60833000D01*
X80645000Y-60833000D01*
X80628423Y-60834086D01*
X80464073Y-60855723D01*
X80432049Y-60864304D01*
X80278899Y-60927741D01*
X80250188Y-60944318D01*
X80118675Y-61045231D01*
X80095231Y-61068675D01*
X79994318Y-61200188D01*
X79977741Y-61228899D01*
X79914304Y-61382049D01*
X79905723Y-61414073D01*
X79884086Y-61578423D01*
X79883000Y-61595000D01*
X79883000Y-66158672D01*
X79864631Y-66298197D01*
X79813990Y-66420454D01*
X79733436Y-66525436D01*
X79628454Y-66605990D01*
X79506197Y-66656631D01*
X79366672Y-66675000D01*
X78105000Y-66675000D01*
X78105000Y-66410408D01*
X78051314Y-66140510D01*
X77946005Y-65886273D01*
X77793120Y-65657465D01*
X77598535Y-65462880D01*
X77369727Y-65309995D01*
X77115490Y-65204686D01*
X76845592Y-65151000D01*
X76570408Y-65151000D01*
X76300510Y-65204686D01*
X76046273Y-65309995D01*
X75817465Y-65462880D01*
X75622880Y-65657465D01*
X75469995Y-65886273D01*
X75364686Y-66140510D01*
X75311000Y-66410408D01*
X75311000Y-66675000D01*
X70239328Y-66675000D01*
X70099803Y-66656631D01*
X69977546Y-66605990D01*
X69872564Y-66525436D01*
X69792010Y-66420454D01*
X69741369Y-66298197D01*
X69723000Y-66158672D01*
X69723000Y-62092408D01*
X70231000Y-62092408D01*
X70231000Y-62367592D01*
X70284686Y-62637490D01*
X70389995Y-62891727D01*
X70542880Y-63120535D01*
X70737465Y-63315120D01*
X70966273Y-63468005D01*
X71220510Y-63573314D01*
X71490408Y-63627000D01*
X71765592Y-63627000D01*
X72035490Y-63573314D01*
X72289727Y-63468005D01*
X72518535Y-63315120D01*
X72713120Y-63120535D01*
X72866005Y-62891727D01*
X72971314Y-62637490D01*
X73025000Y-62367592D01*
X73025000Y-62092408D01*
X72971314Y-61822510D01*
X72866005Y-61568273D01*
X72713120Y-61339465D01*
X72518535Y-61144880D01*
X72289727Y-60991995D01*
X72035490Y-60886686D01*
X71765592Y-60833000D01*
X71490408Y-60833000D01*
X71220510Y-60886686D01*
X70966273Y-60991995D01*
X70737465Y-61144880D01*
X70542880Y-61339465D01*
X70389995Y-61568273D01*
X70284686Y-61822510D01*
X70231000Y-62092408D01*
X69723000Y-62092408D01*
X69723000Y-61341000D01*
X69721914Y-61324423D01*
X69700277Y-61160073D01*
X69691696Y-61128049D01*
X69628259Y-60974899D01*
X69611682Y-60946188D01*
X69510769Y-60814675D01*
X69487325Y-60791231D01*
X69355812Y-60690318D01*
X69327101Y-60673741D01*
X69173951Y-60610304D01*
X69141927Y-60601723D01*
X68977577Y-60580086D01*
X68961000Y-60579000D01*
X61603328Y-60579000D01*
X61463803Y-60560631D01*
X61341546Y-60509990D01*
X61236564Y-60429436D01*
X61156010Y-60324454D01*
X61105369Y-60202197D01*
X61087000Y-60062672D01*
X61087000Y-57793328D01*
X61105369Y-57653803D01*
X61156010Y-57531546D01*
X61236564Y-57426564D01*
X61341546Y-57346010D01*
X61463803Y-57295369D01*
X61603328Y-57277000D01*
X87748672Y-57277000D01*
X87888197Y-57295369D01*
G37*
%TD.AperFunction*%
%TD*%
D32*
%TO.N,+12V*%
X75696197Y-101745369D02*
X75818454Y-101796010D01*
X75923436Y-101876564D01*
X76003990Y-101981546D01*
X76054631Y-102103803D01*
X76073000Y-102243328D01*
X76073000Y-109846672D01*
X76054631Y-109986197D01*
X76003990Y-110108454D01*
X75923436Y-110213436D01*
X75818454Y-110293990D01*
X75696197Y-110344631D01*
X75605806Y-110356531D01*
X75603000Y-109886750D01*
X75444250Y-109728000D01*
X74295000Y-109728000D01*
X74295000Y-109748000D01*
X74041000Y-109748000D01*
X74041000Y-109728000D01*
X72891750Y-109728000D01*
X72733000Y-109886750D01*
X72730155Y-110363000D01*
X59063328Y-110363000D01*
X58923803Y-110344631D01*
X58801546Y-110293990D01*
X58696564Y-110213436D01*
X58616010Y-110108454D01*
X58565369Y-109986197D01*
X58547000Y-109846672D01*
X58547000Y-108801000D01*
X72729928Y-108801000D01*
X72733000Y-109315250D01*
X72891750Y-109474000D01*
X74041000Y-109474000D01*
X74041000Y-108324750D01*
X74295000Y-108324750D01*
X74295000Y-109474000D01*
X75444250Y-109474000D01*
X75603000Y-109315250D01*
X75606072Y-108801000D01*
X75593812Y-108676518D01*
X75557502Y-108556820D01*
X75498537Y-108446506D01*
X75419185Y-108349815D01*
X75322494Y-108270463D01*
X75212180Y-108211498D01*
X75092482Y-108175188D01*
X74968000Y-108162928D01*
X74453750Y-108166000D01*
X74295000Y-108324750D01*
X74041000Y-108324750D01*
X73882250Y-108166000D01*
X73368000Y-108162928D01*
X73243518Y-108175188D01*
X73123820Y-108211498D01*
X73013506Y-108270463D01*
X72916815Y-108349815D01*
X72837463Y-108446506D01*
X72778498Y-108556820D01*
X72742188Y-108676518D01*
X72729928Y-108801000D01*
X58547000Y-108801000D01*
X58547000Y-102243328D01*
X58565369Y-102103803D01*
X58616010Y-101981546D01*
X58696564Y-101876564D01*
X58801546Y-101796010D01*
X58923803Y-101745369D01*
X59063328Y-101727000D01*
X75556672Y-101727000D01*
X75696197Y-101745369D01*
%TA.AperFunction,Conductor*%
D37*
G36*
X75696197Y-101745369D02*
G01*
X75818454Y-101796010D01*
X75923436Y-101876564D01*
X76003990Y-101981546D01*
X76054631Y-102103803D01*
X76073000Y-102243328D01*
X76073000Y-109846672D01*
X76054631Y-109986197D01*
X76003990Y-110108454D01*
X75923436Y-110213436D01*
X75818454Y-110293990D01*
X75696197Y-110344631D01*
X75605806Y-110356531D01*
X75603000Y-109886750D01*
X75444250Y-109728000D01*
X74295000Y-109728000D01*
X74295000Y-109748000D01*
X74041000Y-109748000D01*
X74041000Y-109728000D01*
X72891750Y-109728000D01*
X72733000Y-109886750D01*
X72730155Y-110363000D01*
X59063328Y-110363000D01*
X58923803Y-110344631D01*
X58801546Y-110293990D01*
X58696564Y-110213436D01*
X58616010Y-110108454D01*
X58565369Y-109986197D01*
X58547000Y-109846672D01*
X58547000Y-108801000D01*
X72729928Y-108801000D01*
X72733000Y-109315250D01*
X72891750Y-109474000D01*
X74041000Y-109474000D01*
X74041000Y-108324750D01*
X74295000Y-108324750D01*
X74295000Y-109474000D01*
X75444250Y-109474000D01*
X75603000Y-109315250D01*
X75606072Y-108801000D01*
X75593812Y-108676518D01*
X75557502Y-108556820D01*
X75498537Y-108446506D01*
X75419185Y-108349815D01*
X75322494Y-108270463D01*
X75212180Y-108211498D01*
X75092482Y-108175188D01*
X74968000Y-108162928D01*
X74453750Y-108166000D01*
X74295000Y-108324750D01*
X74041000Y-108324750D01*
X73882250Y-108166000D01*
X73368000Y-108162928D01*
X73243518Y-108175188D01*
X73123820Y-108211498D01*
X73013506Y-108270463D01*
X72916815Y-108349815D01*
X72837463Y-108446506D01*
X72778498Y-108556820D01*
X72742188Y-108676518D01*
X72729928Y-108801000D01*
X58547000Y-108801000D01*
X58547000Y-102243328D01*
X58565369Y-102103803D01*
X58616010Y-101981546D01*
X58696564Y-101876564D01*
X58801546Y-101796010D01*
X58923803Y-101745369D01*
X59063328Y-101727000D01*
X75556672Y-101727000D01*
X75696197Y-101745369D01*
G37*
%TD.AperFunction*%
%TD*%
D32*
%TO.N,GND*%
X88083635Y-51807147D02*
X88136126Y-51925680D01*
X88158152Y-52061773D01*
X88243648Y-54712133D01*
X88229122Y-54854980D01*
X88180484Y-54980936D01*
X88100322Y-55089577D01*
X87994317Y-55173204D01*
X87870002Y-55225875D01*
X87727687Y-55245000D01*
X61603328Y-55245000D01*
X61463803Y-55226631D01*
X61341546Y-55175990D01*
X61236564Y-55095436D01*
X61156010Y-54990454D01*
X61105369Y-54868197D01*
X61087000Y-54728672D01*
X61087000Y-52078328D01*
X61105369Y-51938803D01*
X61156010Y-51816546D01*
X61234695Y-51714000D01*
X88009336Y-51714000D01*
X88083635Y-51807147D01*
%TA.AperFunction,Conductor*%
D37*
G36*
X88083635Y-51807147D02*
G01*
X88136126Y-51925680D01*
X88158152Y-52061773D01*
X88243648Y-54712133D01*
X88229122Y-54854980D01*
X88180484Y-54980936D01*
X88100322Y-55089577D01*
X87994317Y-55173204D01*
X87870002Y-55225875D01*
X87727687Y-55245000D01*
X61603328Y-55245000D01*
X61463803Y-55226631D01*
X61341546Y-55175990D01*
X61236564Y-55095436D01*
X61156010Y-54990454D01*
X61105369Y-54868197D01*
X61087000Y-54728672D01*
X61087000Y-52078328D01*
X61105369Y-51938803D01*
X61156010Y-51816546D01*
X61234695Y-51714000D01*
X88009336Y-51714000D01*
X88083635Y-51807147D01*
G37*
%TD.AperFunction*%
%TD*%
D32*
%TO.N,+5V*%
X96778197Y-108603369D02*
X96900454Y-108654010D01*
X97005436Y-108734564D01*
X97085990Y-108839546D01*
X97136631Y-108961803D01*
X97155000Y-109101328D01*
X97155000Y-113656672D01*
X97136631Y-113796197D01*
X97085990Y-113918454D01*
X97005436Y-114023436D01*
X96900454Y-114103990D01*
X96778197Y-114154631D01*
X96638672Y-114173000D01*
X88781328Y-114173000D01*
X88641803Y-114154631D01*
X88519546Y-114103990D01*
X88414564Y-114023436D01*
X88334010Y-113918454D01*
X88283369Y-113796197D01*
X88265000Y-113656672D01*
X88265000Y-109101328D01*
X88283369Y-108961803D01*
X88334010Y-108839546D01*
X88414564Y-108734564D01*
X88519546Y-108654010D01*
X88641803Y-108603369D01*
X88781328Y-108585000D01*
X96638672Y-108585000D01*
X96778197Y-108603369D01*
%TA.AperFunction,Conductor*%
D37*
G36*
X96778197Y-108603369D02*
G01*
X96900454Y-108654010D01*
X97005436Y-108734564D01*
X97085990Y-108839546D01*
X97136631Y-108961803D01*
X97155000Y-109101328D01*
X97155000Y-113656672D01*
X97136631Y-113796197D01*
X97085990Y-113918454D01*
X97005436Y-114023436D01*
X96900454Y-114103990D01*
X96778197Y-114154631D01*
X96638672Y-114173000D01*
X88781328Y-114173000D01*
X88641803Y-114154631D01*
X88519546Y-114103990D01*
X88414564Y-114023436D01*
X88334010Y-113918454D01*
X88283369Y-113796197D01*
X88265000Y-113656672D01*
X88265000Y-109101328D01*
X88283369Y-108961803D01*
X88334010Y-108839546D01*
X88414564Y-108734564D01*
X88519546Y-108654010D01*
X88641803Y-108603369D01*
X88781328Y-108585000D01*
X96638672Y-108585000D01*
X96778197Y-108603369D01*
G37*
%TD.AperFunction*%
%TD*%
D32*
%TO.N,Net-(C18-Pad2)*%
X97794197Y-115461369D02*
X97916454Y-115512010D01*
X98021436Y-115592564D01*
X98101990Y-115697546D01*
X98152631Y-115819803D01*
X98171000Y-115959328D01*
X98171000Y-117720672D01*
X98152631Y-117860197D01*
X98101990Y-117982454D01*
X98021436Y-118087436D01*
X97916454Y-118167990D01*
X97794197Y-118218631D01*
X97654672Y-118237000D01*
X96760402Y-118237000D01*
X96710500Y-118232085D01*
X96660598Y-118237000D01*
X94220402Y-118237000D01*
X94170500Y-118232085D01*
X94120598Y-118237000D01*
X90305328Y-118237000D01*
X90165803Y-118218631D01*
X90043546Y-118167990D01*
X89938564Y-118087436D01*
X89858010Y-117982454D01*
X89807369Y-117860197D01*
X89789000Y-117720672D01*
X89789000Y-115959328D01*
X89807369Y-115819803D01*
X89858010Y-115697546D01*
X89938564Y-115592564D01*
X90043546Y-115512010D01*
X90165803Y-115461369D01*
X90305328Y-115443000D01*
X97654672Y-115443000D01*
X97794197Y-115461369D01*
%TA.AperFunction,Conductor*%
D37*
G36*
X97794197Y-115461369D02*
G01*
X97916454Y-115512010D01*
X98021436Y-115592564D01*
X98101990Y-115697546D01*
X98152631Y-115819803D01*
X98171000Y-115959328D01*
X98171000Y-117720672D01*
X98152631Y-117860197D01*
X98101990Y-117982454D01*
X98021436Y-118087436D01*
X97916454Y-118167990D01*
X97794197Y-118218631D01*
X97654672Y-118237000D01*
X96760402Y-118237000D01*
X96710500Y-118232085D01*
X96660598Y-118237000D01*
X94220402Y-118237000D01*
X94170500Y-118232085D01*
X94120598Y-118237000D01*
X90305328Y-118237000D01*
X90165803Y-118218631D01*
X90043546Y-118167990D01*
X89938564Y-118087436D01*
X89858010Y-117982454D01*
X89807369Y-117860197D01*
X89789000Y-117720672D01*
X89789000Y-115959328D01*
X89807369Y-115819803D01*
X89858010Y-115697546D01*
X89938564Y-115592564D01*
X90043546Y-115512010D01*
X90165803Y-115461369D01*
X90305328Y-115443000D01*
X97654672Y-115443000D01*
X97794197Y-115461369D01*
G37*
%TD.AperFunction*%
%TD*%
M02*
