%TF.GenerationSoftware,KiCad,Pcbnew,(5.1.9)-1*%
%TF.CreationDate,2021-10-04T18:28:26-04:00*%
%TF.ProjectId,In9 Music Visualizer RevC,496e3920-4d75-4736-9963-205669737561,rev?*%
%TF.SameCoordinates,Original*%
%TF.FileFunction,Copper,L4,Bot*%
%TF.FilePolarity,Positive*%
%FSLAX46Y46*%
G04 Gerber Fmt 4.6, Leading zero omitted, Abs format (unit mm)*
G04 Created by KiCad (PCBNEW (5.1.9)-1) date 2021-10-04 18:28:26*
%MOMM*%
%LPD*%
G01*
G04 APERTURE LIST*
%TA.AperFunction,ComponentPad*%
%ADD10O,1.905000X2.000000*%
%TD*%
%TA.AperFunction,ComponentPad*%
%ADD11R,1.905000X2.000000*%
%TD*%
%TA.AperFunction,ComponentPad*%
%ADD12C,1.600000*%
%TD*%
%TA.AperFunction,ComponentPad*%
%ADD13R,1.600000X1.600000*%
%TD*%
%TA.AperFunction,ComponentPad*%
%ADD14C,5.715000*%
%TD*%
%TA.AperFunction,ComponentPad*%
%ADD15O,1.700000X1.700000*%
%TD*%
%TA.AperFunction,ComponentPad*%
%ADD16R,1.700000X1.700000*%
%TD*%
%TA.AperFunction,ComponentPad*%
%ADD17C,1.700000*%
%TD*%
%TA.AperFunction,ComponentPad*%
%ADD18C,4.000000*%
%TD*%
%TA.AperFunction,ComponentPad*%
%ADD19C,2.400000*%
%TD*%
%TA.AperFunction,ComponentPad*%
%ADD20R,2.400000X2.400000*%
%TD*%
%TA.AperFunction,ViaPad*%
%ADD21C,0.762000*%
%TD*%
%TA.AperFunction,ViaPad*%
%ADD22C,1.016000*%
%TD*%
%TA.AperFunction,Conductor*%
%ADD23C,1.016000*%
%TD*%
%TA.AperFunction,Conductor*%
%ADD24C,0.508000*%
%TD*%
%TA.AperFunction,Conductor*%
%ADD25C,0.254000*%
%TD*%
%TA.AperFunction,Conductor*%
%ADD26C,0.762000*%
%TD*%
G04 APERTURE END LIST*
%TO.P,R13,2*%
%TO.N,GND*%
%TA.AperFunction,SMDPad,CuDef*%
G36*
G01*
X67829000Y-78476001D02*
X67829000Y-77225999D01*
G75*
G02*
X68078999Y-76976000I249999J0D01*
G01*
X68879001Y-76976000D01*
G75*
G02*
X69129000Y-77225999I0J-249999D01*
G01*
X69129000Y-78476001D01*
G75*
G02*
X68879001Y-78726000I-249999J0D01*
G01*
X68078999Y-78726000D01*
G75*
G02*
X67829000Y-78476001I0J249999D01*
G01*
G37*
%TD.AperFunction*%
%TO.P,R13,1*%
%TO.N,Net-(C17-Pad1)*%
%TA.AperFunction,SMDPad,CuDef*%
G36*
G01*
X64729000Y-78476001D02*
X64729000Y-77225999D01*
G75*
G02*
X64978999Y-76976000I249999J0D01*
G01*
X65779001Y-76976000D01*
G75*
G02*
X66029000Y-77225999I0J-249999D01*
G01*
X66029000Y-78476001D01*
G75*
G02*
X65779001Y-78726000I-249999J0D01*
G01*
X64978999Y-78726000D01*
G75*
G02*
X64729000Y-78476001I0J249999D01*
G01*
G37*
%TD.AperFunction*%
%TD*%
D10*
%TO.P,Q2,3*%
%TO.N,Net-(C17-Pad1)*%
X65405000Y-74549000D03*
%TO.P,Q2,2*%
%TO.N,Net-(D1-Pad2)*%
X67945000Y-74549000D03*
D11*
%TO.P,Q2,1*%
%TO.N,Net-(Q2-Pad1)*%
X70485000Y-74549000D03*
%TD*%
D12*
%TO.P,C22,2*%
%TO.N,GND*%
X87884000Y-123658000D03*
D13*
%TO.P,C22,1*%
%TO.N,+12V*%
X87884000Y-121158000D03*
%TD*%
D14*
%TO.P,REF\u002A\u002A,1*%
%TO.N,N/C*%
X172720000Y-121920000D03*
%TD*%
%TO.P,R10,2*%
%TO.N,Net-(R10-Pad2)*%
%TA.AperFunction,SMDPad,CuDef*%
G36*
G01*
X60775001Y-66005000D02*
X59874999Y-66005000D01*
G75*
G02*
X59625000Y-65755001I0J249999D01*
G01*
X59625000Y-65054999D01*
G75*
G02*
X59874999Y-64805000I249999J0D01*
G01*
X60775001Y-64805000D01*
G75*
G02*
X61025000Y-65054999I0J-249999D01*
G01*
X61025000Y-65755001D01*
G75*
G02*
X60775001Y-66005000I-249999J0D01*
G01*
G37*
%TD.AperFunction*%
%TO.P,R10,1*%
%TO.N,Net-(C17-Pad1)*%
%TA.AperFunction,SMDPad,CuDef*%
G36*
G01*
X60775001Y-68005000D02*
X59874999Y-68005000D01*
G75*
G02*
X59625000Y-67755001I0J249999D01*
G01*
X59625000Y-67054999D01*
G75*
G02*
X59874999Y-66805000I249999J0D01*
G01*
X60775001Y-66805000D01*
G75*
G02*
X61025000Y-67054999I0J-249999D01*
G01*
X61025000Y-67755001D01*
G75*
G02*
X60775001Y-68005000I-249999J0D01*
G01*
G37*
%TD.AperFunction*%
%TD*%
%TO.P,REF\u002A\u002A,1*%
%TO.N,N/C*%
X172720000Y-55880000D03*
%TD*%
%TO.P,REF\u002A\u002A,1*%
%TO.N,N/C*%
X55880000Y-121920000D03*
%TD*%
%TO.P,REF\u002A\u002A,1*%
%TO.N,N/C*%
X55880000Y-55880000D03*
%TD*%
%TO.P,U2,8*%
%TO.N,Net-(C14-Pad1)*%
%TA.AperFunction,SMDPad,CuDef*%
G36*
G01*
X62715000Y-69645000D02*
X63015000Y-69645000D01*
G75*
G02*
X63165000Y-69795000I0J-150000D01*
G01*
X63165000Y-71245000D01*
G75*
G02*
X63015000Y-71395000I-150000J0D01*
G01*
X62715000Y-71395000D01*
G75*
G02*
X62565000Y-71245000I0J150000D01*
G01*
X62565000Y-69795000D01*
G75*
G02*
X62715000Y-69645000I150000J0D01*
G01*
G37*
%TD.AperFunction*%
%TO.P,U2,7*%
%TO.N,Net-(R12-Pad1)*%
%TA.AperFunction,SMDPad,CuDef*%
G36*
G01*
X63985000Y-69645000D02*
X64285000Y-69645000D01*
G75*
G02*
X64435000Y-69795000I0J-150000D01*
G01*
X64435000Y-71245000D01*
G75*
G02*
X64285000Y-71395000I-150000J0D01*
G01*
X63985000Y-71395000D01*
G75*
G02*
X63835000Y-71245000I0J150000D01*
G01*
X63835000Y-69795000D01*
G75*
G02*
X63985000Y-69645000I150000J0D01*
G01*
G37*
%TD.AperFunction*%
%TO.P,U2,6*%
%TO.N,Net-(Q2-Pad1)*%
%TA.AperFunction,SMDPad,CuDef*%
G36*
G01*
X65255000Y-69645000D02*
X65555000Y-69645000D01*
G75*
G02*
X65705000Y-69795000I0J-150000D01*
G01*
X65705000Y-71245000D01*
G75*
G02*
X65555000Y-71395000I-150000J0D01*
G01*
X65255000Y-71395000D01*
G75*
G02*
X65105000Y-71245000I0J150000D01*
G01*
X65105000Y-69795000D01*
G75*
G02*
X65255000Y-69645000I150000J0D01*
G01*
G37*
%TD.AperFunction*%
%TO.P,U2,5*%
%TO.N,GND*%
%TA.AperFunction,SMDPad,CuDef*%
G36*
G01*
X66525000Y-69645000D02*
X66825000Y-69645000D01*
G75*
G02*
X66975000Y-69795000I0J-150000D01*
G01*
X66975000Y-71245000D01*
G75*
G02*
X66825000Y-71395000I-150000J0D01*
G01*
X66525000Y-71395000D01*
G75*
G02*
X66375000Y-71245000I0J150000D01*
G01*
X66375000Y-69795000D01*
G75*
G02*
X66525000Y-69645000I150000J0D01*
G01*
G37*
%TD.AperFunction*%
%TO.P,U2,4*%
%TA.AperFunction,SMDPad,CuDef*%
G36*
G01*
X66525000Y-64495000D02*
X66825000Y-64495000D01*
G75*
G02*
X66975000Y-64645000I0J-150000D01*
G01*
X66975000Y-66095000D01*
G75*
G02*
X66825000Y-66245000I-150000J0D01*
G01*
X66525000Y-66245000D01*
G75*
G02*
X66375000Y-66095000I0J150000D01*
G01*
X66375000Y-64645000D01*
G75*
G02*
X66525000Y-64495000I150000J0D01*
G01*
G37*
%TD.AperFunction*%
%TO.P,U2,3*%
%TO.N,Net-(R11-Pad1)*%
%TA.AperFunction,SMDPad,CuDef*%
G36*
G01*
X65255000Y-64495000D02*
X65555000Y-64495000D01*
G75*
G02*
X65705000Y-64645000I0J-150000D01*
G01*
X65705000Y-66095000D01*
G75*
G02*
X65555000Y-66245000I-150000J0D01*
G01*
X65255000Y-66245000D01*
G75*
G02*
X65105000Y-66095000I0J150000D01*
G01*
X65105000Y-64645000D01*
G75*
G02*
X65255000Y-64495000I150000J0D01*
G01*
G37*
%TD.AperFunction*%
%TO.P,U2,2*%
%TO.N,Net-(C15-Pad1)*%
%TA.AperFunction,SMDPad,CuDef*%
G36*
G01*
X63985000Y-64495000D02*
X64285000Y-64495000D01*
G75*
G02*
X64435000Y-64645000I0J-150000D01*
G01*
X64435000Y-66095000D01*
G75*
G02*
X64285000Y-66245000I-150000J0D01*
G01*
X63985000Y-66245000D01*
G75*
G02*
X63835000Y-66095000I0J150000D01*
G01*
X63835000Y-64645000D01*
G75*
G02*
X63985000Y-64495000I150000J0D01*
G01*
G37*
%TD.AperFunction*%
%TO.P,U2,1*%
%TO.N,Net-(R10-Pad2)*%
%TA.AperFunction,SMDPad,CuDef*%
G36*
G01*
X62715000Y-64495000D02*
X63015000Y-64495000D01*
G75*
G02*
X63165000Y-64645000I0J-150000D01*
G01*
X63165000Y-66095000D01*
G75*
G02*
X63015000Y-66245000I-150000J0D01*
G01*
X62715000Y-66245000D01*
G75*
G02*
X62565000Y-66095000I0J150000D01*
G01*
X62565000Y-64645000D01*
G75*
G02*
X62715000Y-64495000I150000J0D01*
G01*
G37*
%TD.AperFunction*%
%TD*%
%TO.P,R14,2*%
%TO.N,GND*%
%TA.AperFunction,SMDPad,CuDef*%
G36*
G01*
X69980000Y-62680001D02*
X69980000Y-61779999D01*
G75*
G02*
X70229999Y-61530000I249999J0D01*
G01*
X70930001Y-61530000D01*
G75*
G02*
X71180000Y-61779999I0J-249999D01*
G01*
X71180000Y-62680001D01*
G75*
G02*
X70930001Y-62930000I-249999J0D01*
G01*
X70229999Y-62930000D01*
G75*
G02*
X69980000Y-62680001I0J249999D01*
G01*
G37*
%TD.AperFunction*%
%TO.P,R14,1*%
%TO.N,Net-(C15-Pad2)*%
%TA.AperFunction,SMDPad,CuDef*%
G36*
G01*
X67980000Y-62680001D02*
X67980000Y-61779999D01*
G75*
G02*
X68229999Y-61530000I249999J0D01*
G01*
X68930001Y-61530000D01*
G75*
G02*
X69180000Y-61779999I0J-249999D01*
G01*
X69180000Y-62680001D01*
G75*
G02*
X68930001Y-62930000I-249999J0D01*
G01*
X68229999Y-62930000D01*
G75*
G02*
X67980000Y-62680001I0J249999D01*
G01*
G37*
%TD.AperFunction*%
%TD*%
%TO.P,R12,2*%
%TO.N,GND*%
%TA.AperFunction,SMDPad,CuDef*%
G36*
G01*
X60775001Y-75403000D02*
X59874999Y-75403000D01*
G75*
G02*
X59625000Y-75153001I0J249999D01*
G01*
X59625000Y-74452999D01*
G75*
G02*
X59874999Y-74203000I249999J0D01*
G01*
X60775001Y-74203000D01*
G75*
G02*
X61025000Y-74452999I0J-249999D01*
G01*
X61025000Y-75153001D01*
G75*
G02*
X60775001Y-75403000I-249999J0D01*
G01*
G37*
%TD.AperFunction*%
%TO.P,R12,1*%
%TO.N,Net-(R12-Pad1)*%
%TA.AperFunction,SMDPad,CuDef*%
G36*
G01*
X60775001Y-77403000D02*
X59874999Y-77403000D01*
G75*
G02*
X59625000Y-77153001I0J249999D01*
G01*
X59625000Y-76452999D01*
G75*
G02*
X59874999Y-76203000I249999J0D01*
G01*
X60775001Y-76203000D01*
G75*
G02*
X61025000Y-76452999I0J-249999D01*
G01*
X61025000Y-77153001D01*
G75*
G02*
X60775001Y-77403000I-249999J0D01*
G01*
G37*
%TD.AperFunction*%
%TD*%
%TO.P,R11,2*%
%TO.N,GND*%
%TA.AperFunction,SMDPad,CuDef*%
G36*
G01*
X75060000Y-66998001D02*
X75060000Y-66097999D01*
G75*
G02*
X75309999Y-65848000I249999J0D01*
G01*
X76010001Y-65848000D01*
G75*
G02*
X76260000Y-66097999I0J-249999D01*
G01*
X76260000Y-66998001D01*
G75*
G02*
X76010001Y-67248000I-249999J0D01*
G01*
X75309999Y-67248000D01*
G75*
G02*
X75060000Y-66998001I0J249999D01*
G01*
G37*
%TD.AperFunction*%
%TO.P,R11,1*%
%TO.N,Net-(R11-Pad1)*%
%TA.AperFunction,SMDPad,CuDef*%
G36*
G01*
X73060000Y-66998001D02*
X73060000Y-66097999D01*
G75*
G02*
X73309999Y-65848000I249999J0D01*
G01*
X74010001Y-65848000D01*
G75*
G02*
X74260000Y-66097999I0J-249999D01*
G01*
X74260000Y-66998001D01*
G75*
G02*
X74010001Y-67248000I-249999J0D01*
G01*
X73309999Y-67248000D01*
G75*
G02*
X73060000Y-66998001I0J249999D01*
G01*
G37*
%TD.AperFunction*%
%TD*%
%TO.P,R8,2*%
%TO.N,Net-(R11-Pad1)*%
%TA.AperFunction,SMDPad,CuDef*%
G36*
G01*
X73209999Y-63630000D02*
X74110001Y-63630000D01*
G75*
G02*
X74360000Y-63879999I0J-249999D01*
G01*
X74360000Y-64580001D01*
G75*
G02*
X74110001Y-64830000I-249999J0D01*
G01*
X73209999Y-64830000D01*
G75*
G02*
X72960000Y-64580001I0J249999D01*
G01*
X72960000Y-63879999D01*
G75*
G02*
X73209999Y-63630000I249999J0D01*
G01*
G37*
%TD.AperFunction*%
%TO.P,R8,1*%
%TO.N,150V*%
%TA.AperFunction,SMDPad,CuDef*%
G36*
G01*
X73209999Y-61630000D02*
X74110001Y-61630000D01*
G75*
G02*
X74360000Y-61879999I0J-249999D01*
G01*
X74360000Y-62580001D01*
G75*
G02*
X74110001Y-62830000I-249999J0D01*
G01*
X73209999Y-62830000D01*
G75*
G02*
X72960000Y-62580001I0J249999D01*
G01*
X72960000Y-61879999D01*
G75*
G02*
X73209999Y-61630000I249999J0D01*
G01*
G37*
%TD.AperFunction*%
%TD*%
%TO.P,R7,2*%
%TO.N,Net-(C14-Pad1)*%
%TA.AperFunction,SMDPad,CuDef*%
G36*
G01*
X58235001Y-71355000D02*
X57334999Y-71355000D01*
G75*
G02*
X57085000Y-71105001I0J249999D01*
G01*
X57085000Y-70404999D01*
G75*
G02*
X57334999Y-70155000I249999J0D01*
G01*
X58235001Y-70155000D01*
G75*
G02*
X58485000Y-70404999I0J-249999D01*
G01*
X58485000Y-71105001D01*
G75*
G02*
X58235001Y-71355000I-249999J0D01*
G01*
G37*
%TD.AperFunction*%
%TO.P,R7,1*%
%TO.N,+12V*%
%TA.AperFunction,SMDPad,CuDef*%
G36*
G01*
X58235001Y-73355000D02*
X57334999Y-73355000D01*
G75*
G02*
X57085000Y-73105001I0J249999D01*
G01*
X57085000Y-72404999D01*
G75*
G02*
X57334999Y-72155000I249999J0D01*
G01*
X58235001Y-72155000D01*
G75*
G02*
X58485000Y-72404999I0J-249999D01*
G01*
X58485000Y-73105001D01*
G75*
G02*
X58235001Y-73355000I-249999J0D01*
G01*
G37*
%TD.AperFunction*%
%TD*%
%TO.P,R1,2*%
%TO.N,Net-(R1-Pad2)*%
%TA.AperFunction,SMDPad,CuDef*%
G36*
G01*
X146285000Y-123374999D02*
X146285000Y-124275001D01*
G75*
G02*
X146035001Y-124525000I-249999J0D01*
G01*
X145334999Y-124525000D01*
G75*
G02*
X145085000Y-124275001I0J249999D01*
G01*
X145085000Y-123374999D01*
G75*
G02*
X145334999Y-123125000I249999J0D01*
G01*
X146035001Y-123125000D01*
G75*
G02*
X146285000Y-123374999I0J-249999D01*
G01*
G37*
%TD.AperFunction*%
%TO.P,R1,1*%
%TO.N,/ADC_in*%
%TA.AperFunction,SMDPad,CuDef*%
G36*
G01*
X148285000Y-123374999D02*
X148285000Y-124275001D01*
G75*
G02*
X148035001Y-124525000I-249999J0D01*
G01*
X147334999Y-124525000D01*
G75*
G02*
X147085000Y-124275001I0J249999D01*
G01*
X147085000Y-123374999D01*
G75*
G02*
X147334999Y-123125000I249999J0D01*
G01*
X148035001Y-123125000D01*
G75*
G02*
X148285000Y-123374999I0J-249999D01*
G01*
G37*
%TD.AperFunction*%
%TD*%
D15*
%TO.P,J4,12*%
%TO.N,Net-(J4-Pad12)*%
X127635000Y-53975000D03*
%TO.P,J4,11*%
%TO.N,Net-(J4-Pad11)*%
X127635000Y-56515000D03*
%TO.P,J4,10*%
%TO.N,Net-(J4-Pad10)*%
X125095000Y-53975000D03*
%TO.P,J4,9*%
%TO.N,Net-(J4-Pad9)*%
X125095000Y-56515000D03*
%TO.P,J4,8*%
%TO.N,Net-(J4-Pad8)*%
X122555000Y-53975000D03*
%TO.P,J4,7*%
%TO.N,Net-(J4-Pad7)*%
X122555000Y-56515000D03*
%TO.P,J4,6*%
%TO.N,Net-(J4-Pad6)*%
X120015000Y-53975000D03*
%TO.P,J4,5*%
%TO.N,Net-(J4-Pad5)*%
X120015000Y-56515000D03*
%TO.P,J4,4*%
%TO.N,Net-(J4-Pad4)*%
X117475000Y-53975000D03*
%TO.P,J4,3*%
%TO.N,Net-(J4-Pad3)*%
X117475000Y-56515000D03*
%TO.P,J4,2*%
%TO.N,Net-(J4-Pad2)*%
X114935000Y-53975000D03*
D16*
%TO.P,J4,1*%
%TO.N,150V*%
X114935000Y-56515000D03*
%TD*%
D17*
%TO.P,J3,2*%
%TO.N,/MIC_out*%
X163195000Y-121920000D03*
D16*
%TO.P,J3,1*%
%TO.N,+5V*%
X160655000Y-121920000D03*
D17*
%TO.P,J3,3*%
%TO.N,GND*%
X165735000Y-121920000D03*
%TD*%
%TO.P,J2,2*%
%TO.N,Net-(J2-Pad2)*%
X118745000Y-121920000D03*
D16*
%TO.P,J2,1*%
%TO.N,+5V*%
X116205000Y-121920000D03*
%TD*%
D15*
%TO.P,MCU1,42*%
%TO.N,Net-(MCU1-Pad42)*%
X158750000Y-110490000D03*
%TO.P,MCU1,41*%
%TO.N,Net-(MCU1-Pad41)*%
X156210000Y-110490000D03*
D17*
%TO.P,MCU1,48*%
%TO.N,+5V*%
X173990000Y-110490000D03*
D15*
%TO.P,MCU1,45*%
%TO.N,Net-(MCU1-Pad45)*%
X166370000Y-110490000D03*
%TO.P,MCU1,47*%
%TO.N,GND*%
X171450000Y-110490000D03*
%TO.P,MCU1,44*%
%TO.N,Net-(MCU1-Pad44)*%
X163830000Y-110490000D03*
%TO.P,MCU1,46*%
%TO.N,Net-(MCU1-Pad46)*%
X168910000Y-110490000D03*
%TO.P,MCU1,43*%
%TO.N,Net-(MCU1-Pad43)*%
X161290000Y-110490000D03*
%TO.P,MCU1,40*%
%TO.N,Net-(MCU1-Pad40)*%
X153670000Y-110490000D03*
%TO.P,MCU1,39*%
%TO.N,Net-(MCU1-Pad39)*%
X151130000Y-110490000D03*
%TO.P,MCU1,38*%
%TO.N,/ADC_in*%
X148590000Y-110490000D03*
%TO.P,MCU1,37*%
%TO.N,Net-(MCU1-Pad37)*%
X146050000Y-110490000D03*
%TO.P,MCU1,36*%
%TO.N,Net-(MCU1-Pad36)*%
X143510000Y-110490000D03*
%TO.P,MCU1,35*%
%TO.N,/pwr_led*%
X140970000Y-110490000D03*
%TO.P,MCU1,29*%
%TO.N,Net-(MCU1-Pad29)*%
X125730000Y-110490000D03*
%TO.P,MCU1,32*%
%TO.N,Net-(MCU1-Pad32)*%
X133350000Y-110490000D03*
%TO.P,MCU1,33*%
%TO.N,Net-(MCU1-Pad33)*%
X135890000Y-110490000D03*
%TO.P,MCU1,34*%
%TO.N,GND*%
X138430000Y-110490000D03*
%TO.P,MCU1,26*%
%TO.N,Net-(MCU1-Pad26)*%
X118110000Y-110490000D03*
%TO.P,MCU1,31*%
%TO.N,Net-(MCU1-Pad31)*%
X130810000Y-110490000D03*
%TO.P,MCU1,28*%
%TO.N,Net-(MCU1-Pad28)*%
X123190000Y-110490000D03*
%TO.P,MCU1,30*%
%TO.N,Net-(MCU1-Pad30)*%
X128270000Y-110490000D03*
%TO.P,MCU1,27*%
%TO.N,Net-(MCU1-Pad27)*%
X120650000Y-110490000D03*
%TO.P,MCU1,25*%
%TO.N,Net-(MCU1-Pad25)*%
X115570000Y-110490000D03*
%TO.P,MCU1,24*%
%TO.N,Net-(MCU1-Pad24)*%
X115570000Y-95250000D03*
%TO.P,MCU1,23*%
%TO.N,Net-(MCU1-Pad23)*%
X118110000Y-95250000D03*
%TO.P,MCU1,22*%
%TO.N,/PWM_0*%
X120650000Y-95250000D03*
%TO.P,MCU1,21*%
%TO.N,/PWM_1*%
X123190000Y-95250000D03*
%TO.P,MCU1,20*%
%TO.N,Net-(MCU1-Pad20)*%
X125730000Y-95250000D03*
%TO.P,MCU1,19*%
%TO.N,Net-(MCU1-Pad19)*%
X128270000Y-95250000D03*
%TO.P,MCU1,18*%
%TO.N,Net-(MCU1-Pad18)*%
X130810000Y-95250000D03*
%TO.P,MCU1,17*%
%TO.N,Net-(MCU1-Pad17)*%
X133350000Y-95250000D03*
%TO.P,MCU1,16*%
%TO.N,Net-(MCU1-Pad16)*%
X135890000Y-95250000D03*
%TO.P,MCU1,15*%
%TO.N,Net-(MCU1-Pad15)*%
X138430000Y-95250000D03*
%TO.P,MCU1,14*%
%TO.N,Net-(MCU1-Pad14)*%
X140970000Y-95250000D03*
%TO.P,MCU1,13*%
%TO.N,Net-(MCU1-Pad13)*%
X143510000Y-95250000D03*
%TO.P,MCU1,12*%
%TO.N,/PWM_2*%
X146050000Y-95250000D03*
%TO.P,MCU1,11*%
%TO.N,/PWM_3*%
X148590000Y-95250000D03*
%TO.P,MCU1,10*%
%TO.N,/PWM_4*%
X151130000Y-95250000D03*
%TO.P,MCU1,9*%
%TO.N,/PWM_5*%
X153670000Y-95250000D03*
%TO.P,MCU1,8*%
%TO.N,/PWM_6*%
X156210000Y-95250000D03*
%TO.P,MCU1,7*%
%TO.N,/PWM_7*%
X158750000Y-95250000D03*
%TO.P,MCU1,6*%
%TO.N,/PWM_8*%
X161290000Y-95250000D03*
%TO.P,MCU1,5*%
%TO.N,/PWM_9*%
X163830000Y-95250000D03*
%TO.P,MCU1,4*%
%TO.N,/PWM_10*%
X166370000Y-95250000D03*
%TO.P,MCU1,3*%
%TO.N,Net-(MCU1-Pad3)*%
X168910000Y-95250000D03*
%TO.P,MCU1,2*%
%TO.N,Net-(MCU1-Pad2)*%
X171450000Y-95250000D03*
D16*
%TO.P,MCU1,1*%
%TO.N,GND*%
X173990000Y-95250000D03*
%TD*%
D17*
%TO.P,J1,2*%
%TO.N,GND*%
X79375000Y-121920000D03*
D16*
%TO.P,J1,1*%
%TO.N,+12V*%
X76835000Y-121920000D03*
%TD*%
D18*
%TO.P,HS1,1*%
%TO.N,N/C*%
X80645000Y-78105000D03*
X55245000Y-78105000D03*
%TD*%
%TO.P,C17,2*%
%TO.N,GND*%
%TA.AperFunction,SMDPad,CuDef*%
G36*
G01*
X66871000Y-80739000D02*
X66871000Y-79789000D01*
G75*
G02*
X67121000Y-79539000I250000J0D01*
G01*
X67796000Y-79539000D01*
G75*
G02*
X68046000Y-79789000I0J-250000D01*
G01*
X68046000Y-80739000D01*
G75*
G02*
X67796000Y-80989000I-250000J0D01*
G01*
X67121000Y-80989000D01*
G75*
G02*
X66871000Y-80739000I0J250000D01*
G01*
G37*
%TD.AperFunction*%
%TO.P,C17,1*%
%TO.N,Net-(C17-Pad1)*%
%TA.AperFunction,SMDPad,CuDef*%
G36*
G01*
X64796000Y-80739000D02*
X64796000Y-79789000D01*
G75*
G02*
X65046000Y-79539000I250000J0D01*
G01*
X65721000Y-79539000D01*
G75*
G02*
X65971000Y-79789000I0J-250000D01*
G01*
X65971000Y-80739000D01*
G75*
G02*
X65721000Y-80989000I-250000J0D01*
G01*
X65046000Y-80989000D01*
G75*
G02*
X64796000Y-80739000I0J250000D01*
G01*
G37*
%TD.AperFunction*%
%TD*%
%TO.P,C16,2*%
%TO.N,GND*%
%TA.AperFunction,SMDPad,CuDef*%
G36*
G01*
X59875000Y-61755000D02*
X59875000Y-62705000D01*
G75*
G02*
X59625000Y-62955000I-250000J0D01*
G01*
X58950000Y-62955000D01*
G75*
G02*
X58700000Y-62705000I0J250000D01*
G01*
X58700000Y-61755000D01*
G75*
G02*
X58950000Y-61505000I250000J0D01*
G01*
X59625000Y-61505000D01*
G75*
G02*
X59875000Y-61755000I0J-250000D01*
G01*
G37*
%TD.AperFunction*%
%TO.P,C16,1*%
%TO.N,Net-(C15-Pad1)*%
%TA.AperFunction,SMDPad,CuDef*%
G36*
G01*
X61950000Y-61755000D02*
X61950000Y-62705000D01*
G75*
G02*
X61700000Y-62955000I-250000J0D01*
G01*
X61025000Y-62955000D01*
G75*
G02*
X60775000Y-62705000I0J250000D01*
G01*
X60775000Y-61755000D01*
G75*
G02*
X61025000Y-61505000I250000J0D01*
G01*
X61700000Y-61505000D01*
G75*
G02*
X61950000Y-61755000I0J-250000D01*
G01*
G37*
%TD.AperFunction*%
%TD*%
%TO.P,C15,2*%
%TO.N,Net-(C15-Pad2)*%
%TA.AperFunction,SMDPad,CuDef*%
G36*
G01*
X65622500Y-62705000D02*
X65622500Y-61755000D01*
G75*
G02*
X65872500Y-61505000I250000J0D01*
G01*
X66547500Y-61505000D01*
G75*
G02*
X66797500Y-61755000I0J-250000D01*
G01*
X66797500Y-62705000D01*
G75*
G02*
X66547500Y-62955000I-250000J0D01*
G01*
X65872500Y-62955000D01*
G75*
G02*
X65622500Y-62705000I0J250000D01*
G01*
G37*
%TD.AperFunction*%
%TO.P,C15,1*%
%TO.N,Net-(C15-Pad1)*%
%TA.AperFunction,SMDPad,CuDef*%
G36*
G01*
X63547500Y-62705000D02*
X63547500Y-61755000D01*
G75*
G02*
X63797500Y-61505000I250000J0D01*
G01*
X64472500Y-61505000D01*
G75*
G02*
X64722500Y-61755000I0J-250000D01*
G01*
X64722500Y-62705000D01*
G75*
G02*
X64472500Y-62955000I-250000J0D01*
G01*
X63797500Y-62955000D01*
G75*
G02*
X63547500Y-62705000I0J250000D01*
G01*
G37*
%TD.AperFunction*%
%TD*%
%TO.P,C14,2*%
%TO.N,GND*%
%TA.AperFunction,SMDPad,CuDef*%
G36*
G01*
X59850000Y-72205000D02*
X60800000Y-72205000D01*
G75*
G02*
X61050000Y-72455000I0J-250000D01*
G01*
X61050000Y-73130000D01*
G75*
G02*
X60800000Y-73380000I-250000J0D01*
G01*
X59850000Y-73380000D01*
G75*
G02*
X59600000Y-73130000I0J250000D01*
G01*
X59600000Y-72455000D01*
G75*
G02*
X59850000Y-72205000I250000J0D01*
G01*
G37*
%TD.AperFunction*%
%TO.P,C14,1*%
%TO.N,Net-(C14-Pad1)*%
%TA.AperFunction,SMDPad,CuDef*%
G36*
G01*
X59850000Y-70130000D02*
X60800000Y-70130000D01*
G75*
G02*
X61050000Y-70380000I0J-250000D01*
G01*
X61050000Y-71055000D01*
G75*
G02*
X60800000Y-71305000I-250000J0D01*
G01*
X59850000Y-71305000D01*
G75*
G02*
X59600000Y-71055000I0J250000D01*
G01*
X59600000Y-70380000D01*
G75*
G02*
X59850000Y-70130000I250000J0D01*
G01*
G37*
%TD.AperFunction*%
%TD*%
D19*
%TO.P,C9,2*%
%TO.N,GND*%
X98940000Y-69850000D03*
D20*
%TO.P,C9,1*%
%TO.N,150V*%
X91440000Y-69850000D03*
%TD*%
D19*
%TO.P,C8,2*%
%TO.N,GND*%
X98940000Y-88900000D03*
D20*
%TO.P,C8,1*%
%TO.N,150V*%
X91440000Y-88900000D03*
%TD*%
D12*
%TO.P,C5,2*%
%TO.N,GND*%
X74168000Y-112101000D03*
D13*
%TO.P,C5,1*%
%TO.N,+12V*%
X74168000Y-109601000D03*
%TD*%
D21*
%TO.N,GND*%
X100076000Y-115887500D03*
D22*
X104140000Y-114808000D03*
X64135000Y-112649000D03*
X66675000Y-112649000D03*
X83312000Y-54610000D03*
X85090000Y-54610000D03*
X86995000Y-54610000D03*
X76327000Y-54610000D03*
X78105000Y-54610000D03*
X80010000Y-54610000D03*
X69342000Y-54610000D03*
X71120000Y-54610000D03*
X73025000Y-54610000D03*
X62357000Y-54610000D03*
X64135000Y-54610000D03*
X66040000Y-54610000D03*
X83312000Y-65151000D03*
X60325000Y-73787000D03*
X58293000Y-62230000D03*
X68453000Y-80264000D03*
X67437000Y-65405000D03*
X71628000Y-62230000D03*
X76708000Y-66548000D03*
X69469000Y-77851000D03*
D21*
X66675000Y-71882000D03*
X119380000Y-74549000D03*
X117475000Y-71755000D03*
X129540000Y-74676000D03*
X127635000Y-71755000D03*
X137795000Y-71755000D03*
X139700000Y-74676000D03*
X147955000Y-71755000D03*
X149860000Y-74930000D03*
X158115000Y-71755000D03*
X160274000Y-74803000D03*
X117475000Y-87630000D03*
X119380000Y-90424000D03*
X127635000Y-87630000D03*
X129540000Y-90551000D03*
X137795000Y-87630000D03*
X139700000Y-90551000D03*
X147955000Y-87630000D03*
X149860000Y-90551000D03*
X168021000Y-87630000D03*
X170180000Y-90551000D03*
X158115000Y-87630000D03*
X160020000Y-90551000D03*
X142240000Y-114300000D03*
X139700000Y-114300000D03*
X142240000Y-124206000D03*
X157226000Y-121285000D03*
X151765000Y-117475000D03*
X131635500Y-120967500D03*
D22*
X94170500Y-106362500D03*
X91630500Y-106362500D03*
X94170500Y-123317000D03*
X96710500Y-123317000D03*
X99250500Y-123317000D03*
%TO.N,+5V*%
X89090500Y-110426500D03*
X96710500Y-110426500D03*
D21*
X139700000Y-122174000D03*
D22*
X109220000Y-114808000D03*
X106680000Y-114808000D03*
X91630500Y-110426500D03*
X94170500Y-110426500D03*
%TO.N,+12V*%
X60960000Y-107315000D03*
X62865000Y-107315000D03*
X64770000Y-107315000D03*
X66675000Y-107315000D03*
X68580000Y-107315000D03*
X70485000Y-107315000D03*
X72390000Y-107315000D03*
X64135000Y-108585000D03*
X66675000Y-108585000D03*
X57785000Y-73787000D03*
X94170500Y-119253000D03*
X96710500Y-119253000D03*
X99250500Y-119253000D03*
D21*
%TO.N,/ADC_in*%
X146812000Y-120015000D03*
%TO.N,Net-(R1-Pad2)*%
X144145000Y-118745000D03*
X144780000Y-123825000D03*
D22*
%TO.N,150V*%
X83312000Y-59944000D03*
X85090000Y-59944000D03*
X86995000Y-59944000D03*
X76327000Y-59944000D03*
X78105000Y-59944000D03*
X80010000Y-59944000D03*
X69342000Y-59944000D03*
X71120000Y-59944000D03*
X73025000Y-59944000D03*
X62357000Y-59944000D03*
X66040000Y-59944000D03*
X64135000Y-59944000D03*
%TD*%
D23*
%TO.N,GND*%
X60325000Y-74803000D02*
X60325000Y-72792500D01*
X58293000Y-62230000D02*
X59287500Y-62230000D01*
D24*
X66710000Y-65405000D02*
X66675000Y-65370000D01*
X67437000Y-65405000D02*
X66710000Y-65405000D01*
D23*
X71628000Y-62230000D02*
X70580000Y-62230000D01*
X76708000Y-66548000D02*
X75660000Y-66548000D01*
X69469000Y-77851000D02*
X68347500Y-77851000D01*
D24*
X66675000Y-70520000D02*
X66675000Y-71882000D01*
D23*
X67458500Y-80264000D02*
X68453000Y-80264000D01*
%TO.N,+12V*%
X57785000Y-73787000D02*
X57785000Y-72755000D01*
D24*
%TO.N,Net-(C14-Pad1)*%
X60287500Y-70755000D02*
X60325000Y-70717500D01*
X57785000Y-70755000D02*
X60287500Y-70755000D01*
X60522500Y-70520000D02*
X60325000Y-70717500D01*
X62865000Y-70520000D02*
X60522500Y-70520000D01*
%TO.N,Net-(C15-Pad2)*%
X66210000Y-62230000D02*
X68580000Y-62230000D01*
%TO.N,Net-(C15-Pad1)*%
X64135000Y-65370000D02*
X64135000Y-62230000D01*
X61362500Y-62230000D02*
X64135000Y-62230000D01*
D25*
%TO.N,/ADC_in*%
X147685000Y-120888000D02*
X146812000Y-120015000D01*
X147685000Y-123825000D02*
X147685000Y-120888000D01*
X146812000Y-114554000D02*
X148590000Y-112776000D01*
X146812000Y-120015000D02*
X146812000Y-114554000D01*
X148590000Y-110490000D02*
X148590000Y-112776000D01*
D24*
%TO.N,Net-(Q2-Pad1)*%
X65405000Y-71833742D02*
X66469258Y-72898000D01*
X65405000Y-70520000D02*
X65405000Y-71833742D01*
X68834000Y-72898000D02*
X70485000Y-74549000D01*
X66469258Y-72898000D02*
X68834000Y-72898000D01*
D26*
%TO.N,Net-(R1-Pad2)*%
X144780000Y-123825000D02*
X145685000Y-123825000D01*
D25*
X145685000Y-120285000D02*
X145224500Y-119824500D01*
X145685000Y-123825000D02*
X145685000Y-120285000D01*
X144145000Y-118745000D02*
X145224500Y-119824500D01*
%TO.N,Net-(R11-Pad1)*%
X73660000Y-64230000D02*
X73660000Y-66548000D01*
X65405000Y-65370000D02*
X65405000Y-64262000D01*
X65405000Y-64262000D02*
X65786000Y-63881000D01*
X65786000Y-63881000D02*
X70993000Y-63881000D01*
X71342000Y-64230000D02*
X73660000Y-64230000D01*
X70993000Y-63881000D02*
X71342000Y-64230000D01*
D24*
%TO.N,150V*%
X73025000Y-59944000D02*
X73660000Y-60579000D01*
X73660000Y-60579000D02*
X73660000Y-62230000D01*
D25*
%TO.N,Net-(R10-Pad2)*%
X60360000Y-65370000D02*
X60325000Y-65405000D01*
X62865000Y-65370000D02*
X60360000Y-65370000D01*
D24*
%TO.N,Net-(R12-Pad1)*%
X64135000Y-70520000D02*
X64135000Y-72390000D01*
X64135000Y-72390000D02*
X62865000Y-73660000D01*
X62135000Y-76803000D02*
X60325000Y-76803000D01*
X62865000Y-76073000D02*
X62135000Y-76803000D01*
X62865000Y-76073000D02*
X62865000Y-73660000D01*
D23*
%TO.N,Net-(C17-Pad1)*%
X65379000Y-74575000D02*
X65405000Y-74549000D01*
D24*
X65383500Y-77855500D02*
X65379000Y-77851000D01*
X65383500Y-80264000D02*
X65383500Y-77855500D01*
X60325000Y-67405000D02*
X66897000Y-67405000D01*
X71612602Y-76174000D02*
X72390000Y-75396602D01*
X65379000Y-76174000D02*
X71612602Y-76174000D01*
D23*
X65379000Y-77851000D02*
X65379000Y-76174000D01*
X65379000Y-76174000D02*
X65379000Y-74575000D01*
D24*
X72390000Y-72898000D02*
X66897000Y-67405000D01*
X72390000Y-75396602D02*
X72390000Y-72898000D01*
%TD*%
M02*
