M48
; DRILL file {KiCad (5.1.9)-1} date 10/04/21 18:28:27
; FORMAT={-:-/ absolute / inch / decimal}
; #@! TF.CreationDate,2021-10-04T18:28:27-04:00
; #@! TF.GenerationSoftware,Kicad,Pcbnew,(5.1.9)-1
; #@! TF.FileFunction,Plated,1,4,PTH
FMAT,2
INCH
T1C0.0150
T2C0.0200
T3C0.0315
T4C0.0394
T5C0.0433
T6C0.0472
T7C0.1063
T8C0.1160
%
G90
G05
T1
X2.625Y-2.83
X3.94Y-4.5625
X4.625Y-2.825
X4.625Y-3.45
X4.7Y-2.935
X4.7Y-3.56
X5.025Y-2.825
X5.025Y-3.45
X5.1Y-2.94
X5.1Y-3.565
X5.1825Y-4.7625
X5.425Y-2.825
X5.425Y-3.45
X5.5Y-2.94
X5.5Y-3.565
X5.5Y-4.5
X5.5Y-4.81
X5.6Y-4.5
X5.6Y-4.89
X5.675Y-4.675
X5.7Y-4.875
X5.78Y-4.725
X5.825Y-2.825
X5.825Y-3.45
X5.9Y-2.95
X5.9Y-3.565
X5.975Y-4.625
X6.19Y-4.775
X6.225Y-2.825
X6.225Y-3.45
X6.3Y-3.565
X6.31Y-2.945
X6.615Y-3.45
X6.7Y-3.565
T2
X2.275Y-2.905
X2.295Y-2.45
X2.375Y-2.905
X2.4Y-4.225
X2.455Y-2.15
X2.455Y-2.36
X2.475Y-4.225
X2.525Y-2.15
X2.525Y-2.36
X2.525Y-4.275
X2.525Y-4.435
X2.55Y-4.225
X2.6Y-2.15
X2.6Y-2.36
X2.625Y-4.225
X2.625Y-4.275
X2.625Y-4.435
X2.655Y-2.575
X2.695Y-3.16
X2.7Y-4.225
X2.73Y-2.15
X2.73Y-2.36
X2.735Y-3.065
X2.775Y-4.225
X2.8Y-2.15
X2.8Y-2.36
X2.82Y-2.45
X2.85Y-4.225
X2.875Y-2.15
X2.875Y-2.36
X3.005Y-2.15
X3.005Y-2.36
X3.02Y-2.62
X3.075Y-2.15
X3.075Y-2.36
X3.15Y-2.15
X3.15Y-2.36
X3.28Y-2.15
X3.28Y-2.36
X3.28Y-2.565
X3.35Y-2.15
X3.35Y-2.36
X3.425Y-2.15
X3.425Y-2.36
X3.5075Y-4.3475
X3.6075Y-4.1875
X3.6075Y-4.3475
X3.7075Y-4.1875
X3.7075Y-4.3475
X3.7075Y-4.695
X3.7075Y-4.855
X3.8075Y-4.3475
X3.8075Y-4.695
X3.8075Y-4.855
X3.9075Y-4.695
X3.9075Y-4.855
X4.1Y-4.52
X4.2Y-4.52
X4.3Y-4.52
T3
X2.92Y-4.315
X2.92Y-4.4134
X3.46Y-4.77
X3.46Y-4.8684
T4
X3.025Y-4.8
X3.125Y-4.8
X4.525Y-2.125
X4.525Y-2.225
X4.55Y-3.75
X4.55Y-4.35
X4.575Y-4.8
X4.625Y-2.125
X4.625Y-2.225
X4.65Y-3.75
X4.65Y-4.35
X4.675Y-4.8
X4.725Y-2.125
X4.725Y-2.225
X4.75Y-3.75
X4.75Y-4.35
X4.825Y-2.125
X4.825Y-2.225
X4.85Y-3.75
X4.85Y-4.35
X4.925Y-2.125
X4.925Y-2.225
X4.95Y-3.75
X4.95Y-4.35
X5.025Y-2.125
X5.025Y-2.225
X5.05Y-3.75
X5.05Y-4.35
X5.15Y-3.75
X5.15Y-4.35
X5.25Y-3.75
X5.25Y-4.35
X5.35Y-3.75
X5.35Y-4.35
X5.45Y-3.75
X5.45Y-4.35
X5.55Y-3.75
X5.55Y-4.35
X5.65Y-3.75
X5.65Y-4.35
X5.75Y-3.75
X5.75Y-4.35
X5.85Y-3.75
X5.85Y-4.35
X5.95Y-3.75
X5.95Y-4.35
X6.05Y-3.75
X6.05Y-4.35
X6.15Y-3.75
X6.15Y-4.35
X6.25Y-3.75
X6.25Y-4.35
X6.325Y-4.8
X6.35Y-3.75
X6.35Y-4.35
X6.425Y-4.8
X6.45Y-3.75
X6.45Y-4.35
X6.525Y-4.8
X6.55Y-3.75
X6.55Y-4.35
X6.65Y-3.75
X6.65Y-4.35
X6.75Y-3.75
X6.75Y-4.35
X6.85Y-3.75
X6.85Y-4.35
T5
X2.575Y-2.935
X2.675Y-2.935
X2.775Y-2.935
T6
X3.6Y-2.75
X3.6Y-3.5
X3.8953Y-2.75
X3.8953Y-3.5
T7
X2.175Y-3.075
X3.175Y-3.075
T8
X2.2Y-2.2
X2.2Y-4.8
X6.8Y-2.2
X6.8Y-4.8
T0
M30
