%TF.GenerationSoftware,KiCad,Pcbnew,(5.1.9)-1*%
%TF.CreationDate,2021-10-04T18:28:26-04:00*%
%TF.ProjectId,In9 Music Visualizer RevC,496e3920-4d75-4736-9963-205669737561,rev?*%
%TF.SameCoordinates,Original*%
%TF.FileFunction,Legend,Top*%
%TF.FilePolarity,Positive*%
%FSLAX46Y46*%
G04 Gerber Fmt 4.6, Leading zero omitted, Abs format (unit mm)*
G04 Created by KiCad (PCBNEW (5.1.9)-1) date 2021-10-04 18:28:26*
%MOMM*%
%LPD*%
G01*
G04 APERTURE LIST*
%ADD10C,0.300000*%
%ADD11C,0.120000*%
%ADD12C,0.508000*%
%ADD13C,0.150000*%
G04 APERTURE END LIST*
D10*
X139280714Y-54648571D02*
X139280714Y-53148571D01*
X139995000Y-54648571D02*
X139995000Y-53148571D01*
X140852142Y-54648571D01*
X140852142Y-53148571D01*
X141637857Y-54648571D02*
X141923571Y-54648571D01*
X142066428Y-54577142D01*
X142137857Y-54505714D01*
X142280714Y-54291428D01*
X142352142Y-54005714D01*
X142352142Y-53434285D01*
X142280714Y-53291428D01*
X142209285Y-53220000D01*
X142066428Y-53148571D01*
X141780714Y-53148571D01*
X141637857Y-53220000D01*
X141566428Y-53291428D01*
X141495000Y-53434285D01*
X141495000Y-53791428D01*
X141566428Y-53934285D01*
X141637857Y-54005714D01*
X141780714Y-54077142D01*
X142066428Y-54077142D01*
X142209285Y-54005714D01*
X142280714Y-53934285D01*
X142352142Y-53791428D01*
X144137857Y-54648571D02*
X144137857Y-53148571D01*
X144637857Y-54220000D01*
X145137857Y-53148571D01*
X145137857Y-54648571D01*
X146495000Y-53648571D02*
X146495000Y-54648571D01*
X145852142Y-53648571D02*
X145852142Y-54434285D01*
X145923571Y-54577142D01*
X146066428Y-54648571D01*
X146280714Y-54648571D01*
X146423571Y-54577142D01*
X146495000Y-54505714D01*
X147137857Y-54577142D02*
X147280714Y-54648571D01*
X147566428Y-54648571D01*
X147709285Y-54577142D01*
X147780714Y-54434285D01*
X147780714Y-54362857D01*
X147709285Y-54220000D01*
X147566428Y-54148571D01*
X147352142Y-54148571D01*
X147209285Y-54077142D01*
X147137857Y-53934285D01*
X147137857Y-53862857D01*
X147209285Y-53720000D01*
X147352142Y-53648571D01*
X147566428Y-53648571D01*
X147709285Y-53720000D01*
X148423571Y-54648571D02*
X148423571Y-53648571D01*
X148423571Y-53148571D02*
X148352142Y-53220000D01*
X148423571Y-53291428D01*
X148495000Y-53220000D01*
X148423571Y-53148571D01*
X148423571Y-53291428D01*
X149780714Y-54577142D02*
X149637857Y-54648571D01*
X149352142Y-54648571D01*
X149209285Y-54577142D01*
X149137857Y-54505714D01*
X149066428Y-54362857D01*
X149066428Y-53934285D01*
X149137857Y-53791428D01*
X149209285Y-53720000D01*
X149352142Y-53648571D01*
X149637857Y-53648571D01*
X149780714Y-53720000D01*
X151352142Y-53148571D02*
X151852142Y-54648571D01*
X152352142Y-53148571D01*
X152852142Y-54648571D02*
X152852142Y-53648571D01*
X152852142Y-53148571D02*
X152780714Y-53220000D01*
X152852142Y-53291428D01*
X152923571Y-53220000D01*
X152852142Y-53148571D01*
X152852142Y-53291428D01*
X153495000Y-54577142D02*
X153637857Y-54648571D01*
X153923571Y-54648571D01*
X154066428Y-54577142D01*
X154137857Y-54434285D01*
X154137857Y-54362857D01*
X154066428Y-54220000D01*
X153923571Y-54148571D01*
X153709285Y-54148571D01*
X153566428Y-54077142D01*
X153495000Y-53934285D01*
X153495000Y-53862857D01*
X153566428Y-53720000D01*
X153709285Y-53648571D01*
X153923571Y-53648571D01*
X154066428Y-53720000D01*
X155423571Y-53648571D02*
X155423571Y-54648571D01*
X154780714Y-53648571D02*
X154780714Y-54434285D01*
X154852142Y-54577142D01*
X154995000Y-54648571D01*
X155209285Y-54648571D01*
X155352142Y-54577142D01*
X155423571Y-54505714D01*
X156780714Y-54648571D02*
X156780714Y-53862857D01*
X156709285Y-53720000D01*
X156566428Y-53648571D01*
X156280714Y-53648571D01*
X156137857Y-53720000D01*
X156780714Y-54577142D02*
X156637857Y-54648571D01*
X156280714Y-54648571D01*
X156137857Y-54577142D01*
X156066428Y-54434285D01*
X156066428Y-54291428D01*
X156137857Y-54148571D01*
X156280714Y-54077142D01*
X156637857Y-54077142D01*
X156780714Y-54005714D01*
X157709285Y-54648571D02*
X157566428Y-54577142D01*
X157495000Y-54434285D01*
X157495000Y-53148571D01*
X158280714Y-54648571D02*
X158280714Y-53648571D01*
X158280714Y-53148571D02*
X158209285Y-53220000D01*
X158280714Y-53291428D01*
X158352142Y-53220000D01*
X158280714Y-53148571D01*
X158280714Y-53291428D01*
X158852142Y-53648571D02*
X159637857Y-53648571D01*
X158852142Y-54648571D01*
X159637857Y-54648571D01*
X160780714Y-54577142D02*
X160637857Y-54648571D01*
X160352142Y-54648571D01*
X160209285Y-54577142D01*
X160137857Y-54434285D01*
X160137857Y-53862857D01*
X160209285Y-53720000D01*
X160352142Y-53648571D01*
X160637857Y-53648571D01*
X160780714Y-53720000D01*
X160852142Y-53862857D01*
X160852142Y-54005714D01*
X160137857Y-54148571D01*
X161495000Y-54648571D02*
X161495000Y-53648571D01*
X161495000Y-53934285D02*
X161566428Y-53791428D01*
X161637857Y-53720000D01*
X161780714Y-53648571D01*
X161923571Y-53648571D01*
X146673571Y-57055714D02*
X146602142Y-57127142D01*
X146387857Y-57198571D01*
X146245000Y-57198571D01*
X146030714Y-57127142D01*
X145887857Y-56984285D01*
X145816428Y-56841428D01*
X145745000Y-56555714D01*
X145745000Y-56341428D01*
X145816428Y-56055714D01*
X145887857Y-55912857D01*
X146030714Y-55770000D01*
X146245000Y-55698571D01*
X146387857Y-55698571D01*
X146602142Y-55770000D01*
X146673571Y-55841428D01*
X147316428Y-57198571D02*
X147316428Y-55698571D01*
X147316428Y-56412857D02*
X148173571Y-56412857D01*
X148173571Y-57198571D02*
X148173571Y-55698571D01*
X150245000Y-56341428D02*
X150102142Y-56270000D01*
X150030714Y-56198571D01*
X149959285Y-56055714D01*
X149959285Y-55984285D01*
X150030714Y-55841428D01*
X150102142Y-55770000D01*
X150245000Y-55698571D01*
X150530714Y-55698571D01*
X150673571Y-55770000D01*
X150745000Y-55841428D01*
X150816428Y-55984285D01*
X150816428Y-56055714D01*
X150745000Y-56198571D01*
X150673571Y-56270000D01*
X150530714Y-56341428D01*
X150245000Y-56341428D01*
X150102142Y-56412857D01*
X150030714Y-56484285D01*
X149959285Y-56627142D01*
X149959285Y-56912857D01*
X150030714Y-57055714D01*
X150102142Y-57127142D01*
X150245000Y-57198571D01*
X150530714Y-57198571D01*
X150673571Y-57127142D01*
X150745000Y-57055714D01*
X150816428Y-56912857D01*
X150816428Y-56627142D01*
X150745000Y-56484285D01*
X150673571Y-56412857D01*
X150530714Y-56341428D01*
X152530714Y-55627142D02*
X151245000Y-57555714D01*
X152959285Y-55841428D02*
X153030714Y-55770000D01*
X153173571Y-55698571D01*
X153530714Y-55698571D01*
X153673571Y-55770000D01*
X153745000Y-55841428D01*
X153816428Y-55984285D01*
X153816428Y-56127142D01*
X153745000Y-56341428D01*
X152887857Y-57198571D01*
X153816428Y-57198571D01*
X155245000Y-57198571D02*
X154387857Y-57198571D01*
X154816428Y-57198571D02*
X154816428Y-55698571D01*
X154673571Y-55912857D01*
X154530714Y-56055714D01*
X154387857Y-56127142D01*
X173422571Y-114585714D02*
X173422571Y-115300000D01*
X174136857Y-115371428D01*
X174065428Y-115300000D01*
X173994000Y-115157142D01*
X173994000Y-114800000D01*
X174065428Y-114657142D01*
X174136857Y-114585714D01*
X174279714Y-114514285D01*
X174636857Y-114514285D01*
X174779714Y-114585714D01*
X174851142Y-114657142D01*
X174922571Y-114800000D01*
X174922571Y-115157142D01*
X174851142Y-115300000D01*
X174779714Y-115371428D01*
X173422571Y-114085714D02*
X174922571Y-113585714D01*
X173422571Y-113085714D01*
X173494000Y-92074857D02*
X173422571Y-92217714D01*
X173422571Y-92432000D01*
X173494000Y-92646285D01*
X173636857Y-92789142D01*
X173779714Y-92860571D01*
X174065428Y-92932000D01*
X174279714Y-92932000D01*
X174565428Y-92860571D01*
X174708285Y-92789142D01*
X174851142Y-92646285D01*
X174922571Y-92432000D01*
X174922571Y-92289142D01*
X174851142Y-92074857D01*
X174779714Y-92003428D01*
X174279714Y-92003428D01*
X174279714Y-92289142D01*
X174922571Y-91360571D02*
X173422571Y-91360571D01*
X174922571Y-90503428D01*
X173422571Y-90503428D01*
X174922571Y-89789142D02*
X173422571Y-89789142D01*
X173422571Y-89432000D01*
X173494000Y-89217714D01*
X173636857Y-89074857D01*
X173779714Y-89003428D01*
X174065428Y-88932000D01*
X174279714Y-88932000D01*
X174565428Y-89003428D01*
X174708285Y-89074857D01*
X174851142Y-89217714D01*
X174922571Y-89432000D01*
X174922571Y-89789142D01*
X114340428Y-112970571D02*
X115197571Y-112970571D01*
X114769000Y-114470571D02*
X114769000Y-112970571D01*
X116269000Y-114399142D02*
X116126142Y-114470571D01*
X115840428Y-114470571D01*
X115697571Y-114399142D01*
X115626142Y-114256285D01*
X115626142Y-113684857D01*
X115697571Y-113542000D01*
X115840428Y-113470571D01*
X116126142Y-113470571D01*
X116269000Y-113542000D01*
X116340428Y-113684857D01*
X116340428Y-113827714D01*
X115626142Y-113970571D01*
X117554714Y-114399142D02*
X117411857Y-114470571D01*
X117126142Y-114470571D01*
X116983285Y-114399142D01*
X116911857Y-114256285D01*
X116911857Y-113684857D01*
X116983285Y-113542000D01*
X117126142Y-113470571D01*
X117411857Y-113470571D01*
X117554714Y-113542000D01*
X117626142Y-113684857D01*
X117626142Y-113827714D01*
X116911857Y-113970571D01*
X118269000Y-113470571D02*
X118269000Y-114470571D01*
X118269000Y-113613428D02*
X118340428Y-113542000D01*
X118483285Y-113470571D01*
X118697571Y-113470571D01*
X118840428Y-113542000D01*
X118911857Y-113684857D01*
X118911857Y-114470571D01*
X119554714Y-114399142D02*
X119697571Y-114470571D01*
X119983285Y-114470571D01*
X120126142Y-114399142D01*
X120197571Y-114256285D01*
X120197571Y-114184857D01*
X120126142Y-114042000D01*
X119983285Y-113970571D01*
X119769000Y-113970571D01*
X119626142Y-113899142D01*
X119554714Y-113756285D01*
X119554714Y-113684857D01*
X119626142Y-113542000D01*
X119769000Y-113470571D01*
X119983285Y-113470571D01*
X120126142Y-113542000D01*
X120697571Y-113470571D02*
X121054714Y-114470571D01*
X121411857Y-113470571D02*
X121054714Y-114470571D01*
X120911857Y-114827714D01*
X120840428Y-114899142D01*
X120697571Y-114970571D01*
X122983285Y-112970571D02*
X123911857Y-112970571D01*
X123411857Y-113542000D01*
X123626142Y-113542000D01*
X123769000Y-113613428D01*
X123840428Y-113684857D01*
X123911857Y-113827714D01*
X123911857Y-114184857D01*
X123840428Y-114327714D01*
X123769000Y-114399142D01*
X123626142Y-114470571D01*
X123197571Y-114470571D01*
X123054714Y-114399142D01*
X122983285Y-114327714D01*
X124554714Y-114327714D02*
X124626142Y-114399142D01*
X124554714Y-114470571D01*
X124483285Y-114399142D01*
X124554714Y-114327714D01*
X124554714Y-114470571D01*
X125911857Y-112970571D02*
X125626142Y-112970571D01*
X125483285Y-113042000D01*
X125411857Y-113113428D01*
X125269000Y-113327714D01*
X125197571Y-113613428D01*
X125197571Y-114184857D01*
X125269000Y-114327714D01*
X125340428Y-114399142D01*
X125483285Y-114470571D01*
X125769000Y-114470571D01*
X125911857Y-114399142D01*
X125983285Y-114327714D01*
X126054714Y-114184857D01*
X126054714Y-113827714D01*
X125983285Y-113684857D01*
X125911857Y-113613428D01*
X125769000Y-113542000D01*
X125483285Y-113542000D01*
X125340428Y-113613428D01*
X125269000Y-113684857D01*
X125197571Y-113827714D01*
X164858000Y-116458857D02*
X164786571Y-116601714D01*
X164786571Y-116816000D01*
X164858000Y-117030285D01*
X165000857Y-117173142D01*
X165143714Y-117244571D01*
X165429428Y-117316000D01*
X165643714Y-117316000D01*
X165929428Y-117244571D01*
X166072285Y-117173142D01*
X166215142Y-117030285D01*
X166286571Y-116816000D01*
X166286571Y-116673142D01*
X166215142Y-116458857D01*
X166143714Y-116387428D01*
X165643714Y-116387428D01*
X165643714Y-116673142D01*
X166286571Y-115744571D02*
X164786571Y-115744571D01*
X166286571Y-114887428D01*
X164786571Y-114887428D01*
X166286571Y-114173142D02*
X164786571Y-114173142D01*
X164786571Y-113816000D01*
X164858000Y-113601714D01*
X165000857Y-113458857D01*
X165143714Y-113387428D01*
X165429428Y-113316000D01*
X165643714Y-113316000D01*
X165929428Y-113387428D01*
X166072285Y-113458857D01*
X166215142Y-113601714D01*
X166286571Y-113816000D01*
X166286571Y-114173142D01*
X163746571Y-117431142D02*
X162246571Y-117431142D01*
X163318000Y-116931142D01*
X162246571Y-116431142D01*
X163746571Y-116431142D01*
X163746571Y-115716857D02*
X162246571Y-115716857D01*
X163603714Y-114145428D02*
X163675142Y-114216857D01*
X163746571Y-114431142D01*
X163746571Y-114574000D01*
X163675142Y-114788285D01*
X163532285Y-114931142D01*
X163389428Y-115002571D01*
X163103714Y-115074000D01*
X162889428Y-115074000D01*
X162603714Y-115002571D01*
X162460857Y-114931142D01*
X162318000Y-114788285D01*
X162246571Y-114574000D01*
X162246571Y-114431142D01*
X162318000Y-114216857D01*
X162389428Y-114145428D01*
X159706571Y-116617714D02*
X159706571Y-117332000D01*
X160420857Y-117403428D01*
X160349428Y-117332000D01*
X160278000Y-117189142D01*
X160278000Y-116832000D01*
X160349428Y-116689142D01*
X160420857Y-116617714D01*
X160563714Y-116546285D01*
X160920857Y-116546285D01*
X161063714Y-116617714D01*
X161135142Y-116689142D01*
X161206571Y-116832000D01*
X161206571Y-117189142D01*
X161135142Y-117332000D01*
X161063714Y-117403428D01*
X159706571Y-116117714D02*
X161206571Y-115617714D01*
X159706571Y-115117714D01*
X119550571Y-117875714D02*
X118050571Y-117875714D01*
X119550571Y-117018571D02*
X118693428Y-117661428D01*
X118050571Y-117018571D02*
X118907714Y-117875714D01*
X119122000Y-116447142D02*
X119122000Y-115732857D01*
X119550571Y-116590000D02*
X118050571Y-116090000D01*
X119550571Y-115590000D01*
X116074000Y-117982857D02*
X116074000Y-117268571D01*
X116502571Y-118125714D02*
X115002571Y-117625714D01*
X116502571Y-117125714D01*
X116502571Y-116625714D02*
X115002571Y-116625714D01*
X116502571Y-115768571D01*
X115002571Y-115768571D01*
X79006000Y-117474857D02*
X78934571Y-117617714D01*
X78934571Y-117832000D01*
X79006000Y-118046285D01*
X79148857Y-118189142D01*
X79291714Y-118260571D01*
X79577428Y-118332000D01*
X79791714Y-118332000D01*
X80077428Y-118260571D01*
X80220285Y-118189142D01*
X80363142Y-118046285D01*
X80434571Y-117832000D01*
X80434571Y-117689142D01*
X80363142Y-117474857D01*
X80291714Y-117403428D01*
X79791714Y-117403428D01*
X79791714Y-117689142D01*
X80434571Y-116760571D02*
X78934571Y-116760571D01*
X80434571Y-115903428D01*
X78934571Y-115903428D01*
X80434571Y-115189142D02*
X78934571Y-115189142D01*
X78934571Y-114832000D01*
X79006000Y-114617714D01*
X79148857Y-114474857D01*
X79291714Y-114403428D01*
X79577428Y-114332000D01*
X79791714Y-114332000D01*
X80077428Y-114403428D01*
X80220285Y-114474857D01*
X80363142Y-114617714D01*
X80434571Y-114832000D01*
X80434571Y-115189142D01*
X77386571Y-117260571D02*
X77386571Y-118117714D01*
X77386571Y-117689142D02*
X75886571Y-117689142D01*
X76100857Y-117832000D01*
X76243714Y-117974857D01*
X76315142Y-118117714D01*
X76029428Y-116689142D02*
X75958000Y-116617714D01*
X75886571Y-116474857D01*
X75886571Y-116117714D01*
X75958000Y-115974857D01*
X76029428Y-115903428D01*
X76172285Y-115832000D01*
X76315142Y-115832000D01*
X76529428Y-115903428D01*
X77386571Y-116760571D01*
X77386571Y-115832000D01*
X75886571Y-115403428D02*
X77386571Y-114903428D01*
X75886571Y-114403428D01*
D11*
%TO.C,Q2*%
X66094000Y-77819000D02*
X66094000Y-76309000D01*
X69795000Y-77819000D02*
X69795000Y-76309000D01*
X73065000Y-76309000D02*
X62825000Y-76309000D01*
X62825000Y-77819000D02*
X62825000Y-73178000D01*
X73065000Y-77819000D02*
X73065000Y-73178000D01*
X73065000Y-73178000D02*
X62825000Y-73178000D01*
X73065000Y-77819000D02*
X62825000Y-77819000D01*
%TO.C,C22*%
X91154000Y-122408000D02*
G75*
G03*
X91154000Y-122408000I-3270000J0D01*
G01*
X91114000Y-122408000D02*
X84654000Y-122408000D01*
X91114000Y-122448000D02*
X84654000Y-122448000D01*
X91114000Y-122488000D02*
X84654000Y-122488000D01*
X91112000Y-122528000D02*
X84656000Y-122528000D01*
X91111000Y-122568000D02*
X84657000Y-122568000D01*
X91108000Y-122608000D02*
X84660000Y-122608000D01*
X91106000Y-122648000D02*
X88924000Y-122648000D01*
X86844000Y-122648000D02*
X84662000Y-122648000D01*
X91102000Y-122688000D02*
X88924000Y-122688000D01*
X86844000Y-122688000D02*
X84666000Y-122688000D01*
X91099000Y-122728000D02*
X88924000Y-122728000D01*
X86844000Y-122728000D02*
X84669000Y-122728000D01*
X91095000Y-122768000D02*
X88924000Y-122768000D01*
X86844000Y-122768000D02*
X84673000Y-122768000D01*
X91090000Y-122808000D02*
X88924000Y-122808000D01*
X86844000Y-122808000D02*
X84678000Y-122808000D01*
X91085000Y-122848000D02*
X88924000Y-122848000D01*
X86844000Y-122848000D02*
X84683000Y-122848000D01*
X91079000Y-122888000D02*
X88924000Y-122888000D01*
X86844000Y-122888000D02*
X84689000Y-122888000D01*
X91073000Y-122928000D02*
X88924000Y-122928000D01*
X86844000Y-122928000D02*
X84695000Y-122928000D01*
X91066000Y-122968000D02*
X88924000Y-122968000D01*
X86844000Y-122968000D02*
X84702000Y-122968000D01*
X91059000Y-123008000D02*
X88924000Y-123008000D01*
X86844000Y-123008000D02*
X84709000Y-123008000D01*
X91051000Y-123048000D02*
X88924000Y-123048000D01*
X86844000Y-123048000D02*
X84717000Y-123048000D01*
X91043000Y-123088000D02*
X88924000Y-123088000D01*
X86844000Y-123088000D02*
X84725000Y-123088000D01*
X91034000Y-123129000D02*
X88924000Y-123129000D01*
X86844000Y-123129000D02*
X84734000Y-123129000D01*
X91025000Y-123169000D02*
X88924000Y-123169000D01*
X86844000Y-123169000D02*
X84743000Y-123169000D01*
X91015000Y-123209000D02*
X88924000Y-123209000D01*
X86844000Y-123209000D02*
X84753000Y-123209000D01*
X91005000Y-123249000D02*
X88924000Y-123249000D01*
X86844000Y-123249000D02*
X84763000Y-123249000D01*
X90994000Y-123289000D02*
X88924000Y-123289000D01*
X86844000Y-123289000D02*
X84774000Y-123289000D01*
X90982000Y-123329000D02*
X88924000Y-123329000D01*
X86844000Y-123329000D02*
X84786000Y-123329000D01*
X90970000Y-123369000D02*
X88924000Y-123369000D01*
X86844000Y-123369000D02*
X84798000Y-123369000D01*
X90958000Y-123409000D02*
X88924000Y-123409000D01*
X86844000Y-123409000D02*
X84810000Y-123409000D01*
X90945000Y-123449000D02*
X88924000Y-123449000D01*
X86844000Y-123449000D02*
X84823000Y-123449000D01*
X90931000Y-123489000D02*
X88924000Y-123489000D01*
X86844000Y-123489000D02*
X84837000Y-123489000D01*
X90917000Y-123529000D02*
X88924000Y-123529000D01*
X86844000Y-123529000D02*
X84851000Y-123529000D01*
X90902000Y-123569000D02*
X88924000Y-123569000D01*
X86844000Y-123569000D02*
X84866000Y-123569000D01*
X90886000Y-123609000D02*
X88924000Y-123609000D01*
X86844000Y-123609000D02*
X84882000Y-123609000D01*
X90870000Y-123649000D02*
X88924000Y-123649000D01*
X86844000Y-123649000D02*
X84898000Y-123649000D01*
X90854000Y-123689000D02*
X88924000Y-123689000D01*
X86844000Y-123689000D02*
X84914000Y-123689000D01*
X90836000Y-123729000D02*
X88924000Y-123729000D01*
X86844000Y-123729000D02*
X84932000Y-123729000D01*
X90818000Y-123769000D02*
X88924000Y-123769000D01*
X86844000Y-123769000D02*
X84950000Y-123769000D01*
X90800000Y-123809000D02*
X88924000Y-123809000D01*
X86844000Y-123809000D02*
X84968000Y-123809000D01*
X90780000Y-123849000D02*
X88924000Y-123849000D01*
X86844000Y-123849000D02*
X84988000Y-123849000D01*
X90760000Y-123889000D02*
X88924000Y-123889000D01*
X86844000Y-123889000D02*
X85008000Y-123889000D01*
X90740000Y-123929000D02*
X88924000Y-123929000D01*
X86844000Y-123929000D02*
X85028000Y-123929000D01*
X90718000Y-123969000D02*
X88924000Y-123969000D01*
X86844000Y-123969000D02*
X85050000Y-123969000D01*
X90696000Y-124009000D02*
X88924000Y-124009000D01*
X86844000Y-124009000D02*
X85072000Y-124009000D01*
X90674000Y-124049000D02*
X88924000Y-124049000D01*
X86844000Y-124049000D02*
X85094000Y-124049000D01*
X90650000Y-124089000D02*
X88924000Y-124089000D01*
X86844000Y-124089000D02*
X85118000Y-124089000D01*
X90626000Y-124129000D02*
X88924000Y-124129000D01*
X86844000Y-124129000D02*
X85142000Y-124129000D01*
X90600000Y-124169000D02*
X88924000Y-124169000D01*
X86844000Y-124169000D02*
X85168000Y-124169000D01*
X90574000Y-124209000D02*
X88924000Y-124209000D01*
X86844000Y-124209000D02*
X85194000Y-124209000D01*
X90548000Y-124249000D02*
X88924000Y-124249000D01*
X86844000Y-124249000D02*
X85220000Y-124249000D01*
X90520000Y-124289000D02*
X88924000Y-124289000D01*
X86844000Y-124289000D02*
X85248000Y-124289000D01*
X90491000Y-124329000D02*
X88924000Y-124329000D01*
X86844000Y-124329000D02*
X85277000Y-124329000D01*
X90462000Y-124369000D02*
X88924000Y-124369000D01*
X86844000Y-124369000D02*
X85306000Y-124369000D01*
X90432000Y-124409000D02*
X88924000Y-124409000D01*
X86844000Y-124409000D02*
X85336000Y-124409000D01*
X90400000Y-124449000D02*
X88924000Y-124449000D01*
X86844000Y-124449000D02*
X85368000Y-124449000D01*
X90368000Y-124489000D02*
X88924000Y-124489000D01*
X86844000Y-124489000D02*
X85400000Y-124489000D01*
X90334000Y-124529000D02*
X88924000Y-124529000D01*
X86844000Y-124529000D02*
X85434000Y-124529000D01*
X90300000Y-124569000D02*
X88924000Y-124569000D01*
X86844000Y-124569000D02*
X85468000Y-124569000D01*
X90264000Y-124609000D02*
X88924000Y-124609000D01*
X86844000Y-124609000D02*
X85504000Y-124609000D01*
X90227000Y-124649000D02*
X88924000Y-124649000D01*
X86844000Y-124649000D02*
X85541000Y-124649000D01*
X90189000Y-124689000D02*
X88924000Y-124689000D01*
X86844000Y-124689000D02*
X85579000Y-124689000D01*
X90149000Y-124729000D02*
X85619000Y-124729000D01*
X90108000Y-124769000D02*
X85660000Y-124769000D01*
X90066000Y-124809000D02*
X85702000Y-124809000D01*
X90021000Y-124849000D02*
X85747000Y-124849000D01*
X89976000Y-124889000D02*
X85792000Y-124889000D01*
X89928000Y-124929000D02*
X85840000Y-124929000D01*
X89879000Y-124969000D02*
X85889000Y-124969000D01*
X89828000Y-125009000D02*
X85940000Y-125009000D01*
X89774000Y-125049000D02*
X85994000Y-125049000D01*
X89718000Y-125089000D02*
X86050000Y-125089000D01*
X89660000Y-125129000D02*
X86108000Y-125129000D01*
X89598000Y-125169000D02*
X86170000Y-125169000D01*
X89534000Y-125209000D02*
X86234000Y-125209000D01*
X89465000Y-125249000D02*
X86303000Y-125249000D01*
X89393000Y-125289000D02*
X86375000Y-125289000D01*
X89316000Y-125329000D02*
X86452000Y-125329000D01*
X89234000Y-125369000D02*
X86534000Y-125369000D01*
X89146000Y-125409000D02*
X86622000Y-125409000D01*
X89049000Y-125449000D02*
X86719000Y-125449000D01*
X88943000Y-125489000D02*
X86825000Y-125489000D01*
X88824000Y-125529000D02*
X86944000Y-125529000D01*
X88686000Y-125569000D02*
X87082000Y-125569000D01*
X88517000Y-125609000D02*
X87251000Y-125609000D01*
X88286000Y-125649000D02*
X87482000Y-125649000D01*
X89723000Y-118907759D02*
X89723000Y-119537759D01*
X90038000Y-119222759D02*
X89408000Y-119222759D01*
%TO.C,L2*%
X95810000Y-111835000D02*
X95360000Y-111835000D01*
X89610000Y-111835000D02*
X90060000Y-111835000D01*
X89610000Y-118035000D02*
X90060000Y-118035000D01*
X89610000Y-118035000D02*
X89610000Y-111835000D01*
X95810000Y-118035000D02*
X95360000Y-118035000D01*
X95810000Y-111835000D02*
X95810000Y-118035000D01*
%TO.C,C18*%
X100591252Y-112295000D02*
X100068748Y-112295000D01*
X100591252Y-113765000D02*
X100068748Y-113765000D01*
%TO.C,R6*%
X140435000Y-116432064D02*
X140435000Y-115977936D01*
X138965000Y-116432064D02*
X138965000Y-115977936D01*
%TO.C,R2*%
X140435000Y-120512064D02*
X140435000Y-120057936D01*
X138965000Y-120512064D02*
X138965000Y-120057936D01*
%TO.C,U3*%
X101230000Y-115230000D02*
X98780000Y-115230000D01*
X99430000Y-118450000D02*
X101230000Y-118450000D01*
%TO.C,C13*%
X82480000Y-57295748D02*
X82480000Y-54464252D01*
X87700000Y-57295748D02*
X87700000Y-54464252D01*
%TO.C,C12*%
X75495000Y-57295748D02*
X75495000Y-54464252D01*
X80715000Y-57295748D02*
X80715000Y-54464252D01*
%TO.C,C11*%
X68510000Y-57295748D02*
X68510000Y-54464252D01*
X73730000Y-57295748D02*
X73730000Y-54464252D01*
%TO.C,C10*%
X61525000Y-57295748D02*
X61525000Y-54464252D01*
X66745000Y-57295748D02*
X66745000Y-54464252D01*
%TO.C,U1*%
X147955000Y-121940000D02*
X151405000Y-121940000D01*
X147955000Y-121940000D02*
X146005000Y-121940000D01*
X147955000Y-116820000D02*
X149905000Y-116820000D01*
X147955000Y-116820000D02*
X146005000Y-116820000D01*
%TO.C,R38*%
X169445000Y-88402936D02*
X169445000Y-88857064D01*
X170915000Y-88402936D02*
X170915000Y-88857064D01*
%TO.C,R37*%
X159539000Y-72654936D02*
X159539000Y-73109064D01*
X161009000Y-72654936D02*
X161009000Y-73109064D01*
%TO.C,R36*%
X159285000Y-88402936D02*
X159285000Y-88857064D01*
X160755000Y-88402936D02*
X160755000Y-88857064D01*
%TO.C,R35*%
X149125000Y-72797936D02*
X149125000Y-73252064D01*
X150595000Y-72797936D02*
X150595000Y-73252064D01*
%TO.C,R34*%
X149125000Y-88402936D02*
X149125000Y-88857064D01*
X150595000Y-88402936D02*
X150595000Y-88857064D01*
%TO.C,R33*%
X165872936Y-90905000D02*
X166327064Y-90905000D01*
X165872936Y-89435000D02*
X166327064Y-89435000D01*
%TO.C,R32*%
X155982936Y-75030000D02*
X156437064Y-75030000D01*
X155982936Y-73560000D02*
X156437064Y-73560000D01*
%TO.C,R31*%
X155982936Y-90905000D02*
X156437064Y-90905000D01*
X155982936Y-89435000D02*
X156437064Y-89435000D01*
%TO.C,R30*%
X145822936Y-75030000D02*
X146277064Y-75030000D01*
X145822936Y-73560000D02*
X146277064Y-73560000D01*
%TO.C,R29*%
X145822936Y-90905000D02*
X146277064Y-90905000D01*
X145822936Y-89435000D02*
X146277064Y-89435000D01*
%TO.C,R28*%
X138965000Y-72527936D02*
X138965000Y-72982064D01*
X140435000Y-72527936D02*
X140435000Y-72982064D01*
%TO.C,R27*%
X138965000Y-88402936D02*
X138965000Y-88857064D01*
X140435000Y-88402936D02*
X140435000Y-88857064D01*
%TO.C,R26*%
X128805000Y-72527936D02*
X128805000Y-72982064D01*
X130275000Y-72527936D02*
X130275000Y-72982064D01*
%TO.C,R25*%
X128805000Y-88402936D02*
X128805000Y-88857064D01*
X130275000Y-88402936D02*
X130275000Y-88857064D01*
%TO.C,R24*%
X118645000Y-72432936D02*
X118645000Y-72887064D01*
X120115000Y-72432936D02*
X120115000Y-72887064D01*
%TO.C,R23*%
X118645000Y-88307936D02*
X118645000Y-88762064D01*
X120115000Y-88307936D02*
X120115000Y-88762064D01*
%TO.C,R22*%
X135662936Y-75030000D02*
X136117064Y-75030000D01*
X135662936Y-73560000D02*
X136117064Y-73560000D01*
%TO.C,R21*%
X135662936Y-90905000D02*
X136117064Y-90905000D01*
X135662936Y-89435000D02*
X136117064Y-89435000D01*
%TO.C,R20*%
X125502936Y-75030000D02*
X125957064Y-75030000D01*
X125502936Y-73560000D02*
X125957064Y-73560000D01*
%TO.C,R19*%
X125502936Y-90905000D02*
X125957064Y-90905000D01*
X125502936Y-89435000D02*
X125957064Y-89435000D01*
%TO.C,R18*%
X115342936Y-75030000D02*
X115797064Y-75030000D01*
X115342936Y-73560000D02*
X115797064Y-73560000D01*
%TO.C,R17*%
X115342936Y-90905000D02*
X115797064Y-90905000D01*
X115342936Y-89435000D02*
X115797064Y-89435000D01*
%TO.C,R16*%
X104875000Y-117067064D02*
X104875000Y-116612936D01*
X103405000Y-117067064D02*
X103405000Y-116612936D01*
%TO.C,R15*%
X108485000Y-116612936D02*
X108485000Y-117067064D01*
X109955000Y-116612936D02*
X109955000Y-117067064D01*
%TO.C,R9*%
X82577000Y-62891936D02*
X82577000Y-63346064D01*
X84047000Y-62891936D02*
X84047000Y-63346064D01*
%TO.C,R5*%
X155077936Y-119480000D02*
X155532064Y-119480000D01*
X155077936Y-118010000D02*
X155532064Y-118010000D01*
%TO.C,R4*%
X146457936Y-124560000D02*
X146912064Y-124560000D01*
X146457936Y-123090000D02*
X146912064Y-123090000D01*
%TO.C,R3*%
X123090000Y-121692936D02*
X123090000Y-122147064D01*
X124560000Y-121692936D02*
X124560000Y-122147064D01*
%TO.C,Q13*%
X164230000Y-85380000D02*
X164230000Y-79370000D01*
X171050000Y-83130000D02*
X171050000Y-79370000D01*
X164230000Y-79370000D02*
X165490000Y-79370000D01*
X171050000Y-79370000D02*
X169790000Y-79370000D01*
%TO.C,Q12*%
X154070000Y-69505000D02*
X154070000Y-63495000D01*
X160890000Y-67255000D02*
X160890000Y-63495000D01*
X154070000Y-63495000D02*
X155330000Y-63495000D01*
X160890000Y-63495000D02*
X159630000Y-63495000D01*
%TO.C,Q11*%
X154070000Y-85380000D02*
X154070000Y-79370000D01*
X160890000Y-83130000D02*
X160890000Y-79370000D01*
X154070000Y-79370000D02*
X155330000Y-79370000D01*
X160890000Y-79370000D02*
X159630000Y-79370000D01*
%TO.C,Q10*%
X143910000Y-69505000D02*
X143910000Y-63495000D01*
X150730000Y-67255000D02*
X150730000Y-63495000D01*
X143910000Y-63495000D02*
X145170000Y-63495000D01*
X150730000Y-63495000D02*
X149470000Y-63495000D01*
%TO.C,Q9*%
X143910000Y-85380000D02*
X143910000Y-79370000D01*
X150730000Y-83130000D02*
X150730000Y-79370000D01*
X143910000Y-79370000D02*
X145170000Y-79370000D01*
X150730000Y-79370000D02*
X149470000Y-79370000D01*
%TO.C,Q8*%
X133750000Y-69505000D02*
X133750000Y-63495000D01*
X140570000Y-67255000D02*
X140570000Y-63495000D01*
X133750000Y-63495000D02*
X135010000Y-63495000D01*
X140570000Y-63495000D02*
X139310000Y-63495000D01*
%TO.C,Q7*%
X133750000Y-85380000D02*
X133750000Y-79370000D01*
X140570000Y-83130000D02*
X140570000Y-79370000D01*
X133750000Y-79370000D02*
X135010000Y-79370000D01*
X140570000Y-79370000D02*
X139310000Y-79370000D01*
%TO.C,Q6*%
X123590000Y-69505000D02*
X123590000Y-63495000D01*
X130410000Y-67255000D02*
X130410000Y-63495000D01*
X123590000Y-63495000D02*
X124850000Y-63495000D01*
X130410000Y-63495000D02*
X129150000Y-63495000D01*
%TO.C,Q5*%
X123590000Y-85380000D02*
X123590000Y-79370000D01*
X130410000Y-83130000D02*
X130410000Y-79370000D01*
X123590000Y-79370000D02*
X124850000Y-79370000D01*
X130410000Y-79370000D02*
X129150000Y-79370000D01*
%TO.C,Q4*%
X113430000Y-69505000D02*
X113430000Y-63495000D01*
X120250000Y-67255000D02*
X120250000Y-63495000D01*
X113430000Y-63495000D02*
X114690000Y-63495000D01*
X120250000Y-63495000D02*
X118990000Y-63495000D01*
%TO.C,Q3*%
X113430000Y-85380000D02*
X113430000Y-79370000D01*
X120250000Y-83130000D02*
X120250000Y-79370000D01*
X113430000Y-79370000D02*
X114690000Y-79370000D01*
X120250000Y-79370000D02*
X118990000Y-79370000D01*
%TO.C,Q1*%
X128145000Y-120340000D02*
X129605000Y-120340000D01*
X128145000Y-123500000D02*
X131305000Y-123500000D01*
X128145000Y-123500000D02*
X128145000Y-122570000D01*
X128145000Y-120340000D02*
X128145000Y-121270000D01*
%TO.C,L1*%
X80175000Y-103980000D02*
X74675000Y-103980000D01*
X80175000Y-83980000D02*
X74675000Y-83980000D01*
X53175000Y-103980000D02*
X58675000Y-103980000D01*
X53175000Y-83980000D02*
X58675000Y-83980000D01*
X80175000Y-103980000D02*
X80175000Y-83980000D01*
X53175000Y-83980000D02*
X53175000Y-103980000D01*
%TO.C,J4*%
X113605000Y-57845000D02*
X113605000Y-56515000D01*
X114935000Y-57845000D02*
X113605000Y-57845000D01*
X113605000Y-55245000D02*
X113605000Y-52645000D01*
X116205000Y-55245000D02*
X113605000Y-55245000D01*
X116205000Y-57845000D02*
X116205000Y-55245000D01*
X113605000Y-52645000D02*
X128965000Y-52645000D01*
X116205000Y-57845000D02*
X128965000Y-57845000D01*
X128965000Y-57845000D02*
X128965000Y-52645000D01*
D12*
%TO.C,J3*%
X160147000Y-125476000D02*
G75*
G03*
X160147000Y-125476000I-254000J0D01*
G01*
D11*
X167005000Y-119062500D02*
X167005000Y-124777500D01*
X159385000Y-124777500D02*
X159385000Y-119062500D01*
X159385000Y-124777500D02*
X167005000Y-124777500D01*
X159385000Y-119062500D02*
X167005000Y-119062500D01*
%TO.C,J2*%
X120015000Y-119062500D02*
X120015000Y-124777500D01*
X114935000Y-124777500D02*
X114935000Y-119062500D01*
X114935000Y-124777500D02*
X120015000Y-124777500D01*
X114935000Y-119062500D02*
X120015000Y-119062500D01*
D12*
X115697000Y-125476000D02*
G75*
G03*
X115697000Y-125476000I-254000J0D01*
G01*
D11*
%TO.C,MCU1*%
X175320000Y-111820000D02*
X173990000Y-111820000D01*
X172720000Y-109160000D02*
X114240000Y-109160000D01*
X175320000Y-110490000D02*
X175320000Y-111820000D01*
X172720000Y-109160000D02*
X172720000Y-111820000D01*
X114240000Y-109160000D02*
X114240000Y-111820000D01*
X172720000Y-111820000D02*
X114240000Y-111820000D01*
X172720000Y-93920000D02*
X172720000Y-96580000D01*
X172720000Y-93920000D02*
X114240000Y-93920000D01*
X114240000Y-93920000D02*
X114240000Y-96580000D01*
X172720000Y-96580000D02*
X114240000Y-96580000D01*
X175320000Y-96580000D02*
X173990000Y-96580000D01*
X175320000Y-95250000D02*
X175320000Y-96580000D01*
%TO.C,J1*%
X80645000Y-119062500D02*
X80645000Y-124777500D01*
X75565000Y-124777500D02*
X75565000Y-119062500D01*
X75565000Y-124777500D02*
X80645000Y-124777500D01*
X75565000Y-119062500D02*
X80645000Y-119062500D01*
D12*
X76327000Y-125476000D02*
G75*
G03*
X76327000Y-125476000I-254000J0D01*
G01*
D11*
%TO.C,HS1*%
X57695000Y-78105000D02*
X58195000Y-78105000D01*
X77945000Y-78105000D02*
X77695000Y-78105000D01*
X80445000Y-69105000D02*
X80945000Y-69105000D01*
X80445000Y-75605000D02*
X80445000Y-69105000D01*
X55195000Y-69105000D02*
X54945000Y-69105000D01*
X55195000Y-75605000D02*
X55195000Y-69105000D01*
X58195000Y-78105000D02*
X58195000Y-69105000D01*
X77695000Y-78105000D02*
X77695000Y-69105000D01*
X80945000Y-69105000D02*
X82945000Y-69105000D01*
X77695000Y-69105000D02*
X75695000Y-69105000D01*
X54945000Y-69105000D02*
X52945000Y-69105000D01*
X60195000Y-69105000D02*
X58195000Y-69105000D01*
X75695000Y-78105000D02*
X75695000Y-69105000D01*
X60195000Y-78105000D02*
X60195000Y-69105000D01*
X75695000Y-78105000D02*
X60195000Y-78105000D01*
X52945000Y-81105000D02*
X82945000Y-81105000D01*
X82945000Y-69105000D02*
X82945000Y-81105000D01*
X52945000Y-69105000D02*
X52945000Y-81105000D01*
X55195000Y-75605000D02*
G75*
G02*
X57695000Y-78105000I0J-2500000D01*
G01*
X77945000Y-78105000D02*
G75*
G02*
X80445000Y-75605000I2500000J0D01*
G01*
%TO.C,D1*%
X74745000Y-68020000D02*
X63545000Y-68020000D01*
X74745000Y-61520000D02*
X63545000Y-61520000D01*
X74745000Y-61520000D02*
X74745000Y-68020000D01*
%TO.C,C36*%
X165876248Y-88365000D02*
X166398752Y-88365000D01*
X165876248Y-86895000D02*
X166398752Y-86895000D01*
%TO.C,C35*%
X155948748Y-72490000D02*
X156471252Y-72490000D01*
X155948748Y-71020000D02*
X156471252Y-71020000D01*
%TO.C,C34*%
X155948748Y-88365000D02*
X156471252Y-88365000D01*
X155948748Y-86895000D02*
X156471252Y-86895000D01*
%TO.C,C33*%
X145788748Y-72490000D02*
X146311252Y-72490000D01*
X145788748Y-71020000D02*
X146311252Y-71020000D01*
%TO.C,C32*%
X145788748Y-88365000D02*
X146311252Y-88365000D01*
X145788748Y-86895000D02*
X146311252Y-86895000D01*
%TO.C,C31*%
X135628748Y-72490000D02*
X136151252Y-72490000D01*
X135628748Y-71020000D02*
X136151252Y-71020000D01*
%TO.C,C30*%
X135628748Y-88365000D02*
X136151252Y-88365000D01*
X135628748Y-86895000D02*
X136151252Y-86895000D01*
%TO.C,C29*%
X125468748Y-72490000D02*
X125991252Y-72490000D01*
X125468748Y-71020000D02*
X125991252Y-71020000D01*
%TO.C,C28*%
X125468748Y-88365000D02*
X125991252Y-88365000D01*
X125468748Y-86895000D02*
X125991252Y-86895000D01*
%TO.C,C27*%
X115308748Y-72490000D02*
X115831252Y-72490000D01*
X115308748Y-71020000D02*
X115831252Y-71020000D01*
%TO.C,C26*%
X115308748Y-88365000D02*
X115831252Y-88365000D01*
X115308748Y-86895000D02*
X115831252Y-86895000D01*
%TO.C,C25*%
X94905500Y-108655752D02*
X94905500Y-108133248D01*
X93435500Y-108655752D02*
X93435500Y-108133248D01*
%TO.C,C24*%
X92365500Y-108655752D02*
X92365500Y-108133248D01*
X90895500Y-108655752D02*
X90895500Y-108133248D01*
%TO.C,C23*%
X105945000Y-116578748D02*
X105945000Y-117101252D01*
X107415000Y-116578748D02*
X107415000Y-117101252D01*
%TO.C,C21*%
X98515500Y-121023748D02*
X98515500Y-121546252D01*
X99985500Y-121023748D02*
X99985500Y-121546252D01*
%TO.C,C20*%
X95975500Y-121023748D02*
X95975500Y-121546252D01*
X97445500Y-121023748D02*
X97445500Y-121546252D01*
%TO.C,C19*%
X93435500Y-121023748D02*
X93435500Y-121546252D01*
X94905500Y-121023748D02*
X94905500Y-121546252D01*
%TO.C,C9*%
X86330560Y-63835000D02*
X86330560Y-65635000D01*
X85430560Y-64735000D02*
X87230560Y-64735000D01*
X104310000Y-69810000D02*
X104310000Y-69890000D01*
X104270000Y-69036000D02*
X104270000Y-70664000D01*
X104230000Y-68684000D02*
X104230000Y-71016000D01*
X104190000Y-68415000D02*
X104190000Y-71285000D01*
X104150000Y-68189000D02*
X104150000Y-71511000D01*
X104110000Y-67990000D02*
X104110000Y-71710000D01*
X104070000Y-67811000D02*
X104070000Y-71889000D01*
X104030000Y-67647000D02*
X104030000Y-72053000D01*
X103990000Y-67495000D02*
X103990000Y-72205000D01*
X103950000Y-67352000D02*
X103950000Y-72348000D01*
X103910000Y-67218000D02*
X103910000Y-72482000D01*
X103870000Y-67091000D02*
X103870000Y-72609000D01*
X103830000Y-66970000D02*
X103830000Y-72730000D01*
X103790000Y-66854000D02*
X103790000Y-72846000D01*
X103750000Y-66743000D02*
X103750000Y-72957000D01*
X103710000Y-66636000D02*
X103710000Y-73064000D01*
X103670000Y-66533000D02*
X103670000Y-73167000D01*
X103630000Y-66434000D02*
X103630000Y-73266000D01*
X103590000Y-66338000D02*
X103590000Y-73362000D01*
X103550000Y-66245000D02*
X103550000Y-73455000D01*
X103510000Y-66154000D02*
X103510000Y-73546000D01*
X103470000Y-66066000D02*
X103470000Y-73634000D01*
X103430000Y-65981000D02*
X103430000Y-73719000D01*
X103390000Y-65898000D02*
X103390000Y-73802000D01*
X103351000Y-65817000D02*
X103351000Y-73883000D01*
X103311000Y-65737000D02*
X103311000Y-73963000D01*
X103271000Y-65660000D02*
X103271000Y-74040000D01*
X103231000Y-65585000D02*
X103231000Y-74115000D01*
X103191000Y-65511000D02*
X103191000Y-74189000D01*
X103151000Y-65438000D02*
X103151000Y-74262000D01*
X103111000Y-65368000D02*
X103111000Y-74332000D01*
X103071000Y-65298000D02*
X103071000Y-74402000D01*
X103031000Y-65230000D02*
X103031000Y-74470000D01*
X102991000Y-65164000D02*
X102991000Y-74536000D01*
X102951000Y-65098000D02*
X102951000Y-74602000D01*
X102911000Y-65034000D02*
X102911000Y-74666000D01*
X102871000Y-64971000D02*
X102871000Y-74729000D01*
X102831000Y-64909000D02*
X102831000Y-74791000D01*
X102791000Y-64848000D02*
X102791000Y-74852000D01*
X102751000Y-64788000D02*
X102751000Y-74912000D01*
X102711000Y-64730000D02*
X102711000Y-74970000D01*
X102671000Y-64672000D02*
X102671000Y-75028000D01*
X102631000Y-64615000D02*
X102631000Y-75085000D01*
X102591000Y-64559000D02*
X102591000Y-75141000D01*
X102551000Y-64504000D02*
X102551000Y-75196000D01*
X102511000Y-64450000D02*
X102511000Y-75250000D01*
X102471000Y-64396000D02*
X102471000Y-75304000D01*
X102431000Y-64344000D02*
X102431000Y-75356000D01*
X102391000Y-64292000D02*
X102391000Y-75408000D01*
X102351000Y-64241000D02*
X102351000Y-75459000D01*
X102311000Y-64190000D02*
X102311000Y-75510000D01*
X102271000Y-64141000D02*
X102271000Y-75559000D01*
X102231000Y-64092000D02*
X102231000Y-75608000D01*
X102191000Y-64044000D02*
X102191000Y-75656000D01*
X102151000Y-63996000D02*
X102151000Y-75704000D01*
X102111000Y-63949000D02*
X102111000Y-75751000D01*
X102071000Y-63903000D02*
X102071000Y-75797000D01*
X102031000Y-63857000D02*
X102031000Y-75843000D01*
X101991000Y-63812000D02*
X101991000Y-75888000D01*
X101951000Y-63768000D02*
X101951000Y-75932000D01*
X101911000Y-63724000D02*
X101911000Y-75976000D01*
X101871000Y-63680000D02*
X101871000Y-76020000D01*
X101831000Y-63638000D02*
X101831000Y-76062000D01*
X101791000Y-63596000D02*
X101791000Y-76104000D01*
X101751000Y-63554000D02*
X101751000Y-76146000D01*
X101711000Y-63513000D02*
X101711000Y-76187000D01*
X101671000Y-63472000D02*
X101671000Y-76228000D01*
X101631000Y-63432000D02*
X101631000Y-76268000D01*
X101591000Y-63392000D02*
X101591000Y-76308000D01*
X101551000Y-63353000D02*
X101551000Y-76347000D01*
X101511000Y-63314000D02*
X101511000Y-76386000D01*
X101471000Y-63276000D02*
X101471000Y-76424000D01*
X101431000Y-63238000D02*
X101431000Y-76462000D01*
X101391000Y-63201000D02*
X101391000Y-76499000D01*
X101351000Y-63164000D02*
X101351000Y-76536000D01*
X101311000Y-63128000D02*
X101311000Y-76572000D01*
X101271000Y-63092000D02*
X101271000Y-76608000D01*
X101231000Y-63056000D02*
X101231000Y-76644000D01*
X101191000Y-63021000D02*
X101191000Y-76679000D01*
X101151000Y-62986000D02*
X101151000Y-76714000D01*
X101111000Y-62952000D02*
X101111000Y-76748000D01*
X101071000Y-62918000D02*
X101071000Y-76782000D01*
X101031000Y-62885000D02*
X101031000Y-76815000D01*
X100991000Y-62851000D02*
X100991000Y-76849000D01*
X100951000Y-62819000D02*
X100951000Y-76881000D01*
X100911000Y-62786000D02*
X100911000Y-76914000D01*
X100871000Y-62754000D02*
X100871000Y-76946000D01*
X100831000Y-62723000D02*
X100831000Y-76977000D01*
X100791000Y-62691000D02*
X100791000Y-77009000D01*
X100751000Y-62660000D02*
X100751000Y-77040000D01*
X100711000Y-62630000D02*
X100711000Y-77070000D01*
X100671000Y-62600000D02*
X100671000Y-77100000D01*
X100631000Y-62570000D02*
X100631000Y-77130000D01*
X100591000Y-62540000D02*
X100591000Y-77160000D01*
X100551000Y-62511000D02*
X100551000Y-77189000D01*
X100511000Y-62482000D02*
X100511000Y-77218000D01*
X100471000Y-62453000D02*
X100471000Y-77247000D01*
X100431000Y-62425000D02*
X100431000Y-77275000D01*
X100391000Y-62397000D02*
X100391000Y-77303000D01*
X100351000Y-71290000D02*
X100351000Y-77330000D01*
X100351000Y-62370000D02*
X100351000Y-68410000D01*
X100311000Y-71290000D02*
X100311000Y-77358000D01*
X100311000Y-62342000D02*
X100311000Y-68410000D01*
X100271000Y-71290000D02*
X100271000Y-77385000D01*
X100271000Y-62315000D02*
X100271000Y-68410000D01*
X100231000Y-71290000D02*
X100231000Y-77411000D01*
X100231000Y-62289000D02*
X100231000Y-68410000D01*
X100191000Y-71290000D02*
X100191000Y-77438000D01*
X100191000Y-62262000D02*
X100191000Y-68410000D01*
X100151000Y-71290000D02*
X100151000Y-77464000D01*
X100151000Y-62236000D02*
X100151000Y-68410000D01*
X100111000Y-71290000D02*
X100111000Y-77490000D01*
X100111000Y-62210000D02*
X100111000Y-68410000D01*
X100071000Y-71290000D02*
X100071000Y-77515000D01*
X100071000Y-62185000D02*
X100071000Y-68410000D01*
X100031000Y-71290000D02*
X100031000Y-77540000D01*
X100031000Y-62160000D02*
X100031000Y-68410000D01*
X99991000Y-71290000D02*
X99991000Y-77565000D01*
X99991000Y-62135000D02*
X99991000Y-68410000D01*
X99951000Y-71290000D02*
X99951000Y-77590000D01*
X99951000Y-62110000D02*
X99951000Y-68410000D01*
X99911000Y-71290000D02*
X99911000Y-77614000D01*
X99911000Y-62086000D02*
X99911000Y-68410000D01*
X99871000Y-71290000D02*
X99871000Y-77638000D01*
X99871000Y-62062000D02*
X99871000Y-68410000D01*
X99831000Y-71290000D02*
X99831000Y-77662000D01*
X99831000Y-62038000D02*
X99831000Y-68410000D01*
X99791000Y-71290000D02*
X99791000Y-77685000D01*
X99791000Y-62015000D02*
X99791000Y-68410000D01*
X99751000Y-71290000D02*
X99751000Y-77709000D01*
X99751000Y-61991000D02*
X99751000Y-68410000D01*
X99711000Y-71290000D02*
X99711000Y-77732000D01*
X99711000Y-61968000D02*
X99711000Y-68410000D01*
X99671000Y-71290000D02*
X99671000Y-77754000D01*
X99671000Y-61946000D02*
X99671000Y-68410000D01*
X99631000Y-71290000D02*
X99631000Y-77777000D01*
X99631000Y-61923000D02*
X99631000Y-68410000D01*
X99591000Y-71290000D02*
X99591000Y-77799000D01*
X99591000Y-61901000D02*
X99591000Y-68410000D01*
X99551000Y-71290000D02*
X99551000Y-77821000D01*
X99551000Y-61879000D02*
X99551000Y-68410000D01*
X99511000Y-71290000D02*
X99511000Y-77842000D01*
X99511000Y-61858000D02*
X99511000Y-68410000D01*
X99471000Y-71290000D02*
X99471000Y-77864000D01*
X99471000Y-61836000D02*
X99471000Y-68410000D01*
X99431000Y-71290000D02*
X99431000Y-77885000D01*
X99431000Y-61815000D02*
X99431000Y-68410000D01*
X99391000Y-71290000D02*
X99391000Y-77906000D01*
X99391000Y-61794000D02*
X99391000Y-68410000D01*
X99351000Y-71290000D02*
X99351000Y-77926000D01*
X99351000Y-61774000D02*
X99351000Y-68410000D01*
X99311000Y-71290000D02*
X99311000Y-77947000D01*
X99311000Y-61753000D02*
X99311000Y-68410000D01*
X99271000Y-71290000D02*
X99271000Y-77967000D01*
X99271000Y-61733000D02*
X99271000Y-68410000D01*
X99231000Y-71290000D02*
X99231000Y-77987000D01*
X99231000Y-61713000D02*
X99231000Y-68410000D01*
X99191000Y-71290000D02*
X99191000Y-78006000D01*
X99191000Y-61694000D02*
X99191000Y-68410000D01*
X99151000Y-71290000D02*
X99151000Y-78026000D01*
X99151000Y-61674000D02*
X99151000Y-68410000D01*
X99111000Y-71290000D02*
X99111000Y-78045000D01*
X99111000Y-61655000D02*
X99111000Y-68410000D01*
X99071000Y-71290000D02*
X99071000Y-78064000D01*
X99071000Y-61636000D02*
X99071000Y-68410000D01*
X99031000Y-71290000D02*
X99031000Y-78083000D01*
X99031000Y-61617000D02*
X99031000Y-68410000D01*
X98991000Y-71290000D02*
X98991000Y-78101000D01*
X98991000Y-61599000D02*
X98991000Y-68410000D01*
X98951000Y-71290000D02*
X98951000Y-78119000D01*
X98951000Y-61581000D02*
X98951000Y-68410000D01*
X98911000Y-71290000D02*
X98911000Y-78137000D01*
X98911000Y-61563000D02*
X98911000Y-68410000D01*
X98871000Y-71290000D02*
X98871000Y-78155000D01*
X98871000Y-61545000D02*
X98871000Y-68410000D01*
X98831000Y-71290000D02*
X98831000Y-78173000D01*
X98831000Y-61527000D02*
X98831000Y-68410000D01*
X98791000Y-71290000D02*
X98791000Y-78190000D01*
X98791000Y-61510000D02*
X98791000Y-68410000D01*
X98751000Y-71290000D02*
X98751000Y-78207000D01*
X98751000Y-61493000D02*
X98751000Y-68410000D01*
X98711000Y-71290000D02*
X98711000Y-78224000D01*
X98711000Y-61476000D02*
X98711000Y-68410000D01*
X98671000Y-71290000D02*
X98671000Y-78240000D01*
X98671000Y-61460000D02*
X98671000Y-68410000D01*
X98631000Y-71290000D02*
X98631000Y-78257000D01*
X98631000Y-61443000D02*
X98631000Y-68410000D01*
X98591000Y-71290000D02*
X98591000Y-78273000D01*
X98591000Y-61427000D02*
X98591000Y-68410000D01*
X98551000Y-71290000D02*
X98551000Y-78289000D01*
X98551000Y-61411000D02*
X98551000Y-68410000D01*
X98511000Y-71290000D02*
X98511000Y-78305000D01*
X98511000Y-61395000D02*
X98511000Y-68410000D01*
X98471000Y-71290000D02*
X98471000Y-78320000D01*
X98471000Y-61380000D02*
X98471000Y-68410000D01*
X98431000Y-71290000D02*
X98431000Y-78336000D01*
X98431000Y-61364000D02*
X98431000Y-68410000D01*
X98391000Y-71290000D02*
X98391000Y-78351000D01*
X98391000Y-61349000D02*
X98391000Y-68410000D01*
X98351000Y-71290000D02*
X98351000Y-78366000D01*
X98351000Y-61334000D02*
X98351000Y-68410000D01*
X98311000Y-71290000D02*
X98311000Y-78380000D01*
X98311000Y-61320000D02*
X98311000Y-68410000D01*
X98271000Y-71290000D02*
X98271000Y-78395000D01*
X98271000Y-61305000D02*
X98271000Y-68410000D01*
X98231000Y-71290000D02*
X98231000Y-78409000D01*
X98231000Y-61291000D02*
X98231000Y-68410000D01*
X98191000Y-71290000D02*
X98191000Y-78423000D01*
X98191000Y-61277000D02*
X98191000Y-68410000D01*
X98151000Y-71290000D02*
X98151000Y-78437000D01*
X98151000Y-61263000D02*
X98151000Y-68410000D01*
X98111000Y-71290000D02*
X98111000Y-78450000D01*
X98111000Y-61250000D02*
X98111000Y-68410000D01*
X98071000Y-71290000D02*
X98071000Y-78464000D01*
X98071000Y-61236000D02*
X98071000Y-68410000D01*
X98031000Y-71290000D02*
X98031000Y-78477000D01*
X98031000Y-61223000D02*
X98031000Y-68410000D01*
X97991000Y-71290000D02*
X97991000Y-78490000D01*
X97991000Y-61210000D02*
X97991000Y-68410000D01*
X97951000Y-71290000D02*
X97951000Y-78503000D01*
X97951000Y-61197000D02*
X97951000Y-68410000D01*
X97911000Y-71290000D02*
X97911000Y-78515000D01*
X97911000Y-61185000D02*
X97911000Y-68410000D01*
X97871000Y-71290000D02*
X97871000Y-78528000D01*
X97871000Y-61172000D02*
X97871000Y-68410000D01*
X97831000Y-71290000D02*
X97831000Y-78540000D01*
X97831000Y-61160000D02*
X97831000Y-68410000D01*
X97791000Y-71290000D02*
X97791000Y-78552000D01*
X97791000Y-61148000D02*
X97791000Y-68410000D01*
X97751000Y-71290000D02*
X97751000Y-78564000D01*
X97751000Y-61136000D02*
X97751000Y-68410000D01*
X97711000Y-71290000D02*
X97711000Y-78575000D01*
X97711000Y-61125000D02*
X97711000Y-68410000D01*
X97671000Y-71290000D02*
X97671000Y-78587000D01*
X97671000Y-61113000D02*
X97671000Y-68410000D01*
X97631000Y-71290000D02*
X97631000Y-78598000D01*
X97631000Y-61102000D02*
X97631000Y-68410000D01*
X97591000Y-71290000D02*
X97591000Y-78609000D01*
X97591000Y-61091000D02*
X97591000Y-68410000D01*
X97551000Y-71290000D02*
X97551000Y-78620000D01*
X97551000Y-61080000D02*
X97551000Y-68410000D01*
X97511000Y-71290000D02*
X97511000Y-78630000D01*
X97511000Y-61070000D02*
X97511000Y-68410000D01*
X97471000Y-61059000D02*
X97471000Y-78641000D01*
X97431000Y-61049000D02*
X97431000Y-78651000D01*
X97391000Y-61039000D02*
X97391000Y-78661000D01*
X97351000Y-61029000D02*
X97351000Y-78671000D01*
X97311000Y-61019000D02*
X97311000Y-78681000D01*
X97271000Y-61010000D02*
X97271000Y-78690000D01*
X97231000Y-61001000D02*
X97231000Y-78699000D01*
X97191000Y-60992000D02*
X97191000Y-78708000D01*
X97151000Y-60983000D02*
X97151000Y-78717000D01*
X97111000Y-60974000D02*
X97111000Y-78726000D01*
X97071000Y-60965000D02*
X97071000Y-78735000D01*
X97031000Y-60957000D02*
X97031000Y-78743000D01*
X96991000Y-60949000D02*
X96991000Y-78751000D01*
X96951000Y-60941000D02*
X96951000Y-78759000D01*
X96911000Y-60933000D02*
X96911000Y-78767000D01*
X96871000Y-60926000D02*
X96871000Y-78774000D01*
X96831000Y-60918000D02*
X96831000Y-78782000D01*
X96791000Y-60911000D02*
X96791000Y-78789000D01*
X96751000Y-60904000D02*
X96751000Y-78796000D01*
X96711000Y-60897000D02*
X96711000Y-78803000D01*
X96671000Y-60890000D02*
X96671000Y-78810000D01*
X96631000Y-60884000D02*
X96631000Y-78816000D01*
X96591000Y-60878000D02*
X96591000Y-78822000D01*
X96551000Y-60871000D02*
X96551000Y-78829000D01*
X96511000Y-60866000D02*
X96511000Y-78834000D01*
X96471000Y-60860000D02*
X96471000Y-78840000D01*
X96431000Y-60854000D02*
X96431000Y-78846000D01*
X96391000Y-60849000D02*
X96391000Y-78851000D01*
X96351000Y-60844000D02*
X96351000Y-78856000D01*
X96311000Y-60839000D02*
X96311000Y-78861000D01*
X96271000Y-60834000D02*
X96271000Y-78866000D01*
X96231000Y-60829000D02*
X96231000Y-78871000D01*
X96191000Y-60824000D02*
X96191000Y-78876000D01*
X96151000Y-60820000D02*
X96151000Y-78880000D01*
X96111000Y-60816000D02*
X96111000Y-78884000D01*
X96071000Y-60812000D02*
X96071000Y-78888000D01*
X96031000Y-60808000D02*
X96031000Y-78892000D01*
X95991000Y-60805000D02*
X95991000Y-78895000D01*
X95951000Y-60801000D02*
X95951000Y-78899000D01*
X95911000Y-60798000D02*
X95911000Y-78902000D01*
X95870000Y-60795000D02*
X95870000Y-78905000D01*
X95830000Y-60792000D02*
X95830000Y-78908000D01*
X95790000Y-60789000D02*
X95790000Y-78911000D01*
X95750000Y-60787000D02*
X95750000Y-78913000D01*
X95710000Y-60784000D02*
X95710000Y-78916000D01*
X95670000Y-60782000D02*
X95670000Y-78918000D01*
X95630000Y-60780000D02*
X95630000Y-78920000D01*
X95590000Y-60778000D02*
X95590000Y-78922000D01*
X95550000Y-60777000D02*
X95550000Y-78923000D01*
X95510000Y-60775000D02*
X95510000Y-78925000D01*
X95470000Y-60774000D02*
X95470000Y-78926000D01*
X95430000Y-60773000D02*
X95430000Y-78927000D01*
X95390000Y-60772000D02*
X95390000Y-78928000D01*
X95350000Y-60771000D02*
X95350000Y-78929000D01*
X95310000Y-60770000D02*
X95310000Y-78930000D01*
X95270000Y-60770000D02*
X95270000Y-78930000D01*
X95230000Y-60770000D02*
X95230000Y-78930000D01*
X95190000Y-60769000D02*
X95190000Y-78931000D01*
X104310000Y-69850000D02*
G75*
G03*
X104310000Y-69850000I-9120000J0D01*
G01*
%TO.C,C8*%
X86330560Y-82885000D02*
X86330560Y-84685000D01*
X85430560Y-83785000D02*
X87230560Y-83785000D01*
X104310000Y-88860000D02*
X104310000Y-88940000D01*
X104270000Y-88086000D02*
X104270000Y-89714000D01*
X104230000Y-87734000D02*
X104230000Y-90066000D01*
X104190000Y-87465000D02*
X104190000Y-90335000D01*
X104150000Y-87239000D02*
X104150000Y-90561000D01*
X104110000Y-87040000D02*
X104110000Y-90760000D01*
X104070000Y-86861000D02*
X104070000Y-90939000D01*
X104030000Y-86697000D02*
X104030000Y-91103000D01*
X103990000Y-86545000D02*
X103990000Y-91255000D01*
X103950000Y-86402000D02*
X103950000Y-91398000D01*
X103910000Y-86268000D02*
X103910000Y-91532000D01*
X103870000Y-86141000D02*
X103870000Y-91659000D01*
X103830000Y-86020000D02*
X103830000Y-91780000D01*
X103790000Y-85904000D02*
X103790000Y-91896000D01*
X103750000Y-85793000D02*
X103750000Y-92007000D01*
X103710000Y-85686000D02*
X103710000Y-92114000D01*
X103670000Y-85583000D02*
X103670000Y-92217000D01*
X103630000Y-85484000D02*
X103630000Y-92316000D01*
X103590000Y-85388000D02*
X103590000Y-92412000D01*
X103550000Y-85295000D02*
X103550000Y-92505000D01*
X103510000Y-85204000D02*
X103510000Y-92596000D01*
X103470000Y-85116000D02*
X103470000Y-92684000D01*
X103430000Y-85031000D02*
X103430000Y-92769000D01*
X103390000Y-84948000D02*
X103390000Y-92852000D01*
X103351000Y-84867000D02*
X103351000Y-92933000D01*
X103311000Y-84787000D02*
X103311000Y-93013000D01*
X103271000Y-84710000D02*
X103271000Y-93090000D01*
X103231000Y-84635000D02*
X103231000Y-93165000D01*
X103191000Y-84561000D02*
X103191000Y-93239000D01*
X103151000Y-84488000D02*
X103151000Y-93312000D01*
X103111000Y-84418000D02*
X103111000Y-93382000D01*
X103071000Y-84348000D02*
X103071000Y-93452000D01*
X103031000Y-84280000D02*
X103031000Y-93520000D01*
X102991000Y-84214000D02*
X102991000Y-93586000D01*
X102951000Y-84148000D02*
X102951000Y-93652000D01*
X102911000Y-84084000D02*
X102911000Y-93716000D01*
X102871000Y-84021000D02*
X102871000Y-93779000D01*
X102831000Y-83959000D02*
X102831000Y-93841000D01*
X102791000Y-83898000D02*
X102791000Y-93902000D01*
X102751000Y-83838000D02*
X102751000Y-93962000D01*
X102711000Y-83780000D02*
X102711000Y-94020000D01*
X102671000Y-83722000D02*
X102671000Y-94078000D01*
X102631000Y-83665000D02*
X102631000Y-94135000D01*
X102591000Y-83609000D02*
X102591000Y-94191000D01*
X102551000Y-83554000D02*
X102551000Y-94246000D01*
X102511000Y-83500000D02*
X102511000Y-94300000D01*
X102471000Y-83446000D02*
X102471000Y-94354000D01*
X102431000Y-83394000D02*
X102431000Y-94406000D01*
X102391000Y-83342000D02*
X102391000Y-94458000D01*
X102351000Y-83291000D02*
X102351000Y-94509000D01*
X102311000Y-83240000D02*
X102311000Y-94560000D01*
X102271000Y-83191000D02*
X102271000Y-94609000D01*
X102231000Y-83142000D02*
X102231000Y-94658000D01*
X102191000Y-83094000D02*
X102191000Y-94706000D01*
X102151000Y-83046000D02*
X102151000Y-94754000D01*
X102111000Y-82999000D02*
X102111000Y-94801000D01*
X102071000Y-82953000D02*
X102071000Y-94847000D01*
X102031000Y-82907000D02*
X102031000Y-94893000D01*
X101991000Y-82862000D02*
X101991000Y-94938000D01*
X101951000Y-82818000D02*
X101951000Y-94982000D01*
X101911000Y-82774000D02*
X101911000Y-95026000D01*
X101871000Y-82730000D02*
X101871000Y-95070000D01*
X101831000Y-82688000D02*
X101831000Y-95112000D01*
X101791000Y-82646000D02*
X101791000Y-95154000D01*
X101751000Y-82604000D02*
X101751000Y-95196000D01*
X101711000Y-82563000D02*
X101711000Y-95237000D01*
X101671000Y-82522000D02*
X101671000Y-95278000D01*
X101631000Y-82482000D02*
X101631000Y-95318000D01*
X101591000Y-82442000D02*
X101591000Y-95358000D01*
X101551000Y-82403000D02*
X101551000Y-95397000D01*
X101511000Y-82364000D02*
X101511000Y-95436000D01*
X101471000Y-82326000D02*
X101471000Y-95474000D01*
X101431000Y-82288000D02*
X101431000Y-95512000D01*
X101391000Y-82251000D02*
X101391000Y-95549000D01*
X101351000Y-82214000D02*
X101351000Y-95586000D01*
X101311000Y-82178000D02*
X101311000Y-95622000D01*
X101271000Y-82142000D02*
X101271000Y-95658000D01*
X101231000Y-82106000D02*
X101231000Y-95694000D01*
X101191000Y-82071000D02*
X101191000Y-95729000D01*
X101151000Y-82036000D02*
X101151000Y-95764000D01*
X101111000Y-82002000D02*
X101111000Y-95798000D01*
X101071000Y-81968000D02*
X101071000Y-95832000D01*
X101031000Y-81935000D02*
X101031000Y-95865000D01*
X100991000Y-81901000D02*
X100991000Y-95899000D01*
X100951000Y-81869000D02*
X100951000Y-95931000D01*
X100911000Y-81836000D02*
X100911000Y-95964000D01*
X100871000Y-81804000D02*
X100871000Y-95996000D01*
X100831000Y-81773000D02*
X100831000Y-96027000D01*
X100791000Y-81741000D02*
X100791000Y-96059000D01*
X100751000Y-81710000D02*
X100751000Y-96090000D01*
X100711000Y-81680000D02*
X100711000Y-96120000D01*
X100671000Y-81650000D02*
X100671000Y-96150000D01*
X100631000Y-81620000D02*
X100631000Y-96180000D01*
X100591000Y-81590000D02*
X100591000Y-96210000D01*
X100551000Y-81561000D02*
X100551000Y-96239000D01*
X100511000Y-81532000D02*
X100511000Y-96268000D01*
X100471000Y-81503000D02*
X100471000Y-96297000D01*
X100431000Y-81475000D02*
X100431000Y-96325000D01*
X100391000Y-81447000D02*
X100391000Y-96353000D01*
X100351000Y-90340000D02*
X100351000Y-96380000D01*
X100351000Y-81420000D02*
X100351000Y-87460000D01*
X100311000Y-90340000D02*
X100311000Y-96408000D01*
X100311000Y-81392000D02*
X100311000Y-87460000D01*
X100271000Y-90340000D02*
X100271000Y-96435000D01*
X100271000Y-81365000D02*
X100271000Y-87460000D01*
X100231000Y-90340000D02*
X100231000Y-96461000D01*
X100231000Y-81339000D02*
X100231000Y-87460000D01*
X100191000Y-90340000D02*
X100191000Y-96488000D01*
X100191000Y-81312000D02*
X100191000Y-87460000D01*
X100151000Y-90340000D02*
X100151000Y-96514000D01*
X100151000Y-81286000D02*
X100151000Y-87460000D01*
X100111000Y-90340000D02*
X100111000Y-96540000D01*
X100111000Y-81260000D02*
X100111000Y-87460000D01*
X100071000Y-90340000D02*
X100071000Y-96565000D01*
X100071000Y-81235000D02*
X100071000Y-87460000D01*
X100031000Y-90340000D02*
X100031000Y-96590000D01*
X100031000Y-81210000D02*
X100031000Y-87460000D01*
X99991000Y-90340000D02*
X99991000Y-96615000D01*
X99991000Y-81185000D02*
X99991000Y-87460000D01*
X99951000Y-90340000D02*
X99951000Y-96640000D01*
X99951000Y-81160000D02*
X99951000Y-87460000D01*
X99911000Y-90340000D02*
X99911000Y-96664000D01*
X99911000Y-81136000D02*
X99911000Y-87460000D01*
X99871000Y-90340000D02*
X99871000Y-96688000D01*
X99871000Y-81112000D02*
X99871000Y-87460000D01*
X99831000Y-90340000D02*
X99831000Y-96712000D01*
X99831000Y-81088000D02*
X99831000Y-87460000D01*
X99791000Y-90340000D02*
X99791000Y-96735000D01*
X99791000Y-81065000D02*
X99791000Y-87460000D01*
X99751000Y-90340000D02*
X99751000Y-96759000D01*
X99751000Y-81041000D02*
X99751000Y-87460000D01*
X99711000Y-90340000D02*
X99711000Y-96782000D01*
X99711000Y-81018000D02*
X99711000Y-87460000D01*
X99671000Y-90340000D02*
X99671000Y-96804000D01*
X99671000Y-80996000D02*
X99671000Y-87460000D01*
X99631000Y-90340000D02*
X99631000Y-96827000D01*
X99631000Y-80973000D02*
X99631000Y-87460000D01*
X99591000Y-90340000D02*
X99591000Y-96849000D01*
X99591000Y-80951000D02*
X99591000Y-87460000D01*
X99551000Y-90340000D02*
X99551000Y-96871000D01*
X99551000Y-80929000D02*
X99551000Y-87460000D01*
X99511000Y-90340000D02*
X99511000Y-96892000D01*
X99511000Y-80908000D02*
X99511000Y-87460000D01*
X99471000Y-90340000D02*
X99471000Y-96914000D01*
X99471000Y-80886000D02*
X99471000Y-87460000D01*
X99431000Y-90340000D02*
X99431000Y-96935000D01*
X99431000Y-80865000D02*
X99431000Y-87460000D01*
X99391000Y-90340000D02*
X99391000Y-96956000D01*
X99391000Y-80844000D02*
X99391000Y-87460000D01*
X99351000Y-90340000D02*
X99351000Y-96976000D01*
X99351000Y-80824000D02*
X99351000Y-87460000D01*
X99311000Y-90340000D02*
X99311000Y-96997000D01*
X99311000Y-80803000D02*
X99311000Y-87460000D01*
X99271000Y-90340000D02*
X99271000Y-97017000D01*
X99271000Y-80783000D02*
X99271000Y-87460000D01*
X99231000Y-90340000D02*
X99231000Y-97037000D01*
X99231000Y-80763000D02*
X99231000Y-87460000D01*
X99191000Y-90340000D02*
X99191000Y-97056000D01*
X99191000Y-80744000D02*
X99191000Y-87460000D01*
X99151000Y-90340000D02*
X99151000Y-97076000D01*
X99151000Y-80724000D02*
X99151000Y-87460000D01*
X99111000Y-90340000D02*
X99111000Y-97095000D01*
X99111000Y-80705000D02*
X99111000Y-87460000D01*
X99071000Y-90340000D02*
X99071000Y-97114000D01*
X99071000Y-80686000D02*
X99071000Y-87460000D01*
X99031000Y-90340000D02*
X99031000Y-97133000D01*
X99031000Y-80667000D02*
X99031000Y-87460000D01*
X98991000Y-90340000D02*
X98991000Y-97151000D01*
X98991000Y-80649000D02*
X98991000Y-87460000D01*
X98951000Y-90340000D02*
X98951000Y-97169000D01*
X98951000Y-80631000D02*
X98951000Y-87460000D01*
X98911000Y-90340000D02*
X98911000Y-97187000D01*
X98911000Y-80613000D02*
X98911000Y-87460000D01*
X98871000Y-90340000D02*
X98871000Y-97205000D01*
X98871000Y-80595000D02*
X98871000Y-87460000D01*
X98831000Y-90340000D02*
X98831000Y-97223000D01*
X98831000Y-80577000D02*
X98831000Y-87460000D01*
X98791000Y-90340000D02*
X98791000Y-97240000D01*
X98791000Y-80560000D02*
X98791000Y-87460000D01*
X98751000Y-90340000D02*
X98751000Y-97257000D01*
X98751000Y-80543000D02*
X98751000Y-87460000D01*
X98711000Y-90340000D02*
X98711000Y-97274000D01*
X98711000Y-80526000D02*
X98711000Y-87460000D01*
X98671000Y-90340000D02*
X98671000Y-97290000D01*
X98671000Y-80510000D02*
X98671000Y-87460000D01*
X98631000Y-90340000D02*
X98631000Y-97307000D01*
X98631000Y-80493000D02*
X98631000Y-87460000D01*
X98591000Y-90340000D02*
X98591000Y-97323000D01*
X98591000Y-80477000D02*
X98591000Y-87460000D01*
X98551000Y-90340000D02*
X98551000Y-97339000D01*
X98551000Y-80461000D02*
X98551000Y-87460000D01*
X98511000Y-90340000D02*
X98511000Y-97355000D01*
X98511000Y-80445000D02*
X98511000Y-87460000D01*
X98471000Y-90340000D02*
X98471000Y-97370000D01*
X98471000Y-80430000D02*
X98471000Y-87460000D01*
X98431000Y-90340000D02*
X98431000Y-97386000D01*
X98431000Y-80414000D02*
X98431000Y-87460000D01*
X98391000Y-90340000D02*
X98391000Y-97401000D01*
X98391000Y-80399000D02*
X98391000Y-87460000D01*
X98351000Y-90340000D02*
X98351000Y-97416000D01*
X98351000Y-80384000D02*
X98351000Y-87460000D01*
X98311000Y-90340000D02*
X98311000Y-97430000D01*
X98311000Y-80370000D02*
X98311000Y-87460000D01*
X98271000Y-90340000D02*
X98271000Y-97445000D01*
X98271000Y-80355000D02*
X98271000Y-87460000D01*
X98231000Y-90340000D02*
X98231000Y-97459000D01*
X98231000Y-80341000D02*
X98231000Y-87460000D01*
X98191000Y-90340000D02*
X98191000Y-97473000D01*
X98191000Y-80327000D02*
X98191000Y-87460000D01*
X98151000Y-90340000D02*
X98151000Y-97487000D01*
X98151000Y-80313000D02*
X98151000Y-87460000D01*
X98111000Y-90340000D02*
X98111000Y-97500000D01*
X98111000Y-80300000D02*
X98111000Y-87460000D01*
X98071000Y-90340000D02*
X98071000Y-97514000D01*
X98071000Y-80286000D02*
X98071000Y-87460000D01*
X98031000Y-90340000D02*
X98031000Y-97527000D01*
X98031000Y-80273000D02*
X98031000Y-87460000D01*
X97991000Y-90340000D02*
X97991000Y-97540000D01*
X97991000Y-80260000D02*
X97991000Y-87460000D01*
X97951000Y-90340000D02*
X97951000Y-97553000D01*
X97951000Y-80247000D02*
X97951000Y-87460000D01*
X97911000Y-90340000D02*
X97911000Y-97565000D01*
X97911000Y-80235000D02*
X97911000Y-87460000D01*
X97871000Y-90340000D02*
X97871000Y-97578000D01*
X97871000Y-80222000D02*
X97871000Y-87460000D01*
X97831000Y-90340000D02*
X97831000Y-97590000D01*
X97831000Y-80210000D02*
X97831000Y-87460000D01*
X97791000Y-90340000D02*
X97791000Y-97602000D01*
X97791000Y-80198000D02*
X97791000Y-87460000D01*
X97751000Y-90340000D02*
X97751000Y-97614000D01*
X97751000Y-80186000D02*
X97751000Y-87460000D01*
X97711000Y-90340000D02*
X97711000Y-97625000D01*
X97711000Y-80175000D02*
X97711000Y-87460000D01*
X97671000Y-90340000D02*
X97671000Y-97637000D01*
X97671000Y-80163000D02*
X97671000Y-87460000D01*
X97631000Y-90340000D02*
X97631000Y-97648000D01*
X97631000Y-80152000D02*
X97631000Y-87460000D01*
X97591000Y-90340000D02*
X97591000Y-97659000D01*
X97591000Y-80141000D02*
X97591000Y-87460000D01*
X97551000Y-90340000D02*
X97551000Y-97670000D01*
X97551000Y-80130000D02*
X97551000Y-87460000D01*
X97511000Y-90340000D02*
X97511000Y-97680000D01*
X97511000Y-80120000D02*
X97511000Y-87460000D01*
X97471000Y-80109000D02*
X97471000Y-97691000D01*
X97431000Y-80099000D02*
X97431000Y-97701000D01*
X97391000Y-80089000D02*
X97391000Y-97711000D01*
X97351000Y-80079000D02*
X97351000Y-97721000D01*
X97311000Y-80069000D02*
X97311000Y-97731000D01*
X97271000Y-80060000D02*
X97271000Y-97740000D01*
X97231000Y-80051000D02*
X97231000Y-97749000D01*
X97191000Y-80042000D02*
X97191000Y-97758000D01*
X97151000Y-80033000D02*
X97151000Y-97767000D01*
X97111000Y-80024000D02*
X97111000Y-97776000D01*
X97071000Y-80015000D02*
X97071000Y-97785000D01*
X97031000Y-80007000D02*
X97031000Y-97793000D01*
X96991000Y-79999000D02*
X96991000Y-97801000D01*
X96951000Y-79991000D02*
X96951000Y-97809000D01*
X96911000Y-79983000D02*
X96911000Y-97817000D01*
X96871000Y-79976000D02*
X96871000Y-97824000D01*
X96831000Y-79968000D02*
X96831000Y-97832000D01*
X96791000Y-79961000D02*
X96791000Y-97839000D01*
X96751000Y-79954000D02*
X96751000Y-97846000D01*
X96711000Y-79947000D02*
X96711000Y-97853000D01*
X96671000Y-79940000D02*
X96671000Y-97860000D01*
X96631000Y-79934000D02*
X96631000Y-97866000D01*
X96591000Y-79928000D02*
X96591000Y-97872000D01*
X96551000Y-79921000D02*
X96551000Y-97879000D01*
X96511000Y-79916000D02*
X96511000Y-97884000D01*
X96471000Y-79910000D02*
X96471000Y-97890000D01*
X96431000Y-79904000D02*
X96431000Y-97896000D01*
X96391000Y-79899000D02*
X96391000Y-97901000D01*
X96351000Y-79894000D02*
X96351000Y-97906000D01*
X96311000Y-79889000D02*
X96311000Y-97911000D01*
X96271000Y-79884000D02*
X96271000Y-97916000D01*
X96231000Y-79879000D02*
X96231000Y-97921000D01*
X96191000Y-79874000D02*
X96191000Y-97926000D01*
X96151000Y-79870000D02*
X96151000Y-97930000D01*
X96111000Y-79866000D02*
X96111000Y-97934000D01*
X96071000Y-79862000D02*
X96071000Y-97938000D01*
X96031000Y-79858000D02*
X96031000Y-97942000D01*
X95991000Y-79855000D02*
X95991000Y-97945000D01*
X95951000Y-79851000D02*
X95951000Y-97949000D01*
X95911000Y-79848000D02*
X95911000Y-97952000D01*
X95870000Y-79845000D02*
X95870000Y-97955000D01*
X95830000Y-79842000D02*
X95830000Y-97958000D01*
X95790000Y-79839000D02*
X95790000Y-97961000D01*
X95750000Y-79837000D02*
X95750000Y-97963000D01*
X95710000Y-79834000D02*
X95710000Y-97966000D01*
X95670000Y-79832000D02*
X95670000Y-97968000D01*
X95630000Y-79830000D02*
X95630000Y-97970000D01*
X95590000Y-79828000D02*
X95590000Y-97972000D01*
X95550000Y-79827000D02*
X95550000Y-97973000D01*
X95510000Y-79825000D02*
X95510000Y-97975000D01*
X95470000Y-79824000D02*
X95470000Y-97976000D01*
X95430000Y-79823000D02*
X95430000Y-97977000D01*
X95390000Y-79822000D02*
X95390000Y-97978000D01*
X95350000Y-79821000D02*
X95350000Y-97979000D01*
X95310000Y-79820000D02*
X95310000Y-97980000D01*
X95270000Y-79820000D02*
X95270000Y-97980000D01*
X95230000Y-79820000D02*
X95230000Y-97980000D01*
X95190000Y-79819000D02*
X95190000Y-97981000D01*
X104310000Y-88900000D02*
G75*
G03*
X104310000Y-88900000I-9120000J0D01*
G01*
%TO.C,C7*%
X63400000Y-110355748D02*
X63400000Y-110878252D01*
X64870000Y-110355748D02*
X64870000Y-110878252D01*
%TO.C,C6*%
X65940000Y-110355748D02*
X65940000Y-110878252D01*
X67410000Y-110355748D02*
X67410000Y-110878252D01*
%TO.C,C5*%
X76322000Y-107665759D02*
X75692000Y-107665759D01*
X76007000Y-107350759D02*
X76007000Y-107980759D01*
X74570000Y-114092000D02*
X73766000Y-114092000D01*
X74801000Y-114052000D02*
X73535000Y-114052000D01*
X74970000Y-114012000D02*
X73366000Y-114012000D01*
X75108000Y-113972000D02*
X73228000Y-113972000D01*
X75227000Y-113932000D02*
X73109000Y-113932000D01*
X75333000Y-113892000D02*
X73003000Y-113892000D01*
X75430000Y-113852000D02*
X72906000Y-113852000D01*
X75518000Y-113812000D02*
X72818000Y-113812000D01*
X75600000Y-113772000D02*
X72736000Y-113772000D01*
X75677000Y-113732000D02*
X72659000Y-113732000D01*
X75749000Y-113692000D02*
X72587000Y-113692000D01*
X75818000Y-113652000D02*
X72518000Y-113652000D01*
X75882000Y-113612000D02*
X72454000Y-113612000D01*
X75944000Y-113572000D02*
X72392000Y-113572000D01*
X76002000Y-113532000D02*
X72334000Y-113532000D01*
X76058000Y-113492000D02*
X72278000Y-113492000D01*
X76112000Y-113452000D02*
X72224000Y-113452000D01*
X76163000Y-113412000D02*
X72173000Y-113412000D01*
X76212000Y-113372000D02*
X72124000Y-113372000D01*
X76260000Y-113332000D02*
X72076000Y-113332000D01*
X76305000Y-113292000D02*
X72031000Y-113292000D01*
X76350000Y-113252000D02*
X71986000Y-113252000D01*
X76392000Y-113212000D02*
X71944000Y-113212000D01*
X76433000Y-113172000D02*
X71903000Y-113172000D01*
X73128000Y-113132000D02*
X71863000Y-113132000D01*
X76473000Y-113132000D02*
X75208000Y-113132000D01*
X73128000Y-113092000D02*
X71825000Y-113092000D01*
X76511000Y-113092000D02*
X75208000Y-113092000D01*
X73128000Y-113052000D02*
X71788000Y-113052000D01*
X76548000Y-113052000D02*
X75208000Y-113052000D01*
X73128000Y-113012000D02*
X71752000Y-113012000D01*
X76584000Y-113012000D02*
X75208000Y-113012000D01*
X73128000Y-112972000D02*
X71718000Y-112972000D01*
X76618000Y-112972000D02*
X75208000Y-112972000D01*
X73128000Y-112932000D02*
X71684000Y-112932000D01*
X76652000Y-112932000D02*
X75208000Y-112932000D01*
X73128000Y-112892000D02*
X71652000Y-112892000D01*
X76684000Y-112892000D02*
X75208000Y-112892000D01*
X73128000Y-112852000D02*
X71620000Y-112852000D01*
X76716000Y-112852000D02*
X75208000Y-112852000D01*
X73128000Y-112812000D02*
X71590000Y-112812000D01*
X76746000Y-112812000D02*
X75208000Y-112812000D01*
X73128000Y-112772000D02*
X71561000Y-112772000D01*
X76775000Y-112772000D02*
X75208000Y-112772000D01*
X73128000Y-112732000D02*
X71532000Y-112732000D01*
X76804000Y-112732000D02*
X75208000Y-112732000D01*
X73128000Y-112692000D02*
X71504000Y-112692000D01*
X76832000Y-112692000D02*
X75208000Y-112692000D01*
X73128000Y-112652000D02*
X71478000Y-112652000D01*
X76858000Y-112652000D02*
X75208000Y-112652000D01*
X73128000Y-112612000D02*
X71452000Y-112612000D01*
X76884000Y-112612000D02*
X75208000Y-112612000D01*
X73128000Y-112572000D02*
X71426000Y-112572000D01*
X76910000Y-112572000D02*
X75208000Y-112572000D01*
X73128000Y-112532000D02*
X71402000Y-112532000D01*
X76934000Y-112532000D02*
X75208000Y-112532000D01*
X73128000Y-112492000D02*
X71378000Y-112492000D01*
X76958000Y-112492000D02*
X75208000Y-112492000D01*
X73128000Y-112452000D02*
X71356000Y-112452000D01*
X76980000Y-112452000D02*
X75208000Y-112452000D01*
X73128000Y-112412000D02*
X71334000Y-112412000D01*
X77002000Y-112412000D02*
X75208000Y-112412000D01*
X73128000Y-112372000D02*
X71312000Y-112372000D01*
X77024000Y-112372000D02*
X75208000Y-112372000D01*
X73128000Y-112332000D02*
X71292000Y-112332000D01*
X77044000Y-112332000D02*
X75208000Y-112332000D01*
X73128000Y-112292000D02*
X71272000Y-112292000D01*
X77064000Y-112292000D02*
X75208000Y-112292000D01*
X73128000Y-112252000D02*
X71252000Y-112252000D01*
X77084000Y-112252000D02*
X75208000Y-112252000D01*
X73128000Y-112212000D02*
X71234000Y-112212000D01*
X77102000Y-112212000D02*
X75208000Y-112212000D01*
X73128000Y-112172000D02*
X71216000Y-112172000D01*
X77120000Y-112172000D02*
X75208000Y-112172000D01*
X73128000Y-112132000D02*
X71198000Y-112132000D01*
X77138000Y-112132000D02*
X75208000Y-112132000D01*
X73128000Y-112092000D02*
X71182000Y-112092000D01*
X77154000Y-112092000D02*
X75208000Y-112092000D01*
X73128000Y-112052000D02*
X71166000Y-112052000D01*
X77170000Y-112052000D02*
X75208000Y-112052000D01*
X73128000Y-112012000D02*
X71150000Y-112012000D01*
X77186000Y-112012000D02*
X75208000Y-112012000D01*
X73128000Y-111972000D02*
X71135000Y-111972000D01*
X77201000Y-111972000D02*
X75208000Y-111972000D01*
X73128000Y-111932000D02*
X71121000Y-111932000D01*
X77215000Y-111932000D02*
X75208000Y-111932000D01*
X73128000Y-111892000D02*
X71107000Y-111892000D01*
X77229000Y-111892000D02*
X75208000Y-111892000D01*
X73128000Y-111852000D02*
X71094000Y-111852000D01*
X77242000Y-111852000D02*
X75208000Y-111852000D01*
X73128000Y-111812000D02*
X71082000Y-111812000D01*
X77254000Y-111812000D02*
X75208000Y-111812000D01*
X73128000Y-111772000D02*
X71070000Y-111772000D01*
X77266000Y-111772000D02*
X75208000Y-111772000D01*
X73128000Y-111732000D02*
X71058000Y-111732000D01*
X77278000Y-111732000D02*
X75208000Y-111732000D01*
X73128000Y-111692000D02*
X71047000Y-111692000D01*
X77289000Y-111692000D02*
X75208000Y-111692000D01*
X73128000Y-111652000D02*
X71037000Y-111652000D01*
X77299000Y-111652000D02*
X75208000Y-111652000D01*
X73128000Y-111612000D02*
X71027000Y-111612000D01*
X77309000Y-111612000D02*
X75208000Y-111612000D01*
X73128000Y-111572000D02*
X71018000Y-111572000D01*
X77318000Y-111572000D02*
X75208000Y-111572000D01*
X73128000Y-111531000D02*
X71009000Y-111531000D01*
X77327000Y-111531000D02*
X75208000Y-111531000D01*
X73128000Y-111491000D02*
X71001000Y-111491000D01*
X77335000Y-111491000D02*
X75208000Y-111491000D01*
X73128000Y-111451000D02*
X70993000Y-111451000D01*
X77343000Y-111451000D02*
X75208000Y-111451000D01*
X73128000Y-111411000D02*
X70986000Y-111411000D01*
X77350000Y-111411000D02*
X75208000Y-111411000D01*
X73128000Y-111371000D02*
X70979000Y-111371000D01*
X77357000Y-111371000D02*
X75208000Y-111371000D01*
X73128000Y-111331000D02*
X70973000Y-111331000D01*
X77363000Y-111331000D02*
X75208000Y-111331000D01*
X73128000Y-111291000D02*
X70967000Y-111291000D01*
X77369000Y-111291000D02*
X75208000Y-111291000D01*
X73128000Y-111251000D02*
X70962000Y-111251000D01*
X77374000Y-111251000D02*
X75208000Y-111251000D01*
X73128000Y-111211000D02*
X70957000Y-111211000D01*
X77379000Y-111211000D02*
X75208000Y-111211000D01*
X73128000Y-111171000D02*
X70953000Y-111171000D01*
X77383000Y-111171000D02*
X75208000Y-111171000D01*
X73128000Y-111131000D02*
X70950000Y-111131000D01*
X77386000Y-111131000D02*
X75208000Y-111131000D01*
X73128000Y-111091000D02*
X70946000Y-111091000D01*
X77390000Y-111091000D02*
X75208000Y-111091000D01*
X77392000Y-111051000D02*
X70944000Y-111051000D01*
X77395000Y-111011000D02*
X70941000Y-111011000D01*
X77396000Y-110971000D02*
X70940000Y-110971000D01*
X77398000Y-110931000D02*
X70938000Y-110931000D01*
X77398000Y-110891000D02*
X70938000Y-110891000D01*
X77398000Y-110851000D02*
X70938000Y-110851000D01*
X77438000Y-110851000D02*
G75*
G03*
X77438000Y-110851000I-3270000J0D01*
G01*
%TO.C,C4*%
X141505000Y-122061248D02*
X141505000Y-122583752D01*
X142975000Y-122061248D02*
X142975000Y-122583752D01*
%TO.C,C3*%
X142975000Y-116466252D02*
X142975000Y-115943748D01*
X141505000Y-116466252D02*
X141505000Y-115943748D01*
%TO.C,C2*%
X155081248Y-122020000D02*
X155603752Y-122020000D01*
X155081248Y-120550000D02*
X155603752Y-120550000D01*
%TO.C,C1*%
X151503748Y-124560000D02*
X152026252Y-124560000D01*
X151503748Y-123090000D02*
X152026252Y-123090000D01*
%TO.C,Q2*%
D13*
X67849761Y-79366619D02*
X67754523Y-79319000D01*
X67659285Y-79223761D01*
X67516428Y-79080904D01*
X67421190Y-79033285D01*
X67325952Y-79033285D01*
X67373571Y-79271380D02*
X67278333Y-79223761D01*
X67183095Y-79128523D01*
X67135476Y-78938047D01*
X67135476Y-78604714D01*
X67183095Y-78414238D01*
X67278333Y-78319000D01*
X67373571Y-78271380D01*
X67564047Y-78271380D01*
X67659285Y-78319000D01*
X67754523Y-78414238D01*
X67802142Y-78604714D01*
X67802142Y-78938047D01*
X67754523Y-79128523D01*
X67659285Y-79223761D01*
X67564047Y-79271380D01*
X67373571Y-79271380D01*
X68183095Y-78366619D02*
X68230714Y-78319000D01*
X68325952Y-78271380D01*
X68564047Y-78271380D01*
X68659285Y-78319000D01*
X68706904Y-78366619D01*
X68754523Y-78461857D01*
X68754523Y-78557095D01*
X68706904Y-78699952D01*
X68135476Y-79271380D01*
X68754523Y-79271380D01*
%TO.C,C22*%
X92641142Y-123050857D02*
X92688761Y-123098476D01*
X92736380Y-123241333D01*
X92736380Y-123336571D01*
X92688761Y-123479428D01*
X92593523Y-123574666D01*
X92498285Y-123622285D01*
X92307809Y-123669904D01*
X92164952Y-123669904D01*
X91974476Y-123622285D01*
X91879238Y-123574666D01*
X91784000Y-123479428D01*
X91736380Y-123336571D01*
X91736380Y-123241333D01*
X91784000Y-123098476D01*
X91831619Y-123050857D01*
X91831619Y-122669904D02*
X91784000Y-122622285D01*
X91736380Y-122527047D01*
X91736380Y-122288952D01*
X91784000Y-122193714D01*
X91831619Y-122146095D01*
X91926857Y-122098476D01*
X92022095Y-122098476D01*
X92164952Y-122146095D01*
X92736380Y-122717523D01*
X92736380Y-122098476D01*
X91831619Y-121717523D02*
X91784000Y-121669904D01*
X91736380Y-121574666D01*
X91736380Y-121336571D01*
X91784000Y-121241333D01*
X91831619Y-121193714D01*
X91926857Y-121146095D01*
X92022095Y-121146095D01*
X92164952Y-121193714D01*
X92736380Y-121765142D01*
X92736380Y-121146095D01*
%TO.C,L2*%
X94829333Y-120086380D02*
X94353142Y-120086380D01*
X94353142Y-119086380D01*
X95115047Y-119181619D02*
X95162666Y-119134000D01*
X95257904Y-119086380D01*
X95496000Y-119086380D01*
X95591238Y-119134000D01*
X95638857Y-119181619D01*
X95686476Y-119276857D01*
X95686476Y-119372095D01*
X95638857Y-119514952D01*
X95067428Y-120086380D01*
X95686476Y-120086380D01*
%TO.C,C18*%
X99687142Y-111482142D02*
X99639523Y-111529761D01*
X99496666Y-111577380D01*
X99401428Y-111577380D01*
X99258571Y-111529761D01*
X99163333Y-111434523D01*
X99115714Y-111339285D01*
X99068095Y-111148809D01*
X99068095Y-111005952D01*
X99115714Y-110815476D01*
X99163333Y-110720238D01*
X99258571Y-110625000D01*
X99401428Y-110577380D01*
X99496666Y-110577380D01*
X99639523Y-110625000D01*
X99687142Y-110672619D01*
X100639523Y-111577380D02*
X100068095Y-111577380D01*
X100353809Y-111577380D02*
X100353809Y-110577380D01*
X100258571Y-110720238D01*
X100163333Y-110815476D01*
X100068095Y-110863095D01*
X101210952Y-111005952D02*
X101115714Y-110958333D01*
X101068095Y-110910714D01*
X101020476Y-110815476D01*
X101020476Y-110767857D01*
X101068095Y-110672619D01*
X101115714Y-110625000D01*
X101210952Y-110577380D01*
X101401428Y-110577380D01*
X101496666Y-110625000D01*
X101544285Y-110672619D01*
X101591904Y-110767857D01*
X101591904Y-110815476D01*
X101544285Y-110910714D01*
X101496666Y-110958333D01*
X101401428Y-111005952D01*
X101210952Y-111005952D01*
X101115714Y-111053571D01*
X101068095Y-111101190D01*
X101020476Y-111196428D01*
X101020476Y-111386904D01*
X101068095Y-111482142D01*
X101115714Y-111529761D01*
X101210952Y-111577380D01*
X101401428Y-111577380D01*
X101496666Y-111529761D01*
X101544285Y-111482142D01*
X101591904Y-111386904D01*
X101591904Y-111196428D01*
X101544285Y-111101190D01*
X101496666Y-111053571D01*
X101401428Y-111005952D01*
%TO.C,R6*%
X138502380Y-116371666D02*
X138026190Y-116705000D01*
X138502380Y-116943095D02*
X137502380Y-116943095D01*
X137502380Y-116562142D01*
X137550000Y-116466904D01*
X137597619Y-116419285D01*
X137692857Y-116371666D01*
X137835714Y-116371666D01*
X137930952Y-116419285D01*
X137978571Y-116466904D01*
X138026190Y-116562142D01*
X138026190Y-116943095D01*
X137502380Y-115514523D02*
X137502380Y-115705000D01*
X137550000Y-115800238D01*
X137597619Y-115847857D01*
X137740476Y-115943095D01*
X137930952Y-115990714D01*
X138311904Y-115990714D01*
X138407142Y-115943095D01*
X138454761Y-115895476D01*
X138502380Y-115800238D01*
X138502380Y-115609761D01*
X138454761Y-115514523D01*
X138407142Y-115466904D01*
X138311904Y-115419285D01*
X138073809Y-115419285D01*
X137978571Y-115466904D01*
X137930952Y-115514523D01*
X137883333Y-115609761D01*
X137883333Y-115800238D01*
X137930952Y-115895476D01*
X137978571Y-115943095D01*
X138073809Y-115990714D01*
%TO.C,R2*%
X138502380Y-120451666D02*
X138026190Y-120785000D01*
X138502380Y-121023095D02*
X137502380Y-121023095D01*
X137502380Y-120642142D01*
X137550000Y-120546904D01*
X137597619Y-120499285D01*
X137692857Y-120451666D01*
X137835714Y-120451666D01*
X137930952Y-120499285D01*
X137978571Y-120546904D01*
X138026190Y-120642142D01*
X138026190Y-121023095D01*
X137597619Y-120070714D02*
X137550000Y-120023095D01*
X137502380Y-119927857D01*
X137502380Y-119689761D01*
X137550000Y-119594523D01*
X137597619Y-119546904D01*
X137692857Y-119499285D01*
X137788095Y-119499285D01*
X137930952Y-119546904D01*
X138502380Y-120118333D01*
X138502380Y-119499285D01*
%TO.C,U3*%
X96393095Y-114387380D02*
X96393095Y-115196904D01*
X96440714Y-115292142D01*
X96488333Y-115339761D01*
X96583571Y-115387380D01*
X96774047Y-115387380D01*
X96869285Y-115339761D01*
X96916904Y-115292142D01*
X96964523Y-115196904D01*
X96964523Y-114387380D01*
X97345476Y-114387380D02*
X97964523Y-114387380D01*
X97631190Y-114768333D01*
X97774047Y-114768333D01*
X97869285Y-114815952D01*
X97916904Y-114863571D01*
X97964523Y-114958809D01*
X97964523Y-115196904D01*
X97916904Y-115292142D01*
X97869285Y-115339761D01*
X97774047Y-115387380D01*
X97488333Y-115387380D01*
X97393095Y-115339761D01*
X97345476Y-115292142D01*
%TO.C,C13*%
X84193142Y-61317142D02*
X84145523Y-61364761D01*
X84002666Y-61412380D01*
X83907428Y-61412380D01*
X83764571Y-61364761D01*
X83669333Y-61269523D01*
X83621714Y-61174285D01*
X83574095Y-60983809D01*
X83574095Y-60840952D01*
X83621714Y-60650476D01*
X83669333Y-60555238D01*
X83764571Y-60460000D01*
X83907428Y-60412380D01*
X84002666Y-60412380D01*
X84145523Y-60460000D01*
X84193142Y-60507619D01*
X85145523Y-61412380D02*
X84574095Y-61412380D01*
X84859809Y-61412380D02*
X84859809Y-60412380D01*
X84764571Y-60555238D01*
X84669333Y-60650476D01*
X84574095Y-60698095D01*
X85478857Y-60412380D02*
X86097904Y-60412380D01*
X85764571Y-60793333D01*
X85907428Y-60793333D01*
X86002666Y-60840952D01*
X86050285Y-60888571D01*
X86097904Y-60983809D01*
X86097904Y-61221904D01*
X86050285Y-61317142D01*
X86002666Y-61364761D01*
X85907428Y-61412380D01*
X85621714Y-61412380D01*
X85526476Y-61364761D01*
X85478857Y-61317142D01*
%TO.C,C12*%
X77589142Y-61317142D02*
X77541523Y-61364761D01*
X77398666Y-61412380D01*
X77303428Y-61412380D01*
X77160571Y-61364761D01*
X77065333Y-61269523D01*
X77017714Y-61174285D01*
X76970095Y-60983809D01*
X76970095Y-60840952D01*
X77017714Y-60650476D01*
X77065333Y-60555238D01*
X77160571Y-60460000D01*
X77303428Y-60412380D01*
X77398666Y-60412380D01*
X77541523Y-60460000D01*
X77589142Y-60507619D01*
X78541523Y-61412380D02*
X77970095Y-61412380D01*
X78255809Y-61412380D02*
X78255809Y-60412380D01*
X78160571Y-60555238D01*
X78065333Y-60650476D01*
X77970095Y-60698095D01*
X78922476Y-60507619D02*
X78970095Y-60460000D01*
X79065333Y-60412380D01*
X79303428Y-60412380D01*
X79398666Y-60460000D01*
X79446285Y-60507619D01*
X79493904Y-60602857D01*
X79493904Y-60698095D01*
X79446285Y-60840952D01*
X78874857Y-61412380D01*
X79493904Y-61412380D01*
%TO.C,C11*%
X70477142Y-61317142D02*
X70429523Y-61364761D01*
X70286666Y-61412380D01*
X70191428Y-61412380D01*
X70048571Y-61364761D01*
X69953333Y-61269523D01*
X69905714Y-61174285D01*
X69858095Y-60983809D01*
X69858095Y-60840952D01*
X69905714Y-60650476D01*
X69953333Y-60555238D01*
X70048571Y-60460000D01*
X70191428Y-60412380D01*
X70286666Y-60412380D01*
X70429523Y-60460000D01*
X70477142Y-60507619D01*
X71429523Y-61412380D02*
X70858095Y-61412380D01*
X71143809Y-61412380D02*
X71143809Y-60412380D01*
X71048571Y-60555238D01*
X70953333Y-60650476D01*
X70858095Y-60698095D01*
X72381904Y-61412380D02*
X71810476Y-61412380D01*
X72096190Y-61412380D02*
X72096190Y-60412380D01*
X72000952Y-60555238D01*
X71905714Y-60650476D01*
X71810476Y-60698095D01*
%TO.C,C10*%
X63365142Y-61317142D02*
X63317523Y-61364761D01*
X63174666Y-61412380D01*
X63079428Y-61412380D01*
X62936571Y-61364761D01*
X62841333Y-61269523D01*
X62793714Y-61174285D01*
X62746095Y-60983809D01*
X62746095Y-60840952D01*
X62793714Y-60650476D01*
X62841333Y-60555238D01*
X62936571Y-60460000D01*
X63079428Y-60412380D01*
X63174666Y-60412380D01*
X63317523Y-60460000D01*
X63365142Y-60507619D01*
X64317523Y-61412380D02*
X63746095Y-61412380D01*
X64031809Y-61412380D02*
X64031809Y-60412380D01*
X63936571Y-60555238D01*
X63841333Y-60650476D01*
X63746095Y-60698095D01*
X64936571Y-60412380D02*
X65031809Y-60412380D01*
X65127047Y-60460000D01*
X65174666Y-60507619D01*
X65222285Y-60602857D01*
X65269904Y-60793333D01*
X65269904Y-61031428D01*
X65222285Y-61221904D01*
X65174666Y-61317142D01*
X65127047Y-61364761D01*
X65031809Y-61412380D01*
X64936571Y-61412380D01*
X64841333Y-61364761D01*
X64793714Y-61317142D01*
X64746095Y-61221904D01*
X64698476Y-61031428D01*
X64698476Y-60793333D01*
X64746095Y-60602857D01*
X64793714Y-60507619D01*
X64841333Y-60460000D01*
X64936571Y-60412380D01*
%TO.C,U1*%
X151129904Y-116371619D02*
X151129904Y-115562095D01*
X151082285Y-115466857D01*
X151034666Y-115419238D01*
X150939428Y-115371619D01*
X150748952Y-115371619D01*
X150653714Y-115419238D01*
X150606095Y-115466857D01*
X150558476Y-115562095D01*
X150558476Y-116371619D01*
X149558476Y-115371619D02*
X150129904Y-115371619D01*
X149844190Y-115371619D02*
X149844190Y-116371619D01*
X149939428Y-116228761D01*
X150034666Y-116133523D01*
X150129904Y-116085904D01*
%TO.C,R38*%
X172282380Y-89272857D02*
X171806190Y-89606190D01*
X172282380Y-89844285D02*
X171282380Y-89844285D01*
X171282380Y-89463333D01*
X171330000Y-89368095D01*
X171377619Y-89320476D01*
X171472857Y-89272857D01*
X171615714Y-89272857D01*
X171710952Y-89320476D01*
X171758571Y-89368095D01*
X171806190Y-89463333D01*
X171806190Y-89844285D01*
X171282380Y-88939523D02*
X171282380Y-88320476D01*
X171663333Y-88653809D01*
X171663333Y-88510952D01*
X171710952Y-88415714D01*
X171758571Y-88368095D01*
X171853809Y-88320476D01*
X172091904Y-88320476D01*
X172187142Y-88368095D01*
X172234761Y-88415714D01*
X172282380Y-88510952D01*
X172282380Y-88796666D01*
X172234761Y-88891904D01*
X172187142Y-88939523D01*
X171710952Y-87749047D02*
X171663333Y-87844285D01*
X171615714Y-87891904D01*
X171520476Y-87939523D01*
X171472857Y-87939523D01*
X171377619Y-87891904D01*
X171330000Y-87844285D01*
X171282380Y-87749047D01*
X171282380Y-87558571D01*
X171330000Y-87463333D01*
X171377619Y-87415714D01*
X171472857Y-87368095D01*
X171520476Y-87368095D01*
X171615714Y-87415714D01*
X171663333Y-87463333D01*
X171710952Y-87558571D01*
X171710952Y-87749047D01*
X171758571Y-87844285D01*
X171806190Y-87891904D01*
X171901428Y-87939523D01*
X172091904Y-87939523D01*
X172187142Y-87891904D01*
X172234761Y-87844285D01*
X172282380Y-87749047D01*
X172282380Y-87558571D01*
X172234761Y-87463333D01*
X172187142Y-87415714D01*
X172091904Y-87368095D01*
X171901428Y-87368095D01*
X171806190Y-87415714D01*
X171758571Y-87463333D01*
X171710952Y-87558571D01*
%TO.C,R37*%
X162376380Y-73524857D02*
X161900190Y-73858190D01*
X162376380Y-74096285D02*
X161376380Y-74096285D01*
X161376380Y-73715333D01*
X161424000Y-73620095D01*
X161471619Y-73572476D01*
X161566857Y-73524857D01*
X161709714Y-73524857D01*
X161804952Y-73572476D01*
X161852571Y-73620095D01*
X161900190Y-73715333D01*
X161900190Y-74096285D01*
X161376380Y-73191523D02*
X161376380Y-72572476D01*
X161757333Y-72905809D01*
X161757333Y-72762952D01*
X161804952Y-72667714D01*
X161852571Y-72620095D01*
X161947809Y-72572476D01*
X162185904Y-72572476D01*
X162281142Y-72620095D01*
X162328761Y-72667714D01*
X162376380Y-72762952D01*
X162376380Y-73048666D01*
X162328761Y-73143904D01*
X162281142Y-73191523D01*
X161376380Y-72239142D02*
X161376380Y-71572476D01*
X162376380Y-72001047D01*
%TO.C,R36*%
X162122380Y-89272857D02*
X161646190Y-89606190D01*
X162122380Y-89844285D02*
X161122380Y-89844285D01*
X161122380Y-89463333D01*
X161170000Y-89368095D01*
X161217619Y-89320476D01*
X161312857Y-89272857D01*
X161455714Y-89272857D01*
X161550952Y-89320476D01*
X161598571Y-89368095D01*
X161646190Y-89463333D01*
X161646190Y-89844285D01*
X161122380Y-88939523D02*
X161122380Y-88320476D01*
X161503333Y-88653809D01*
X161503333Y-88510952D01*
X161550952Y-88415714D01*
X161598571Y-88368095D01*
X161693809Y-88320476D01*
X161931904Y-88320476D01*
X162027142Y-88368095D01*
X162074761Y-88415714D01*
X162122380Y-88510952D01*
X162122380Y-88796666D01*
X162074761Y-88891904D01*
X162027142Y-88939523D01*
X161122380Y-87463333D02*
X161122380Y-87653809D01*
X161170000Y-87749047D01*
X161217619Y-87796666D01*
X161360476Y-87891904D01*
X161550952Y-87939523D01*
X161931904Y-87939523D01*
X162027142Y-87891904D01*
X162074761Y-87844285D01*
X162122380Y-87749047D01*
X162122380Y-87558571D01*
X162074761Y-87463333D01*
X162027142Y-87415714D01*
X161931904Y-87368095D01*
X161693809Y-87368095D01*
X161598571Y-87415714D01*
X161550952Y-87463333D01*
X161503333Y-87558571D01*
X161503333Y-87749047D01*
X161550952Y-87844285D01*
X161598571Y-87891904D01*
X161693809Y-87939523D01*
%TO.C,R35*%
X151962380Y-73667857D02*
X151486190Y-74001190D01*
X151962380Y-74239285D02*
X150962380Y-74239285D01*
X150962380Y-73858333D01*
X151010000Y-73763095D01*
X151057619Y-73715476D01*
X151152857Y-73667857D01*
X151295714Y-73667857D01*
X151390952Y-73715476D01*
X151438571Y-73763095D01*
X151486190Y-73858333D01*
X151486190Y-74239285D01*
X150962380Y-73334523D02*
X150962380Y-72715476D01*
X151343333Y-73048809D01*
X151343333Y-72905952D01*
X151390952Y-72810714D01*
X151438571Y-72763095D01*
X151533809Y-72715476D01*
X151771904Y-72715476D01*
X151867142Y-72763095D01*
X151914761Y-72810714D01*
X151962380Y-72905952D01*
X151962380Y-73191666D01*
X151914761Y-73286904D01*
X151867142Y-73334523D01*
X150962380Y-71810714D02*
X150962380Y-72286904D01*
X151438571Y-72334523D01*
X151390952Y-72286904D01*
X151343333Y-72191666D01*
X151343333Y-71953571D01*
X151390952Y-71858333D01*
X151438571Y-71810714D01*
X151533809Y-71763095D01*
X151771904Y-71763095D01*
X151867142Y-71810714D01*
X151914761Y-71858333D01*
X151962380Y-71953571D01*
X151962380Y-72191666D01*
X151914761Y-72286904D01*
X151867142Y-72334523D01*
%TO.C,R34*%
X151962380Y-89272857D02*
X151486190Y-89606190D01*
X151962380Y-89844285D02*
X150962380Y-89844285D01*
X150962380Y-89463333D01*
X151010000Y-89368095D01*
X151057619Y-89320476D01*
X151152857Y-89272857D01*
X151295714Y-89272857D01*
X151390952Y-89320476D01*
X151438571Y-89368095D01*
X151486190Y-89463333D01*
X151486190Y-89844285D01*
X150962380Y-88939523D02*
X150962380Y-88320476D01*
X151343333Y-88653809D01*
X151343333Y-88510952D01*
X151390952Y-88415714D01*
X151438571Y-88368095D01*
X151533809Y-88320476D01*
X151771904Y-88320476D01*
X151867142Y-88368095D01*
X151914761Y-88415714D01*
X151962380Y-88510952D01*
X151962380Y-88796666D01*
X151914761Y-88891904D01*
X151867142Y-88939523D01*
X151295714Y-87463333D02*
X151962380Y-87463333D01*
X150914761Y-87701428D02*
X151629047Y-87939523D01*
X151629047Y-87320476D01*
%TO.C,R33*%
X164028380Y-91574857D02*
X163552190Y-91908190D01*
X164028380Y-92146285D02*
X163028380Y-92146285D01*
X163028380Y-91765333D01*
X163076000Y-91670095D01*
X163123619Y-91622476D01*
X163218857Y-91574857D01*
X163361714Y-91574857D01*
X163456952Y-91622476D01*
X163504571Y-91670095D01*
X163552190Y-91765333D01*
X163552190Y-92146285D01*
X163028380Y-91241523D02*
X163028380Y-90622476D01*
X163409333Y-90955809D01*
X163409333Y-90812952D01*
X163456952Y-90717714D01*
X163504571Y-90670095D01*
X163599809Y-90622476D01*
X163837904Y-90622476D01*
X163933142Y-90670095D01*
X163980761Y-90717714D01*
X164028380Y-90812952D01*
X164028380Y-91098666D01*
X163980761Y-91193904D01*
X163933142Y-91241523D01*
X163028380Y-90289142D02*
X163028380Y-89670095D01*
X163409333Y-90003428D01*
X163409333Y-89860571D01*
X163456952Y-89765333D01*
X163504571Y-89717714D01*
X163599809Y-89670095D01*
X163837904Y-89670095D01*
X163933142Y-89717714D01*
X163980761Y-89765333D01*
X164028380Y-89860571D01*
X164028380Y-90146285D01*
X163980761Y-90241523D01*
X163933142Y-90289142D01*
%TO.C,R32*%
X153868380Y-75826857D02*
X153392190Y-76160190D01*
X153868380Y-76398285D02*
X152868380Y-76398285D01*
X152868380Y-76017333D01*
X152916000Y-75922095D01*
X152963619Y-75874476D01*
X153058857Y-75826857D01*
X153201714Y-75826857D01*
X153296952Y-75874476D01*
X153344571Y-75922095D01*
X153392190Y-76017333D01*
X153392190Y-76398285D01*
X152868380Y-75493523D02*
X152868380Y-74874476D01*
X153249333Y-75207809D01*
X153249333Y-75064952D01*
X153296952Y-74969714D01*
X153344571Y-74922095D01*
X153439809Y-74874476D01*
X153677904Y-74874476D01*
X153773142Y-74922095D01*
X153820761Y-74969714D01*
X153868380Y-75064952D01*
X153868380Y-75350666D01*
X153820761Y-75445904D01*
X153773142Y-75493523D01*
X152963619Y-74493523D02*
X152916000Y-74445904D01*
X152868380Y-74350666D01*
X152868380Y-74112571D01*
X152916000Y-74017333D01*
X152963619Y-73969714D01*
X153058857Y-73922095D01*
X153154095Y-73922095D01*
X153296952Y-73969714D01*
X153868380Y-74541142D01*
X153868380Y-73922095D01*
%TO.C,R31*%
X153868380Y-91066857D02*
X153392190Y-91400190D01*
X153868380Y-91638285D02*
X152868380Y-91638285D01*
X152868380Y-91257333D01*
X152916000Y-91162095D01*
X152963619Y-91114476D01*
X153058857Y-91066857D01*
X153201714Y-91066857D01*
X153296952Y-91114476D01*
X153344571Y-91162095D01*
X153392190Y-91257333D01*
X153392190Y-91638285D01*
X152868380Y-90733523D02*
X152868380Y-90114476D01*
X153249333Y-90447809D01*
X153249333Y-90304952D01*
X153296952Y-90209714D01*
X153344571Y-90162095D01*
X153439809Y-90114476D01*
X153677904Y-90114476D01*
X153773142Y-90162095D01*
X153820761Y-90209714D01*
X153868380Y-90304952D01*
X153868380Y-90590666D01*
X153820761Y-90685904D01*
X153773142Y-90733523D01*
X153868380Y-89162095D02*
X153868380Y-89733523D01*
X153868380Y-89447809D02*
X152868380Y-89447809D01*
X153011238Y-89543047D01*
X153106476Y-89638285D01*
X153154095Y-89733523D01*
%TO.C,R30*%
X143708380Y-75318857D02*
X143232190Y-75652190D01*
X143708380Y-75890285D02*
X142708380Y-75890285D01*
X142708380Y-75509333D01*
X142756000Y-75414095D01*
X142803619Y-75366476D01*
X142898857Y-75318857D01*
X143041714Y-75318857D01*
X143136952Y-75366476D01*
X143184571Y-75414095D01*
X143232190Y-75509333D01*
X143232190Y-75890285D01*
X142708380Y-74985523D02*
X142708380Y-74366476D01*
X143089333Y-74699809D01*
X143089333Y-74556952D01*
X143136952Y-74461714D01*
X143184571Y-74414095D01*
X143279809Y-74366476D01*
X143517904Y-74366476D01*
X143613142Y-74414095D01*
X143660761Y-74461714D01*
X143708380Y-74556952D01*
X143708380Y-74842666D01*
X143660761Y-74937904D01*
X143613142Y-74985523D01*
X142708380Y-73747428D02*
X142708380Y-73652190D01*
X142756000Y-73556952D01*
X142803619Y-73509333D01*
X142898857Y-73461714D01*
X143089333Y-73414095D01*
X143327428Y-73414095D01*
X143517904Y-73461714D01*
X143613142Y-73509333D01*
X143660761Y-73556952D01*
X143708380Y-73652190D01*
X143708380Y-73747428D01*
X143660761Y-73842666D01*
X143613142Y-73890285D01*
X143517904Y-73937904D01*
X143327428Y-73985523D01*
X143089333Y-73985523D01*
X142898857Y-73937904D01*
X142803619Y-73890285D01*
X142756000Y-73842666D01*
X142708380Y-73747428D01*
%TO.C,R29*%
X143708380Y-91574857D02*
X143232190Y-91908190D01*
X143708380Y-92146285D02*
X142708380Y-92146285D01*
X142708380Y-91765333D01*
X142756000Y-91670095D01*
X142803619Y-91622476D01*
X142898857Y-91574857D01*
X143041714Y-91574857D01*
X143136952Y-91622476D01*
X143184571Y-91670095D01*
X143232190Y-91765333D01*
X143232190Y-92146285D01*
X142803619Y-91193904D02*
X142756000Y-91146285D01*
X142708380Y-91051047D01*
X142708380Y-90812952D01*
X142756000Y-90717714D01*
X142803619Y-90670095D01*
X142898857Y-90622476D01*
X142994095Y-90622476D01*
X143136952Y-90670095D01*
X143708380Y-91241523D01*
X143708380Y-90622476D01*
X143708380Y-90146285D02*
X143708380Y-89955809D01*
X143660761Y-89860571D01*
X143613142Y-89812952D01*
X143470285Y-89717714D01*
X143279809Y-89670095D01*
X142898857Y-89670095D01*
X142803619Y-89717714D01*
X142756000Y-89765333D01*
X142708380Y-89860571D01*
X142708380Y-90051047D01*
X142756000Y-90146285D01*
X142803619Y-90193904D01*
X142898857Y-90241523D01*
X143136952Y-90241523D01*
X143232190Y-90193904D01*
X143279809Y-90146285D01*
X143327428Y-90051047D01*
X143327428Y-89860571D01*
X143279809Y-89765333D01*
X143232190Y-89717714D01*
X143136952Y-89670095D01*
%TO.C,R28*%
X141802380Y-73397857D02*
X141326190Y-73731190D01*
X141802380Y-73969285D02*
X140802380Y-73969285D01*
X140802380Y-73588333D01*
X140850000Y-73493095D01*
X140897619Y-73445476D01*
X140992857Y-73397857D01*
X141135714Y-73397857D01*
X141230952Y-73445476D01*
X141278571Y-73493095D01*
X141326190Y-73588333D01*
X141326190Y-73969285D01*
X140897619Y-73016904D02*
X140850000Y-72969285D01*
X140802380Y-72874047D01*
X140802380Y-72635952D01*
X140850000Y-72540714D01*
X140897619Y-72493095D01*
X140992857Y-72445476D01*
X141088095Y-72445476D01*
X141230952Y-72493095D01*
X141802380Y-73064523D01*
X141802380Y-72445476D01*
X141230952Y-71874047D02*
X141183333Y-71969285D01*
X141135714Y-72016904D01*
X141040476Y-72064523D01*
X140992857Y-72064523D01*
X140897619Y-72016904D01*
X140850000Y-71969285D01*
X140802380Y-71874047D01*
X140802380Y-71683571D01*
X140850000Y-71588333D01*
X140897619Y-71540714D01*
X140992857Y-71493095D01*
X141040476Y-71493095D01*
X141135714Y-71540714D01*
X141183333Y-71588333D01*
X141230952Y-71683571D01*
X141230952Y-71874047D01*
X141278571Y-71969285D01*
X141326190Y-72016904D01*
X141421428Y-72064523D01*
X141611904Y-72064523D01*
X141707142Y-72016904D01*
X141754761Y-71969285D01*
X141802380Y-71874047D01*
X141802380Y-71683571D01*
X141754761Y-71588333D01*
X141707142Y-71540714D01*
X141611904Y-71493095D01*
X141421428Y-71493095D01*
X141326190Y-71540714D01*
X141278571Y-71588333D01*
X141230952Y-71683571D01*
%TO.C,R27*%
X141802380Y-89272857D02*
X141326190Y-89606190D01*
X141802380Y-89844285D02*
X140802380Y-89844285D01*
X140802380Y-89463333D01*
X140850000Y-89368095D01*
X140897619Y-89320476D01*
X140992857Y-89272857D01*
X141135714Y-89272857D01*
X141230952Y-89320476D01*
X141278571Y-89368095D01*
X141326190Y-89463333D01*
X141326190Y-89844285D01*
X140897619Y-88891904D02*
X140850000Y-88844285D01*
X140802380Y-88749047D01*
X140802380Y-88510952D01*
X140850000Y-88415714D01*
X140897619Y-88368095D01*
X140992857Y-88320476D01*
X141088095Y-88320476D01*
X141230952Y-88368095D01*
X141802380Y-88939523D01*
X141802380Y-88320476D01*
X140802380Y-87987142D02*
X140802380Y-87320476D01*
X141802380Y-87749047D01*
%TO.C,R26*%
X131642380Y-73397857D02*
X131166190Y-73731190D01*
X131642380Y-73969285D02*
X130642380Y-73969285D01*
X130642380Y-73588333D01*
X130690000Y-73493095D01*
X130737619Y-73445476D01*
X130832857Y-73397857D01*
X130975714Y-73397857D01*
X131070952Y-73445476D01*
X131118571Y-73493095D01*
X131166190Y-73588333D01*
X131166190Y-73969285D01*
X130737619Y-73016904D02*
X130690000Y-72969285D01*
X130642380Y-72874047D01*
X130642380Y-72635952D01*
X130690000Y-72540714D01*
X130737619Y-72493095D01*
X130832857Y-72445476D01*
X130928095Y-72445476D01*
X131070952Y-72493095D01*
X131642380Y-73064523D01*
X131642380Y-72445476D01*
X130642380Y-71588333D02*
X130642380Y-71778809D01*
X130690000Y-71874047D01*
X130737619Y-71921666D01*
X130880476Y-72016904D01*
X131070952Y-72064523D01*
X131451904Y-72064523D01*
X131547142Y-72016904D01*
X131594761Y-71969285D01*
X131642380Y-71874047D01*
X131642380Y-71683571D01*
X131594761Y-71588333D01*
X131547142Y-71540714D01*
X131451904Y-71493095D01*
X131213809Y-71493095D01*
X131118571Y-71540714D01*
X131070952Y-71588333D01*
X131023333Y-71683571D01*
X131023333Y-71874047D01*
X131070952Y-71969285D01*
X131118571Y-72016904D01*
X131213809Y-72064523D01*
%TO.C,R25*%
X131642380Y-89272857D02*
X131166190Y-89606190D01*
X131642380Y-89844285D02*
X130642380Y-89844285D01*
X130642380Y-89463333D01*
X130690000Y-89368095D01*
X130737619Y-89320476D01*
X130832857Y-89272857D01*
X130975714Y-89272857D01*
X131070952Y-89320476D01*
X131118571Y-89368095D01*
X131166190Y-89463333D01*
X131166190Y-89844285D01*
X130737619Y-88891904D02*
X130690000Y-88844285D01*
X130642380Y-88749047D01*
X130642380Y-88510952D01*
X130690000Y-88415714D01*
X130737619Y-88368095D01*
X130832857Y-88320476D01*
X130928095Y-88320476D01*
X131070952Y-88368095D01*
X131642380Y-88939523D01*
X131642380Y-88320476D01*
X130642380Y-87415714D02*
X130642380Y-87891904D01*
X131118571Y-87939523D01*
X131070952Y-87891904D01*
X131023333Y-87796666D01*
X131023333Y-87558571D01*
X131070952Y-87463333D01*
X131118571Y-87415714D01*
X131213809Y-87368095D01*
X131451904Y-87368095D01*
X131547142Y-87415714D01*
X131594761Y-87463333D01*
X131642380Y-87558571D01*
X131642380Y-87796666D01*
X131594761Y-87891904D01*
X131547142Y-87939523D01*
%TO.C,R24*%
X121482380Y-73302857D02*
X121006190Y-73636190D01*
X121482380Y-73874285D02*
X120482380Y-73874285D01*
X120482380Y-73493333D01*
X120530000Y-73398095D01*
X120577619Y-73350476D01*
X120672857Y-73302857D01*
X120815714Y-73302857D01*
X120910952Y-73350476D01*
X120958571Y-73398095D01*
X121006190Y-73493333D01*
X121006190Y-73874285D01*
X120577619Y-72921904D02*
X120530000Y-72874285D01*
X120482380Y-72779047D01*
X120482380Y-72540952D01*
X120530000Y-72445714D01*
X120577619Y-72398095D01*
X120672857Y-72350476D01*
X120768095Y-72350476D01*
X120910952Y-72398095D01*
X121482380Y-72969523D01*
X121482380Y-72350476D01*
X120815714Y-71493333D02*
X121482380Y-71493333D01*
X120434761Y-71731428D02*
X121149047Y-71969523D01*
X121149047Y-71350476D01*
%TO.C,R23*%
X121482380Y-89177857D02*
X121006190Y-89511190D01*
X121482380Y-89749285D02*
X120482380Y-89749285D01*
X120482380Y-89368333D01*
X120530000Y-89273095D01*
X120577619Y-89225476D01*
X120672857Y-89177857D01*
X120815714Y-89177857D01*
X120910952Y-89225476D01*
X120958571Y-89273095D01*
X121006190Y-89368333D01*
X121006190Y-89749285D01*
X120577619Y-88796904D02*
X120530000Y-88749285D01*
X120482380Y-88654047D01*
X120482380Y-88415952D01*
X120530000Y-88320714D01*
X120577619Y-88273095D01*
X120672857Y-88225476D01*
X120768095Y-88225476D01*
X120910952Y-88273095D01*
X121482380Y-88844523D01*
X121482380Y-88225476D01*
X120482380Y-87892142D02*
X120482380Y-87273095D01*
X120863333Y-87606428D01*
X120863333Y-87463571D01*
X120910952Y-87368333D01*
X120958571Y-87320714D01*
X121053809Y-87273095D01*
X121291904Y-87273095D01*
X121387142Y-87320714D01*
X121434761Y-87368333D01*
X121482380Y-87463571D01*
X121482380Y-87749285D01*
X121434761Y-87844523D01*
X121387142Y-87892142D01*
%TO.C,R22*%
X133548380Y-75318857D02*
X133072190Y-75652190D01*
X133548380Y-75890285D02*
X132548380Y-75890285D01*
X132548380Y-75509333D01*
X132596000Y-75414095D01*
X132643619Y-75366476D01*
X132738857Y-75318857D01*
X132881714Y-75318857D01*
X132976952Y-75366476D01*
X133024571Y-75414095D01*
X133072190Y-75509333D01*
X133072190Y-75890285D01*
X132643619Y-74937904D02*
X132596000Y-74890285D01*
X132548380Y-74795047D01*
X132548380Y-74556952D01*
X132596000Y-74461714D01*
X132643619Y-74414095D01*
X132738857Y-74366476D01*
X132834095Y-74366476D01*
X132976952Y-74414095D01*
X133548380Y-74985523D01*
X133548380Y-74366476D01*
X132643619Y-73985523D02*
X132596000Y-73937904D01*
X132548380Y-73842666D01*
X132548380Y-73604571D01*
X132596000Y-73509333D01*
X132643619Y-73461714D01*
X132738857Y-73414095D01*
X132834095Y-73414095D01*
X132976952Y-73461714D01*
X133548380Y-74033142D01*
X133548380Y-73414095D01*
%TO.C,R21*%
X133548380Y-91574857D02*
X133072190Y-91908190D01*
X133548380Y-92146285D02*
X132548380Y-92146285D01*
X132548380Y-91765333D01*
X132596000Y-91670095D01*
X132643619Y-91622476D01*
X132738857Y-91574857D01*
X132881714Y-91574857D01*
X132976952Y-91622476D01*
X133024571Y-91670095D01*
X133072190Y-91765333D01*
X133072190Y-92146285D01*
X132643619Y-91193904D02*
X132596000Y-91146285D01*
X132548380Y-91051047D01*
X132548380Y-90812952D01*
X132596000Y-90717714D01*
X132643619Y-90670095D01*
X132738857Y-90622476D01*
X132834095Y-90622476D01*
X132976952Y-90670095D01*
X133548380Y-91241523D01*
X133548380Y-90622476D01*
X133548380Y-89670095D02*
X133548380Y-90241523D01*
X133548380Y-89955809D02*
X132548380Y-89955809D01*
X132691238Y-90051047D01*
X132786476Y-90146285D01*
X132834095Y-90241523D01*
%TO.C,R20*%
X123388380Y-75826857D02*
X122912190Y-76160190D01*
X123388380Y-76398285D02*
X122388380Y-76398285D01*
X122388380Y-76017333D01*
X122436000Y-75922095D01*
X122483619Y-75874476D01*
X122578857Y-75826857D01*
X122721714Y-75826857D01*
X122816952Y-75874476D01*
X122864571Y-75922095D01*
X122912190Y-76017333D01*
X122912190Y-76398285D01*
X122483619Y-75445904D02*
X122436000Y-75398285D01*
X122388380Y-75303047D01*
X122388380Y-75064952D01*
X122436000Y-74969714D01*
X122483619Y-74922095D01*
X122578857Y-74874476D01*
X122674095Y-74874476D01*
X122816952Y-74922095D01*
X123388380Y-75493523D01*
X123388380Y-74874476D01*
X122388380Y-74255428D02*
X122388380Y-74160190D01*
X122436000Y-74064952D01*
X122483619Y-74017333D01*
X122578857Y-73969714D01*
X122769333Y-73922095D01*
X123007428Y-73922095D01*
X123197904Y-73969714D01*
X123293142Y-74017333D01*
X123340761Y-74064952D01*
X123388380Y-74160190D01*
X123388380Y-74255428D01*
X123340761Y-74350666D01*
X123293142Y-74398285D01*
X123197904Y-74445904D01*
X123007428Y-74493523D01*
X122769333Y-74493523D01*
X122578857Y-74445904D01*
X122483619Y-74398285D01*
X122436000Y-74350666D01*
X122388380Y-74255428D01*
%TO.C,R19*%
X123388380Y-91574857D02*
X122912190Y-91908190D01*
X123388380Y-92146285D02*
X122388380Y-92146285D01*
X122388380Y-91765333D01*
X122436000Y-91670095D01*
X122483619Y-91622476D01*
X122578857Y-91574857D01*
X122721714Y-91574857D01*
X122816952Y-91622476D01*
X122864571Y-91670095D01*
X122912190Y-91765333D01*
X122912190Y-92146285D01*
X123388380Y-90622476D02*
X123388380Y-91193904D01*
X123388380Y-90908190D02*
X122388380Y-90908190D01*
X122531238Y-91003428D01*
X122626476Y-91098666D01*
X122674095Y-91193904D01*
X123388380Y-90146285D02*
X123388380Y-89955809D01*
X123340761Y-89860571D01*
X123293142Y-89812952D01*
X123150285Y-89717714D01*
X122959809Y-89670095D01*
X122578857Y-89670095D01*
X122483619Y-89717714D01*
X122436000Y-89765333D01*
X122388380Y-89860571D01*
X122388380Y-90051047D01*
X122436000Y-90146285D01*
X122483619Y-90193904D01*
X122578857Y-90241523D01*
X122816952Y-90241523D01*
X122912190Y-90193904D01*
X122959809Y-90146285D01*
X123007428Y-90051047D01*
X123007428Y-89860571D01*
X122959809Y-89765333D01*
X122912190Y-89717714D01*
X122816952Y-89670095D01*
%TO.C,R18*%
X111117142Y-74620380D02*
X110783809Y-74144190D01*
X110545714Y-74620380D02*
X110545714Y-73620380D01*
X110926666Y-73620380D01*
X111021904Y-73668000D01*
X111069523Y-73715619D01*
X111117142Y-73810857D01*
X111117142Y-73953714D01*
X111069523Y-74048952D01*
X111021904Y-74096571D01*
X110926666Y-74144190D01*
X110545714Y-74144190D01*
X112069523Y-74620380D02*
X111498095Y-74620380D01*
X111783809Y-74620380D02*
X111783809Y-73620380D01*
X111688571Y-73763238D01*
X111593333Y-73858476D01*
X111498095Y-73906095D01*
X112640952Y-74048952D02*
X112545714Y-74001333D01*
X112498095Y-73953714D01*
X112450476Y-73858476D01*
X112450476Y-73810857D01*
X112498095Y-73715619D01*
X112545714Y-73668000D01*
X112640952Y-73620380D01*
X112831428Y-73620380D01*
X112926666Y-73668000D01*
X112974285Y-73715619D01*
X113021904Y-73810857D01*
X113021904Y-73858476D01*
X112974285Y-73953714D01*
X112926666Y-74001333D01*
X112831428Y-74048952D01*
X112640952Y-74048952D01*
X112545714Y-74096571D01*
X112498095Y-74144190D01*
X112450476Y-74239428D01*
X112450476Y-74429904D01*
X112498095Y-74525142D01*
X112545714Y-74572761D01*
X112640952Y-74620380D01*
X112831428Y-74620380D01*
X112926666Y-74572761D01*
X112974285Y-74525142D01*
X113021904Y-74429904D01*
X113021904Y-74239428D01*
X112974285Y-74144190D01*
X112926666Y-74096571D01*
X112831428Y-74048952D01*
%TO.C,R17*%
X111117142Y-90368380D02*
X110783809Y-89892190D01*
X110545714Y-90368380D02*
X110545714Y-89368380D01*
X110926666Y-89368380D01*
X111021904Y-89416000D01*
X111069523Y-89463619D01*
X111117142Y-89558857D01*
X111117142Y-89701714D01*
X111069523Y-89796952D01*
X111021904Y-89844571D01*
X110926666Y-89892190D01*
X110545714Y-89892190D01*
X112069523Y-90368380D02*
X111498095Y-90368380D01*
X111783809Y-90368380D02*
X111783809Y-89368380D01*
X111688571Y-89511238D01*
X111593333Y-89606476D01*
X111498095Y-89654095D01*
X112402857Y-89368380D02*
X113069523Y-89368380D01*
X112640952Y-90368380D01*
%TO.C,R16*%
X104592380Y-113164857D02*
X104116190Y-113498190D01*
X104592380Y-113736285D02*
X103592380Y-113736285D01*
X103592380Y-113355333D01*
X103640000Y-113260095D01*
X103687619Y-113212476D01*
X103782857Y-113164857D01*
X103925714Y-113164857D01*
X104020952Y-113212476D01*
X104068571Y-113260095D01*
X104116190Y-113355333D01*
X104116190Y-113736285D01*
X104592380Y-112212476D02*
X104592380Y-112783904D01*
X104592380Y-112498190D02*
X103592380Y-112498190D01*
X103735238Y-112593428D01*
X103830476Y-112688666D01*
X103878095Y-112783904D01*
X103592380Y-111355333D02*
X103592380Y-111545809D01*
X103640000Y-111641047D01*
X103687619Y-111688666D01*
X103830476Y-111783904D01*
X104020952Y-111831523D01*
X104401904Y-111831523D01*
X104497142Y-111783904D01*
X104544761Y-111736285D01*
X104592380Y-111641047D01*
X104592380Y-111450571D01*
X104544761Y-111355333D01*
X104497142Y-111307714D01*
X104401904Y-111260095D01*
X104163809Y-111260095D01*
X104068571Y-111307714D01*
X104020952Y-111355333D01*
X103973333Y-111450571D01*
X103973333Y-111641047D01*
X104020952Y-111736285D01*
X104068571Y-111783904D01*
X104163809Y-111831523D01*
%TO.C,R15*%
X109418380Y-113037857D02*
X108942190Y-113371190D01*
X109418380Y-113609285D02*
X108418380Y-113609285D01*
X108418380Y-113228333D01*
X108466000Y-113133095D01*
X108513619Y-113085476D01*
X108608857Y-113037857D01*
X108751714Y-113037857D01*
X108846952Y-113085476D01*
X108894571Y-113133095D01*
X108942190Y-113228333D01*
X108942190Y-113609285D01*
X109418380Y-112085476D02*
X109418380Y-112656904D01*
X109418380Y-112371190D02*
X108418380Y-112371190D01*
X108561238Y-112466428D01*
X108656476Y-112561666D01*
X108704095Y-112656904D01*
X108418380Y-111180714D02*
X108418380Y-111656904D01*
X108894571Y-111704523D01*
X108846952Y-111656904D01*
X108799333Y-111561666D01*
X108799333Y-111323571D01*
X108846952Y-111228333D01*
X108894571Y-111180714D01*
X108989809Y-111133095D01*
X109227904Y-111133095D01*
X109323142Y-111180714D01*
X109370761Y-111228333D01*
X109418380Y-111323571D01*
X109418380Y-111561666D01*
X109370761Y-111656904D01*
X109323142Y-111704523D01*
%TO.C,R9*%
X81732380Y-63285666D02*
X81256190Y-63619000D01*
X81732380Y-63857095D02*
X80732380Y-63857095D01*
X80732380Y-63476142D01*
X80780000Y-63380904D01*
X80827619Y-63333285D01*
X80922857Y-63285666D01*
X81065714Y-63285666D01*
X81160952Y-63333285D01*
X81208571Y-63380904D01*
X81256190Y-63476142D01*
X81256190Y-63857095D01*
X81732380Y-62809476D02*
X81732380Y-62619000D01*
X81684761Y-62523761D01*
X81637142Y-62476142D01*
X81494285Y-62380904D01*
X81303809Y-62333285D01*
X80922857Y-62333285D01*
X80827619Y-62380904D01*
X80780000Y-62428523D01*
X80732380Y-62523761D01*
X80732380Y-62714238D01*
X80780000Y-62809476D01*
X80827619Y-62857095D01*
X80922857Y-62904714D01*
X81160952Y-62904714D01*
X81256190Y-62857095D01*
X81303809Y-62809476D01*
X81351428Y-62714238D01*
X81351428Y-62523761D01*
X81303809Y-62428523D01*
X81256190Y-62380904D01*
X81160952Y-62333285D01*
%TO.C,R5*%
X155138333Y-117547380D02*
X154805000Y-117071190D01*
X154566904Y-117547380D02*
X154566904Y-116547380D01*
X154947857Y-116547380D01*
X155043095Y-116595000D01*
X155090714Y-116642619D01*
X155138333Y-116737857D01*
X155138333Y-116880714D01*
X155090714Y-116975952D01*
X155043095Y-117023571D01*
X154947857Y-117071190D01*
X154566904Y-117071190D01*
X156043095Y-116547380D02*
X155566904Y-116547380D01*
X155519285Y-117023571D01*
X155566904Y-116975952D01*
X155662142Y-116928333D01*
X155900238Y-116928333D01*
X155995476Y-116975952D01*
X156043095Y-117023571D01*
X156090714Y-117118809D01*
X156090714Y-117356904D01*
X156043095Y-117452142D01*
X155995476Y-117499761D01*
X155900238Y-117547380D01*
X155662142Y-117547380D01*
X155566904Y-117499761D01*
X155519285Y-117452142D01*
%TO.C,R4*%
X146518333Y-126436380D02*
X146185000Y-125960190D01*
X145946904Y-126436380D02*
X145946904Y-125436380D01*
X146327857Y-125436380D01*
X146423095Y-125484000D01*
X146470714Y-125531619D01*
X146518333Y-125626857D01*
X146518333Y-125769714D01*
X146470714Y-125864952D01*
X146423095Y-125912571D01*
X146327857Y-125960190D01*
X145946904Y-125960190D01*
X147375476Y-125769714D02*
X147375476Y-126436380D01*
X147137380Y-125388761D02*
X146899285Y-126103047D01*
X147518333Y-126103047D01*
%TO.C,R3*%
X124404380Y-118530666D02*
X123928190Y-118864000D01*
X124404380Y-119102095D02*
X123404380Y-119102095D01*
X123404380Y-118721142D01*
X123452000Y-118625904D01*
X123499619Y-118578285D01*
X123594857Y-118530666D01*
X123737714Y-118530666D01*
X123832952Y-118578285D01*
X123880571Y-118625904D01*
X123928190Y-118721142D01*
X123928190Y-119102095D01*
X123404380Y-118197333D02*
X123404380Y-117578285D01*
X123785333Y-117911619D01*
X123785333Y-117768761D01*
X123832952Y-117673523D01*
X123880571Y-117625904D01*
X123975809Y-117578285D01*
X124213904Y-117578285D01*
X124309142Y-117625904D01*
X124356761Y-117673523D01*
X124404380Y-117768761D01*
X124404380Y-118054476D01*
X124356761Y-118149714D01*
X124309142Y-118197333D01*
%TO.C,Q13*%
X163687619Y-81851428D02*
X163640000Y-81946666D01*
X163544761Y-82041904D01*
X163401904Y-82184761D01*
X163354285Y-82280000D01*
X163354285Y-82375238D01*
X163592380Y-82327619D02*
X163544761Y-82422857D01*
X163449523Y-82518095D01*
X163259047Y-82565714D01*
X162925714Y-82565714D01*
X162735238Y-82518095D01*
X162640000Y-82422857D01*
X162592380Y-82327619D01*
X162592380Y-82137142D01*
X162640000Y-82041904D01*
X162735238Y-81946666D01*
X162925714Y-81899047D01*
X163259047Y-81899047D01*
X163449523Y-81946666D01*
X163544761Y-82041904D01*
X163592380Y-82137142D01*
X163592380Y-82327619D01*
X163592380Y-80946666D02*
X163592380Y-81518095D01*
X163592380Y-81232380D02*
X162592380Y-81232380D01*
X162735238Y-81327619D01*
X162830476Y-81422857D01*
X162878095Y-81518095D01*
X162592380Y-80613333D02*
X162592380Y-79994285D01*
X162973333Y-80327619D01*
X162973333Y-80184761D01*
X163020952Y-80089523D01*
X163068571Y-80041904D01*
X163163809Y-79994285D01*
X163401904Y-79994285D01*
X163497142Y-80041904D01*
X163544761Y-80089523D01*
X163592380Y-80184761D01*
X163592380Y-80470476D01*
X163544761Y-80565714D01*
X163497142Y-80613333D01*
%TO.C,Q12*%
X153527619Y-65976428D02*
X153480000Y-66071666D01*
X153384761Y-66166904D01*
X153241904Y-66309761D01*
X153194285Y-66405000D01*
X153194285Y-66500238D01*
X153432380Y-66452619D02*
X153384761Y-66547857D01*
X153289523Y-66643095D01*
X153099047Y-66690714D01*
X152765714Y-66690714D01*
X152575238Y-66643095D01*
X152480000Y-66547857D01*
X152432380Y-66452619D01*
X152432380Y-66262142D01*
X152480000Y-66166904D01*
X152575238Y-66071666D01*
X152765714Y-66024047D01*
X153099047Y-66024047D01*
X153289523Y-66071666D01*
X153384761Y-66166904D01*
X153432380Y-66262142D01*
X153432380Y-66452619D01*
X153432380Y-65071666D02*
X153432380Y-65643095D01*
X153432380Y-65357380D02*
X152432380Y-65357380D01*
X152575238Y-65452619D01*
X152670476Y-65547857D01*
X152718095Y-65643095D01*
X152527619Y-64690714D02*
X152480000Y-64643095D01*
X152432380Y-64547857D01*
X152432380Y-64309761D01*
X152480000Y-64214523D01*
X152527619Y-64166904D01*
X152622857Y-64119285D01*
X152718095Y-64119285D01*
X152860952Y-64166904D01*
X153432380Y-64738333D01*
X153432380Y-64119285D01*
%TO.C,Q11*%
X153527619Y-81851428D02*
X153480000Y-81946666D01*
X153384761Y-82041904D01*
X153241904Y-82184761D01*
X153194285Y-82280000D01*
X153194285Y-82375238D01*
X153432380Y-82327619D02*
X153384761Y-82422857D01*
X153289523Y-82518095D01*
X153099047Y-82565714D01*
X152765714Y-82565714D01*
X152575238Y-82518095D01*
X152480000Y-82422857D01*
X152432380Y-82327619D01*
X152432380Y-82137142D01*
X152480000Y-82041904D01*
X152575238Y-81946666D01*
X152765714Y-81899047D01*
X153099047Y-81899047D01*
X153289523Y-81946666D01*
X153384761Y-82041904D01*
X153432380Y-82137142D01*
X153432380Y-82327619D01*
X153432380Y-80946666D02*
X153432380Y-81518095D01*
X153432380Y-81232380D02*
X152432380Y-81232380D01*
X152575238Y-81327619D01*
X152670476Y-81422857D01*
X152718095Y-81518095D01*
X153432380Y-79994285D02*
X153432380Y-80565714D01*
X153432380Y-80280000D02*
X152432380Y-80280000D01*
X152575238Y-80375238D01*
X152670476Y-80470476D01*
X152718095Y-80565714D01*
%TO.C,Q10*%
X143367619Y-65976428D02*
X143320000Y-66071666D01*
X143224761Y-66166904D01*
X143081904Y-66309761D01*
X143034285Y-66405000D01*
X143034285Y-66500238D01*
X143272380Y-66452619D02*
X143224761Y-66547857D01*
X143129523Y-66643095D01*
X142939047Y-66690714D01*
X142605714Y-66690714D01*
X142415238Y-66643095D01*
X142320000Y-66547857D01*
X142272380Y-66452619D01*
X142272380Y-66262142D01*
X142320000Y-66166904D01*
X142415238Y-66071666D01*
X142605714Y-66024047D01*
X142939047Y-66024047D01*
X143129523Y-66071666D01*
X143224761Y-66166904D01*
X143272380Y-66262142D01*
X143272380Y-66452619D01*
X143272380Y-65071666D02*
X143272380Y-65643095D01*
X143272380Y-65357380D02*
X142272380Y-65357380D01*
X142415238Y-65452619D01*
X142510476Y-65547857D01*
X142558095Y-65643095D01*
X142272380Y-64452619D02*
X142272380Y-64357380D01*
X142320000Y-64262142D01*
X142367619Y-64214523D01*
X142462857Y-64166904D01*
X142653333Y-64119285D01*
X142891428Y-64119285D01*
X143081904Y-64166904D01*
X143177142Y-64214523D01*
X143224761Y-64262142D01*
X143272380Y-64357380D01*
X143272380Y-64452619D01*
X143224761Y-64547857D01*
X143177142Y-64595476D01*
X143081904Y-64643095D01*
X142891428Y-64690714D01*
X142653333Y-64690714D01*
X142462857Y-64643095D01*
X142367619Y-64595476D01*
X142320000Y-64547857D01*
X142272380Y-64452619D01*
%TO.C,Q9*%
X143367619Y-81375238D02*
X143320000Y-81470476D01*
X143224761Y-81565714D01*
X143081904Y-81708571D01*
X143034285Y-81803809D01*
X143034285Y-81899047D01*
X143272380Y-81851428D02*
X143224761Y-81946666D01*
X143129523Y-82041904D01*
X142939047Y-82089523D01*
X142605714Y-82089523D01*
X142415238Y-82041904D01*
X142320000Y-81946666D01*
X142272380Y-81851428D01*
X142272380Y-81660952D01*
X142320000Y-81565714D01*
X142415238Y-81470476D01*
X142605714Y-81422857D01*
X142939047Y-81422857D01*
X143129523Y-81470476D01*
X143224761Y-81565714D01*
X143272380Y-81660952D01*
X143272380Y-81851428D01*
X143272380Y-80946666D02*
X143272380Y-80756190D01*
X143224761Y-80660952D01*
X143177142Y-80613333D01*
X143034285Y-80518095D01*
X142843809Y-80470476D01*
X142462857Y-80470476D01*
X142367619Y-80518095D01*
X142320000Y-80565714D01*
X142272380Y-80660952D01*
X142272380Y-80851428D01*
X142320000Y-80946666D01*
X142367619Y-80994285D01*
X142462857Y-81041904D01*
X142700952Y-81041904D01*
X142796190Y-80994285D01*
X142843809Y-80946666D01*
X142891428Y-80851428D01*
X142891428Y-80660952D01*
X142843809Y-80565714D01*
X142796190Y-80518095D01*
X142700952Y-80470476D01*
%TO.C,Q8*%
X133207619Y-65500238D02*
X133160000Y-65595476D01*
X133064761Y-65690714D01*
X132921904Y-65833571D01*
X132874285Y-65928809D01*
X132874285Y-66024047D01*
X133112380Y-65976428D02*
X133064761Y-66071666D01*
X132969523Y-66166904D01*
X132779047Y-66214523D01*
X132445714Y-66214523D01*
X132255238Y-66166904D01*
X132160000Y-66071666D01*
X132112380Y-65976428D01*
X132112380Y-65785952D01*
X132160000Y-65690714D01*
X132255238Y-65595476D01*
X132445714Y-65547857D01*
X132779047Y-65547857D01*
X132969523Y-65595476D01*
X133064761Y-65690714D01*
X133112380Y-65785952D01*
X133112380Y-65976428D01*
X132540952Y-64976428D02*
X132493333Y-65071666D01*
X132445714Y-65119285D01*
X132350476Y-65166904D01*
X132302857Y-65166904D01*
X132207619Y-65119285D01*
X132160000Y-65071666D01*
X132112380Y-64976428D01*
X132112380Y-64785952D01*
X132160000Y-64690714D01*
X132207619Y-64643095D01*
X132302857Y-64595476D01*
X132350476Y-64595476D01*
X132445714Y-64643095D01*
X132493333Y-64690714D01*
X132540952Y-64785952D01*
X132540952Y-64976428D01*
X132588571Y-65071666D01*
X132636190Y-65119285D01*
X132731428Y-65166904D01*
X132921904Y-65166904D01*
X133017142Y-65119285D01*
X133064761Y-65071666D01*
X133112380Y-64976428D01*
X133112380Y-64785952D01*
X133064761Y-64690714D01*
X133017142Y-64643095D01*
X132921904Y-64595476D01*
X132731428Y-64595476D01*
X132636190Y-64643095D01*
X132588571Y-64690714D01*
X132540952Y-64785952D01*
%TO.C,Q7*%
X133207619Y-81375238D02*
X133160000Y-81470476D01*
X133064761Y-81565714D01*
X132921904Y-81708571D01*
X132874285Y-81803809D01*
X132874285Y-81899047D01*
X133112380Y-81851428D02*
X133064761Y-81946666D01*
X132969523Y-82041904D01*
X132779047Y-82089523D01*
X132445714Y-82089523D01*
X132255238Y-82041904D01*
X132160000Y-81946666D01*
X132112380Y-81851428D01*
X132112380Y-81660952D01*
X132160000Y-81565714D01*
X132255238Y-81470476D01*
X132445714Y-81422857D01*
X132779047Y-81422857D01*
X132969523Y-81470476D01*
X133064761Y-81565714D01*
X133112380Y-81660952D01*
X133112380Y-81851428D01*
X132112380Y-81089523D02*
X132112380Y-80422857D01*
X133112380Y-80851428D01*
%TO.C,Q6*%
X123047619Y-65500238D02*
X123000000Y-65595476D01*
X122904761Y-65690714D01*
X122761904Y-65833571D01*
X122714285Y-65928809D01*
X122714285Y-66024047D01*
X122952380Y-65976428D02*
X122904761Y-66071666D01*
X122809523Y-66166904D01*
X122619047Y-66214523D01*
X122285714Y-66214523D01*
X122095238Y-66166904D01*
X122000000Y-66071666D01*
X121952380Y-65976428D01*
X121952380Y-65785952D01*
X122000000Y-65690714D01*
X122095238Y-65595476D01*
X122285714Y-65547857D01*
X122619047Y-65547857D01*
X122809523Y-65595476D01*
X122904761Y-65690714D01*
X122952380Y-65785952D01*
X122952380Y-65976428D01*
X121952380Y-64690714D02*
X121952380Y-64881190D01*
X122000000Y-64976428D01*
X122047619Y-65024047D01*
X122190476Y-65119285D01*
X122380952Y-65166904D01*
X122761904Y-65166904D01*
X122857142Y-65119285D01*
X122904761Y-65071666D01*
X122952380Y-64976428D01*
X122952380Y-64785952D01*
X122904761Y-64690714D01*
X122857142Y-64643095D01*
X122761904Y-64595476D01*
X122523809Y-64595476D01*
X122428571Y-64643095D01*
X122380952Y-64690714D01*
X122333333Y-64785952D01*
X122333333Y-64976428D01*
X122380952Y-65071666D01*
X122428571Y-65119285D01*
X122523809Y-65166904D01*
%TO.C,Q5*%
X123047619Y-81375238D02*
X123000000Y-81470476D01*
X122904761Y-81565714D01*
X122761904Y-81708571D01*
X122714285Y-81803809D01*
X122714285Y-81899047D01*
X122952380Y-81851428D02*
X122904761Y-81946666D01*
X122809523Y-82041904D01*
X122619047Y-82089523D01*
X122285714Y-82089523D01*
X122095238Y-82041904D01*
X122000000Y-81946666D01*
X121952380Y-81851428D01*
X121952380Y-81660952D01*
X122000000Y-81565714D01*
X122095238Y-81470476D01*
X122285714Y-81422857D01*
X122619047Y-81422857D01*
X122809523Y-81470476D01*
X122904761Y-81565714D01*
X122952380Y-81660952D01*
X122952380Y-81851428D01*
X121952380Y-80518095D02*
X121952380Y-80994285D01*
X122428571Y-81041904D01*
X122380952Y-80994285D01*
X122333333Y-80899047D01*
X122333333Y-80660952D01*
X122380952Y-80565714D01*
X122428571Y-80518095D01*
X122523809Y-80470476D01*
X122761904Y-80470476D01*
X122857142Y-80518095D01*
X122904761Y-80565714D01*
X122952380Y-80660952D01*
X122952380Y-80899047D01*
X122904761Y-80994285D01*
X122857142Y-81041904D01*
%TO.C,Q4*%
X112887619Y-65500238D02*
X112840000Y-65595476D01*
X112744761Y-65690714D01*
X112601904Y-65833571D01*
X112554285Y-65928809D01*
X112554285Y-66024047D01*
X112792380Y-65976428D02*
X112744761Y-66071666D01*
X112649523Y-66166904D01*
X112459047Y-66214523D01*
X112125714Y-66214523D01*
X111935238Y-66166904D01*
X111840000Y-66071666D01*
X111792380Y-65976428D01*
X111792380Y-65785952D01*
X111840000Y-65690714D01*
X111935238Y-65595476D01*
X112125714Y-65547857D01*
X112459047Y-65547857D01*
X112649523Y-65595476D01*
X112744761Y-65690714D01*
X112792380Y-65785952D01*
X112792380Y-65976428D01*
X112125714Y-64690714D02*
X112792380Y-64690714D01*
X111744761Y-64928809D02*
X112459047Y-65166904D01*
X112459047Y-64547857D01*
%TO.C,Q3*%
X112887619Y-81375238D02*
X112840000Y-81470476D01*
X112744761Y-81565714D01*
X112601904Y-81708571D01*
X112554285Y-81803809D01*
X112554285Y-81899047D01*
X112792380Y-81851428D02*
X112744761Y-81946666D01*
X112649523Y-82041904D01*
X112459047Y-82089523D01*
X112125714Y-82089523D01*
X111935238Y-82041904D01*
X111840000Y-81946666D01*
X111792380Y-81851428D01*
X111792380Y-81660952D01*
X111840000Y-81565714D01*
X111935238Y-81470476D01*
X112125714Y-81422857D01*
X112459047Y-81422857D01*
X112649523Y-81470476D01*
X112744761Y-81565714D01*
X112792380Y-81660952D01*
X112792380Y-81851428D01*
X111792380Y-81089523D02*
X111792380Y-80470476D01*
X112173333Y-80803809D01*
X112173333Y-80660952D01*
X112220952Y-80565714D01*
X112268571Y-80518095D01*
X112363809Y-80470476D01*
X112601904Y-80470476D01*
X112697142Y-80518095D01*
X112744761Y-80565714D01*
X112792380Y-80660952D01*
X112792380Y-80946666D01*
X112744761Y-81041904D01*
X112697142Y-81089523D01*
%TO.C,Q1*%
X129444761Y-125515619D02*
X129349523Y-125468000D01*
X129254285Y-125372761D01*
X129111428Y-125229904D01*
X129016190Y-125182285D01*
X128920952Y-125182285D01*
X128968571Y-125420380D02*
X128873333Y-125372761D01*
X128778095Y-125277523D01*
X128730476Y-125087047D01*
X128730476Y-124753714D01*
X128778095Y-124563238D01*
X128873333Y-124468000D01*
X128968571Y-124420380D01*
X129159047Y-124420380D01*
X129254285Y-124468000D01*
X129349523Y-124563238D01*
X129397142Y-124753714D01*
X129397142Y-125087047D01*
X129349523Y-125277523D01*
X129254285Y-125372761D01*
X129159047Y-125420380D01*
X128968571Y-125420380D01*
X130349523Y-125420380D02*
X129778095Y-125420380D01*
X130063809Y-125420380D02*
X130063809Y-124420380D01*
X129968571Y-124563238D01*
X129873333Y-124658476D01*
X129778095Y-124706095D01*
%TO.C,L1*%
X82637333Y-103576380D02*
X82161142Y-103576380D01*
X82161142Y-102576380D01*
X83494476Y-103576380D02*
X82923047Y-103576380D01*
X83208761Y-103576380D02*
X83208761Y-102576380D01*
X83113523Y-102719238D01*
X83018285Y-102814476D01*
X82923047Y-102862095D01*
%TO.C,J4*%
X111426666Y-52792380D02*
X111426666Y-53506666D01*
X111379047Y-53649523D01*
X111283809Y-53744761D01*
X111140952Y-53792380D01*
X111045714Y-53792380D01*
X112331428Y-53125714D02*
X112331428Y-53792380D01*
X112093333Y-52744761D02*
X111855238Y-53459047D01*
X112474285Y-53459047D01*
%TO.C,J3*%
X157146666Y-123912380D02*
X157146666Y-124626666D01*
X157099047Y-124769523D01*
X157003809Y-124864761D01*
X156860952Y-124912380D01*
X156765714Y-124912380D01*
X157527619Y-123912380D02*
X158146666Y-123912380D01*
X157813333Y-124293333D01*
X157956190Y-124293333D01*
X158051428Y-124340952D01*
X158099047Y-124388571D01*
X158146666Y-124483809D01*
X158146666Y-124721904D01*
X158099047Y-124817142D01*
X158051428Y-124864761D01*
X157956190Y-124912380D01*
X157670476Y-124912380D01*
X157575238Y-124864761D01*
X157527619Y-124817142D01*
%TO.C,J2*%
X112442666Y-121372380D02*
X112442666Y-122086666D01*
X112395047Y-122229523D01*
X112299809Y-122324761D01*
X112156952Y-122372380D01*
X112061714Y-122372380D01*
X112871238Y-121467619D02*
X112918857Y-121420000D01*
X113014095Y-121372380D01*
X113252190Y-121372380D01*
X113347428Y-121420000D01*
X113395047Y-121467619D01*
X113442666Y-121562857D01*
X113442666Y-121658095D01*
X113395047Y-121800952D01*
X112823619Y-122372380D01*
X113442666Y-122372380D01*
%TO.C,J1*%
X72818666Y-121372380D02*
X72818666Y-122086666D01*
X72771047Y-122229523D01*
X72675809Y-122324761D01*
X72532952Y-122372380D01*
X72437714Y-122372380D01*
X73818666Y-122372380D02*
X73247238Y-122372380D01*
X73532952Y-122372380D02*
X73532952Y-121372380D01*
X73437714Y-121515238D01*
X73342476Y-121610476D01*
X73247238Y-121658095D01*
%TO.C,D1*%
X75461904Y-62936380D02*
X75461904Y-61936380D01*
X75700000Y-61936380D01*
X75842857Y-61984000D01*
X75938095Y-62079238D01*
X75985714Y-62174476D01*
X76033333Y-62364952D01*
X76033333Y-62507809D01*
X75985714Y-62698285D01*
X75938095Y-62793523D01*
X75842857Y-62888761D01*
X75700000Y-62936380D01*
X75461904Y-62936380D01*
X76985714Y-62936380D02*
X76414285Y-62936380D01*
X76700000Y-62936380D02*
X76700000Y-61936380D01*
X76604761Y-62079238D01*
X76509523Y-62174476D01*
X76414285Y-62222095D01*
%TO.C,C36*%
X163933142Y-87510857D02*
X163980761Y-87558476D01*
X164028380Y-87701333D01*
X164028380Y-87796571D01*
X163980761Y-87939428D01*
X163885523Y-88034666D01*
X163790285Y-88082285D01*
X163599809Y-88129904D01*
X163456952Y-88129904D01*
X163266476Y-88082285D01*
X163171238Y-88034666D01*
X163076000Y-87939428D01*
X163028380Y-87796571D01*
X163028380Y-87701333D01*
X163076000Y-87558476D01*
X163123619Y-87510857D01*
X163028380Y-87177523D02*
X163028380Y-86558476D01*
X163409333Y-86891809D01*
X163409333Y-86748952D01*
X163456952Y-86653714D01*
X163504571Y-86606095D01*
X163599809Y-86558476D01*
X163837904Y-86558476D01*
X163933142Y-86606095D01*
X163980761Y-86653714D01*
X164028380Y-86748952D01*
X164028380Y-87034666D01*
X163980761Y-87129904D01*
X163933142Y-87177523D01*
X163028380Y-85701333D02*
X163028380Y-85891809D01*
X163076000Y-85987047D01*
X163123619Y-86034666D01*
X163266476Y-86129904D01*
X163456952Y-86177523D01*
X163837904Y-86177523D01*
X163933142Y-86129904D01*
X163980761Y-86082285D01*
X164028380Y-85987047D01*
X164028380Y-85796571D01*
X163980761Y-85701333D01*
X163933142Y-85653714D01*
X163837904Y-85606095D01*
X163599809Y-85606095D01*
X163504571Y-85653714D01*
X163456952Y-85701333D01*
X163409333Y-85796571D01*
X163409333Y-85987047D01*
X163456952Y-86082285D01*
X163504571Y-86129904D01*
X163599809Y-86177523D01*
%TO.C,C35*%
X153773142Y-71762857D02*
X153820761Y-71810476D01*
X153868380Y-71953333D01*
X153868380Y-72048571D01*
X153820761Y-72191428D01*
X153725523Y-72286666D01*
X153630285Y-72334285D01*
X153439809Y-72381904D01*
X153296952Y-72381904D01*
X153106476Y-72334285D01*
X153011238Y-72286666D01*
X152916000Y-72191428D01*
X152868380Y-72048571D01*
X152868380Y-71953333D01*
X152916000Y-71810476D01*
X152963619Y-71762857D01*
X152868380Y-71429523D02*
X152868380Y-70810476D01*
X153249333Y-71143809D01*
X153249333Y-71000952D01*
X153296952Y-70905714D01*
X153344571Y-70858095D01*
X153439809Y-70810476D01*
X153677904Y-70810476D01*
X153773142Y-70858095D01*
X153820761Y-70905714D01*
X153868380Y-71000952D01*
X153868380Y-71286666D01*
X153820761Y-71381904D01*
X153773142Y-71429523D01*
X152868380Y-69905714D02*
X152868380Y-70381904D01*
X153344571Y-70429523D01*
X153296952Y-70381904D01*
X153249333Y-70286666D01*
X153249333Y-70048571D01*
X153296952Y-69953333D01*
X153344571Y-69905714D01*
X153439809Y-69858095D01*
X153677904Y-69858095D01*
X153773142Y-69905714D01*
X153820761Y-69953333D01*
X153868380Y-70048571D01*
X153868380Y-70286666D01*
X153820761Y-70381904D01*
X153773142Y-70429523D01*
%TO.C,C34*%
X153773142Y-87510857D02*
X153820761Y-87558476D01*
X153868380Y-87701333D01*
X153868380Y-87796571D01*
X153820761Y-87939428D01*
X153725523Y-88034666D01*
X153630285Y-88082285D01*
X153439809Y-88129904D01*
X153296952Y-88129904D01*
X153106476Y-88082285D01*
X153011238Y-88034666D01*
X152916000Y-87939428D01*
X152868380Y-87796571D01*
X152868380Y-87701333D01*
X152916000Y-87558476D01*
X152963619Y-87510857D01*
X152868380Y-87177523D02*
X152868380Y-86558476D01*
X153249333Y-86891809D01*
X153249333Y-86748952D01*
X153296952Y-86653714D01*
X153344571Y-86606095D01*
X153439809Y-86558476D01*
X153677904Y-86558476D01*
X153773142Y-86606095D01*
X153820761Y-86653714D01*
X153868380Y-86748952D01*
X153868380Y-87034666D01*
X153820761Y-87129904D01*
X153773142Y-87177523D01*
X153201714Y-85701333D02*
X153868380Y-85701333D01*
X152820761Y-85939428D02*
X153535047Y-86177523D01*
X153535047Y-85558476D01*
%TO.C,C33*%
X143613142Y-71762857D02*
X143660761Y-71810476D01*
X143708380Y-71953333D01*
X143708380Y-72048571D01*
X143660761Y-72191428D01*
X143565523Y-72286666D01*
X143470285Y-72334285D01*
X143279809Y-72381904D01*
X143136952Y-72381904D01*
X142946476Y-72334285D01*
X142851238Y-72286666D01*
X142756000Y-72191428D01*
X142708380Y-72048571D01*
X142708380Y-71953333D01*
X142756000Y-71810476D01*
X142803619Y-71762857D01*
X142708380Y-71429523D02*
X142708380Y-70810476D01*
X143089333Y-71143809D01*
X143089333Y-71000952D01*
X143136952Y-70905714D01*
X143184571Y-70858095D01*
X143279809Y-70810476D01*
X143517904Y-70810476D01*
X143613142Y-70858095D01*
X143660761Y-70905714D01*
X143708380Y-71000952D01*
X143708380Y-71286666D01*
X143660761Y-71381904D01*
X143613142Y-71429523D01*
X142708380Y-70477142D02*
X142708380Y-69858095D01*
X143089333Y-70191428D01*
X143089333Y-70048571D01*
X143136952Y-69953333D01*
X143184571Y-69905714D01*
X143279809Y-69858095D01*
X143517904Y-69858095D01*
X143613142Y-69905714D01*
X143660761Y-69953333D01*
X143708380Y-70048571D01*
X143708380Y-70334285D01*
X143660761Y-70429523D01*
X143613142Y-70477142D01*
%TO.C,C32*%
X143613142Y-87510857D02*
X143660761Y-87558476D01*
X143708380Y-87701333D01*
X143708380Y-87796571D01*
X143660761Y-87939428D01*
X143565523Y-88034666D01*
X143470285Y-88082285D01*
X143279809Y-88129904D01*
X143136952Y-88129904D01*
X142946476Y-88082285D01*
X142851238Y-88034666D01*
X142756000Y-87939428D01*
X142708380Y-87796571D01*
X142708380Y-87701333D01*
X142756000Y-87558476D01*
X142803619Y-87510857D01*
X142708380Y-87177523D02*
X142708380Y-86558476D01*
X143089333Y-86891809D01*
X143089333Y-86748952D01*
X143136952Y-86653714D01*
X143184571Y-86606095D01*
X143279809Y-86558476D01*
X143517904Y-86558476D01*
X143613142Y-86606095D01*
X143660761Y-86653714D01*
X143708380Y-86748952D01*
X143708380Y-87034666D01*
X143660761Y-87129904D01*
X143613142Y-87177523D01*
X142803619Y-86177523D02*
X142756000Y-86129904D01*
X142708380Y-86034666D01*
X142708380Y-85796571D01*
X142756000Y-85701333D01*
X142803619Y-85653714D01*
X142898857Y-85606095D01*
X142994095Y-85606095D01*
X143136952Y-85653714D01*
X143708380Y-86225142D01*
X143708380Y-85606095D01*
%TO.C,C31*%
X133453142Y-71254857D02*
X133500761Y-71302476D01*
X133548380Y-71445333D01*
X133548380Y-71540571D01*
X133500761Y-71683428D01*
X133405523Y-71778666D01*
X133310285Y-71826285D01*
X133119809Y-71873904D01*
X132976952Y-71873904D01*
X132786476Y-71826285D01*
X132691238Y-71778666D01*
X132596000Y-71683428D01*
X132548380Y-71540571D01*
X132548380Y-71445333D01*
X132596000Y-71302476D01*
X132643619Y-71254857D01*
X132548380Y-70921523D02*
X132548380Y-70302476D01*
X132929333Y-70635809D01*
X132929333Y-70492952D01*
X132976952Y-70397714D01*
X133024571Y-70350095D01*
X133119809Y-70302476D01*
X133357904Y-70302476D01*
X133453142Y-70350095D01*
X133500761Y-70397714D01*
X133548380Y-70492952D01*
X133548380Y-70778666D01*
X133500761Y-70873904D01*
X133453142Y-70921523D01*
X133548380Y-69350095D02*
X133548380Y-69921523D01*
X133548380Y-69635809D02*
X132548380Y-69635809D01*
X132691238Y-69731047D01*
X132786476Y-69826285D01*
X132834095Y-69921523D01*
%TO.C,C30*%
X133453142Y-87510857D02*
X133500761Y-87558476D01*
X133548380Y-87701333D01*
X133548380Y-87796571D01*
X133500761Y-87939428D01*
X133405523Y-88034666D01*
X133310285Y-88082285D01*
X133119809Y-88129904D01*
X132976952Y-88129904D01*
X132786476Y-88082285D01*
X132691238Y-88034666D01*
X132596000Y-87939428D01*
X132548380Y-87796571D01*
X132548380Y-87701333D01*
X132596000Y-87558476D01*
X132643619Y-87510857D01*
X132548380Y-87177523D02*
X132548380Y-86558476D01*
X132929333Y-86891809D01*
X132929333Y-86748952D01*
X132976952Y-86653714D01*
X133024571Y-86606095D01*
X133119809Y-86558476D01*
X133357904Y-86558476D01*
X133453142Y-86606095D01*
X133500761Y-86653714D01*
X133548380Y-86748952D01*
X133548380Y-87034666D01*
X133500761Y-87129904D01*
X133453142Y-87177523D01*
X132548380Y-85939428D02*
X132548380Y-85844190D01*
X132596000Y-85748952D01*
X132643619Y-85701333D01*
X132738857Y-85653714D01*
X132929333Y-85606095D01*
X133167428Y-85606095D01*
X133357904Y-85653714D01*
X133453142Y-85701333D01*
X133500761Y-85748952D01*
X133548380Y-85844190D01*
X133548380Y-85939428D01*
X133500761Y-86034666D01*
X133453142Y-86082285D01*
X133357904Y-86129904D01*
X133167428Y-86177523D01*
X132929333Y-86177523D01*
X132738857Y-86129904D01*
X132643619Y-86082285D01*
X132596000Y-86034666D01*
X132548380Y-85939428D01*
%TO.C,C29*%
X123293142Y-71762857D02*
X123340761Y-71810476D01*
X123388380Y-71953333D01*
X123388380Y-72048571D01*
X123340761Y-72191428D01*
X123245523Y-72286666D01*
X123150285Y-72334285D01*
X122959809Y-72381904D01*
X122816952Y-72381904D01*
X122626476Y-72334285D01*
X122531238Y-72286666D01*
X122436000Y-72191428D01*
X122388380Y-72048571D01*
X122388380Y-71953333D01*
X122436000Y-71810476D01*
X122483619Y-71762857D01*
X122483619Y-71381904D02*
X122436000Y-71334285D01*
X122388380Y-71239047D01*
X122388380Y-71000952D01*
X122436000Y-70905714D01*
X122483619Y-70858095D01*
X122578857Y-70810476D01*
X122674095Y-70810476D01*
X122816952Y-70858095D01*
X123388380Y-71429523D01*
X123388380Y-70810476D01*
X123388380Y-70334285D02*
X123388380Y-70143809D01*
X123340761Y-70048571D01*
X123293142Y-70000952D01*
X123150285Y-69905714D01*
X122959809Y-69858095D01*
X122578857Y-69858095D01*
X122483619Y-69905714D01*
X122436000Y-69953333D01*
X122388380Y-70048571D01*
X122388380Y-70239047D01*
X122436000Y-70334285D01*
X122483619Y-70381904D01*
X122578857Y-70429523D01*
X122816952Y-70429523D01*
X122912190Y-70381904D01*
X122959809Y-70334285D01*
X123007428Y-70239047D01*
X123007428Y-70048571D01*
X122959809Y-69953333D01*
X122912190Y-69905714D01*
X122816952Y-69858095D01*
%TO.C,C28*%
X123293142Y-87510857D02*
X123340761Y-87558476D01*
X123388380Y-87701333D01*
X123388380Y-87796571D01*
X123340761Y-87939428D01*
X123245523Y-88034666D01*
X123150285Y-88082285D01*
X122959809Y-88129904D01*
X122816952Y-88129904D01*
X122626476Y-88082285D01*
X122531238Y-88034666D01*
X122436000Y-87939428D01*
X122388380Y-87796571D01*
X122388380Y-87701333D01*
X122436000Y-87558476D01*
X122483619Y-87510857D01*
X122483619Y-87129904D02*
X122436000Y-87082285D01*
X122388380Y-86987047D01*
X122388380Y-86748952D01*
X122436000Y-86653714D01*
X122483619Y-86606095D01*
X122578857Y-86558476D01*
X122674095Y-86558476D01*
X122816952Y-86606095D01*
X123388380Y-87177523D01*
X123388380Y-86558476D01*
X122816952Y-85987047D02*
X122769333Y-86082285D01*
X122721714Y-86129904D01*
X122626476Y-86177523D01*
X122578857Y-86177523D01*
X122483619Y-86129904D01*
X122436000Y-86082285D01*
X122388380Y-85987047D01*
X122388380Y-85796571D01*
X122436000Y-85701333D01*
X122483619Y-85653714D01*
X122578857Y-85606095D01*
X122626476Y-85606095D01*
X122721714Y-85653714D01*
X122769333Y-85701333D01*
X122816952Y-85796571D01*
X122816952Y-85987047D01*
X122864571Y-86082285D01*
X122912190Y-86129904D01*
X123007428Y-86177523D01*
X123197904Y-86177523D01*
X123293142Y-86129904D01*
X123340761Y-86082285D01*
X123388380Y-85987047D01*
X123388380Y-85796571D01*
X123340761Y-85701333D01*
X123293142Y-85653714D01*
X123197904Y-85606095D01*
X123007428Y-85606095D01*
X122912190Y-85653714D01*
X122864571Y-85701333D01*
X122816952Y-85796571D01*
%TO.C,C27*%
X111117142Y-71985142D02*
X111069523Y-72032761D01*
X110926666Y-72080380D01*
X110831428Y-72080380D01*
X110688571Y-72032761D01*
X110593333Y-71937523D01*
X110545714Y-71842285D01*
X110498095Y-71651809D01*
X110498095Y-71508952D01*
X110545714Y-71318476D01*
X110593333Y-71223238D01*
X110688571Y-71128000D01*
X110831428Y-71080380D01*
X110926666Y-71080380D01*
X111069523Y-71128000D01*
X111117142Y-71175619D01*
X111498095Y-71175619D02*
X111545714Y-71128000D01*
X111640952Y-71080380D01*
X111879047Y-71080380D01*
X111974285Y-71128000D01*
X112021904Y-71175619D01*
X112069523Y-71270857D01*
X112069523Y-71366095D01*
X112021904Y-71508952D01*
X111450476Y-72080380D01*
X112069523Y-72080380D01*
X112402857Y-71080380D02*
X113069523Y-71080380D01*
X112640952Y-72080380D01*
%TO.C,C26*%
X111117142Y-88241142D02*
X111069523Y-88288761D01*
X110926666Y-88336380D01*
X110831428Y-88336380D01*
X110688571Y-88288761D01*
X110593333Y-88193523D01*
X110545714Y-88098285D01*
X110498095Y-87907809D01*
X110498095Y-87764952D01*
X110545714Y-87574476D01*
X110593333Y-87479238D01*
X110688571Y-87384000D01*
X110831428Y-87336380D01*
X110926666Y-87336380D01*
X111069523Y-87384000D01*
X111117142Y-87431619D01*
X111498095Y-87431619D02*
X111545714Y-87384000D01*
X111640952Y-87336380D01*
X111879047Y-87336380D01*
X111974285Y-87384000D01*
X112021904Y-87431619D01*
X112069523Y-87526857D01*
X112069523Y-87622095D01*
X112021904Y-87764952D01*
X111450476Y-88336380D01*
X112069523Y-88336380D01*
X112926666Y-87336380D02*
X112736190Y-87336380D01*
X112640952Y-87384000D01*
X112593333Y-87431619D01*
X112498095Y-87574476D01*
X112450476Y-87764952D01*
X112450476Y-88145904D01*
X112498095Y-88241142D01*
X112545714Y-88288761D01*
X112640952Y-88336380D01*
X112831428Y-88336380D01*
X112926666Y-88288761D01*
X112974285Y-88241142D01*
X113021904Y-88145904D01*
X113021904Y-87907809D01*
X112974285Y-87812571D01*
X112926666Y-87764952D01*
X112831428Y-87717333D01*
X112640952Y-87717333D01*
X112545714Y-87764952D01*
X112498095Y-87812571D01*
X112450476Y-87907809D01*
%TO.C,C25*%
X96623142Y-109100857D02*
X96670761Y-109148476D01*
X96718380Y-109291333D01*
X96718380Y-109386571D01*
X96670761Y-109529428D01*
X96575523Y-109624666D01*
X96480285Y-109672285D01*
X96289809Y-109719904D01*
X96146952Y-109719904D01*
X95956476Y-109672285D01*
X95861238Y-109624666D01*
X95766000Y-109529428D01*
X95718380Y-109386571D01*
X95718380Y-109291333D01*
X95766000Y-109148476D01*
X95813619Y-109100857D01*
X95813619Y-108719904D02*
X95766000Y-108672285D01*
X95718380Y-108577047D01*
X95718380Y-108338952D01*
X95766000Y-108243714D01*
X95813619Y-108196095D01*
X95908857Y-108148476D01*
X96004095Y-108148476D01*
X96146952Y-108196095D01*
X96718380Y-108767523D01*
X96718380Y-108148476D01*
X95718380Y-107243714D02*
X95718380Y-107719904D01*
X96194571Y-107767523D01*
X96146952Y-107719904D01*
X96099333Y-107624666D01*
X96099333Y-107386571D01*
X96146952Y-107291333D01*
X96194571Y-107243714D01*
X96289809Y-107196095D01*
X96527904Y-107196095D01*
X96623142Y-107243714D01*
X96670761Y-107291333D01*
X96718380Y-107386571D01*
X96718380Y-107624666D01*
X96670761Y-107719904D01*
X96623142Y-107767523D01*
%TO.C,C24*%
X90019142Y-109100857D02*
X90066761Y-109148476D01*
X90114380Y-109291333D01*
X90114380Y-109386571D01*
X90066761Y-109529428D01*
X89971523Y-109624666D01*
X89876285Y-109672285D01*
X89685809Y-109719904D01*
X89542952Y-109719904D01*
X89352476Y-109672285D01*
X89257238Y-109624666D01*
X89162000Y-109529428D01*
X89114380Y-109386571D01*
X89114380Y-109291333D01*
X89162000Y-109148476D01*
X89209619Y-109100857D01*
X89209619Y-108719904D02*
X89162000Y-108672285D01*
X89114380Y-108577047D01*
X89114380Y-108338952D01*
X89162000Y-108243714D01*
X89209619Y-108196095D01*
X89304857Y-108148476D01*
X89400095Y-108148476D01*
X89542952Y-108196095D01*
X90114380Y-108767523D01*
X90114380Y-108148476D01*
X89447714Y-107291333D02*
X90114380Y-107291333D01*
X89066761Y-107529428D02*
X89781047Y-107767523D01*
X89781047Y-107148476D01*
%TO.C,C23*%
X107037142Y-113164857D02*
X107084761Y-113212476D01*
X107132380Y-113355333D01*
X107132380Y-113450571D01*
X107084761Y-113593428D01*
X106989523Y-113688666D01*
X106894285Y-113736285D01*
X106703809Y-113783904D01*
X106560952Y-113783904D01*
X106370476Y-113736285D01*
X106275238Y-113688666D01*
X106180000Y-113593428D01*
X106132380Y-113450571D01*
X106132380Y-113355333D01*
X106180000Y-113212476D01*
X106227619Y-113164857D01*
X106227619Y-112783904D02*
X106180000Y-112736285D01*
X106132380Y-112641047D01*
X106132380Y-112402952D01*
X106180000Y-112307714D01*
X106227619Y-112260095D01*
X106322857Y-112212476D01*
X106418095Y-112212476D01*
X106560952Y-112260095D01*
X107132380Y-112831523D01*
X107132380Y-112212476D01*
X106132380Y-111879142D02*
X106132380Y-111260095D01*
X106513333Y-111593428D01*
X106513333Y-111450571D01*
X106560952Y-111355333D01*
X106608571Y-111307714D01*
X106703809Y-111260095D01*
X106941904Y-111260095D01*
X107037142Y-111307714D01*
X107084761Y-111355333D01*
X107132380Y-111450571D01*
X107132380Y-111736285D01*
X107084761Y-111831523D01*
X107037142Y-111879142D01*
%TO.C,C21*%
X101287642Y-121927857D02*
X101335261Y-121975476D01*
X101382880Y-122118333D01*
X101382880Y-122213571D01*
X101335261Y-122356428D01*
X101240023Y-122451666D01*
X101144785Y-122499285D01*
X100954309Y-122546904D01*
X100811452Y-122546904D01*
X100620976Y-122499285D01*
X100525738Y-122451666D01*
X100430500Y-122356428D01*
X100382880Y-122213571D01*
X100382880Y-122118333D01*
X100430500Y-121975476D01*
X100478119Y-121927857D01*
X100478119Y-121546904D02*
X100430500Y-121499285D01*
X100382880Y-121404047D01*
X100382880Y-121165952D01*
X100430500Y-121070714D01*
X100478119Y-121023095D01*
X100573357Y-120975476D01*
X100668595Y-120975476D01*
X100811452Y-121023095D01*
X101382880Y-121594523D01*
X101382880Y-120975476D01*
X101382880Y-120023095D02*
X101382880Y-120594523D01*
X101382880Y-120308809D02*
X100382880Y-120308809D01*
X100525738Y-120404047D01*
X100620976Y-120499285D01*
X100668595Y-120594523D01*
%TO.C,C20*%
X95813642Y-125071142D02*
X95766023Y-125118761D01*
X95623166Y-125166380D01*
X95527928Y-125166380D01*
X95385071Y-125118761D01*
X95289833Y-125023523D01*
X95242214Y-124928285D01*
X95194595Y-124737809D01*
X95194595Y-124594952D01*
X95242214Y-124404476D01*
X95289833Y-124309238D01*
X95385071Y-124214000D01*
X95527928Y-124166380D01*
X95623166Y-124166380D01*
X95766023Y-124214000D01*
X95813642Y-124261619D01*
X96194595Y-124261619D02*
X96242214Y-124214000D01*
X96337452Y-124166380D01*
X96575547Y-124166380D01*
X96670785Y-124214000D01*
X96718404Y-124261619D01*
X96766023Y-124356857D01*
X96766023Y-124452095D01*
X96718404Y-124594952D01*
X96146976Y-125166380D01*
X96766023Y-125166380D01*
X97385071Y-124166380D02*
X97480309Y-124166380D01*
X97575547Y-124214000D01*
X97623166Y-124261619D01*
X97670785Y-124356857D01*
X97718404Y-124547333D01*
X97718404Y-124785428D01*
X97670785Y-124975904D01*
X97623166Y-125071142D01*
X97575547Y-125118761D01*
X97480309Y-125166380D01*
X97385071Y-125166380D01*
X97289833Y-125118761D01*
X97242214Y-125071142D01*
X97194595Y-124975904D01*
X97146976Y-124785428D01*
X97146976Y-124547333D01*
X97194595Y-124356857D01*
X97242214Y-124261619D01*
X97289833Y-124214000D01*
X97385071Y-124166380D01*
%TO.C,C19*%
X92241642Y-121800857D02*
X92289261Y-121848476D01*
X92336880Y-121991333D01*
X92336880Y-122086571D01*
X92289261Y-122229428D01*
X92194023Y-122324666D01*
X92098785Y-122372285D01*
X91908309Y-122419904D01*
X91765452Y-122419904D01*
X91574976Y-122372285D01*
X91479738Y-122324666D01*
X91384500Y-122229428D01*
X91336880Y-122086571D01*
X91336880Y-121991333D01*
X91384500Y-121848476D01*
X91432119Y-121800857D01*
X92336880Y-120848476D02*
X92336880Y-121419904D01*
X92336880Y-121134190D02*
X91336880Y-121134190D01*
X91479738Y-121229428D01*
X91574976Y-121324666D01*
X91622595Y-121419904D01*
X92336880Y-120372285D02*
X92336880Y-120181809D01*
X92289261Y-120086571D01*
X92241642Y-120038952D01*
X92098785Y-119943714D01*
X91908309Y-119896095D01*
X91527357Y-119896095D01*
X91432119Y-119943714D01*
X91384500Y-119991333D01*
X91336880Y-120086571D01*
X91336880Y-120277047D01*
X91384500Y-120372285D01*
X91432119Y-120419904D01*
X91527357Y-120467523D01*
X91765452Y-120467523D01*
X91860690Y-120419904D01*
X91908309Y-120372285D01*
X91955928Y-120277047D01*
X91955928Y-120086571D01*
X91908309Y-119991333D01*
X91860690Y-119943714D01*
X91765452Y-119896095D01*
%TO.C,C9*%
X106513333Y-70461142D02*
X106465714Y-70508761D01*
X106322857Y-70556380D01*
X106227619Y-70556380D01*
X106084761Y-70508761D01*
X105989523Y-70413523D01*
X105941904Y-70318285D01*
X105894285Y-70127809D01*
X105894285Y-69984952D01*
X105941904Y-69794476D01*
X105989523Y-69699238D01*
X106084761Y-69604000D01*
X106227619Y-69556380D01*
X106322857Y-69556380D01*
X106465714Y-69604000D01*
X106513333Y-69651619D01*
X106989523Y-70556380D02*
X107180000Y-70556380D01*
X107275238Y-70508761D01*
X107322857Y-70461142D01*
X107418095Y-70318285D01*
X107465714Y-70127809D01*
X107465714Y-69746857D01*
X107418095Y-69651619D01*
X107370476Y-69604000D01*
X107275238Y-69556380D01*
X107084761Y-69556380D01*
X106989523Y-69604000D01*
X106941904Y-69651619D01*
X106894285Y-69746857D01*
X106894285Y-69984952D01*
X106941904Y-70080190D01*
X106989523Y-70127809D01*
X107084761Y-70175428D01*
X107275238Y-70175428D01*
X107370476Y-70127809D01*
X107418095Y-70080190D01*
X107465714Y-69984952D01*
%TO.C,C8*%
X106513333Y-89257142D02*
X106465714Y-89304761D01*
X106322857Y-89352380D01*
X106227619Y-89352380D01*
X106084761Y-89304761D01*
X105989523Y-89209523D01*
X105941904Y-89114285D01*
X105894285Y-88923809D01*
X105894285Y-88780952D01*
X105941904Y-88590476D01*
X105989523Y-88495238D01*
X106084761Y-88400000D01*
X106227619Y-88352380D01*
X106322857Y-88352380D01*
X106465714Y-88400000D01*
X106513333Y-88447619D01*
X107084761Y-88780952D02*
X106989523Y-88733333D01*
X106941904Y-88685714D01*
X106894285Y-88590476D01*
X106894285Y-88542857D01*
X106941904Y-88447619D01*
X106989523Y-88400000D01*
X107084761Y-88352380D01*
X107275238Y-88352380D01*
X107370476Y-88400000D01*
X107418095Y-88447619D01*
X107465714Y-88542857D01*
X107465714Y-88590476D01*
X107418095Y-88685714D01*
X107370476Y-88733333D01*
X107275238Y-88780952D01*
X107084761Y-88780952D01*
X106989523Y-88828571D01*
X106941904Y-88876190D01*
X106894285Y-88971428D01*
X106894285Y-89161904D01*
X106941904Y-89257142D01*
X106989523Y-89304761D01*
X107084761Y-89352380D01*
X107275238Y-89352380D01*
X107370476Y-89304761D01*
X107418095Y-89257142D01*
X107465714Y-89161904D01*
X107465714Y-88971428D01*
X107418095Y-88876190D01*
X107370476Y-88828571D01*
X107275238Y-88780952D01*
%TO.C,C7*%
X64365142Y-114466666D02*
X64412761Y-114514285D01*
X64460380Y-114657142D01*
X64460380Y-114752380D01*
X64412761Y-114895238D01*
X64317523Y-114990476D01*
X64222285Y-115038095D01*
X64031809Y-115085714D01*
X63888952Y-115085714D01*
X63698476Y-115038095D01*
X63603238Y-114990476D01*
X63508000Y-114895238D01*
X63460380Y-114752380D01*
X63460380Y-114657142D01*
X63508000Y-114514285D01*
X63555619Y-114466666D01*
X63460380Y-114133333D02*
X63460380Y-113466666D01*
X64460380Y-113895238D01*
%TO.C,C6*%
X66905142Y-114466666D02*
X66952761Y-114514285D01*
X67000380Y-114657142D01*
X67000380Y-114752380D01*
X66952761Y-114895238D01*
X66857523Y-114990476D01*
X66762285Y-115038095D01*
X66571809Y-115085714D01*
X66428952Y-115085714D01*
X66238476Y-115038095D01*
X66143238Y-114990476D01*
X66048000Y-114895238D01*
X66000380Y-114752380D01*
X66000380Y-114657142D01*
X66048000Y-114514285D01*
X66095619Y-114466666D01*
X66000380Y-113609523D02*
X66000380Y-113800000D01*
X66048000Y-113895238D01*
X66095619Y-113942857D01*
X66238476Y-114038095D01*
X66428952Y-114085714D01*
X66809904Y-114085714D01*
X66905142Y-114038095D01*
X66952761Y-113990476D01*
X67000380Y-113895238D01*
X67000380Y-113704761D01*
X66952761Y-113609523D01*
X66905142Y-113561904D01*
X66809904Y-113514285D01*
X66571809Y-113514285D01*
X66476571Y-113561904D01*
X66428952Y-113609523D01*
X66381333Y-113704761D01*
X66381333Y-113895238D01*
X66428952Y-113990476D01*
X66476571Y-114038095D01*
X66571809Y-114085714D01*
%TO.C,C5*%
X79589333Y-111208142D02*
X79541714Y-111255761D01*
X79398857Y-111303380D01*
X79303619Y-111303380D01*
X79160761Y-111255761D01*
X79065523Y-111160523D01*
X79017904Y-111065285D01*
X78970285Y-110874809D01*
X78970285Y-110731952D01*
X79017904Y-110541476D01*
X79065523Y-110446238D01*
X79160761Y-110351000D01*
X79303619Y-110303380D01*
X79398857Y-110303380D01*
X79541714Y-110351000D01*
X79589333Y-110398619D01*
X80494095Y-110303380D02*
X80017904Y-110303380D01*
X79970285Y-110779571D01*
X80017904Y-110731952D01*
X80113142Y-110684333D01*
X80351238Y-110684333D01*
X80446476Y-110731952D01*
X80494095Y-110779571D01*
X80541714Y-110874809D01*
X80541714Y-111112904D01*
X80494095Y-111208142D01*
X80446476Y-111255761D01*
X80351238Y-111303380D01*
X80113142Y-111303380D01*
X80017904Y-111255761D01*
X79970285Y-111208142D01*
%TO.C,C4*%
X142073333Y-125833142D02*
X142025714Y-125880761D01*
X141882857Y-125928380D01*
X141787619Y-125928380D01*
X141644761Y-125880761D01*
X141549523Y-125785523D01*
X141501904Y-125690285D01*
X141454285Y-125499809D01*
X141454285Y-125356952D01*
X141501904Y-125166476D01*
X141549523Y-125071238D01*
X141644761Y-124976000D01*
X141787619Y-124928380D01*
X141882857Y-124928380D01*
X142025714Y-124976000D01*
X142073333Y-125023619D01*
X142930476Y-125261714D02*
X142930476Y-125928380D01*
X142692380Y-124880761D02*
X142454285Y-125595047D01*
X143073333Y-125595047D01*
%TO.C,C3*%
X144629142Y-116371666D02*
X144676761Y-116419285D01*
X144724380Y-116562142D01*
X144724380Y-116657380D01*
X144676761Y-116800238D01*
X144581523Y-116895476D01*
X144486285Y-116943095D01*
X144295809Y-116990714D01*
X144152952Y-116990714D01*
X143962476Y-116943095D01*
X143867238Y-116895476D01*
X143772000Y-116800238D01*
X143724380Y-116657380D01*
X143724380Y-116562142D01*
X143772000Y-116419285D01*
X143819619Y-116371666D01*
X143724380Y-116038333D02*
X143724380Y-115419285D01*
X144105333Y-115752619D01*
X144105333Y-115609761D01*
X144152952Y-115514523D01*
X144200571Y-115466904D01*
X144295809Y-115419285D01*
X144533904Y-115419285D01*
X144629142Y-115466904D01*
X144676761Y-115514523D01*
X144724380Y-115609761D01*
X144724380Y-115895476D01*
X144676761Y-115990714D01*
X144629142Y-116038333D01*
%TO.C,C2*%
X155281333Y-123801142D02*
X155233714Y-123848761D01*
X155090857Y-123896380D01*
X154995619Y-123896380D01*
X154852761Y-123848761D01*
X154757523Y-123753523D01*
X154709904Y-123658285D01*
X154662285Y-123467809D01*
X154662285Y-123324952D01*
X154709904Y-123134476D01*
X154757523Y-123039238D01*
X154852761Y-122944000D01*
X154995619Y-122896380D01*
X155090857Y-122896380D01*
X155233714Y-122944000D01*
X155281333Y-122991619D01*
X155662285Y-122991619D02*
X155709904Y-122944000D01*
X155805142Y-122896380D01*
X156043238Y-122896380D01*
X156138476Y-122944000D01*
X156186095Y-122991619D01*
X156233714Y-123086857D01*
X156233714Y-123182095D01*
X156186095Y-123324952D01*
X155614666Y-123896380D01*
X156233714Y-123896380D01*
%TO.C,C1*%
X151725333Y-126341142D02*
X151677714Y-126388761D01*
X151534857Y-126436380D01*
X151439619Y-126436380D01*
X151296761Y-126388761D01*
X151201523Y-126293523D01*
X151153904Y-126198285D01*
X151106285Y-126007809D01*
X151106285Y-125864952D01*
X151153904Y-125674476D01*
X151201523Y-125579238D01*
X151296761Y-125484000D01*
X151439619Y-125436380D01*
X151534857Y-125436380D01*
X151677714Y-125484000D01*
X151725333Y-125531619D01*
X152677714Y-126436380D02*
X152106285Y-126436380D01*
X152392000Y-126436380D02*
X152392000Y-125436380D01*
X152296761Y-125579238D01*
X152201523Y-125674476D01*
X152106285Y-125722095D01*
%TD*%
M02*
