%TF.GenerationSoftware,KiCad,Pcbnew,(5.1.9)-1*%
%TF.CreationDate,2021-08-30T22:29:05-04:00*%
%TF.ProjectId,In9 Music Visualizer RevC,496e3920-4d75-4736-9963-205669737561,rev?*%
%TF.SameCoordinates,Original*%
%TF.FileFunction,Soldermask,Top*%
%TF.FilePolarity,Negative*%
%FSLAX46Y46*%
G04 Gerber Fmt 4.6, Leading zero omitted, Abs format (unit mm)*
G04 Created by KiCad (PCBNEW (5.1.9)-1) date 2021-08-30 22:29:05*
%MOMM*%
%LPD*%
G01*
G04 APERTURE LIST*
%ADD10C,1.700000*%
%ADD11R,1.700000X1.700000*%
%ADD12C,5.715000*%
%ADD13R,1.500000X2.000000*%
%ADD14R,3.800000X2.000000*%
%ADD15R,1.900000X0.800000*%
%ADD16O,1.700000X1.700000*%
G04 APERTURE END LIST*
D10*
%TO.C,J6*%
X106680000Y-111125000D03*
D11*
X106680000Y-108585000D03*
D10*
X106680000Y-113665000D03*
%TD*%
%TO.C,R6*%
G36*
G01*
X140150001Y-115805000D02*
X139249999Y-115805000D01*
G75*
G02*
X139000000Y-115555001I0J249999D01*
G01*
X139000000Y-114854999D01*
G75*
G02*
X139249999Y-114605000I249999J0D01*
G01*
X140150001Y-114605000D01*
G75*
G02*
X140400000Y-114854999I0J-249999D01*
G01*
X140400000Y-115555001D01*
G75*
G02*
X140150001Y-115805000I-249999J0D01*
G01*
G37*
G36*
G01*
X140150001Y-117805000D02*
X139249999Y-117805000D01*
G75*
G02*
X139000000Y-117555001I0J249999D01*
G01*
X139000000Y-116854999D01*
G75*
G02*
X139249999Y-116605000I249999J0D01*
G01*
X140150001Y-116605000D01*
G75*
G02*
X140400000Y-116854999I0J-249999D01*
G01*
X140400000Y-117555001D01*
G75*
G02*
X140150001Y-117805000I-249999J0D01*
G01*
G37*
%TD*%
%TO.C,R2*%
G36*
G01*
X140150001Y-119885000D02*
X139249999Y-119885000D01*
G75*
G02*
X139000000Y-119635001I0J249999D01*
G01*
X139000000Y-118934999D01*
G75*
G02*
X139249999Y-118685000I249999J0D01*
G01*
X140150001Y-118685000D01*
G75*
G02*
X140400000Y-118934999I0J-249999D01*
G01*
X140400000Y-119635001D01*
G75*
G02*
X140150001Y-119885000I-249999J0D01*
G01*
G37*
G36*
G01*
X140150001Y-121885000D02*
X139249999Y-121885000D01*
G75*
G02*
X139000000Y-121635001I0J249999D01*
G01*
X139000000Y-120934999D01*
G75*
G02*
X139249999Y-120685000I249999J0D01*
G01*
X140150001Y-120685000D01*
G75*
G02*
X140400000Y-120934999I0J-249999D01*
G01*
X140400000Y-121635001D01*
G75*
G02*
X140150001Y-121885000I-249999J0D01*
G01*
G37*
%TD*%
D12*
%TO.C,REF\u002A\u002A*%
X172720000Y-121920000D03*
%TD*%
%TO.C,REF\u002A\u002A*%
X172720000Y-55880000D03*
%TD*%
%TO.C,REF\u002A\u002A*%
X106680000Y-121920000D03*
%TD*%
%TO.C,REF\u002A\u002A*%
X106680000Y-55880000D03*
%TD*%
%TO.C,U1*%
G36*
G01*
X146455000Y-121135000D02*
X146455000Y-121435000D01*
G75*
G02*
X146305000Y-121585000I-150000J0D01*
G01*
X144655000Y-121585000D01*
G75*
G02*
X144505000Y-121435000I0J150000D01*
G01*
X144505000Y-121135000D01*
G75*
G02*
X144655000Y-120985000I150000J0D01*
G01*
X146305000Y-120985000D01*
G75*
G02*
X146455000Y-121135000I0J-150000D01*
G01*
G37*
G36*
G01*
X146455000Y-119865000D02*
X146455000Y-120165000D01*
G75*
G02*
X146305000Y-120315000I-150000J0D01*
G01*
X144655000Y-120315000D01*
G75*
G02*
X144505000Y-120165000I0J150000D01*
G01*
X144505000Y-119865000D01*
G75*
G02*
X144655000Y-119715000I150000J0D01*
G01*
X146305000Y-119715000D01*
G75*
G02*
X146455000Y-119865000I0J-150000D01*
G01*
G37*
G36*
G01*
X146455000Y-118595000D02*
X146455000Y-118895000D01*
G75*
G02*
X146305000Y-119045000I-150000J0D01*
G01*
X144655000Y-119045000D01*
G75*
G02*
X144505000Y-118895000I0J150000D01*
G01*
X144505000Y-118595000D01*
G75*
G02*
X144655000Y-118445000I150000J0D01*
G01*
X146305000Y-118445000D01*
G75*
G02*
X146455000Y-118595000I0J-150000D01*
G01*
G37*
G36*
G01*
X146455000Y-117325000D02*
X146455000Y-117625000D01*
G75*
G02*
X146305000Y-117775000I-150000J0D01*
G01*
X144655000Y-117775000D01*
G75*
G02*
X144505000Y-117625000I0J150000D01*
G01*
X144505000Y-117325000D01*
G75*
G02*
X144655000Y-117175000I150000J0D01*
G01*
X146305000Y-117175000D01*
G75*
G02*
X146455000Y-117325000I0J-150000D01*
G01*
G37*
G36*
G01*
X151405000Y-117325000D02*
X151405000Y-117625000D01*
G75*
G02*
X151255000Y-117775000I-150000J0D01*
G01*
X149605000Y-117775000D01*
G75*
G02*
X149455000Y-117625000I0J150000D01*
G01*
X149455000Y-117325000D01*
G75*
G02*
X149605000Y-117175000I150000J0D01*
G01*
X151255000Y-117175000D01*
G75*
G02*
X151405000Y-117325000I0J-150000D01*
G01*
G37*
G36*
G01*
X151405000Y-118595000D02*
X151405000Y-118895000D01*
G75*
G02*
X151255000Y-119045000I-150000J0D01*
G01*
X149605000Y-119045000D01*
G75*
G02*
X149455000Y-118895000I0J150000D01*
G01*
X149455000Y-118595000D01*
G75*
G02*
X149605000Y-118445000I150000J0D01*
G01*
X151255000Y-118445000D01*
G75*
G02*
X151405000Y-118595000I0J-150000D01*
G01*
G37*
G36*
G01*
X151405000Y-119865000D02*
X151405000Y-120165000D01*
G75*
G02*
X151255000Y-120315000I-150000J0D01*
G01*
X149605000Y-120315000D01*
G75*
G02*
X149455000Y-120165000I0J150000D01*
G01*
X149455000Y-119865000D01*
G75*
G02*
X149605000Y-119715000I150000J0D01*
G01*
X151255000Y-119715000D01*
G75*
G02*
X151405000Y-119865000I0J-150000D01*
G01*
G37*
G36*
G01*
X151405000Y-121135000D02*
X151405000Y-121435000D01*
G75*
G02*
X151255000Y-121585000I-150000J0D01*
G01*
X149605000Y-121585000D01*
G75*
G02*
X149455000Y-121435000I0J150000D01*
G01*
X149455000Y-121135000D01*
G75*
G02*
X149605000Y-120985000I150000J0D01*
G01*
X151255000Y-120985000D01*
G75*
G02*
X151405000Y-121135000I0J-150000D01*
G01*
G37*
%TD*%
%TO.C,R38*%
G36*
G01*
X169729999Y-89030000D02*
X170630001Y-89030000D01*
G75*
G02*
X170880000Y-89279999I0J-249999D01*
G01*
X170880000Y-89980001D01*
G75*
G02*
X170630001Y-90230000I-249999J0D01*
G01*
X169729999Y-90230000D01*
G75*
G02*
X169480000Y-89980001I0J249999D01*
G01*
X169480000Y-89279999D01*
G75*
G02*
X169729999Y-89030000I249999J0D01*
G01*
G37*
G36*
G01*
X169729999Y-87030000D02*
X170630001Y-87030000D01*
G75*
G02*
X170880000Y-87279999I0J-249999D01*
G01*
X170880000Y-87980001D01*
G75*
G02*
X170630001Y-88230000I-249999J0D01*
G01*
X169729999Y-88230000D01*
G75*
G02*
X169480000Y-87980001I0J249999D01*
G01*
X169480000Y-87279999D01*
G75*
G02*
X169729999Y-87030000I249999J0D01*
G01*
G37*
%TD*%
%TO.C,R37*%
G36*
G01*
X159823999Y-73282000D02*
X160724001Y-73282000D01*
G75*
G02*
X160974000Y-73531999I0J-249999D01*
G01*
X160974000Y-74232001D01*
G75*
G02*
X160724001Y-74482000I-249999J0D01*
G01*
X159823999Y-74482000D01*
G75*
G02*
X159574000Y-74232001I0J249999D01*
G01*
X159574000Y-73531999D01*
G75*
G02*
X159823999Y-73282000I249999J0D01*
G01*
G37*
G36*
G01*
X159823999Y-71282000D02*
X160724001Y-71282000D01*
G75*
G02*
X160974000Y-71531999I0J-249999D01*
G01*
X160974000Y-72232001D01*
G75*
G02*
X160724001Y-72482000I-249999J0D01*
G01*
X159823999Y-72482000D01*
G75*
G02*
X159574000Y-72232001I0J249999D01*
G01*
X159574000Y-71531999D01*
G75*
G02*
X159823999Y-71282000I249999J0D01*
G01*
G37*
%TD*%
%TO.C,R36*%
G36*
G01*
X159569999Y-89030000D02*
X160470001Y-89030000D01*
G75*
G02*
X160720000Y-89279999I0J-249999D01*
G01*
X160720000Y-89980001D01*
G75*
G02*
X160470001Y-90230000I-249999J0D01*
G01*
X159569999Y-90230000D01*
G75*
G02*
X159320000Y-89980001I0J249999D01*
G01*
X159320000Y-89279999D01*
G75*
G02*
X159569999Y-89030000I249999J0D01*
G01*
G37*
G36*
G01*
X159569999Y-87030000D02*
X160470001Y-87030000D01*
G75*
G02*
X160720000Y-87279999I0J-249999D01*
G01*
X160720000Y-87980001D01*
G75*
G02*
X160470001Y-88230000I-249999J0D01*
G01*
X159569999Y-88230000D01*
G75*
G02*
X159320000Y-87980001I0J249999D01*
G01*
X159320000Y-87279999D01*
G75*
G02*
X159569999Y-87030000I249999J0D01*
G01*
G37*
%TD*%
%TO.C,R35*%
G36*
G01*
X149409999Y-73425000D02*
X150310001Y-73425000D01*
G75*
G02*
X150560000Y-73674999I0J-249999D01*
G01*
X150560000Y-74375001D01*
G75*
G02*
X150310001Y-74625000I-249999J0D01*
G01*
X149409999Y-74625000D01*
G75*
G02*
X149160000Y-74375001I0J249999D01*
G01*
X149160000Y-73674999D01*
G75*
G02*
X149409999Y-73425000I249999J0D01*
G01*
G37*
G36*
G01*
X149409999Y-71425000D02*
X150310001Y-71425000D01*
G75*
G02*
X150560000Y-71674999I0J-249999D01*
G01*
X150560000Y-72375001D01*
G75*
G02*
X150310001Y-72625000I-249999J0D01*
G01*
X149409999Y-72625000D01*
G75*
G02*
X149160000Y-72375001I0J249999D01*
G01*
X149160000Y-71674999D01*
G75*
G02*
X149409999Y-71425000I249999J0D01*
G01*
G37*
%TD*%
%TO.C,R34*%
G36*
G01*
X149409999Y-89030000D02*
X150310001Y-89030000D01*
G75*
G02*
X150560000Y-89279999I0J-249999D01*
G01*
X150560000Y-89980001D01*
G75*
G02*
X150310001Y-90230000I-249999J0D01*
G01*
X149409999Y-90230000D01*
G75*
G02*
X149160000Y-89980001I0J249999D01*
G01*
X149160000Y-89279999D01*
G75*
G02*
X149409999Y-89030000I249999J0D01*
G01*
G37*
G36*
G01*
X149409999Y-87030000D02*
X150310001Y-87030000D01*
G75*
G02*
X150560000Y-87279999I0J-249999D01*
G01*
X150560000Y-87980001D01*
G75*
G02*
X150310001Y-88230000I-249999J0D01*
G01*
X149409999Y-88230000D01*
G75*
G02*
X149160000Y-87980001I0J249999D01*
G01*
X149160000Y-87279999D01*
G75*
G02*
X149409999Y-87030000I249999J0D01*
G01*
G37*
%TD*%
%TO.C,R33*%
G36*
G01*
X166500000Y-90620001D02*
X166500000Y-89719999D01*
G75*
G02*
X166749999Y-89470000I249999J0D01*
G01*
X167450001Y-89470000D01*
G75*
G02*
X167700000Y-89719999I0J-249999D01*
G01*
X167700000Y-90620001D01*
G75*
G02*
X167450001Y-90870000I-249999J0D01*
G01*
X166749999Y-90870000D01*
G75*
G02*
X166500000Y-90620001I0J249999D01*
G01*
G37*
G36*
G01*
X164500000Y-90620001D02*
X164500000Y-89719999D01*
G75*
G02*
X164749999Y-89470000I249999J0D01*
G01*
X165450001Y-89470000D01*
G75*
G02*
X165700000Y-89719999I0J-249999D01*
G01*
X165700000Y-90620001D01*
G75*
G02*
X165450001Y-90870000I-249999J0D01*
G01*
X164749999Y-90870000D01*
G75*
G02*
X164500000Y-90620001I0J249999D01*
G01*
G37*
%TD*%
%TO.C,R32*%
G36*
G01*
X156610000Y-74745001D02*
X156610000Y-73844999D01*
G75*
G02*
X156859999Y-73595000I249999J0D01*
G01*
X157560001Y-73595000D01*
G75*
G02*
X157810000Y-73844999I0J-249999D01*
G01*
X157810000Y-74745001D01*
G75*
G02*
X157560001Y-74995000I-249999J0D01*
G01*
X156859999Y-74995000D01*
G75*
G02*
X156610000Y-74745001I0J249999D01*
G01*
G37*
G36*
G01*
X154610000Y-74745001D02*
X154610000Y-73844999D01*
G75*
G02*
X154859999Y-73595000I249999J0D01*
G01*
X155560001Y-73595000D01*
G75*
G02*
X155810000Y-73844999I0J-249999D01*
G01*
X155810000Y-74745001D01*
G75*
G02*
X155560001Y-74995000I-249999J0D01*
G01*
X154859999Y-74995000D01*
G75*
G02*
X154610000Y-74745001I0J249999D01*
G01*
G37*
%TD*%
%TO.C,R31*%
G36*
G01*
X156610000Y-90620001D02*
X156610000Y-89719999D01*
G75*
G02*
X156859999Y-89470000I249999J0D01*
G01*
X157560001Y-89470000D01*
G75*
G02*
X157810000Y-89719999I0J-249999D01*
G01*
X157810000Y-90620001D01*
G75*
G02*
X157560001Y-90870000I-249999J0D01*
G01*
X156859999Y-90870000D01*
G75*
G02*
X156610000Y-90620001I0J249999D01*
G01*
G37*
G36*
G01*
X154610000Y-90620001D02*
X154610000Y-89719999D01*
G75*
G02*
X154859999Y-89470000I249999J0D01*
G01*
X155560001Y-89470000D01*
G75*
G02*
X155810000Y-89719999I0J-249999D01*
G01*
X155810000Y-90620001D01*
G75*
G02*
X155560001Y-90870000I-249999J0D01*
G01*
X154859999Y-90870000D01*
G75*
G02*
X154610000Y-90620001I0J249999D01*
G01*
G37*
%TD*%
%TO.C,R30*%
G36*
G01*
X146450000Y-74745001D02*
X146450000Y-73844999D01*
G75*
G02*
X146699999Y-73595000I249999J0D01*
G01*
X147400001Y-73595000D01*
G75*
G02*
X147650000Y-73844999I0J-249999D01*
G01*
X147650000Y-74745001D01*
G75*
G02*
X147400001Y-74995000I-249999J0D01*
G01*
X146699999Y-74995000D01*
G75*
G02*
X146450000Y-74745001I0J249999D01*
G01*
G37*
G36*
G01*
X144450000Y-74745001D02*
X144450000Y-73844999D01*
G75*
G02*
X144699999Y-73595000I249999J0D01*
G01*
X145400001Y-73595000D01*
G75*
G02*
X145650000Y-73844999I0J-249999D01*
G01*
X145650000Y-74745001D01*
G75*
G02*
X145400001Y-74995000I-249999J0D01*
G01*
X144699999Y-74995000D01*
G75*
G02*
X144450000Y-74745001I0J249999D01*
G01*
G37*
%TD*%
%TO.C,R29*%
G36*
G01*
X146450000Y-90620001D02*
X146450000Y-89719999D01*
G75*
G02*
X146699999Y-89470000I249999J0D01*
G01*
X147400001Y-89470000D01*
G75*
G02*
X147650000Y-89719999I0J-249999D01*
G01*
X147650000Y-90620001D01*
G75*
G02*
X147400001Y-90870000I-249999J0D01*
G01*
X146699999Y-90870000D01*
G75*
G02*
X146450000Y-90620001I0J249999D01*
G01*
G37*
G36*
G01*
X144450000Y-90620001D02*
X144450000Y-89719999D01*
G75*
G02*
X144699999Y-89470000I249999J0D01*
G01*
X145400001Y-89470000D01*
G75*
G02*
X145650000Y-89719999I0J-249999D01*
G01*
X145650000Y-90620001D01*
G75*
G02*
X145400001Y-90870000I-249999J0D01*
G01*
X144699999Y-90870000D01*
G75*
G02*
X144450000Y-90620001I0J249999D01*
G01*
G37*
%TD*%
%TO.C,R28*%
G36*
G01*
X139249999Y-73155000D02*
X140150001Y-73155000D01*
G75*
G02*
X140400000Y-73404999I0J-249999D01*
G01*
X140400000Y-74105001D01*
G75*
G02*
X140150001Y-74355000I-249999J0D01*
G01*
X139249999Y-74355000D01*
G75*
G02*
X139000000Y-74105001I0J249999D01*
G01*
X139000000Y-73404999D01*
G75*
G02*
X139249999Y-73155000I249999J0D01*
G01*
G37*
G36*
G01*
X139249999Y-71155000D02*
X140150001Y-71155000D01*
G75*
G02*
X140400000Y-71404999I0J-249999D01*
G01*
X140400000Y-72105001D01*
G75*
G02*
X140150001Y-72355000I-249999J0D01*
G01*
X139249999Y-72355000D01*
G75*
G02*
X139000000Y-72105001I0J249999D01*
G01*
X139000000Y-71404999D01*
G75*
G02*
X139249999Y-71155000I249999J0D01*
G01*
G37*
%TD*%
%TO.C,R27*%
G36*
G01*
X139249999Y-89030000D02*
X140150001Y-89030000D01*
G75*
G02*
X140400000Y-89279999I0J-249999D01*
G01*
X140400000Y-89980001D01*
G75*
G02*
X140150001Y-90230000I-249999J0D01*
G01*
X139249999Y-90230000D01*
G75*
G02*
X139000000Y-89980001I0J249999D01*
G01*
X139000000Y-89279999D01*
G75*
G02*
X139249999Y-89030000I249999J0D01*
G01*
G37*
G36*
G01*
X139249999Y-87030000D02*
X140150001Y-87030000D01*
G75*
G02*
X140400000Y-87279999I0J-249999D01*
G01*
X140400000Y-87980001D01*
G75*
G02*
X140150001Y-88230000I-249999J0D01*
G01*
X139249999Y-88230000D01*
G75*
G02*
X139000000Y-87980001I0J249999D01*
G01*
X139000000Y-87279999D01*
G75*
G02*
X139249999Y-87030000I249999J0D01*
G01*
G37*
%TD*%
%TO.C,R26*%
G36*
G01*
X129089999Y-73155000D02*
X129990001Y-73155000D01*
G75*
G02*
X130240000Y-73404999I0J-249999D01*
G01*
X130240000Y-74105001D01*
G75*
G02*
X129990001Y-74355000I-249999J0D01*
G01*
X129089999Y-74355000D01*
G75*
G02*
X128840000Y-74105001I0J249999D01*
G01*
X128840000Y-73404999D01*
G75*
G02*
X129089999Y-73155000I249999J0D01*
G01*
G37*
G36*
G01*
X129089999Y-71155000D02*
X129990001Y-71155000D01*
G75*
G02*
X130240000Y-71404999I0J-249999D01*
G01*
X130240000Y-72105001D01*
G75*
G02*
X129990001Y-72355000I-249999J0D01*
G01*
X129089999Y-72355000D01*
G75*
G02*
X128840000Y-72105001I0J249999D01*
G01*
X128840000Y-71404999D01*
G75*
G02*
X129089999Y-71155000I249999J0D01*
G01*
G37*
%TD*%
%TO.C,R25*%
G36*
G01*
X129089999Y-89030000D02*
X129990001Y-89030000D01*
G75*
G02*
X130240000Y-89279999I0J-249999D01*
G01*
X130240000Y-89980001D01*
G75*
G02*
X129990001Y-90230000I-249999J0D01*
G01*
X129089999Y-90230000D01*
G75*
G02*
X128840000Y-89980001I0J249999D01*
G01*
X128840000Y-89279999D01*
G75*
G02*
X129089999Y-89030000I249999J0D01*
G01*
G37*
G36*
G01*
X129089999Y-87030000D02*
X129990001Y-87030000D01*
G75*
G02*
X130240000Y-87279999I0J-249999D01*
G01*
X130240000Y-87980001D01*
G75*
G02*
X129990001Y-88230000I-249999J0D01*
G01*
X129089999Y-88230000D01*
G75*
G02*
X128840000Y-87980001I0J249999D01*
G01*
X128840000Y-87279999D01*
G75*
G02*
X129089999Y-87030000I249999J0D01*
G01*
G37*
%TD*%
%TO.C,R24*%
G36*
G01*
X118929999Y-73060000D02*
X119830001Y-73060000D01*
G75*
G02*
X120080000Y-73309999I0J-249999D01*
G01*
X120080000Y-74010001D01*
G75*
G02*
X119830001Y-74260000I-249999J0D01*
G01*
X118929999Y-74260000D01*
G75*
G02*
X118680000Y-74010001I0J249999D01*
G01*
X118680000Y-73309999D01*
G75*
G02*
X118929999Y-73060000I249999J0D01*
G01*
G37*
G36*
G01*
X118929999Y-71060000D02*
X119830001Y-71060000D01*
G75*
G02*
X120080000Y-71309999I0J-249999D01*
G01*
X120080000Y-72010001D01*
G75*
G02*
X119830001Y-72260000I-249999J0D01*
G01*
X118929999Y-72260000D01*
G75*
G02*
X118680000Y-72010001I0J249999D01*
G01*
X118680000Y-71309999D01*
G75*
G02*
X118929999Y-71060000I249999J0D01*
G01*
G37*
%TD*%
%TO.C,R23*%
G36*
G01*
X118929999Y-88935000D02*
X119830001Y-88935000D01*
G75*
G02*
X120080000Y-89184999I0J-249999D01*
G01*
X120080000Y-89885001D01*
G75*
G02*
X119830001Y-90135000I-249999J0D01*
G01*
X118929999Y-90135000D01*
G75*
G02*
X118680000Y-89885001I0J249999D01*
G01*
X118680000Y-89184999D01*
G75*
G02*
X118929999Y-88935000I249999J0D01*
G01*
G37*
G36*
G01*
X118929999Y-86935000D02*
X119830001Y-86935000D01*
G75*
G02*
X120080000Y-87184999I0J-249999D01*
G01*
X120080000Y-87885001D01*
G75*
G02*
X119830001Y-88135000I-249999J0D01*
G01*
X118929999Y-88135000D01*
G75*
G02*
X118680000Y-87885001I0J249999D01*
G01*
X118680000Y-87184999D01*
G75*
G02*
X118929999Y-86935000I249999J0D01*
G01*
G37*
%TD*%
%TO.C,R22*%
G36*
G01*
X136290000Y-74745001D02*
X136290000Y-73844999D01*
G75*
G02*
X136539999Y-73595000I249999J0D01*
G01*
X137240001Y-73595000D01*
G75*
G02*
X137490000Y-73844999I0J-249999D01*
G01*
X137490000Y-74745001D01*
G75*
G02*
X137240001Y-74995000I-249999J0D01*
G01*
X136539999Y-74995000D01*
G75*
G02*
X136290000Y-74745001I0J249999D01*
G01*
G37*
G36*
G01*
X134290000Y-74745001D02*
X134290000Y-73844999D01*
G75*
G02*
X134539999Y-73595000I249999J0D01*
G01*
X135240001Y-73595000D01*
G75*
G02*
X135490000Y-73844999I0J-249999D01*
G01*
X135490000Y-74745001D01*
G75*
G02*
X135240001Y-74995000I-249999J0D01*
G01*
X134539999Y-74995000D01*
G75*
G02*
X134290000Y-74745001I0J249999D01*
G01*
G37*
%TD*%
%TO.C,R21*%
G36*
G01*
X136290000Y-90620001D02*
X136290000Y-89719999D01*
G75*
G02*
X136539999Y-89470000I249999J0D01*
G01*
X137240001Y-89470000D01*
G75*
G02*
X137490000Y-89719999I0J-249999D01*
G01*
X137490000Y-90620001D01*
G75*
G02*
X137240001Y-90870000I-249999J0D01*
G01*
X136539999Y-90870000D01*
G75*
G02*
X136290000Y-90620001I0J249999D01*
G01*
G37*
G36*
G01*
X134290000Y-90620001D02*
X134290000Y-89719999D01*
G75*
G02*
X134539999Y-89470000I249999J0D01*
G01*
X135240001Y-89470000D01*
G75*
G02*
X135490000Y-89719999I0J-249999D01*
G01*
X135490000Y-90620001D01*
G75*
G02*
X135240001Y-90870000I-249999J0D01*
G01*
X134539999Y-90870000D01*
G75*
G02*
X134290000Y-90620001I0J249999D01*
G01*
G37*
%TD*%
%TO.C,R20*%
G36*
G01*
X126130000Y-74745001D02*
X126130000Y-73844999D01*
G75*
G02*
X126379999Y-73595000I249999J0D01*
G01*
X127080001Y-73595000D01*
G75*
G02*
X127330000Y-73844999I0J-249999D01*
G01*
X127330000Y-74745001D01*
G75*
G02*
X127080001Y-74995000I-249999J0D01*
G01*
X126379999Y-74995000D01*
G75*
G02*
X126130000Y-74745001I0J249999D01*
G01*
G37*
G36*
G01*
X124130000Y-74745001D02*
X124130000Y-73844999D01*
G75*
G02*
X124379999Y-73595000I249999J0D01*
G01*
X125080001Y-73595000D01*
G75*
G02*
X125330000Y-73844999I0J-249999D01*
G01*
X125330000Y-74745001D01*
G75*
G02*
X125080001Y-74995000I-249999J0D01*
G01*
X124379999Y-74995000D01*
G75*
G02*
X124130000Y-74745001I0J249999D01*
G01*
G37*
%TD*%
%TO.C,R19*%
G36*
G01*
X126130000Y-90620001D02*
X126130000Y-89719999D01*
G75*
G02*
X126379999Y-89470000I249999J0D01*
G01*
X127080001Y-89470000D01*
G75*
G02*
X127330000Y-89719999I0J-249999D01*
G01*
X127330000Y-90620001D01*
G75*
G02*
X127080001Y-90870000I-249999J0D01*
G01*
X126379999Y-90870000D01*
G75*
G02*
X126130000Y-90620001I0J249999D01*
G01*
G37*
G36*
G01*
X124130000Y-90620001D02*
X124130000Y-89719999D01*
G75*
G02*
X124379999Y-89470000I249999J0D01*
G01*
X125080001Y-89470000D01*
G75*
G02*
X125330000Y-89719999I0J-249999D01*
G01*
X125330000Y-90620001D01*
G75*
G02*
X125080001Y-90870000I-249999J0D01*
G01*
X124379999Y-90870000D01*
G75*
G02*
X124130000Y-90620001I0J249999D01*
G01*
G37*
%TD*%
%TO.C,R18*%
G36*
G01*
X115970000Y-74745001D02*
X115970000Y-73844999D01*
G75*
G02*
X116219999Y-73595000I249999J0D01*
G01*
X116920001Y-73595000D01*
G75*
G02*
X117170000Y-73844999I0J-249999D01*
G01*
X117170000Y-74745001D01*
G75*
G02*
X116920001Y-74995000I-249999J0D01*
G01*
X116219999Y-74995000D01*
G75*
G02*
X115970000Y-74745001I0J249999D01*
G01*
G37*
G36*
G01*
X113970000Y-74745001D02*
X113970000Y-73844999D01*
G75*
G02*
X114219999Y-73595000I249999J0D01*
G01*
X114920001Y-73595000D01*
G75*
G02*
X115170000Y-73844999I0J-249999D01*
G01*
X115170000Y-74745001D01*
G75*
G02*
X114920001Y-74995000I-249999J0D01*
G01*
X114219999Y-74995000D01*
G75*
G02*
X113970000Y-74745001I0J249999D01*
G01*
G37*
%TD*%
%TO.C,R17*%
G36*
G01*
X115970000Y-90620001D02*
X115970000Y-89719999D01*
G75*
G02*
X116219999Y-89470000I249999J0D01*
G01*
X116920001Y-89470000D01*
G75*
G02*
X117170000Y-89719999I0J-249999D01*
G01*
X117170000Y-90620001D01*
G75*
G02*
X116920001Y-90870000I-249999J0D01*
G01*
X116219999Y-90870000D01*
G75*
G02*
X115970000Y-90620001I0J249999D01*
G01*
G37*
G36*
G01*
X113970000Y-90620001D02*
X113970000Y-89719999D01*
G75*
G02*
X114219999Y-89470000I249999J0D01*
G01*
X114920001Y-89470000D01*
G75*
G02*
X115170000Y-89719999I0J-249999D01*
G01*
X115170000Y-90620001D01*
G75*
G02*
X114920001Y-90870000I-249999J0D01*
G01*
X114219999Y-90870000D01*
G75*
G02*
X113970000Y-90620001I0J249999D01*
G01*
G37*
%TD*%
%TO.C,R5*%
G36*
G01*
X155705000Y-119195001D02*
X155705000Y-118294999D01*
G75*
G02*
X155954999Y-118045000I249999J0D01*
G01*
X156655001Y-118045000D01*
G75*
G02*
X156905000Y-118294999I0J-249999D01*
G01*
X156905000Y-119195001D01*
G75*
G02*
X156655001Y-119445000I-249999J0D01*
G01*
X155954999Y-119445000D01*
G75*
G02*
X155705000Y-119195001I0J249999D01*
G01*
G37*
G36*
G01*
X153705000Y-119195001D02*
X153705000Y-118294999D01*
G75*
G02*
X153954999Y-118045000I249999J0D01*
G01*
X154655001Y-118045000D01*
G75*
G02*
X154905000Y-118294999I0J-249999D01*
G01*
X154905000Y-119195001D01*
G75*
G02*
X154655001Y-119445000I-249999J0D01*
G01*
X153954999Y-119445000D01*
G75*
G02*
X153705000Y-119195001I0J249999D01*
G01*
G37*
%TD*%
%TO.C,R4*%
G36*
G01*
X147085000Y-124275001D02*
X147085000Y-123374999D01*
G75*
G02*
X147334999Y-123125000I249999J0D01*
G01*
X148035001Y-123125000D01*
G75*
G02*
X148285000Y-123374999I0J-249999D01*
G01*
X148285000Y-124275001D01*
G75*
G02*
X148035001Y-124525000I-249999J0D01*
G01*
X147334999Y-124525000D01*
G75*
G02*
X147085000Y-124275001I0J249999D01*
G01*
G37*
G36*
G01*
X145085000Y-124275001D02*
X145085000Y-123374999D01*
G75*
G02*
X145334999Y-123125000I249999J0D01*
G01*
X146035001Y-123125000D01*
G75*
G02*
X146285000Y-123374999I0J-249999D01*
G01*
X146285000Y-124275001D01*
G75*
G02*
X146035001Y-124525000I-249999J0D01*
G01*
X145334999Y-124525000D01*
G75*
G02*
X145085000Y-124275001I0J249999D01*
G01*
G37*
%TD*%
%TO.C,R3*%
G36*
G01*
X123374999Y-122320000D02*
X124275001Y-122320000D01*
G75*
G02*
X124525000Y-122569999I0J-249999D01*
G01*
X124525000Y-123270001D01*
G75*
G02*
X124275001Y-123520000I-249999J0D01*
G01*
X123374999Y-123520000D01*
G75*
G02*
X123125000Y-123270001I0J249999D01*
G01*
X123125000Y-122569999D01*
G75*
G02*
X123374999Y-122320000I249999J0D01*
G01*
G37*
G36*
G01*
X123374999Y-120320000D02*
X124275001Y-120320000D01*
G75*
G02*
X124525000Y-120569999I0J-249999D01*
G01*
X124525000Y-121270001D01*
G75*
G02*
X124275001Y-121520000I-249999J0D01*
G01*
X123374999Y-121520000D01*
G75*
G02*
X123125000Y-121270001I0J249999D01*
G01*
X123125000Y-120569999D01*
G75*
G02*
X123374999Y-120320000I249999J0D01*
G01*
G37*
%TD*%
D13*
%TO.C,Q13*%
X165340000Y-84430000D03*
X169940000Y-84430000D03*
X167640000Y-84430000D03*
D14*
X167640000Y-78130000D03*
%TD*%
D13*
%TO.C,Q12*%
X155180000Y-68555000D03*
X159780000Y-68555000D03*
X157480000Y-68555000D03*
D14*
X157480000Y-62255000D03*
%TD*%
D13*
%TO.C,Q11*%
X155180000Y-84430000D03*
X159780000Y-84430000D03*
X157480000Y-84430000D03*
D14*
X157480000Y-78130000D03*
%TD*%
D13*
%TO.C,Q10*%
X145020000Y-68555000D03*
X149620000Y-68555000D03*
X147320000Y-68555000D03*
D14*
X147320000Y-62255000D03*
%TD*%
D13*
%TO.C,Q9*%
X145020000Y-84430000D03*
X149620000Y-84430000D03*
X147320000Y-84430000D03*
D14*
X147320000Y-78130000D03*
%TD*%
D13*
%TO.C,Q8*%
X134860000Y-68555000D03*
X139460000Y-68555000D03*
X137160000Y-68555000D03*
D14*
X137160000Y-62255000D03*
%TD*%
D13*
%TO.C,Q7*%
X134860000Y-84430000D03*
X139460000Y-84430000D03*
X137160000Y-84430000D03*
D14*
X137160000Y-78130000D03*
%TD*%
D13*
%TO.C,Q6*%
X124700000Y-68555000D03*
X129300000Y-68555000D03*
X127000000Y-68555000D03*
D14*
X127000000Y-62255000D03*
%TD*%
D13*
%TO.C,Q5*%
X124700000Y-84430000D03*
X129300000Y-84430000D03*
X127000000Y-84430000D03*
D14*
X127000000Y-78130000D03*
%TD*%
D13*
%TO.C,Q4*%
X114540000Y-68555000D03*
X119140000Y-68555000D03*
X116840000Y-68555000D03*
D14*
X116840000Y-62255000D03*
%TD*%
D13*
%TO.C,Q3*%
X114540000Y-84430000D03*
X119140000Y-84430000D03*
X116840000Y-84430000D03*
D14*
X116840000Y-78130000D03*
%TD*%
D15*
%TO.C,Q1*%
X127405000Y-121920000D03*
X130405000Y-120970000D03*
X130405000Y-122870000D03*
%TD*%
D16*
%TO.C,J4*%
X127635000Y-53975000D03*
X127635000Y-56515000D03*
X125095000Y-53975000D03*
X125095000Y-56515000D03*
X122555000Y-53975000D03*
X122555000Y-56515000D03*
X120015000Y-53975000D03*
X120015000Y-56515000D03*
X117475000Y-53975000D03*
X117475000Y-56515000D03*
X114935000Y-53975000D03*
D11*
X114935000Y-56515000D03*
%TD*%
D10*
%TO.C,J3*%
X163195000Y-121920000D03*
D11*
X160655000Y-121920000D03*
D10*
X165735000Y-121920000D03*
%TD*%
%TO.C,J2*%
X118745000Y-121920000D03*
D11*
X116205000Y-121920000D03*
%TD*%
D16*
%TO.C,MCU1*%
X158750000Y-110490000D03*
X156210000Y-110490000D03*
D10*
X173990000Y-110490000D03*
D16*
X166370000Y-110490000D03*
X171450000Y-110490000D03*
X163830000Y-110490000D03*
X168910000Y-110490000D03*
X161290000Y-110490000D03*
X153670000Y-110490000D03*
X151130000Y-110490000D03*
X148590000Y-110490000D03*
X146050000Y-110490000D03*
X143510000Y-110490000D03*
X140970000Y-110490000D03*
X125730000Y-110490000D03*
X133350000Y-110490000D03*
X135890000Y-110490000D03*
X138430000Y-110490000D03*
X118110000Y-110490000D03*
X130810000Y-110490000D03*
X123190000Y-110490000D03*
X128270000Y-110490000D03*
X120650000Y-110490000D03*
X115570000Y-110490000D03*
X115570000Y-95250000D03*
X118110000Y-95250000D03*
X120650000Y-95250000D03*
X123190000Y-95250000D03*
X125730000Y-95250000D03*
X128270000Y-95250000D03*
X130810000Y-95250000D03*
X133350000Y-95250000D03*
X135890000Y-95250000D03*
X138430000Y-95250000D03*
X140970000Y-95250000D03*
X143510000Y-95250000D03*
X146050000Y-95250000D03*
X148590000Y-95250000D03*
X151130000Y-95250000D03*
X153670000Y-95250000D03*
X156210000Y-95250000D03*
X158750000Y-95250000D03*
X161290000Y-95250000D03*
X163830000Y-95250000D03*
X166370000Y-95250000D03*
X168910000Y-95250000D03*
X171450000Y-95250000D03*
D11*
X173990000Y-95250000D03*
%TD*%
%TO.C,C36*%
G36*
G01*
X166587500Y-88105000D02*
X166587500Y-87155000D01*
G75*
G02*
X166837500Y-86905000I250000J0D01*
G01*
X167512500Y-86905000D01*
G75*
G02*
X167762500Y-87155000I0J-250000D01*
G01*
X167762500Y-88105000D01*
G75*
G02*
X167512500Y-88355000I-250000J0D01*
G01*
X166837500Y-88355000D01*
G75*
G02*
X166587500Y-88105000I0J250000D01*
G01*
G37*
G36*
G01*
X164512500Y-88105000D02*
X164512500Y-87155000D01*
G75*
G02*
X164762500Y-86905000I250000J0D01*
G01*
X165437500Y-86905000D01*
G75*
G02*
X165687500Y-87155000I0J-250000D01*
G01*
X165687500Y-88105000D01*
G75*
G02*
X165437500Y-88355000I-250000J0D01*
G01*
X164762500Y-88355000D01*
G75*
G02*
X164512500Y-88105000I0J250000D01*
G01*
G37*
%TD*%
%TO.C,C35*%
G36*
G01*
X156660000Y-72230000D02*
X156660000Y-71280000D01*
G75*
G02*
X156910000Y-71030000I250000J0D01*
G01*
X157585000Y-71030000D01*
G75*
G02*
X157835000Y-71280000I0J-250000D01*
G01*
X157835000Y-72230000D01*
G75*
G02*
X157585000Y-72480000I-250000J0D01*
G01*
X156910000Y-72480000D01*
G75*
G02*
X156660000Y-72230000I0J250000D01*
G01*
G37*
G36*
G01*
X154585000Y-72230000D02*
X154585000Y-71280000D01*
G75*
G02*
X154835000Y-71030000I250000J0D01*
G01*
X155510000Y-71030000D01*
G75*
G02*
X155760000Y-71280000I0J-250000D01*
G01*
X155760000Y-72230000D01*
G75*
G02*
X155510000Y-72480000I-250000J0D01*
G01*
X154835000Y-72480000D01*
G75*
G02*
X154585000Y-72230000I0J250000D01*
G01*
G37*
%TD*%
%TO.C,C34*%
G36*
G01*
X156660000Y-88105000D02*
X156660000Y-87155000D01*
G75*
G02*
X156910000Y-86905000I250000J0D01*
G01*
X157585000Y-86905000D01*
G75*
G02*
X157835000Y-87155000I0J-250000D01*
G01*
X157835000Y-88105000D01*
G75*
G02*
X157585000Y-88355000I-250000J0D01*
G01*
X156910000Y-88355000D01*
G75*
G02*
X156660000Y-88105000I0J250000D01*
G01*
G37*
G36*
G01*
X154585000Y-88105000D02*
X154585000Y-87155000D01*
G75*
G02*
X154835000Y-86905000I250000J0D01*
G01*
X155510000Y-86905000D01*
G75*
G02*
X155760000Y-87155000I0J-250000D01*
G01*
X155760000Y-88105000D01*
G75*
G02*
X155510000Y-88355000I-250000J0D01*
G01*
X154835000Y-88355000D01*
G75*
G02*
X154585000Y-88105000I0J250000D01*
G01*
G37*
%TD*%
%TO.C,C33*%
G36*
G01*
X146500000Y-72230000D02*
X146500000Y-71280000D01*
G75*
G02*
X146750000Y-71030000I250000J0D01*
G01*
X147425000Y-71030000D01*
G75*
G02*
X147675000Y-71280000I0J-250000D01*
G01*
X147675000Y-72230000D01*
G75*
G02*
X147425000Y-72480000I-250000J0D01*
G01*
X146750000Y-72480000D01*
G75*
G02*
X146500000Y-72230000I0J250000D01*
G01*
G37*
G36*
G01*
X144425000Y-72230000D02*
X144425000Y-71280000D01*
G75*
G02*
X144675000Y-71030000I250000J0D01*
G01*
X145350000Y-71030000D01*
G75*
G02*
X145600000Y-71280000I0J-250000D01*
G01*
X145600000Y-72230000D01*
G75*
G02*
X145350000Y-72480000I-250000J0D01*
G01*
X144675000Y-72480000D01*
G75*
G02*
X144425000Y-72230000I0J250000D01*
G01*
G37*
%TD*%
%TO.C,C32*%
G36*
G01*
X146500000Y-88105000D02*
X146500000Y-87155000D01*
G75*
G02*
X146750000Y-86905000I250000J0D01*
G01*
X147425000Y-86905000D01*
G75*
G02*
X147675000Y-87155000I0J-250000D01*
G01*
X147675000Y-88105000D01*
G75*
G02*
X147425000Y-88355000I-250000J0D01*
G01*
X146750000Y-88355000D01*
G75*
G02*
X146500000Y-88105000I0J250000D01*
G01*
G37*
G36*
G01*
X144425000Y-88105000D02*
X144425000Y-87155000D01*
G75*
G02*
X144675000Y-86905000I250000J0D01*
G01*
X145350000Y-86905000D01*
G75*
G02*
X145600000Y-87155000I0J-250000D01*
G01*
X145600000Y-88105000D01*
G75*
G02*
X145350000Y-88355000I-250000J0D01*
G01*
X144675000Y-88355000D01*
G75*
G02*
X144425000Y-88105000I0J250000D01*
G01*
G37*
%TD*%
%TO.C,C31*%
G36*
G01*
X136340000Y-72230000D02*
X136340000Y-71280000D01*
G75*
G02*
X136590000Y-71030000I250000J0D01*
G01*
X137265000Y-71030000D01*
G75*
G02*
X137515000Y-71280000I0J-250000D01*
G01*
X137515000Y-72230000D01*
G75*
G02*
X137265000Y-72480000I-250000J0D01*
G01*
X136590000Y-72480000D01*
G75*
G02*
X136340000Y-72230000I0J250000D01*
G01*
G37*
G36*
G01*
X134265000Y-72230000D02*
X134265000Y-71280000D01*
G75*
G02*
X134515000Y-71030000I250000J0D01*
G01*
X135190000Y-71030000D01*
G75*
G02*
X135440000Y-71280000I0J-250000D01*
G01*
X135440000Y-72230000D01*
G75*
G02*
X135190000Y-72480000I-250000J0D01*
G01*
X134515000Y-72480000D01*
G75*
G02*
X134265000Y-72230000I0J250000D01*
G01*
G37*
%TD*%
%TO.C,C30*%
G36*
G01*
X136340000Y-88105000D02*
X136340000Y-87155000D01*
G75*
G02*
X136590000Y-86905000I250000J0D01*
G01*
X137265000Y-86905000D01*
G75*
G02*
X137515000Y-87155000I0J-250000D01*
G01*
X137515000Y-88105000D01*
G75*
G02*
X137265000Y-88355000I-250000J0D01*
G01*
X136590000Y-88355000D01*
G75*
G02*
X136340000Y-88105000I0J250000D01*
G01*
G37*
G36*
G01*
X134265000Y-88105000D02*
X134265000Y-87155000D01*
G75*
G02*
X134515000Y-86905000I250000J0D01*
G01*
X135190000Y-86905000D01*
G75*
G02*
X135440000Y-87155000I0J-250000D01*
G01*
X135440000Y-88105000D01*
G75*
G02*
X135190000Y-88355000I-250000J0D01*
G01*
X134515000Y-88355000D01*
G75*
G02*
X134265000Y-88105000I0J250000D01*
G01*
G37*
%TD*%
%TO.C,C29*%
G36*
G01*
X126180000Y-72230000D02*
X126180000Y-71280000D01*
G75*
G02*
X126430000Y-71030000I250000J0D01*
G01*
X127105000Y-71030000D01*
G75*
G02*
X127355000Y-71280000I0J-250000D01*
G01*
X127355000Y-72230000D01*
G75*
G02*
X127105000Y-72480000I-250000J0D01*
G01*
X126430000Y-72480000D01*
G75*
G02*
X126180000Y-72230000I0J250000D01*
G01*
G37*
G36*
G01*
X124105000Y-72230000D02*
X124105000Y-71280000D01*
G75*
G02*
X124355000Y-71030000I250000J0D01*
G01*
X125030000Y-71030000D01*
G75*
G02*
X125280000Y-71280000I0J-250000D01*
G01*
X125280000Y-72230000D01*
G75*
G02*
X125030000Y-72480000I-250000J0D01*
G01*
X124355000Y-72480000D01*
G75*
G02*
X124105000Y-72230000I0J250000D01*
G01*
G37*
%TD*%
%TO.C,C28*%
G36*
G01*
X126180000Y-88105000D02*
X126180000Y-87155000D01*
G75*
G02*
X126430000Y-86905000I250000J0D01*
G01*
X127105000Y-86905000D01*
G75*
G02*
X127355000Y-87155000I0J-250000D01*
G01*
X127355000Y-88105000D01*
G75*
G02*
X127105000Y-88355000I-250000J0D01*
G01*
X126430000Y-88355000D01*
G75*
G02*
X126180000Y-88105000I0J250000D01*
G01*
G37*
G36*
G01*
X124105000Y-88105000D02*
X124105000Y-87155000D01*
G75*
G02*
X124355000Y-86905000I250000J0D01*
G01*
X125030000Y-86905000D01*
G75*
G02*
X125280000Y-87155000I0J-250000D01*
G01*
X125280000Y-88105000D01*
G75*
G02*
X125030000Y-88355000I-250000J0D01*
G01*
X124355000Y-88355000D01*
G75*
G02*
X124105000Y-88105000I0J250000D01*
G01*
G37*
%TD*%
%TO.C,C27*%
G36*
G01*
X116020000Y-72230000D02*
X116020000Y-71280000D01*
G75*
G02*
X116270000Y-71030000I250000J0D01*
G01*
X116945000Y-71030000D01*
G75*
G02*
X117195000Y-71280000I0J-250000D01*
G01*
X117195000Y-72230000D01*
G75*
G02*
X116945000Y-72480000I-250000J0D01*
G01*
X116270000Y-72480000D01*
G75*
G02*
X116020000Y-72230000I0J250000D01*
G01*
G37*
G36*
G01*
X113945000Y-72230000D02*
X113945000Y-71280000D01*
G75*
G02*
X114195000Y-71030000I250000J0D01*
G01*
X114870000Y-71030000D01*
G75*
G02*
X115120000Y-71280000I0J-250000D01*
G01*
X115120000Y-72230000D01*
G75*
G02*
X114870000Y-72480000I-250000J0D01*
G01*
X114195000Y-72480000D01*
G75*
G02*
X113945000Y-72230000I0J250000D01*
G01*
G37*
%TD*%
%TO.C,C26*%
G36*
G01*
X116020000Y-88105000D02*
X116020000Y-87155000D01*
G75*
G02*
X116270000Y-86905000I250000J0D01*
G01*
X116945000Y-86905000D01*
G75*
G02*
X117195000Y-87155000I0J-250000D01*
G01*
X117195000Y-88105000D01*
G75*
G02*
X116945000Y-88355000I-250000J0D01*
G01*
X116270000Y-88355000D01*
G75*
G02*
X116020000Y-88105000I0J250000D01*
G01*
G37*
G36*
G01*
X113945000Y-88105000D02*
X113945000Y-87155000D01*
G75*
G02*
X114195000Y-86905000I250000J0D01*
G01*
X114870000Y-86905000D01*
G75*
G02*
X115120000Y-87155000I0J-250000D01*
G01*
X115120000Y-88105000D01*
G75*
G02*
X114870000Y-88355000I-250000J0D01*
G01*
X114195000Y-88355000D01*
G75*
G02*
X113945000Y-88105000I0J250000D01*
G01*
G37*
%TD*%
%TO.C,C4*%
G36*
G01*
X141765000Y-122772500D02*
X142715000Y-122772500D01*
G75*
G02*
X142965000Y-123022500I0J-250000D01*
G01*
X142965000Y-123697500D01*
G75*
G02*
X142715000Y-123947500I-250000J0D01*
G01*
X141765000Y-123947500D01*
G75*
G02*
X141515000Y-123697500I0J250000D01*
G01*
X141515000Y-123022500D01*
G75*
G02*
X141765000Y-122772500I250000J0D01*
G01*
G37*
G36*
G01*
X141765000Y-120697500D02*
X142715000Y-120697500D01*
G75*
G02*
X142965000Y-120947500I0J-250000D01*
G01*
X142965000Y-121622500D01*
G75*
G02*
X142715000Y-121872500I-250000J0D01*
G01*
X141765000Y-121872500D01*
G75*
G02*
X141515000Y-121622500I0J250000D01*
G01*
X141515000Y-120947500D01*
G75*
G02*
X141765000Y-120697500I250000J0D01*
G01*
G37*
%TD*%
%TO.C,C3*%
G36*
G01*
X142715000Y-115755000D02*
X141765000Y-115755000D01*
G75*
G02*
X141515000Y-115505000I0J250000D01*
G01*
X141515000Y-114830000D01*
G75*
G02*
X141765000Y-114580000I250000J0D01*
G01*
X142715000Y-114580000D01*
G75*
G02*
X142965000Y-114830000I0J-250000D01*
G01*
X142965000Y-115505000D01*
G75*
G02*
X142715000Y-115755000I-250000J0D01*
G01*
G37*
G36*
G01*
X142715000Y-117830000D02*
X141765000Y-117830000D01*
G75*
G02*
X141515000Y-117580000I0J250000D01*
G01*
X141515000Y-116905000D01*
G75*
G02*
X141765000Y-116655000I250000J0D01*
G01*
X142715000Y-116655000D01*
G75*
G02*
X142965000Y-116905000I0J-250000D01*
G01*
X142965000Y-117580000D01*
G75*
G02*
X142715000Y-117830000I-250000J0D01*
G01*
G37*
%TD*%
%TO.C,C2*%
G36*
G01*
X155792500Y-121760000D02*
X155792500Y-120810000D01*
G75*
G02*
X156042500Y-120560000I250000J0D01*
G01*
X156717500Y-120560000D01*
G75*
G02*
X156967500Y-120810000I0J-250000D01*
G01*
X156967500Y-121760000D01*
G75*
G02*
X156717500Y-122010000I-250000J0D01*
G01*
X156042500Y-122010000D01*
G75*
G02*
X155792500Y-121760000I0J250000D01*
G01*
G37*
G36*
G01*
X153717500Y-121760000D02*
X153717500Y-120810000D01*
G75*
G02*
X153967500Y-120560000I250000J0D01*
G01*
X154642500Y-120560000D01*
G75*
G02*
X154892500Y-120810000I0J-250000D01*
G01*
X154892500Y-121760000D01*
G75*
G02*
X154642500Y-122010000I-250000J0D01*
G01*
X153967500Y-122010000D01*
G75*
G02*
X153717500Y-121760000I0J250000D01*
G01*
G37*
%TD*%
%TO.C,C1*%
G36*
G01*
X152215000Y-124300000D02*
X152215000Y-123350000D01*
G75*
G02*
X152465000Y-123100000I250000J0D01*
G01*
X153140000Y-123100000D01*
G75*
G02*
X153390000Y-123350000I0J-250000D01*
G01*
X153390000Y-124300000D01*
G75*
G02*
X153140000Y-124550000I-250000J0D01*
G01*
X152465000Y-124550000D01*
G75*
G02*
X152215000Y-124300000I0J250000D01*
G01*
G37*
G36*
G01*
X150140000Y-124300000D02*
X150140000Y-123350000D01*
G75*
G02*
X150390000Y-123100000I250000J0D01*
G01*
X151065000Y-123100000D01*
G75*
G02*
X151315000Y-123350000I0J-250000D01*
G01*
X151315000Y-124300000D01*
G75*
G02*
X151065000Y-124550000I-250000J0D01*
G01*
X150390000Y-124550000D01*
G75*
G02*
X150140000Y-124300000I0J250000D01*
G01*
G37*
%TD*%
M02*
