%TF.GenerationSoftware,KiCad,Pcbnew,(5.1.9)-1*%
%TF.CreationDate,2021-08-30T22:29:05-04:00*%
%TF.ProjectId,In9 Music Visualizer RevC,496e3920-4d75-4736-9963-205669737561,rev?*%
%TF.SameCoordinates,Original*%
%TF.FileFunction,Soldermask,Bot*%
%TF.FilePolarity,Negative*%
%FSLAX46Y46*%
G04 Gerber Fmt 4.6, Leading zero omitted, Abs format (unit mm)*
G04 Created by KiCad (PCBNEW (5.1.9)-1) date 2021-08-30 22:29:05*
%MOMM*%
%LPD*%
G01*
G04 APERTURE LIST*
%ADD10C,1.700000*%
%ADD11R,1.700000X1.700000*%
%ADD12C,5.715000*%
%ADD13O,1.700000X1.700000*%
G04 APERTURE END LIST*
D10*
%TO.C,J6*%
X106680000Y-111125000D03*
D11*
X106680000Y-108585000D03*
D10*
X106680000Y-113665000D03*
%TD*%
D12*
%TO.C,REF\u002A\u002A*%
X172720000Y-121920000D03*
%TD*%
%TO.C,REF\u002A\u002A*%
X172720000Y-55880000D03*
%TD*%
%TO.C,REF\u002A\u002A*%
X106680000Y-121920000D03*
%TD*%
%TO.C,REF\u002A\u002A*%
X106680000Y-55880000D03*
%TD*%
%TO.C,R1*%
G36*
G01*
X146285000Y-123374999D02*
X146285000Y-124275001D01*
G75*
G02*
X146035001Y-124525000I-249999J0D01*
G01*
X145334999Y-124525000D01*
G75*
G02*
X145085000Y-124275001I0J249999D01*
G01*
X145085000Y-123374999D01*
G75*
G02*
X145334999Y-123125000I249999J0D01*
G01*
X146035001Y-123125000D01*
G75*
G02*
X146285000Y-123374999I0J-249999D01*
G01*
G37*
G36*
G01*
X148285000Y-123374999D02*
X148285000Y-124275001D01*
G75*
G02*
X148035001Y-124525000I-249999J0D01*
G01*
X147334999Y-124525000D01*
G75*
G02*
X147085000Y-124275001I0J249999D01*
G01*
X147085000Y-123374999D01*
G75*
G02*
X147334999Y-123125000I249999J0D01*
G01*
X148035001Y-123125000D01*
G75*
G02*
X148285000Y-123374999I0J-249999D01*
G01*
G37*
%TD*%
D13*
%TO.C,J4*%
X127635000Y-53975000D03*
X127635000Y-56515000D03*
X125095000Y-53975000D03*
X125095000Y-56515000D03*
X122555000Y-53975000D03*
X122555000Y-56515000D03*
X120015000Y-53975000D03*
X120015000Y-56515000D03*
X117475000Y-53975000D03*
X117475000Y-56515000D03*
X114935000Y-53975000D03*
D11*
X114935000Y-56515000D03*
%TD*%
D10*
%TO.C,J3*%
X163195000Y-121920000D03*
D11*
X160655000Y-121920000D03*
D10*
X165735000Y-121920000D03*
%TD*%
%TO.C,J2*%
X118745000Y-121920000D03*
D11*
X116205000Y-121920000D03*
%TD*%
D13*
%TO.C,MCU1*%
X158750000Y-110490000D03*
X156210000Y-110490000D03*
D10*
X173990000Y-110490000D03*
D13*
X166370000Y-110490000D03*
X171450000Y-110490000D03*
X163830000Y-110490000D03*
X168910000Y-110490000D03*
X161290000Y-110490000D03*
X153670000Y-110490000D03*
X151130000Y-110490000D03*
X148590000Y-110490000D03*
X146050000Y-110490000D03*
X143510000Y-110490000D03*
X140970000Y-110490000D03*
X125730000Y-110490000D03*
X133350000Y-110490000D03*
X135890000Y-110490000D03*
X138430000Y-110490000D03*
X118110000Y-110490000D03*
X130810000Y-110490000D03*
X123190000Y-110490000D03*
X128270000Y-110490000D03*
X120650000Y-110490000D03*
X115570000Y-110490000D03*
X115570000Y-95250000D03*
X118110000Y-95250000D03*
X120650000Y-95250000D03*
X123190000Y-95250000D03*
X125730000Y-95250000D03*
X128270000Y-95250000D03*
X130810000Y-95250000D03*
X133350000Y-95250000D03*
X135890000Y-95250000D03*
X138430000Y-95250000D03*
X140970000Y-95250000D03*
X143510000Y-95250000D03*
X146050000Y-95250000D03*
X148590000Y-95250000D03*
X151130000Y-95250000D03*
X153670000Y-95250000D03*
X156210000Y-95250000D03*
X158750000Y-95250000D03*
X161290000Y-95250000D03*
X163830000Y-95250000D03*
X166370000Y-95250000D03*
X168910000Y-95250000D03*
X171450000Y-95250000D03*
D11*
X173990000Y-95250000D03*
%TD*%
M02*
