%TF.GenerationSoftware,KiCad,Pcbnew,(5.1.9)-1*%
%TF.CreationDate,2021-08-30T22:29:05-04:00*%
%TF.ProjectId,In9 Music Visualizer RevC,496e3920-4d75-4736-9963-205669737561,rev?*%
%TF.SameCoordinates,Original*%
%TF.FileFunction,Copper,L1,Top*%
%TF.FilePolarity,Positive*%
%FSLAX46Y46*%
G04 Gerber Fmt 4.6, Leading zero omitted, Abs format (unit mm)*
G04 Created by KiCad (PCBNEW (5.1.9)-1) date 2021-08-30 22:29:05*
%MOMM*%
%LPD*%
G01*
G04 APERTURE LIST*
%TA.AperFunction,NonConductor*%
%ADD10C,0.300000*%
%TD*%
%TA.AperFunction,EtchedComponent*%
%ADD11C,0.381000*%
%TD*%
%TA.AperFunction,ComponentPad*%
%ADD12C,1.700000*%
%TD*%
%TA.AperFunction,ComponentPad*%
%ADD13R,1.700000X1.700000*%
%TD*%
%TA.AperFunction,ComponentPad*%
%ADD14C,5.715000*%
%TD*%
%TA.AperFunction,SMDPad,CuDef*%
%ADD15R,1.500000X2.000000*%
%TD*%
%TA.AperFunction,SMDPad,CuDef*%
%ADD16R,3.800000X2.000000*%
%TD*%
%TA.AperFunction,SMDPad,CuDef*%
%ADD17R,1.900000X0.800000*%
%TD*%
%TA.AperFunction,ComponentPad*%
%ADD18O,1.700000X1.700000*%
%TD*%
%TA.AperFunction,ViaPad*%
%ADD19C,0.762000*%
%TD*%
%TA.AperFunction,ViaPad*%
%ADD20C,0.800000*%
%TD*%
%TA.AperFunction,Conductor*%
%ADD21C,0.254000*%
%TD*%
%TA.AperFunction,Conductor*%
%ADD22C,0.762000*%
%TD*%
%TA.AperFunction,Conductor*%
%ADD23C,0.508000*%
%TD*%
%TA.AperFunction,Conductor*%
%ADD24C,0.250000*%
%TD*%
G04 APERTURE END LIST*
D10*
X105366428Y-65707571D02*
X106866428Y-65707571D01*
X106152142Y-65707571D02*
X106152142Y-66564714D01*
X105366428Y-66564714D02*
X106866428Y-66564714D01*
X105366428Y-67279000D02*
X106866428Y-67279000D01*
X106795000Y-68779000D02*
X106866428Y-68636142D01*
X106866428Y-68421857D01*
X106795000Y-68207571D01*
X106652142Y-68064714D01*
X106509285Y-67993285D01*
X106223571Y-67921857D01*
X106009285Y-67921857D01*
X105723571Y-67993285D01*
X105580714Y-68064714D01*
X105437857Y-68207571D01*
X105366428Y-68421857D01*
X105366428Y-68564714D01*
X105437857Y-68779000D01*
X105509285Y-68850428D01*
X106009285Y-68850428D01*
X106009285Y-68564714D01*
X105366428Y-69493285D02*
X106866428Y-69493285D01*
X106152142Y-69493285D02*
X106152142Y-70350428D01*
X105366428Y-70350428D02*
X106866428Y-70350428D01*
X106866428Y-71993285D02*
X105366428Y-72493285D01*
X106866428Y-72993285D01*
X106866428Y-73779000D02*
X106866428Y-74064714D01*
X106795000Y-74207571D01*
X106652142Y-74350428D01*
X106366428Y-74421857D01*
X105866428Y-74421857D01*
X105580714Y-74350428D01*
X105437857Y-74207571D01*
X105366428Y-74064714D01*
X105366428Y-73779000D01*
X105437857Y-73636142D01*
X105580714Y-73493285D01*
X105866428Y-73421857D01*
X106366428Y-73421857D01*
X106652142Y-73493285D01*
X106795000Y-73636142D01*
X106866428Y-73779000D01*
X105366428Y-75779000D02*
X105366428Y-75064714D01*
X106866428Y-75064714D01*
X106866428Y-76064714D02*
X106866428Y-76921857D01*
X105366428Y-76493285D02*
X106866428Y-76493285D01*
X105795000Y-77350428D02*
X105795000Y-78064714D01*
X105366428Y-77207571D02*
X106866428Y-77707571D01*
X105366428Y-78207571D01*
X106795000Y-79493285D02*
X106866428Y-79350428D01*
X106866428Y-79136142D01*
X106795000Y-78921857D01*
X106652142Y-78779000D01*
X106509285Y-78707571D01*
X106223571Y-78636142D01*
X106009285Y-78636142D01*
X105723571Y-78707571D01*
X105580714Y-78779000D01*
X105437857Y-78921857D01*
X105366428Y-79136142D01*
X105366428Y-79279000D01*
X105437857Y-79493285D01*
X105509285Y-79564714D01*
X106009285Y-79564714D01*
X106009285Y-79279000D01*
X106152142Y-80207571D02*
X106152142Y-80707571D01*
X105366428Y-80921857D02*
X105366428Y-80207571D01*
X106866428Y-80207571D01*
X106866428Y-80921857D01*
D11*
%TO.C,REF\u002A\u002A*%
X104521000Y-83312000D02*
X105029000Y-83185000D01*
X106807000Y-84455000D02*
X104521000Y-83312000D01*
X106807000Y-83058000D02*
X106807000Y-84455000D01*
X109093000Y-84582000D02*
X106807000Y-83058000D01*
X108712000Y-84836000D02*
X109220000Y-84709000D01*
X109220000Y-85598000D02*
X108712000Y-84836000D01*
X107188000Y-83820000D02*
X109220000Y-85598000D01*
X107188000Y-85090000D02*
X107188000Y-83820000D01*
X104394000Y-83312000D02*
X107188000Y-85090000D01*
X104648000Y-83820000D02*
X104394000Y-83312000D01*
X104013000Y-83058000D02*
X104648000Y-83820000D01*
X105029000Y-83185000D02*
X104013000Y-83058000D01*
X106934000Y-83439000D02*
X106934000Y-84709000D01*
X108839000Y-84836000D02*
X106934000Y-83439000D01*
X104648000Y-61976000D02*
X105156000Y-61849000D01*
X106934000Y-63119000D02*
X104648000Y-61976000D01*
X106934000Y-61722000D02*
X106934000Y-63119000D01*
X109220000Y-63246000D02*
X106934000Y-61722000D01*
X108839000Y-63500000D02*
X109347000Y-63373000D01*
X109347000Y-64262000D02*
X108839000Y-63500000D01*
X107315000Y-62484000D02*
X109347000Y-64262000D01*
X107315000Y-63754000D02*
X107315000Y-62484000D01*
X104521000Y-61976000D02*
X107315000Y-63754000D01*
X104775000Y-62484000D02*
X104521000Y-61976000D01*
X104140000Y-61722000D02*
X104775000Y-62484000D01*
X105156000Y-61849000D02*
X104140000Y-61722000D01*
X107061000Y-62103000D02*
X107061000Y-63373000D01*
X108966000Y-63500000D02*
X107061000Y-62103000D01*
%TD*%
D12*
%TO.P,J6,2*%
%TO.N,+5V*%
X106680000Y-111125000D03*
D13*
%TO.P,J6,1*%
%TO.N,150V*%
X106680000Y-108585000D03*
D12*
%TO.P,J6,3*%
%TO.N,GND*%
X106680000Y-113665000D03*
%TD*%
%TO.P,R6,2*%
%TO.N,GND*%
%TA.AperFunction,SMDPad,CuDef*%
G36*
G01*
X140150001Y-115805000D02*
X139249999Y-115805000D01*
G75*
G02*
X139000000Y-115555001I0J249999D01*
G01*
X139000000Y-114854999D01*
G75*
G02*
X139249999Y-114605000I249999J0D01*
G01*
X140150001Y-114605000D01*
G75*
G02*
X140400000Y-114854999I0J-249999D01*
G01*
X140400000Y-115555001D01*
G75*
G02*
X140150001Y-115805000I-249999J0D01*
G01*
G37*
%TD.AperFunction*%
%TO.P,R6,1*%
%TO.N,/0.625V*%
%TA.AperFunction,SMDPad,CuDef*%
G36*
G01*
X140150001Y-117805000D02*
X139249999Y-117805000D01*
G75*
G02*
X139000000Y-117555001I0J249999D01*
G01*
X139000000Y-116854999D01*
G75*
G02*
X139249999Y-116605000I249999J0D01*
G01*
X140150001Y-116605000D01*
G75*
G02*
X140400000Y-116854999I0J-249999D01*
G01*
X140400000Y-117555001D01*
G75*
G02*
X140150001Y-117805000I-249999J0D01*
G01*
G37*
%TD.AperFunction*%
%TD*%
%TO.P,R2,2*%
%TO.N,/0.625V*%
%TA.AperFunction,SMDPad,CuDef*%
G36*
G01*
X140150001Y-119885000D02*
X139249999Y-119885000D01*
G75*
G02*
X139000000Y-119635001I0J249999D01*
G01*
X139000000Y-118934999D01*
G75*
G02*
X139249999Y-118685000I249999J0D01*
G01*
X140150001Y-118685000D01*
G75*
G02*
X140400000Y-118934999I0J-249999D01*
G01*
X140400000Y-119635001D01*
G75*
G02*
X140150001Y-119885000I-249999J0D01*
G01*
G37*
%TD.AperFunction*%
%TO.P,R2,1*%
%TO.N,+5V*%
%TA.AperFunction,SMDPad,CuDef*%
G36*
G01*
X140150001Y-121885000D02*
X139249999Y-121885000D01*
G75*
G02*
X139000000Y-121635001I0J249999D01*
G01*
X139000000Y-120934999D01*
G75*
G02*
X139249999Y-120685000I249999J0D01*
G01*
X140150001Y-120685000D01*
G75*
G02*
X140400000Y-120934999I0J-249999D01*
G01*
X140400000Y-121635001D01*
G75*
G02*
X140150001Y-121885000I-249999J0D01*
G01*
G37*
%TD.AperFunction*%
%TD*%
D14*
%TO.P,REF\u002A\u002A,1*%
%TO.N,N/C*%
X172720000Y-121920000D03*
%TD*%
%TO.P,REF\u002A\u002A,1*%
%TO.N,N/C*%
X172720000Y-55880000D03*
%TD*%
%TO.P,REF\u002A\u002A,1*%
%TO.N,N/C*%
X106680000Y-121920000D03*
%TD*%
%TO.P,REF\u002A\u002A,1*%
%TO.N,N/C*%
X106680000Y-55880000D03*
%TD*%
%TO.P,U1,8*%
%TO.N,+5V*%
%TA.AperFunction,SMDPad,CuDef*%
G36*
G01*
X146455000Y-121135000D02*
X146455000Y-121435000D01*
G75*
G02*
X146305000Y-121585000I-150000J0D01*
G01*
X144655000Y-121585000D01*
G75*
G02*
X144505000Y-121435000I0J150000D01*
G01*
X144505000Y-121135000D01*
G75*
G02*
X144655000Y-120985000I150000J0D01*
G01*
X146305000Y-120985000D01*
G75*
G02*
X146455000Y-121135000I0J-150000D01*
G01*
G37*
%TD.AperFunction*%
%TO.P,U1,7*%
%TO.N,/ADC_in*%
%TA.AperFunction,SMDPad,CuDef*%
G36*
G01*
X146455000Y-119865000D02*
X146455000Y-120165000D01*
G75*
G02*
X146305000Y-120315000I-150000J0D01*
G01*
X144655000Y-120315000D01*
G75*
G02*
X144505000Y-120165000I0J150000D01*
G01*
X144505000Y-119865000D01*
G75*
G02*
X144655000Y-119715000I150000J0D01*
G01*
X146305000Y-119715000D01*
G75*
G02*
X146455000Y-119865000I0J-150000D01*
G01*
G37*
%TD.AperFunction*%
%TO.P,U1,6*%
%TO.N,Net-(R1-Pad2)*%
%TA.AperFunction,SMDPad,CuDef*%
G36*
G01*
X146455000Y-118595000D02*
X146455000Y-118895000D01*
G75*
G02*
X146305000Y-119045000I-150000J0D01*
G01*
X144655000Y-119045000D01*
G75*
G02*
X144505000Y-118895000I0J150000D01*
G01*
X144505000Y-118595000D01*
G75*
G02*
X144655000Y-118445000I150000J0D01*
G01*
X146305000Y-118445000D01*
G75*
G02*
X146455000Y-118595000I0J-150000D01*
G01*
G37*
%TD.AperFunction*%
%TO.P,U1,5*%
%TO.N,/0.625V*%
%TA.AperFunction,SMDPad,CuDef*%
G36*
G01*
X146455000Y-117325000D02*
X146455000Y-117625000D01*
G75*
G02*
X146305000Y-117775000I-150000J0D01*
G01*
X144655000Y-117775000D01*
G75*
G02*
X144505000Y-117625000I0J150000D01*
G01*
X144505000Y-117325000D01*
G75*
G02*
X144655000Y-117175000I150000J0D01*
G01*
X146305000Y-117175000D01*
G75*
G02*
X146455000Y-117325000I0J-150000D01*
G01*
G37*
%TD.AperFunction*%
%TO.P,U1,4*%
%TO.N,GND*%
%TA.AperFunction,SMDPad,CuDef*%
G36*
G01*
X151405000Y-117325000D02*
X151405000Y-117625000D01*
G75*
G02*
X151255000Y-117775000I-150000J0D01*
G01*
X149605000Y-117775000D01*
G75*
G02*
X149455000Y-117625000I0J150000D01*
G01*
X149455000Y-117325000D01*
G75*
G02*
X149605000Y-117175000I150000J0D01*
G01*
X151255000Y-117175000D01*
G75*
G02*
X151405000Y-117325000I0J-150000D01*
G01*
G37*
%TD.AperFunction*%
%TO.P,U1,3*%
%TO.N,Net-(C2-Pad1)*%
%TA.AperFunction,SMDPad,CuDef*%
G36*
G01*
X151405000Y-118595000D02*
X151405000Y-118895000D01*
G75*
G02*
X151255000Y-119045000I-150000J0D01*
G01*
X149605000Y-119045000D01*
G75*
G02*
X149455000Y-118895000I0J150000D01*
G01*
X149455000Y-118595000D01*
G75*
G02*
X149605000Y-118445000I150000J0D01*
G01*
X151255000Y-118445000D01*
G75*
G02*
X151405000Y-118595000I0J-150000D01*
G01*
G37*
%TD.AperFunction*%
%TO.P,U1,2*%
%TO.N,Net-(C1-Pad2)*%
%TA.AperFunction,SMDPad,CuDef*%
G36*
G01*
X151405000Y-119865000D02*
X151405000Y-120165000D01*
G75*
G02*
X151255000Y-120315000I-150000J0D01*
G01*
X149605000Y-120315000D01*
G75*
G02*
X149455000Y-120165000I0J150000D01*
G01*
X149455000Y-119865000D01*
G75*
G02*
X149605000Y-119715000I150000J0D01*
G01*
X151255000Y-119715000D01*
G75*
G02*
X151405000Y-119865000I0J-150000D01*
G01*
G37*
%TD.AperFunction*%
%TO.P,U1,1*%
%TA.AperFunction,SMDPad,CuDef*%
G36*
G01*
X151405000Y-121135000D02*
X151405000Y-121435000D01*
G75*
G02*
X151255000Y-121585000I-150000J0D01*
G01*
X149605000Y-121585000D01*
G75*
G02*
X149455000Y-121435000I0J150000D01*
G01*
X149455000Y-121135000D01*
G75*
G02*
X149605000Y-120985000I150000J0D01*
G01*
X151255000Y-120985000D01*
G75*
G02*
X151405000Y-121135000I0J-150000D01*
G01*
G37*
%TD.AperFunction*%
%TD*%
%TO.P,R38,2*%
%TO.N,GND*%
%TA.AperFunction,SMDPad,CuDef*%
G36*
G01*
X169729999Y-89030000D02*
X170630001Y-89030000D01*
G75*
G02*
X170880000Y-89279999I0J-249999D01*
G01*
X170880000Y-89980001D01*
G75*
G02*
X170630001Y-90230000I-249999J0D01*
G01*
X169729999Y-90230000D01*
G75*
G02*
X169480000Y-89980001I0J249999D01*
G01*
X169480000Y-89279999D01*
G75*
G02*
X169729999Y-89030000I249999J0D01*
G01*
G37*
%TD.AperFunction*%
%TO.P,R38,1*%
%TO.N,Net-(Q13-Pad3)*%
%TA.AperFunction,SMDPad,CuDef*%
G36*
G01*
X169729999Y-87030000D02*
X170630001Y-87030000D01*
G75*
G02*
X170880000Y-87279999I0J-249999D01*
G01*
X170880000Y-87980001D01*
G75*
G02*
X170630001Y-88230000I-249999J0D01*
G01*
X169729999Y-88230000D01*
G75*
G02*
X169480000Y-87980001I0J249999D01*
G01*
X169480000Y-87279999D01*
G75*
G02*
X169729999Y-87030000I249999J0D01*
G01*
G37*
%TD.AperFunction*%
%TD*%
%TO.P,R37,2*%
%TO.N,GND*%
%TA.AperFunction,SMDPad,CuDef*%
G36*
G01*
X159823999Y-73282000D02*
X160724001Y-73282000D01*
G75*
G02*
X160974000Y-73531999I0J-249999D01*
G01*
X160974000Y-74232001D01*
G75*
G02*
X160724001Y-74482000I-249999J0D01*
G01*
X159823999Y-74482000D01*
G75*
G02*
X159574000Y-74232001I0J249999D01*
G01*
X159574000Y-73531999D01*
G75*
G02*
X159823999Y-73282000I249999J0D01*
G01*
G37*
%TD.AperFunction*%
%TO.P,R37,1*%
%TO.N,Net-(Q12-Pad3)*%
%TA.AperFunction,SMDPad,CuDef*%
G36*
G01*
X159823999Y-71282000D02*
X160724001Y-71282000D01*
G75*
G02*
X160974000Y-71531999I0J-249999D01*
G01*
X160974000Y-72232001D01*
G75*
G02*
X160724001Y-72482000I-249999J0D01*
G01*
X159823999Y-72482000D01*
G75*
G02*
X159574000Y-72232001I0J249999D01*
G01*
X159574000Y-71531999D01*
G75*
G02*
X159823999Y-71282000I249999J0D01*
G01*
G37*
%TD.AperFunction*%
%TD*%
%TO.P,R36,2*%
%TO.N,GND*%
%TA.AperFunction,SMDPad,CuDef*%
G36*
G01*
X159569999Y-89030000D02*
X160470001Y-89030000D01*
G75*
G02*
X160720000Y-89279999I0J-249999D01*
G01*
X160720000Y-89980001D01*
G75*
G02*
X160470001Y-90230000I-249999J0D01*
G01*
X159569999Y-90230000D01*
G75*
G02*
X159320000Y-89980001I0J249999D01*
G01*
X159320000Y-89279999D01*
G75*
G02*
X159569999Y-89030000I249999J0D01*
G01*
G37*
%TD.AperFunction*%
%TO.P,R36,1*%
%TO.N,Net-(Q11-Pad3)*%
%TA.AperFunction,SMDPad,CuDef*%
G36*
G01*
X159569999Y-87030000D02*
X160470001Y-87030000D01*
G75*
G02*
X160720000Y-87279999I0J-249999D01*
G01*
X160720000Y-87980001D01*
G75*
G02*
X160470001Y-88230000I-249999J0D01*
G01*
X159569999Y-88230000D01*
G75*
G02*
X159320000Y-87980001I0J249999D01*
G01*
X159320000Y-87279999D01*
G75*
G02*
X159569999Y-87030000I249999J0D01*
G01*
G37*
%TD.AperFunction*%
%TD*%
%TO.P,R35,2*%
%TO.N,GND*%
%TA.AperFunction,SMDPad,CuDef*%
G36*
G01*
X149409999Y-73425000D02*
X150310001Y-73425000D01*
G75*
G02*
X150560000Y-73674999I0J-249999D01*
G01*
X150560000Y-74375001D01*
G75*
G02*
X150310001Y-74625000I-249999J0D01*
G01*
X149409999Y-74625000D01*
G75*
G02*
X149160000Y-74375001I0J249999D01*
G01*
X149160000Y-73674999D01*
G75*
G02*
X149409999Y-73425000I249999J0D01*
G01*
G37*
%TD.AperFunction*%
%TO.P,R35,1*%
%TO.N,Net-(Q10-Pad3)*%
%TA.AperFunction,SMDPad,CuDef*%
G36*
G01*
X149409999Y-71425000D02*
X150310001Y-71425000D01*
G75*
G02*
X150560000Y-71674999I0J-249999D01*
G01*
X150560000Y-72375001D01*
G75*
G02*
X150310001Y-72625000I-249999J0D01*
G01*
X149409999Y-72625000D01*
G75*
G02*
X149160000Y-72375001I0J249999D01*
G01*
X149160000Y-71674999D01*
G75*
G02*
X149409999Y-71425000I249999J0D01*
G01*
G37*
%TD.AperFunction*%
%TD*%
%TO.P,R34,2*%
%TO.N,GND*%
%TA.AperFunction,SMDPad,CuDef*%
G36*
G01*
X149409999Y-89030000D02*
X150310001Y-89030000D01*
G75*
G02*
X150560000Y-89279999I0J-249999D01*
G01*
X150560000Y-89980001D01*
G75*
G02*
X150310001Y-90230000I-249999J0D01*
G01*
X149409999Y-90230000D01*
G75*
G02*
X149160000Y-89980001I0J249999D01*
G01*
X149160000Y-89279999D01*
G75*
G02*
X149409999Y-89030000I249999J0D01*
G01*
G37*
%TD.AperFunction*%
%TO.P,R34,1*%
%TO.N,Net-(Q9-Pad3)*%
%TA.AperFunction,SMDPad,CuDef*%
G36*
G01*
X149409999Y-87030000D02*
X150310001Y-87030000D01*
G75*
G02*
X150560000Y-87279999I0J-249999D01*
G01*
X150560000Y-87980001D01*
G75*
G02*
X150310001Y-88230000I-249999J0D01*
G01*
X149409999Y-88230000D01*
G75*
G02*
X149160000Y-87980001I0J249999D01*
G01*
X149160000Y-87279999D01*
G75*
G02*
X149409999Y-87030000I249999J0D01*
G01*
G37*
%TD.AperFunction*%
%TD*%
%TO.P,R33,2*%
%TO.N,/PWM_10*%
%TA.AperFunction,SMDPad,CuDef*%
G36*
G01*
X166500000Y-90620001D02*
X166500000Y-89719999D01*
G75*
G02*
X166749999Y-89470000I249999J0D01*
G01*
X167450001Y-89470000D01*
G75*
G02*
X167700000Y-89719999I0J-249999D01*
G01*
X167700000Y-90620001D01*
G75*
G02*
X167450001Y-90870000I-249999J0D01*
G01*
X166749999Y-90870000D01*
G75*
G02*
X166500000Y-90620001I0J249999D01*
G01*
G37*
%TD.AperFunction*%
%TO.P,R33,1*%
%TO.N,Net-(C36-Pad1)*%
%TA.AperFunction,SMDPad,CuDef*%
G36*
G01*
X164500000Y-90620001D02*
X164500000Y-89719999D01*
G75*
G02*
X164749999Y-89470000I249999J0D01*
G01*
X165450001Y-89470000D01*
G75*
G02*
X165700000Y-89719999I0J-249999D01*
G01*
X165700000Y-90620001D01*
G75*
G02*
X165450001Y-90870000I-249999J0D01*
G01*
X164749999Y-90870000D01*
G75*
G02*
X164500000Y-90620001I0J249999D01*
G01*
G37*
%TD.AperFunction*%
%TD*%
%TO.P,R32,2*%
%TO.N,/PWM_9*%
%TA.AperFunction,SMDPad,CuDef*%
G36*
G01*
X156610000Y-74745001D02*
X156610000Y-73844999D01*
G75*
G02*
X156859999Y-73595000I249999J0D01*
G01*
X157560001Y-73595000D01*
G75*
G02*
X157810000Y-73844999I0J-249999D01*
G01*
X157810000Y-74745001D01*
G75*
G02*
X157560001Y-74995000I-249999J0D01*
G01*
X156859999Y-74995000D01*
G75*
G02*
X156610000Y-74745001I0J249999D01*
G01*
G37*
%TD.AperFunction*%
%TO.P,R32,1*%
%TO.N,Net-(C35-Pad1)*%
%TA.AperFunction,SMDPad,CuDef*%
G36*
G01*
X154610000Y-74745001D02*
X154610000Y-73844999D01*
G75*
G02*
X154859999Y-73595000I249999J0D01*
G01*
X155560001Y-73595000D01*
G75*
G02*
X155810000Y-73844999I0J-249999D01*
G01*
X155810000Y-74745001D01*
G75*
G02*
X155560001Y-74995000I-249999J0D01*
G01*
X154859999Y-74995000D01*
G75*
G02*
X154610000Y-74745001I0J249999D01*
G01*
G37*
%TD.AperFunction*%
%TD*%
%TO.P,R31,2*%
%TO.N,/PWM_8*%
%TA.AperFunction,SMDPad,CuDef*%
G36*
G01*
X156610000Y-90620001D02*
X156610000Y-89719999D01*
G75*
G02*
X156859999Y-89470000I249999J0D01*
G01*
X157560001Y-89470000D01*
G75*
G02*
X157810000Y-89719999I0J-249999D01*
G01*
X157810000Y-90620001D01*
G75*
G02*
X157560001Y-90870000I-249999J0D01*
G01*
X156859999Y-90870000D01*
G75*
G02*
X156610000Y-90620001I0J249999D01*
G01*
G37*
%TD.AperFunction*%
%TO.P,R31,1*%
%TO.N,Net-(C34-Pad1)*%
%TA.AperFunction,SMDPad,CuDef*%
G36*
G01*
X154610000Y-90620001D02*
X154610000Y-89719999D01*
G75*
G02*
X154859999Y-89470000I249999J0D01*
G01*
X155560001Y-89470000D01*
G75*
G02*
X155810000Y-89719999I0J-249999D01*
G01*
X155810000Y-90620001D01*
G75*
G02*
X155560001Y-90870000I-249999J0D01*
G01*
X154859999Y-90870000D01*
G75*
G02*
X154610000Y-90620001I0J249999D01*
G01*
G37*
%TD.AperFunction*%
%TD*%
%TO.P,R30,2*%
%TO.N,/PWM_7*%
%TA.AperFunction,SMDPad,CuDef*%
G36*
G01*
X146450000Y-74745001D02*
X146450000Y-73844999D01*
G75*
G02*
X146699999Y-73595000I249999J0D01*
G01*
X147400001Y-73595000D01*
G75*
G02*
X147650000Y-73844999I0J-249999D01*
G01*
X147650000Y-74745001D01*
G75*
G02*
X147400001Y-74995000I-249999J0D01*
G01*
X146699999Y-74995000D01*
G75*
G02*
X146450000Y-74745001I0J249999D01*
G01*
G37*
%TD.AperFunction*%
%TO.P,R30,1*%
%TO.N,Net-(C33-Pad1)*%
%TA.AperFunction,SMDPad,CuDef*%
G36*
G01*
X144450000Y-74745001D02*
X144450000Y-73844999D01*
G75*
G02*
X144699999Y-73595000I249999J0D01*
G01*
X145400001Y-73595000D01*
G75*
G02*
X145650000Y-73844999I0J-249999D01*
G01*
X145650000Y-74745001D01*
G75*
G02*
X145400001Y-74995000I-249999J0D01*
G01*
X144699999Y-74995000D01*
G75*
G02*
X144450000Y-74745001I0J249999D01*
G01*
G37*
%TD.AperFunction*%
%TD*%
%TO.P,R29,2*%
%TO.N,/PWM_6*%
%TA.AperFunction,SMDPad,CuDef*%
G36*
G01*
X146450000Y-90620001D02*
X146450000Y-89719999D01*
G75*
G02*
X146699999Y-89470000I249999J0D01*
G01*
X147400001Y-89470000D01*
G75*
G02*
X147650000Y-89719999I0J-249999D01*
G01*
X147650000Y-90620001D01*
G75*
G02*
X147400001Y-90870000I-249999J0D01*
G01*
X146699999Y-90870000D01*
G75*
G02*
X146450000Y-90620001I0J249999D01*
G01*
G37*
%TD.AperFunction*%
%TO.P,R29,1*%
%TO.N,Net-(C32-Pad1)*%
%TA.AperFunction,SMDPad,CuDef*%
G36*
G01*
X144450000Y-90620001D02*
X144450000Y-89719999D01*
G75*
G02*
X144699999Y-89470000I249999J0D01*
G01*
X145400001Y-89470000D01*
G75*
G02*
X145650000Y-89719999I0J-249999D01*
G01*
X145650000Y-90620001D01*
G75*
G02*
X145400001Y-90870000I-249999J0D01*
G01*
X144699999Y-90870000D01*
G75*
G02*
X144450000Y-90620001I0J249999D01*
G01*
G37*
%TD.AperFunction*%
%TD*%
%TO.P,R28,2*%
%TO.N,GND*%
%TA.AperFunction,SMDPad,CuDef*%
G36*
G01*
X139249999Y-73155000D02*
X140150001Y-73155000D01*
G75*
G02*
X140400000Y-73404999I0J-249999D01*
G01*
X140400000Y-74105001D01*
G75*
G02*
X140150001Y-74355000I-249999J0D01*
G01*
X139249999Y-74355000D01*
G75*
G02*
X139000000Y-74105001I0J249999D01*
G01*
X139000000Y-73404999D01*
G75*
G02*
X139249999Y-73155000I249999J0D01*
G01*
G37*
%TD.AperFunction*%
%TO.P,R28,1*%
%TO.N,Net-(Q8-Pad3)*%
%TA.AperFunction,SMDPad,CuDef*%
G36*
G01*
X139249999Y-71155000D02*
X140150001Y-71155000D01*
G75*
G02*
X140400000Y-71404999I0J-249999D01*
G01*
X140400000Y-72105001D01*
G75*
G02*
X140150001Y-72355000I-249999J0D01*
G01*
X139249999Y-72355000D01*
G75*
G02*
X139000000Y-72105001I0J249999D01*
G01*
X139000000Y-71404999D01*
G75*
G02*
X139249999Y-71155000I249999J0D01*
G01*
G37*
%TD.AperFunction*%
%TD*%
%TO.P,R27,2*%
%TO.N,GND*%
%TA.AperFunction,SMDPad,CuDef*%
G36*
G01*
X139249999Y-89030000D02*
X140150001Y-89030000D01*
G75*
G02*
X140400000Y-89279999I0J-249999D01*
G01*
X140400000Y-89980001D01*
G75*
G02*
X140150001Y-90230000I-249999J0D01*
G01*
X139249999Y-90230000D01*
G75*
G02*
X139000000Y-89980001I0J249999D01*
G01*
X139000000Y-89279999D01*
G75*
G02*
X139249999Y-89030000I249999J0D01*
G01*
G37*
%TD.AperFunction*%
%TO.P,R27,1*%
%TO.N,Net-(Q7-Pad3)*%
%TA.AperFunction,SMDPad,CuDef*%
G36*
G01*
X139249999Y-87030000D02*
X140150001Y-87030000D01*
G75*
G02*
X140400000Y-87279999I0J-249999D01*
G01*
X140400000Y-87980001D01*
G75*
G02*
X140150001Y-88230000I-249999J0D01*
G01*
X139249999Y-88230000D01*
G75*
G02*
X139000000Y-87980001I0J249999D01*
G01*
X139000000Y-87279999D01*
G75*
G02*
X139249999Y-87030000I249999J0D01*
G01*
G37*
%TD.AperFunction*%
%TD*%
%TO.P,R26,2*%
%TO.N,GND*%
%TA.AperFunction,SMDPad,CuDef*%
G36*
G01*
X129089999Y-73155000D02*
X129990001Y-73155000D01*
G75*
G02*
X130240000Y-73404999I0J-249999D01*
G01*
X130240000Y-74105001D01*
G75*
G02*
X129990001Y-74355000I-249999J0D01*
G01*
X129089999Y-74355000D01*
G75*
G02*
X128840000Y-74105001I0J249999D01*
G01*
X128840000Y-73404999D01*
G75*
G02*
X129089999Y-73155000I249999J0D01*
G01*
G37*
%TD.AperFunction*%
%TO.P,R26,1*%
%TO.N,Net-(Q6-Pad3)*%
%TA.AperFunction,SMDPad,CuDef*%
G36*
G01*
X129089999Y-71155000D02*
X129990001Y-71155000D01*
G75*
G02*
X130240000Y-71404999I0J-249999D01*
G01*
X130240000Y-72105001D01*
G75*
G02*
X129990001Y-72355000I-249999J0D01*
G01*
X129089999Y-72355000D01*
G75*
G02*
X128840000Y-72105001I0J249999D01*
G01*
X128840000Y-71404999D01*
G75*
G02*
X129089999Y-71155000I249999J0D01*
G01*
G37*
%TD.AperFunction*%
%TD*%
%TO.P,R25,2*%
%TO.N,GND*%
%TA.AperFunction,SMDPad,CuDef*%
G36*
G01*
X129089999Y-89030000D02*
X129990001Y-89030000D01*
G75*
G02*
X130240000Y-89279999I0J-249999D01*
G01*
X130240000Y-89980001D01*
G75*
G02*
X129990001Y-90230000I-249999J0D01*
G01*
X129089999Y-90230000D01*
G75*
G02*
X128840000Y-89980001I0J249999D01*
G01*
X128840000Y-89279999D01*
G75*
G02*
X129089999Y-89030000I249999J0D01*
G01*
G37*
%TD.AperFunction*%
%TO.P,R25,1*%
%TO.N,Net-(Q5-Pad3)*%
%TA.AperFunction,SMDPad,CuDef*%
G36*
G01*
X129089999Y-87030000D02*
X129990001Y-87030000D01*
G75*
G02*
X130240000Y-87279999I0J-249999D01*
G01*
X130240000Y-87980001D01*
G75*
G02*
X129990001Y-88230000I-249999J0D01*
G01*
X129089999Y-88230000D01*
G75*
G02*
X128840000Y-87980001I0J249999D01*
G01*
X128840000Y-87279999D01*
G75*
G02*
X129089999Y-87030000I249999J0D01*
G01*
G37*
%TD.AperFunction*%
%TD*%
%TO.P,R24,2*%
%TO.N,GND*%
%TA.AperFunction,SMDPad,CuDef*%
G36*
G01*
X118929999Y-73060000D02*
X119830001Y-73060000D01*
G75*
G02*
X120080000Y-73309999I0J-249999D01*
G01*
X120080000Y-74010001D01*
G75*
G02*
X119830001Y-74260000I-249999J0D01*
G01*
X118929999Y-74260000D01*
G75*
G02*
X118680000Y-74010001I0J249999D01*
G01*
X118680000Y-73309999D01*
G75*
G02*
X118929999Y-73060000I249999J0D01*
G01*
G37*
%TD.AperFunction*%
%TO.P,R24,1*%
%TO.N,Net-(Q4-Pad3)*%
%TA.AperFunction,SMDPad,CuDef*%
G36*
G01*
X118929999Y-71060000D02*
X119830001Y-71060000D01*
G75*
G02*
X120080000Y-71309999I0J-249999D01*
G01*
X120080000Y-72010001D01*
G75*
G02*
X119830001Y-72260000I-249999J0D01*
G01*
X118929999Y-72260000D01*
G75*
G02*
X118680000Y-72010001I0J249999D01*
G01*
X118680000Y-71309999D01*
G75*
G02*
X118929999Y-71060000I249999J0D01*
G01*
G37*
%TD.AperFunction*%
%TD*%
%TO.P,R23,2*%
%TO.N,GND*%
%TA.AperFunction,SMDPad,CuDef*%
G36*
G01*
X118929999Y-88935000D02*
X119830001Y-88935000D01*
G75*
G02*
X120080000Y-89184999I0J-249999D01*
G01*
X120080000Y-89885001D01*
G75*
G02*
X119830001Y-90135000I-249999J0D01*
G01*
X118929999Y-90135000D01*
G75*
G02*
X118680000Y-89885001I0J249999D01*
G01*
X118680000Y-89184999D01*
G75*
G02*
X118929999Y-88935000I249999J0D01*
G01*
G37*
%TD.AperFunction*%
%TO.P,R23,1*%
%TO.N,Net-(Q3-Pad3)*%
%TA.AperFunction,SMDPad,CuDef*%
G36*
G01*
X118929999Y-86935000D02*
X119830001Y-86935000D01*
G75*
G02*
X120080000Y-87184999I0J-249999D01*
G01*
X120080000Y-87885001D01*
G75*
G02*
X119830001Y-88135000I-249999J0D01*
G01*
X118929999Y-88135000D01*
G75*
G02*
X118680000Y-87885001I0J249999D01*
G01*
X118680000Y-87184999D01*
G75*
G02*
X118929999Y-86935000I249999J0D01*
G01*
G37*
%TD.AperFunction*%
%TD*%
%TO.P,R22,2*%
%TO.N,/PWM_5*%
%TA.AperFunction,SMDPad,CuDef*%
G36*
G01*
X136290000Y-74745001D02*
X136290000Y-73844999D01*
G75*
G02*
X136539999Y-73595000I249999J0D01*
G01*
X137240001Y-73595000D01*
G75*
G02*
X137490000Y-73844999I0J-249999D01*
G01*
X137490000Y-74745001D01*
G75*
G02*
X137240001Y-74995000I-249999J0D01*
G01*
X136539999Y-74995000D01*
G75*
G02*
X136290000Y-74745001I0J249999D01*
G01*
G37*
%TD.AperFunction*%
%TO.P,R22,1*%
%TO.N,Net-(C31-Pad1)*%
%TA.AperFunction,SMDPad,CuDef*%
G36*
G01*
X134290000Y-74745001D02*
X134290000Y-73844999D01*
G75*
G02*
X134539999Y-73595000I249999J0D01*
G01*
X135240001Y-73595000D01*
G75*
G02*
X135490000Y-73844999I0J-249999D01*
G01*
X135490000Y-74745001D01*
G75*
G02*
X135240001Y-74995000I-249999J0D01*
G01*
X134539999Y-74995000D01*
G75*
G02*
X134290000Y-74745001I0J249999D01*
G01*
G37*
%TD.AperFunction*%
%TD*%
%TO.P,R21,2*%
%TO.N,/PWM_4*%
%TA.AperFunction,SMDPad,CuDef*%
G36*
G01*
X136290000Y-90620001D02*
X136290000Y-89719999D01*
G75*
G02*
X136539999Y-89470000I249999J0D01*
G01*
X137240001Y-89470000D01*
G75*
G02*
X137490000Y-89719999I0J-249999D01*
G01*
X137490000Y-90620001D01*
G75*
G02*
X137240001Y-90870000I-249999J0D01*
G01*
X136539999Y-90870000D01*
G75*
G02*
X136290000Y-90620001I0J249999D01*
G01*
G37*
%TD.AperFunction*%
%TO.P,R21,1*%
%TO.N,Net-(C30-Pad1)*%
%TA.AperFunction,SMDPad,CuDef*%
G36*
G01*
X134290000Y-90620001D02*
X134290000Y-89719999D01*
G75*
G02*
X134539999Y-89470000I249999J0D01*
G01*
X135240001Y-89470000D01*
G75*
G02*
X135490000Y-89719999I0J-249999D01*
G01*
X135490000Y-90620001D01*
G75*
G02*
X135240001Y-90870000I-249999J0D01*
G01*
X134539999Y-90870000D01*
G75*
G02*
X134290000Y-90620001I0J249999D01*
G01*
G37*
%TD.AperFunction*%
%TD*%
%TO.P,R20,2*%
%TO.N,/PWM_3*%
%TA.AperFunction,SMDPad,CuDef*%
G36*
G01*
X126130000Y-74745001D02*
X126130000Y-73844999D01*
G75*
G02*
X126379999Y-73595000I249999J0D01*
G01*
X127080001Y-73595000D01*
G75*
G02*
X127330000Y-73844999I0J-249999D01*
G01*
X127330000Y-74745001D01*
G75*
G02*
X127080001Y-74995000I-249999J0D01*
G01*
X126379999Y-74995000D01*
G75*
G02*
X126130000Y-74745001I0J249999D01*
G01*
G37*
%TD.AperFunction*%
%TO.P,R20,1*%
%TO.N,Net-(C29-Pad1)*%
%TA.AperFunction,SMDPad,CuDef*%
G36*
G01*
X124130000Y-74745001D02*
X124130000Y-73844999D01*
G75*
G02*
X124379999Y-73595000I249999J0D01*
G01*
X125080001Y-73595000D01*
G75*
G02*
X125330000Y-73844999I0J-249999D01*
G01*
X125330000Y-74745001D01*
G75*
G02*
X125080001Y-74995000I-249999J0D01*
G01*
X124379999Y-74995000D01*
G75*
G02*
X124130000Y-74745001I0J249999D01*
G01*
G37*
%TD.AperFunction*%
%TD*%
%TO.P,R19,2*%
%TO.N,/PWM_2*%
%TA.AperFunction,SMDPad,CuDef*%
G36*
G01*
X126130000Y-90620001D02*
X126130000Y-89719999D01*
G75*
G02*
X126379999Y-89470000I249999J0D01*
G01*
X127080001Y-89470000D01*
G75*
G02*
X127330000Y-89719999I0J-249999D01*
G01*
X127330000Y-90620001D01*
G75*
G02*
X127080001Y-90870000I-249999J0D01*
G01*
X126379999Y-90870000D01*
G75*
G02*
X126130000Y-90620001I0J249999D01*
G01*
G37*
%TD.AperFunction*%
%TO.P,R19,1*%
%TO.N,Net-(C28-Pad1)*%
%TA.AperFunction,SMDPad,CuDef*%
G36*
G01*
X124130000Y-90620001D02*
X124130000Y-89719999D01*
G75*
G02*
X124379999Y-89470000I249999J0D01*
G01*
X125080001Y-89470000D01*
G75*
G02*
X125330000Y-89719999I0J-249999D01*
G01*
X125330000Y-90620001D01*
G75*
G02*
X125080001Y-90870000I-249999J0D01*
G01*
X124379999Y-90870000D01*
G75*
G02*
X124130000Y-90620001I0J249999D01*
G01*
G37*
%TD.AperFunction*%
%TD*%
%TO.P,R18,2*%
%TO.N,/PWM_1*%
%TA.AperFunction,SMDPad,CuDef*%
G36*
G01*
X115970000Y-74745001D02*
X115970000Y-73844999D01*
G75*
G02*
X116219999Y-73595000I249999J0D01*
G01*
X116920001Y-73595000D01*
G75*
G02*
X117170000Y-73844999I0J-249999D01*
G01*
X117170000Y-74745001D01*
G75*
G02*
X116920001Y-74995000I-249999J0D01*
G01*
X116219999Y-74995000D01*
G75*
G02*
X115970000Y-74745001I0J249999D01*
G01*
G37*
%TD.AperFunction*%
%TO.P,R18,1*%
%TO.N,Net-(C27-Pad1)*%
%TA.AperFunction,SMDPad,CuDef*%
G36*
G01*
X113970000Y-74745001D02*
X113970000Y-73844999D01*
G75*
G02*
X114219999Y-73595000I249999J0D01*
G01*
X114920001Y-73595000D01*
G75*
G02*
X115170000Y-73844999I0J-249999D01*
G01*
X115170000Y-74745001D01*
G75*
G02*
X114920001Y-74995000I-249999J0D01*
G01*
X114219999Y-74995000D01*
G75*
G02*
X113970000Y-74745001I0J249999D01*
G01*
G37*
%TD.AperFunction*%
%TD*%
%TO.P,R17,2*%
%TO.N,/PWM_0*%
%TA.AperFunction,SMDPad,CuDef*%
G36*
G01*
X115970000Y-90620001D02*
X115970000Y-89719999D01*
G75*
G02*
X116219999Y-89470000I249999J0D01*
G01*
X116920001Y-89470000D01*
G75*
G02*
X117170000Y-89719999I0J-249999D01*
G01*
X117170000Y-90620001D01*
G75*
G02*
X116920001Y-90870000I-249999J0D01*
G01*
X116219999Y-90870000D01*
G75*
G02*
X115970000Y-90620001I0J249999D01*
G01*
G37*
%TD.AperFunction*%
%TO.P,R17,1*%
%TO.N,Net-(C26-Pad1)*%
%TA.AperFunction,SMDPad,CuDef*%
G36*
G01*
X113970000Y-90620001D02*
X113970000Y-89719999D01*
G75*
G02*
X114219999Y-89470000I249999J0D01*
G01*
X114920001Y-89470000D01*
G75*
G02*
X115170000Y-89719999I0J-249999D01*
G01*
X115170000Y-90620001D01*
G75*
G02*
X114920001Y-90870000I-249999J0D01*
G01*
X114219999Y-90870000D01*
G75*
G02*
X113970000Y-90620001I0J249999D01*
G01*
G37*
%TD.AperFunction*%
%TD*%
%TO.P,R5,2*%
%TO.N,/MIC_out*%
%TA.AperFunction,SMDPad,CuDef*%
G36*
G01*
X155705000Y-119195001D02*
X155705000Y-118294999D01*
G75*
G02*
X155954999Y-118045000I249999J0D01*
G01*
X156655001Y-118045000D01*
G75*
G02*
X156905000Y-118294999I0J-249999D01*
G01*
X156905000Y-119195001D01*
G75*
G02*
X156655001Y-119445000I-249999J0D01*
G01*
X155954999Y-119445000D01*
G75*
G02*
X155705000Y-119195001I0J249999D01*
G01*
G37*
%TD.AperFunction*%
%TO.P,R5,1*%
%TO.N,Net-(C2-Pad1)*%
%TA.AperFunction,SMDPad,CuDef*%
G36*
G01*
X153705000Y-119195001D02*
X153705000Y-118294999D01*
G75*
G02*
X153954999Y-118045000I249999J0D01*
G01*
X154655001Y-118045000D01*
G75*
G02*
X154905000Y-118294999I0J-249999D01*
G01*
X154905000Y-119195001D01*
G75*
G02*
X154655001Y-119445000I-249999J0D01*
G01*
X153954999Y-119445000D01*
G75*
G02*
X153705000Y-119195001I0J249999D01*
G01*
G37*
%TD.AperFunction*%
%TD*%
%TO.P,R4,2*%
%TO.N,Net-(C1-Pad1)*%
%TA.AperFunction,SMDPad,CuDef*%
G36*
G01*
X147085000Y-124275001D02*
X147085000Y-123374999D01*
G75*
G02*
X147334999Y-123125000I249999J0D01*
G01*
X148035001Y-123125000D01*
G75*
G02*
X148285000Y-123374999I0J-249999D01*
G01*
X148285000Y-124275001D01*
G75*
G02*
X148035001Y-124525000I-249999J0D01*
G01*
X147334999Y-124525000D01*
G75*
G02*
X147085000Y-124275001I0J249999D01*
G01*
G37*
%TD.AperFunction*%
%TO.P,R4,1*%
%TO.N,Net-(R1-Pad2)*%
%TA.AperFunction,SMDPad,CuDef*%
G36*
G01*
X145085000Y-124275001D02*
X145085000Y-123374999D01*
G75*
G02*
X145334999Y-123125000I249999J0D01*
G01*
X146035001Y-123125000D01*
G75*
G02*
X146285000Y-123374999I0J-249999D01*
G01*
X146285000Y-124275001D01*
G75*
G02*
X146035001Y-124525000I-249999J0D01*
G01*
X145334999Y-124525000D01*
G75*
G02*
X145085000Y-124275001I0J249999D01*
G01*
G37*
%TD.AperFunction*%
%TD*%
%TO.P,R3,2*%
%TO.N,Net-(Q1-Pad3)*%
%TA.AperFunction,SMDPad,CuDef*%
G36*
G01*
X123374999Y-122320000D02*
X124275001Y-122320000D01*
G75*
G02*
X124525000Y-122569999I0J-249999D01*
G01*
X124525000Y-123270001D01*
G75*
G02*
X124275001Y-123520000I-249999J0D01*
G01*
X123374999Y-123520000D01*
G75*
G02*
X123125000Y-123270001I0J249999D01*
G01*
X123125000Y-122569999D01*
G75*
G02*
X123374999Y-122320000I249999J0D01*
G01*
G37*
%TD.AperFunction*%
%TO.P,R3,1*%
%TO.N,Net-(J2-Pad2)*%
%TA.AperFunction,SMDPad,CuDef*%
G36*
G01*
X123374999Y-120320000D02*
X124275001Y-120320000D01*
G75*
G02*
X124525000Y-120569999I0J-249999D01*
G01*
X124525000Y-121270001D01*
G75*
G02*
X124275001Y-121520000I-249999J0D01*
G01*
X123374999Y-121520000D01*
G75*
G02*
X123125000Y-121270001I0J249999D01*
G01*
X123125000Y-120569999D01*
G75*
G02*
X123374999Y-120320000I249999J0D01*
G01*
G37*
%TD.AperFunction*%
%TD*%
D15*
%TO.P,Q13,1*%
%TO.N,Net-(C36-Pad1)*%
X165340000Y-84430000D03*
%TO.P,Q13,3*%
%TO.N,Net-(Q13-Pad3)*%
X169940000Y-84430000D03*
%TO.P,Q13,2*%
%TO.N,Net-(J4-Pad12)*%
X167640000Y-84430000D03*
D16*
X167640000Y-78130000D03*
%TD*%
D15*
%TO.P,Q12,1*%
%TO.N,Net-(C35-Pad1)*%
X155180000Y-68555000D03*
%TO.P,Q12,3*%
%TO.N,Net-(Q12-Pad3)*%
X159780000Y-68555000D03*
%TO.P,Q12,2*%
%TO.N,Net-(J4-Pad11)*%
X157480000Y-68555000D03*
D16*
X157480000Y-62255000D03*
%TD*%
D15*
%TO.P,Q11,1*%
%TO.N,Net-(C34-Pad1)*%
X155180000Y-84430000D03*
%TO.P,Q11,3*%
%TO.N,Net-(Q11-Pad3)*%
X159780000Y-84430000D03*
%TO.P,Q11,2*%
%TO.N,Net-(J4-Pad10)*%
X157480000Y-84430000D03*
D16*
X157480000Y-78130000D03*
%TD*%
D15*
%TO.P,Q10,1*%
%TO.N,Net-(C33-Pad1)*%
X145020000Y-68555000D03*
%TO.P,Q10,3*%
%TO.N,Net-(Q10-Pad3)*%
X149620000Y-68555000D03*
%TO.P,Q10,2*%
%TO.N,Net-(J4-Pad9)*%
X147320000Y-68555000D03*
D16*
X147320000Y-62255000D03*
%TD*%
D15*
%TO.P,Q9,1*%
%TO.N,Net-(C32-Pad1)*%
X145020000Y-84430000D03*
%TO.P,Q9,3*%
%TO.N,Net-(Q9-Pad3)*%
X149620000Y-84430000D03*
%TO.P,Q9,2*%
%TO.N,Net-(J4-Pad8)*%
X147320000Y-84430000D03*
D16*
X147320000Y-78130000D03*
%TD*%
D15*
%TO.P,Q8,1*%
%TO.N,Net-(C31-Pad1)*%
X134860000Y-68555000D03*
%TO.P,Q8,3*%
%TO.N,Net-(Q8-Pad3)*%
X139460000Y-68555000D03*
%TO.P,Q8,2*%
%TO.N,Net-(J4-Pad7)*%
X137160000Y-68555000D03*
D16*
X137160000Y-62255000D03*
%TD*%
D15*
%TO.P,Q7,1*%
%TO.N,Net-(C30-Pad1)*%
X134860000Y-84430000D03*
%TO.P,Q7,3*%
%TO.N,Net-(Q7-Pad3)*%
X139460000Y-84430000D03*
%TO.P,Q7,2*%
%TO.N,Net-(J4-Pad6)*%
X137160000Y-84430000D03*
D16*
X137160000Y-78130000D03*
%TD*%
D15*
%TO.P,Q6,1*%
%TO.N,Net-(C29-Pad1)*%
X124700000Y-68555000D03*
%TO.P,Q6,3*%
%TO.N,Net-(Q6-Pad3)*%
X129300000Y-68555000D03*
%TO.P,Q6,2*%
%TO.N,Net-(J4-Pad5)*%
X127000000Y-68555000D03*
D16*
X127000000Y-62255000D03*
%TD*%
D15*
%TO.P,Q5,1*%
%TO.N,Net-(C28-Pad1)*%
X124700000Y-84430000D03*
%TO.P,Q5,3*%
%TO.N,Net-(Q5-Pad3)*%
X129300000Y-84430000D03*
%TO.P,Q5,2*%
%TO.N,Net-(J4-Pad4)*%
X127000000Y-84430000D03*
D16*
X127000000Y-78130000D03*
%TD*%
D15*
%TO.P,Q4,1*%
%TO.N,Net-(C27-Pad1)*%
X114540000Y-68555000D03*
%TO.P,Q4,3*%
%TO.N,Net-(Q4-Pad3)*%
X119140000Y-68555000D03*
%TO.P,Q4,2*%
%TO.N,Net-(J4-Pad3)*%
X116840000Y-68555000D03*
D16*
X116840000Y-62255000D03*
%TD*%
D15*
%TO.P,Q3,1*%
%TO.N,Net-(C26-Pad1)*%
X114540000Y-84430000D03*
%TO.P,Q3,3*%
%TO.N,Net-(Q3-Pad3)*%
X119140000Y-84430000D03*
%TO.P,Q3,2*%
%TO.N,Net-(J4-Pad2)*%
X116840000Y-84430000D03*
D16*
X116840000Y-78130000D03*
%TD*%
D17*
%TO.P,Q1,3*%
%TO.N,Net-(Q1-Pad3)*%
X127405000Y-121920000D03*
%TO.P,Q1,2*%
%TO.N,GND*%
X130405000Y-120970000D03*
%TO.P,Q1,1*%
%TO.N,/pwr_led*%
X130405000Y-122870000D03*
%TD*%
D18*
%TO.P,J4,12*%
%TO.N,Net-(J4-Pad12)*%
X127635000Y-53975000D03*
%TO.P,J4,11*%
%TO.N,Net-(J4-Pad11)*%
X127635000Y-56515000D03*
%TO.P,J4,10*%
%TO.N,Net-(J4-Pad10)*%
X125095000Y-53975000D03*
%TO.P,J4,9*%
%TO.N,Net-(J4-Pad9)*%
X125095000Y-56515000D03*
%TO.P,J4,8*%
%TO.N,Net-(J4-Pad8)*%
X122555000Y-53975000D03*
%TO.P,J4,7*%
%TO.N,Net-(J4-Pad7)*%
X122555000Y-56515000D03*
%TO.P,J4,6*%
%TO.N,Net-(J4-Pad6)*%
X120015000Y-53975000D03*
%TO.P,J4,5*%
%TO.N,Net-(J4-Pad5)*%
X120015000Y-56515000D03*
%TO.P,J4,4*%
%TO.N,Net-(J4-Pad4)*%
X117475000Y-53975000D03*
%TO.P,J4,3*%
%TO.N,Net-(J4-Pad3)*%
X117475000Y-56515000D03*
%TO.P,J4,2*%
%TO.N,Net-(J4-Pad2)*%
X114935000Y-53975000D03*
D13*
%TO.P,J4,1*%
%TO.N,150V*%
X114935000Y-56515000D03*
%TD*%
D12*
%TO.P,J3,2*%
%TO.N,/MIC_out*%
X163195000Y-121920000D03*
D13*
%TO.P,J3,1*%
%TO.N,+5V*%
X160655000Y-121920000D03*
D12*
%TO.P,J3,3*%
%TO.N,GND*%
X165735000Y-121920000D03*
%TD*%
%TO.P,J2,2*%
%TO.N,Net-(J2-Pad2)*%
X118745000Y-121920000D03*
D13*
%TO.P,J2,1*%
%TO.N,+5V*%
X116205000Y-121920000D03*
%TD*%
D18*
%TO.P,MCU1,42*%
%TO.N,Net-(MCU1-Pad42)*%
X158750000Y-110490000D03*
%TO.P,MCU1,41*%
%TO.N,Net-(MCU1-Pad41)*%
X156210000Y-110490000D03*
D12*
%TO.P,MCU1,48*%
%TO.N,+5V*%
X173990000Y-110490000D03*
D18*
%TO.P,MCU1,45*%
%TO.N,Net-(MCU1-Pad45)*%
X166370000Y-110490000D03*
%TO.P,MCU1,47*%
%TO.N,GND*%
X171450000Y-110490000D03*
%TO.P,MCU1,44*%
%TO.N,Net-(MCU1-Pad44)*%
X163830000Y-110490000D03*
%TO.P,MCU1,46*%
%TO.N,Net-(MCU1-Pad46)*%
X168910000Y-110490000D03*
%TO.P,MCU1,43*%
%TO.N,Net-(MCU1-Pad43)*%
X161290000Y-110490000D03*
%TO.P,MCU1,40*%
%TO.N,Net-(MCU1-Pad40)*%
X153670000Y-110490000D03*
%TO.P,MCU1,39*%
%TO.N,Net-(MCU1-Pad39)*%
X151130000Y-110490000D03*
%TO.P,MCU1,38*%
%TO.N,/ADC_in*%
X148590000Y-110490000D03*
%TO.P,MCU1,37*%
%TO.N,Net-(MCU1-Pad37)*%
X146050000Y-110490000D03*
%TO.P,MCU1,36*%
%TO.N,Net-(MCU1-Pad36)*%
X143510000Y-110490000D03*
%TO.P,MCU1,35*%
%TO.N,/pwr_led*%
X140970000Y-110490000D03*
%TO.P,MCU1,29*%
%TO.N,Net-(MCU1-Pad29)*%
X125730000Y-110490000D03*
%TO.P,MCU1,32*%
%TO.N,Net-(MCU1-Pad32)*%
X133350000Y-110490000D03*
%TO.P,MCU1,33*%
%TO.N,Net-(MCU1-Pad33)*%
X135890000Y-110490000D03*
%TO.P,MCU1,34*%
%TO.N,GND*%
X138430000Y-110490000D03*
%TO.P,MCU1,26*%
%TO.N,Net-(MCU1-Pad26)*%
X118110000Y-110490000D03*
%TO.P,MCU1,31*%
%TO.N,Net-(MCU1-Pad31)*%
X130810000Y-110490000D03*
%TO.P,MCU1,28*%
%TO.N,Net-(MCU1-Pad28)*%
X123190000Y-110490000D03*
%TO.P,MCU1,30*%
%TO.N,Net-(MCU1-Pad30)*%
X128270000Y-110490000D03*
%TO.P,MCU1,27*%
%TO.N,Net-(MCU1-Pad27)*%
X120650000Y-110490000D03*
%TO.P,MCU1,25*%
%TO.N,Net-(MCU1-Pad25)*%
X115570000Y-110490000D03*
%TO.P,MCU1,24*%
%TO.N,Net-(MCU1-Pad24)*%
X115570000Y-95250000D03*
%TO.P,MCU1,23*%
%TO.N,Net-(MCU1-Pad23)*%
X118110000Y-95250000D03*
%TO.P,MCU1,22*%
%TO.N,/PWM_0*%
X120650000Y-95250000D03*
%TO.P,MCU1,21*%
%TO.N,/PWM_1*%
X123190000Y-95250000D03*
%TO.P,MCU1,20*%
%TO.N,Net-(MCU1-Pad20)*%
X125730000Y-95250000D03*
%TO.P,MCU1,19*%
%TO.N,Net-(MCU1-Pad19)*%
X128270000Y-95250000D03*
%TO.P,MCU1,18*%
%TO.N,Net-(MCU1-Pad18)*%
X130810000Y-95250000D03*
%TO.P,MCU1,17*%
%TO.N,Net-(MCU1-Pad17)*%
X133350000Y-95250000D03*
%TO.P,MCU1,16*%
%TO.N,Net-(MCU1-Pad16)*%
X135890000Y-95250000D03*
%TO.P,MCU1,15*%
%TO.N,Net-(MCU1-Pad15)*%
X138430000Y-95250000D03*
%TO.P,MCU1,14*%
%TO.N,Net-(MCU1-Pad14)*%
X140970000Y-95250000D03*
%TO.P,MCU1,13*%
%TO.N,Net-(MCU1-Pad13)*%
X143510000Y-95250000D03*
%TO.P,MCU1,12*%
%TO.N,/PWM_2*%
X146050000Y-95250000D03*
%TO.P,MCU1,11*%
%TO.N,/PWM_3*%
X148590000Y-95250000D03*
%TO.P,MCU1,10*%
%TO.N,/PWM_4*%
X151130000Y-95250000D03*
%TO.P,MCU1,9*%
%TO.N,/PWM_5*%
X153670000Y-95250000D03*
%TO.P,MCU1,8*%
%TO.N,/PWM_6*%
X156210000Y-95250000D03*
%TO.P,MCU1,7*%
%TO.N,/PWM_7*%
X158750000Y-95250000D03*
%TO.P,MCU1,6*%
%TO.N,/PWM_8*%
X161290000Y-95250000D03*
%TO.P,MCU1,5*%
%TO.N,/PWM_9*%
X163830000Y-95250000D03*
%TO.P,MCU1,4*%
%TO.N,/PWM_10*%
X166370000Y-95250000D03*
%TO.P,MCU1,3*%
%TO.N,Net-(MCU1-Pad3)*%
X168910000Y-95250000D03*
%TO.P,MCU1,2*%
%TO.N,Net-(MCU1-Pad2)*%
X171450000Y-95250000D03*
D13*
%TO.P,MCU1,1*%
%TO.N,GND*%
X173990000Y-95250000D03*
%TD*%
%TO.P,C36,2*%
%TO.N,GND*%
%TA.AperFunction,SMDPad,CuDef*%
G36*
G01*
X166587500Y-88105000D02*
X166587500Y-87155000D01*
G75*
G02*
X166837500Y-86905000I250000J0D01*
G01*
X167512500Y-86905000D01*
G75*
G02*
X167762500Y-87155000I0J-250000D01*
G01*
X167762500Y-88105000D01*
G75*
G02*
X167512500Y-88355000I-250000J0D01*
G01*
X166837500Y-88355000D01*
G75*
G02*
X166587500Y-88105000I0J250000D01*
G01*
G37*
%TD.AperFunction*%
%TO.P,C36,1*%
%TO.N,Net-(C36-Pad1)*%
%TA.AperFunction,SMDPad,CuDef*%
G36*
G01*
X164512500Y-88105000D02*
X164512500Y-87155000D01*
G75*
G02*
X164762500Y-86905000I250000J0D01*
G01*
X165437500Y-86905000D01*
G75*
G02*
X165687500Y-87155000I0J-250000D01*
G01*
X165687500Y-88105000D01*
G75*
G02*
X165437500Y-88355000I-250000J0D01*
G01*
X164762500Y-88355000D01*
G75*
G02*
X164512500Y-88105000I0J250000D01*
G01*
G37*
%TD.AperFunction*%
%TD*%
%TO.P,C35,2*%
%TO.N,GND*%
%TA.AperFunction,SMDPad,CuDef*%
G36*
G01*
X156660000Y-72230000D02*
X156660000Y-71280000D01*
G75*
G02*
X156910000Y-71030000I250000J0D01*
G01*
X157585000Y-71030000D01*
G75*
G02*
X157835000Y-71280000I0J-250000D01*
G01*
X157835000Y-72230000D01*
G75*
G02*
X157585000Y-72480000I-250000J0D01*
G01*
X156910000Y-72480000D01*
G75*
G02*
X156660000Y-72230000I0J250000D01*
G01*
G37*
%TD.AperFunction*%
%TO.P,C35,1*%
%TO.N,Net-(C35-Pad1)*%
%TA.AperFunction,SMDPad,CuDef*%
G36*
G01*
X154585000Y-72230000D02*
X154585000Y-71280000D01*
G75*
G02*
X154835000Y-71030000I250000J0D01*
G01*
X155510000Y-71030000D01*
G75*
G02*
X155760000Y-71280000I0J-250000D01*
G01*
X155760000Y-72230000D01*
G75*
G02*
X155510000Y-72480000I-250000J0D01*
G01*
X154835000Y-72480000D01*
G75*
G02*
X154585000Y-72230000I0J250000D01*
G01*
G37*
%TD.AperFunction*%
%TD*%
%TO.P,C34,2*%
%TO.N,GND*%
%TA.AperFunction,SMDPad,CuDef*%
G36*
G01*
X156660000Y-88105000D02*
X156660000Y-87155000D01*
G75*
G02*
X156910000Y-86905000I250000J0D01*
G01*
X157585000Y-86905000D01*
G75*
G02*
X157835000Y-87155000I0J-250000D01*
G01*
X157835000Y-88105000D01*
G75*
G02*
X157585000Y-88355000I-250000J0D01*
G01*
X156910000Y-88355000D01*
G75*
G02*
X156660000Y-88105000I0J250000D01*
G01*
G37*
%TD.AperFunction*%
%TO.P,C34,1*%
%TO.N,Net-(C34-Pad1)*%
%TA.AperFunction,SMDPad,CuDef*%
G36*
G01*
X154585000Y-88105000D02*
X154585000Y-87155000D01*
G75*
G02*
X154835000Y-86905000I250000J0D01*
G01*
X155510000Y-86905000D01*
G75*
G02*
X155760000Y-87155000I0J-250000D01*
G01*
X155760000Y-88105000D01*
G75*
G02*
X155510000Y-88355000I-250000J0D01*
G01*
X154835000Y-88355000D01*
G75*
G02*
X154585000Y-88105000I0J250000D01*
G01*
G37*
%TD.AperFunction*%
%TD*%
%TO.P,C33,2*%
%TO.N,GND*%
%TA.AperFunction,SMDPad,CuDef*%
G36*
G01*
X146500000Y-72230000D02*
X146500000Y-71280000D01*
G75*
G02*
X146750000Y-71030000I250000J0D01*
G01*
X147425000Y-71030000D01*
G75*
G02*
X147675000Y-71280000I0J-250000D01*
G01*
X147675000Y-72230000D01*
G75*
G02*
X147425000Y-72480000I-250000J0D01*
G01*
X146750000Y-72480000D01*
G75*
G02*
X146500000Y-72230000I0J250000D01*
G01*
G37*
%TD.AperFunction*%
%TO.P,C33,1*%
%TO.N,Net-(C33-Pad1)*%
%TA.AperFunction,SMDPad,CuDef*%
G36*
G01*
X144425000Y-72230000D02*
X144425000Y-71280000D01*
G75*
G02*
X144675000Y-71030000I250000J0D01*
G01*
X145350000Y-71030000D01*
G75*
G02*
X145600000Y-71280000I0J-250000D01*
G01*
X145600000Y-72230000D01*
G75*
G02*
X145350000Y-72480000I-250000J0D01*
G01*
X144675000Y-72480000D01*
G75*
G02*
X144425000Y-72230000I0J250000D01*
G01*
G37*
%TD.AperFunction*%
%TD*%
%TO.P,C32,2*%
%TO.N,GND*%
%TA.AperFunction,SMDPad,CuDef*%
G36*
G01*
X146500000Y-88105000D02*
X146500000Y-87155000D01*
G75*
G02*
X146750000Y-86905000I250000J0D01*
G01*
X147425000Y-86905000D01*
G75*
G02*
X147675000Y-87155000I0J-250000D01*
G01*
X147675000Y-88105000D01*
G75*
G02*
X147425000Y-88355000I-250000J0D01*
G01*
X146750000Y-88355000D01*
G75*
G02*
X146500000Y-88105000I0J250000D01*
G01*
G37*
%TD.AperFunction*%
%TO.P,C32,1*%
%TO.N,Net-(C32-Pad1)*%
%TA.AperFunction,SMDPad,CuDef*%
G36*
G01*
X144425000Y-88105000D02*
X144425000Y-87155000D01*
G75*
G02*
X144675000Y-86905000I250000J0D01*
G01*
X145350000Y-86905000D01*
G75*
G02*
X145600000Y-87155000I0J-250000D01*
G01*
X145600000Y-88105000D01*
G75*
G02*
X145350000Y-88355000I-250000J0D01*
G01*
X144675000Y-88355000D01*
G75*
G02*
X144425000Y-88105000I0J250000D01*
G01*
G37*
%TD.AperFunction*%
%TD*%
%TO.P,C31,2*%
%TO.N,GND*%
%TA.AperFunction,SMDPad,CuDef*%
G36*
G01*
X136340000Y-72230000D02*
X136340000Y-71280000D01*
G75*
G02*
X136590000Y-71030000I250000J0D01*
G01*
X137265000Y-71030000D01*
G75*
G02*
X137515000Y-71280000I0J-250000D01*
G01*
X137515000Y-72230000D01*
G75*
G02*
X137265000Y-72480000I-250000J0D01*
G01*
X136590000Y-72480000D01*
G75*
G02*
X136340000Y-72230000I0J250000D01*
G01*
G37*
%TD.AperFunction*%
%TO.P,C31,1*%
%TO.N,Net-(C31-Pad1)*%
%TA.AperFunction,SMDPad,CuDef*%
G36*
G01*
X134265000Y-72230000D02*
X134265000Y-71280000D01*
G75*
G02*
X134515000Y-71030000I250000J0D01*
G01*
X135190000Y-71030000D01*
G75*
G02*
X135440000Y-71280000I0J-250000D01*
G01*
X135440000Y-72230000D01*
G75*
G02*
X135190000Y-72480000I-250000J0D01*
G01*
X134515000Y-72480000D01*
G75*
G02*
X134265000Y-72230000I0J250000D01*
G01*
G37*
%TD.AperFunction*%
%TD*%
%TO.P,C30,2*%
%TO.N,GND*%
%TA.AperFunction,SMDPad,CuDef*%
G36*
G01*
X136340000Y-88105000D02*
X136340000Y-87155000D01*
G75*
G02*
X136590000Y-86905000I250000J0D01*
G01*
X137265000Y-86905000D01*
G75*
G02*
X137515000Y-87155000I0J-250000D01*
G01*
X137515000Y-88105000D01*
G75*
G02*
X137265000Y-88355000I-250000J0D01*
G01*
X136590000Y-88355000D01*
G75*
G02*
X136340000Y-88105000I0J250000D01*
G01*
G37*
%TD.AperFunction*%
%TO.P,C30,1*%
%TO.N,Net-(C30-Pad1)*%
%TA.AperFunction,SMDPad,CuDef*%
G36*
G01*
X134265000Y-88105000D02*
X134265000Y-87155000D01*
G75*
G02*
X134515000Y-86905000I250000J0D01*
G01*
X135190000Y-86905000D01*
G75*
G02*
X135440000Y-87155000I0J-250000D01*
G01*
X135440000Y-88105000D01*
G75*
G02*
X135190000Y-88355000I-250000J0D01*
G01*
X134515000Y-88355000D01*
G75*
G02*
X134265000Y-88105000I0J250000D01*
G01*
G37*
%TD.AperFunction*%
%TD*%
%TO.P,C29,2*%
%TO.N,GND*%
%TA.AperFunction,SMDPad,CuDef*%
G36*
G01*
X126180000Y-72230000D02*
X126180000Y-71280000D01*
G75*
G02*
X126430000Y-71030000I250000J0D01*
G01*
X127105000Y-71030000D01*
G75*
G02*
X127355000Y-71280000I0J-250000D01*
G01*
X127355000Y-72230000D01*
G75*
G02*
X127105000Y-72480000I-250000J0D01*
G01*
X126430000Y-72480000D01*
G75*
G02*
X126180000Y-72230000I0J250000D01*
G01*
G37*
%TD.AperFunction*%
%TO.P,C29,1*%
%TO.N,Net-(C29-Pad1)*%
%TA.AperFunction,SMDPad,CuDef*%
G36*
G01*
X124105000Y-72230000D02*
X124105000Y-71280000D01*
G75*
G02*
X124355000Y-71030000I250000J0D01*
G01*
X125030000Y-71030000D01*
G75*
G02*
X125280000Y-71280000I0J-250000D01*
G01*
X125280000Y-72230000D01*
G75*
G02*
X125030000Y-72480000I-250000J0D01*
G01*
X124355000Y-72480000D01*
G75*
G02*
X124105000Y-72230000I0J250000D01*
G01*
G37*
%TD.AperFunction*%
%TD*%
%TO.P,C28,2*%
%TO.N,GND*%
%TA.AperFunction,SMDPad,CuDef*%
G36*
G01*
X126180000Y-88105000D02*
X126180000Y-87155000D01*
G75*
G02*
X126430000Y-86905000I250000J0D01*
G01*
X127105000Y-86905000D01*
G75*
G02*
X127355000Y-87155000I0J-250000D01*
G01*
X127355000Y-88105000D01*
G75*
G02*
X127105000Y-88355000I-250000J0D01*
G01*
X126430000Y-88355000D01*
G75*
G02*
X126180000Y-88105000I0J250000D01*
G01*
G37*
%TD.AperFunction*%
%TO.P,C28,1*%
%TO.N,Net-(C28-Pad1)*%
%TA.AperFunction,SMDPad,CuDef*%
G36*
G01*
X124105000Y-88105000D02*
X124105000Y-87155000D01*
G75*
G02*
X124355000Y-86905000I250000J0D01*
G01*
X125030000Y-86905000D01*
G75*
G02*
X125280000Y-87155000I0J-250000D01*
G01*
X125280000Y-88105000D01*
G75*
G02*
X125030000Y-88355000I-250000J0D01*
G01*
X124355000Y-88355000D01*
G75*
G02*
X124105000Y-88105000I0J250000D01*
G01*
G37*
%TD.AperFunction*%
%TD*%
%TO.P,C27,2*%
%TO.N,GND*%
%TA.AperFunction,SMDPad,CuDef*%
G36*
G01*
X116020000Y-72230000D02*
X116020000Y-71280000D01*
G75*
G02*
X116270000Y-71030000I250000J0D01*
G01*
X116945000Y-71030000D01*
G75*
G02*
X117195000Y-71280000I0J-250000D01*
G01*
X117195000Y-72230000D01*
G75*
G02*
X116945000Y-72480000I-250000J0D01*
G01*
X116270000Y-72480000D01*
G75*
G02*
X116020000Y-72230000I0J250000D01*
G01*
G37*
%TD.AperFunction*%
%TO.P,C27,1*%
%TO.N,Net-(C27-Pad1)*%
%TA.AperFunction,SMDPad,CuDef*%
G36*
G01*
X113945000Y-72230000D02*
X113945000Y-71280000D01*
G75*
G02*
X114195000Y-71030000I250000J0D01*
G01*
X114870000Y-71030000D01*
G75*
G02*
X115120000Y-71280000I0J-250000D01*
G01*
X115120000Y-72230000D01*
G75*
G02*
X114870000Y-72480000I-250000J0D01*
G01*
X114195000Y-72480000D01*
G75*
G02*
X113945000Y-72230000I0J250000D01*
G01*
G37*
%TD.AperFunction*%
%TD*%
%TO.P,C26,2*%
%TO.N,GND*%
%TA.AperFunction,SMDPad,CuDef*%
G36*
G01*
X116020000Y-88105000D02*
X116020000Y-87155000D01*
G75*
G02*
X116270000Y-86905000I250000J0D01*
G01*
X116945000Y-86905000D01*
G75*
G02*
X117195000Y-87155000I0J-250000D01*
G01*
X117195000Y-88105000D01*
G75*
G02*
X116945000Y-88355000I-250000J0D01*
G01*
X116270000Y-88355000D01*
G75*
G02*
X116020000Y-88105000I0J250000D01*
G01*
G37*
%TD.AperFunction*%
%TO.P,C26,1*%
%TO.N,Net-(C26-Pad1)*%
%TA.AperFunction,SMDPad,CuDef*%
G36*
G01*
X113945000Y-88105000D02*
X113945000Y-87155000D01*
G75*
G02*
X114195000Y-86905000I250000J0D01*
G01*
X114870000Y-86905000D01*
G75*
G02*
X115120000Y-87155000I0J-250000D01*
G01*
X115120000Y-88105000D01*
G75*
G02*
X114870000Y-88355000I-250000J0D01*
G01*
X114195000Y-88355000D01*
G75*
G02*
X113945000Y-88105000I0J250000D01*
G01*
G37*
%TD.AperFunction*%
%TD*%
%TO.P,C4,2*%
%TO.N,GND*%
%TA.AperFunction,SMDPad,CuDef*%
G36*
G01*
X141765000Y-122772500D02*
X142715000Y-122772500D01*
G75*
G02*
X142965000Y-123022500I0J-250000D01*
G01*
X142965000Y-123697500D01*
G75*
G02*
X142715000Y-123947500I-250000J0D01*
G01*
X141765000Y-123947500D01*
G75*
G02*
X141515000Y-123697500I0J250000D01*
G01*
X141515000Y-123022500D01*
G75*
G02*
X141765000Y-122772500I250000J0D01*
G01*
G37*
%TD.AperFunction*%
%TO.P,C4,1*%
%TO.N,+5V*%
%TA.AperFunction,SMDPad,CuDef*%
G36*
G01*
X141765000Y-120697500D02*
X142715000Y-120697500D01*
G75*
G02*
X142965000Y-120947500I0J-250000D01*
G01*
X142965000Y-121622500D01*
G75*
G02*
X142715000Y-121872500I-250000J0D01*
G01*
X141765000Y-121872500D01*
G75*
G02*
X141515000Y-121622500I0J250000D01*
G01*
X141515000Y-120947500D01*
G75*
G02*
X141765000Y-120697500I250000J0D01*
G01*
G37*
%TD.AperFunction*%
%TD*%
%TO.P,C3,2*%
%TO.N,GND*%
%TA.AperFunction,SMDPad,CuDef*%
G36*
G01*
X142715000Y-115755000D02*
X141765000Y-115755000D01*
G75*
G02*
X141515000Y-115505000I0J250000D01*
G01*
X141515000Y-114830000D01*
G75*
G02*
X141765000Y-114580000I250000J0D01*
G01*
X142715000Y-114580000D01*
G75*
G02*
X142965000Y-114830000I0J-250000D01*
G01*
X142965000Y-115505000D01*
G75*
G02*
X142715000Y-115755000I-250000J0D01*
G01*
G37*
%TD.AperFunction*%
%TO.P,C3,1*%
%TO.N,/0.625V*%
%TA.AperFunction,SMDPad,CuDef*%
G36*
G01*
X142715000Y-117830000D02*
X141765000Y-117830000D01*
G75*
G02*
X141515000Y-117580000I0J250000D01*
G01*
X141515000Y-116905000D01*
G75*
G02*
X141765000Y-116655000I250000J0D01*
G01*
X142715000Y-116655000D01*
G75*
G02*
X142965000Y-116905000I0J-250000D01*
G01*
X142965000Y-117580000D01*
G75*
G02*
X142715000Y-117830000I-250000J0D01*
G01*
G37*
%TD.AperFunction*%
%TD*%
%TO.P,C2,2*%
%TO.N,GND*%
%TA.AperFunction,SMDPad,CuDef*%
G36*
G01*
X155792500Y-121760000D02*
X155792500Y-120810000D01*
G75*
G02*
X156042500Y-120560000I250000J0D01*
G01*
X156717500Y-120560000D01*
G75*
G02*
X156967500Y-120810000I0J-250000D01*
G01*
X156967500Y-121760000D01*
G75*
G02*
X156717500Y-122010000I-250000J0D01*
G01*
X156042500Y-122010000D01*
G75*
G02*
X155792500Y-121760000I0J250000D01*
G01*
G37*
%TD.AperFunction*%
%TO.P,C2,1*%
%TO.N,Net-(C2-Pad1)*%
%TA.AperFunction,SMDPad,CuDef*%
G36*
G01*
X153717500Y-121760000D02*
X153717500Y-120810000D01*
G75*
G02*
X153967500Y-120560000I250000J0D01*
G01*
X154642500Y-120560000D01*
G75*
G02*
X154892500Y-120810000I0J-250000D01*
G01*
X154892500Y-121760000D01*
G75*
G02*
X154642500Y-122010000I-250000J0D01*
G01*
X153967500Y-122010000D01*
G75*
G02*
X153717500Y-121760000I0J250000D01*
G01*
G37*
%TD.AperFunction*%
%TD*%
%TO.P,C1,2*%
%TO.N,Net-(C1-Pad2)*%
%TA.AperFunction,SMDPad,CuDef*%
G36*
G01*
X152215000Y-124300000D02*
X152215000Y-123350000D01*
G75*
G02*
X152465000Y-123100000I250000J0D01*
G01*
X153140000Y-123100000D01*
G75*
G02*
X153390000Y-123350000I0J-250000D01*
G01*
X153390000Y-124300000D01*
G75*
G02*
X153140000Y-124550000I-250000J0D01*
G01*
X152465000Y-124550000D01*
G75*
G02*
X152215000Y-124300000I0J250000D01*
G01*
G37*
%TD.AperFunction*%
%TO.P,C1,1*%
%TO.N,Net-(C1-Pad1)*%
%TA.AperFunction,SMDPad,CuDef*%
G36*
G01*
X150140000Y-124300000D02*
X150140000Y-123350000D01*
G75*
G02*
X150390000Y-123100000I250000J0D01*
G01*
X151065000Y-123100000D01*
G75*
G02*
X151315000Y-123350000I0J-250000D01*
G01*
X151315000Y-124300000D01*
G75*
G02*
X151065000Y-124550000I-250000J0D01*
G01*
X150390000Y-124550000D01*
G75*
G02*
X150140000Y-124300000I0J250000D01*
G01*
G37*
%TD.AperFunction*%
%TD*%
D19*
%TO.N,GND*%
X119380000Y-74549000D03*
X117475000Y-71755000D03*
X129540000Y-74676000D03*
X127635000Y-71755000D03*
X137795000Y-71755000D03*
X139700000Y-74676000D03*
X147955000Y-71755000D03*
X149860000Y-74930000D03*
X158115000Y-71755000D03*
X160274000Y-74803000D03*
X117475000Y-87630000D03*
X119380000Y-90424000D03*
X127635000Y-87630000D03*
X129540000Y-90551000D03*
X137795000Y-87630000D03*
X139700000Y-90551000D03*
X147955000Y-87630000D03*
X149860000Y-90551000D03*
X168021000Y-87630000D03*
X170180000Y-90551000D03*
X158115000Y-87630000D03*
X160020000Y-90551000D03*
X142240000Y-114300000D03*
X139700000Y-114300000D03*
X142240000Y-124206000D03*
X157226000Y-121285000D03*
X151765000Y-117475000D03*
X131635500Y-120967500D03*
%TO.N,/ADC_in*%
X146812000Y-120015000D03*
D20*
%TO.N,/MIC_out*%
X161290000Y-118745000D03*
D19*
%TO.N,Net-(R1-Pad2)*%
X144145000Y-118745000D03*
X144780000Y-123825000D03*
%TD*%
D21*
%TO.N,Net-(C1-Pad2)*%
X150430000Y-120015000D02*
X152019000Y-120015000D01*
X152019000Y-120015000D02*
X152802500Y-120798500D01*
X150451500Y-121306500D02*
X150430000Y-121285000D01*
X152802500Y-121306500D02*
X150451500Y-121306500D01*
X152802500Y-120798500D02*
X152802500Y-121306500D01*
X152802500Y-121306500D02*
X152802500Y-123825000D01*
%TO.N,Net-(C1-Pad1)*%
X147685000Y-123825000D02*
X150727500Y-123825000D01*
D22*
%TO.N,GND*%
X117475000Y-71755000D02*
X116607500Y-71755000D01*
X119380000Y-74549000D02*
X119380000Y-73660000D01*
X127635000Y-71755000D02*
X126767500Y-71755000D01*
X129540000Y-74676000D02*
X129540000Y-73755000D01*
X136927500Y-71755000D02*
X137795000Y-71755000D01*
X139700000Y-74676000D02*
X139700000Y-73755000D01*
X147955000Y-71755000D02*
X147087500Y-71755000D01*
X149860000Y-74930000D02*
X149860000Y-74025000D01*
X158115000Y-71755000D02*
X157247500Y-71755000D01*
X160274000Y-74803000D02*
X160274000Y-73882000D01*
X117475000Y-87630000D02*
X116607500Y-87630000D01*
X119380000Y-90424000D02*
X119380000Y-89535000D01*
X127635000Y-87630000D02*
X126767500Y-87630000D01*
X129540000Y-90551000D02*
X129540000Y-89630000D01*
X137795000Y-87630000D02*
X136927500Y-87630000D01*
X139700000Y-90551000D02*
X139700000Y-89630000D01*
X147955000Y-87630000D02*
X147087500Y-87630000D01*
X149860000Y-90551000D02*
X149860000Y-89630000D01*
X168021000Y-87630000D02*
X167175000Y-87630000D01*
X170180000Y-90551000D02*
X170180000Y-89630000D01*
X158115000Y-87630000D02*
X157247500Y-87630000D01*
X160020000Y-90551000D02*
X160020000Y-89630000D01*
X139700000Y-115205000D02*
X139700000Y-114300000D01*
X142240000Y-114300000D02*
X142240000Y-115167500D01*
X142240000Y-124206000D02*
X142240000Y-123360000D01*
X157226000Y-121285000D02*
X156380000Y-121285000D01*
D23*
X150430000Y-117475000D02*
X151765000Y-117475000D01*
D22*
X131633000Y-120970000D02*
X131635500Y-120967500D01*
X130405000Y-120970000D02*
X131633000Y-120970000D01*
D21*
%TO.N,Net-(C2-Pad1)*%
X154305000Y-121285000D02*
X154305000Y-118745000D01*
X154305000Y-118745000D02*
X150430000Y-118745000D01*
%TO.N,/0.625V*%
X139737500Y-117242500D02*
X139700000Y-117205000D01*
X142240000Y-117242500D02*
X139737500Y-117242500D01*
X139700000Y-117205000D02*
X139700000Y-119285000D01*
X142472500Y-117475000D02*
X142240000Y-117242500D01*
X145480000Y-117475000D02*
X142472500Y-117475000D01*
%TO.N,+5V*%
X145480000Y-121285000D02*
X139700000Y-121285000D01*
D23*
X171450000Y-107950000D02*
X173990000Y-110490000D01*
X113665000Y-107950000D02*
X171450000Y-107950000D01*
X110490000Y-111125000D02*
X113665000Y-107950000D01*
X106680000Y-111125000D02*
X110490000Y-111125000D01*
X116205000Y-121920000D02*
X114935000Y-121920000D01*
X110490000Y-117475000D02*
X110490000Y-111125000D01*
X114935000Y-121920000D02*
X110490000Y-117475000D01*
D21*
X139700000Y-121285000D02*
X139700000Y-123825000D01*
X139700000Y-123825000D02*
X141605000Y-125730000D01*
X156845000Y-125730000D02*
X160655000Y-121920000D01*
X141605000Y-125730000D02*
X156845000Y-125730000D01*
D23*
X170180000Y-114300000D02*
X168275000Y-114300000D01*
X173990000Y-110490000D02*
X170180000Y-114300000D01*
X160655000Y-121920000D02*
X168275000Y-114300000D01*
D21*
%TO.N,Net-(C26-Pad1)*%
X114570000Y-84460000D02*
X114540000Y-84430000D01*
X114570000Y-90170000D02*
X114570000Y-84460000D01*
%TO.N,Net-(C27-Pad1)*%
X114570000Y-68585000D02*
X114540000Y-68555000D01*
X114570000Y-74295000D02*
X114570000Y-68585000D01*
%TO.N,Net-(C28-Pad1)*%
X124730000Y-84460000D02*
X124700000Y-84430000D01*
X124730000Y-90170000D02*
X124730000Y-84460000D01*
%TO.N,Net-(C29-Pad1)*%
X124730000Y-68585000D02*
X124700000Y-68555000D01*
X124730000Y-74295000D02*
X124730000Y-68585000D01*
%TO.N,Net-(C30-Pad1)*%
X134890000Y-84460000D02*
X134860000Y-84430000D01*
X134890000Y-90170000D02*
X134890000Y-84460000D01*
%TO.N,Net-(C31-Pad1)*%
X134890000Y-68585000D02*
X134860000Y-68555000D01*
X134890000Y-74295000D02*
X134890000Y-68585000D01*
%TO.N,Net-(C32-Pad1)*%
X145050000Y-84460000D02*
X145020000Y-84430000D01*
X145050000Y-90170000D02*
X145050000Y-84460000D01*
%TO.N,/ADC_in*%
X148590000Y-118237000D02*
X146812000Y-120015000D01*
X148590000Y-110490000D02*
X148590000Y-118237000D01*
X146812000Y-120015000D02*
X145480000Y-120015000D01*
%TO.N,/pwr_led*%
X130405000Y-122870000D02*
X132781000Y-122870000D01*
X132781000Y-122870000D02*
X135509000Y-120142000D01*
X135509000Y-115951000D02*
X135509000Y-118364000D01*
X135509000Y-118364000D02*
X135509000Y-116713000D01*
X135509000Y-120142000D02*
X135509000Y-118364000D01*
X138112500Y-113347500D02*
X135509000Y-115951000D01*
X138112500Y-113347500D02*
X140970000Y-110490000D01*
%TO.N,/PWM_10*%
X167100000Y-94520000D02*
X166370000Y-95250000D01*
X167100000Y-90170000D02*
X167100000Y-94520000D01*
%TO.N,/PWM_9*%
X155252999Y-79391601D02*
X155252999Y-76252001D01*
X155252999Y-76252001D02*
X157210000Y-74295000D01*
X157268398Y-81407000D02*
X155252999Y-79391601D01*
X163830000Y-85471000D02*
X159766000Y-81407000D01*
X159766000Y-81407000D02*
X157268398Y-81407000D01*
X163830000Y-95250000D02*
X163830000Y-85471000D01*
%TO.N,/PWM_8*%
X157210000Y-91170000D02*
X161290000Y-95250000D01*
X157210000Y-90170000D02*
X157210000Y-91170000D01*
%TO.N,/PWM_7*%
X147955000Y-74295000D02*
X147050000Y-74295000D01*
X152273000Y-78613000D02*
X147955000Y-74295000D01*
X152273000Y-88849018D02*
X152273000Y-78613000D01*
X158673982Y-95250000D02*
X152273000Y-88849018D01*
X158750000Y-95250000D02*
X158673982Y-95250000D01*
%TO.N,/PWM_6*%
X147050000Y-90170000D02*
X147050000Y-90916000D01*
X148043960Y-91909960D02*
X152869960Y-91909960D01*
X152869960Y-91909960D02*
X156210000Y-95250000D01*
X147050000Y-90916000D02*
X148043960Y-91909960D01*
%TO.N,/PWM_5*%
X136890000Y-74295000D02*
X138176000Y-74295000D01*
X138176000Y-74295000D02*
X142621000Y-78740000D01*
X142621000Y-78740000D02*
X142621000Y-90932000D01*
X150783970Y-92363970D02*
X153670000Y-95250000D01*
X144052970Y-92363970D02*
X150783970Y-92363970D01*
X142621000Y-90932000D02*
X144052970Y-92363970D01*
%TO.N,/PWM_4*%
X148697980Y-92817980D02*
X151130000Y-95250000D01*
X136890000Y-91805000D02*
X137902980Y-92817980D01*
X137902980Y-92817980D02*
X148697980Y-92817980D01*
X136890000Y-90170000D02*
X136890000Y-91805000D01*
%TO.N,/PWM_3*%
X126730000Y-74295000D02*
X127762000Y-74295000D01*
X127762000Y-74295000D02*
X132588000Y-79121000D01*
X146611990Y-93271990D02*
X148590000Y-95250000D01*
X135054990Y-93271990D02*
X146611990Y-93271990D01*
X132588000Y-90805000D02*
X135054990Y-93271990D01*
X132588000Y-79121000D02*
X132588000Y-90805000D01*
%TO.N,/PWM_2*%
X126730000Y-90170000D02*
X126730000Y-92186000D01*
X126730000Y-92186000D02*
X128270000Y-93726000D01*
X144526000Y-93726000D02*
X146050000Y-95250000D01*
X128270000Y-93726000D02*
X144526000Y-93726000D01*
%TO.N,/PWM_1*%
X123190000Y-95250000D02*
X123190000Y-80010000D01*
X117475000Y-74295000D02*
X119697500Y-76517500D01*
X116570000Y-74295000D02*
X117475000Y-74295000D01*
X119697500Y-76517500D02*
X119126000Y-75946000D01*
X123190000Y-80010000D02*
X119697500Y-76517500D01*
%TO.N,/PWM_0*%
X116570000Y-90170000D02*
X117729000Y-90170000D01*
X120650000Y-93091000D02*
X120650000Y-95250000D01*
X117729000Y-90170000D02*
X120650000Y-93091000D01*
%TO.N,Net-(J2-Pad2)*%
X119745000Y-120920000D02*
X118745000Y-121920000D01*
X123825000Y-120920000D02*
X119745000Y-120920000D01*
%TO.N,/MIC_out*%
X156305000Y-118745000D02*
X161290000Y-118745000D01*
X161290000Y-118745000D02*
X161290000Y-118745000D01*
%TO.N,Net-(Q1-Pad3)*%
X127405000Y-121920000D02*
X125984000Y-121920000D01*
X124984000Y-122920000D02*
X123825000Y-122920000D01*
X125984000Y-121920000D02*
X124984000Y-122920000D01*
%TO.N,Net-(Q3-Pad3)*%
X119380000Y-84670000D02*
X119140000Y-84430000D01*
X119380000Y-87535000D02*
X119380000Y-84670000D01*
%TO.N,Net-(Q4-Pad3)*%
X119380000Y-68795000D02*
X119140000Y-68555000D01*
X119380000Y-71660000D02*
X119380000Y-68795000D01*
%TO.N,Net-(Q5-Pad3)*%
X129540000Y-84670000D02*
X129300000Y-84430000D01*
X129540000Y-87630000D02*
X129540000Y-84670000D01*
D24*
%TO.N,Net-(Q6-Pad3)*%
X129540000Y-68795000D02*
X129300000Y-68555000D01*
X129540000Y-71755000D02*
X129540000Y-68795000D01*
D21*
%TO.N,Net-(Q7-Pad3)*%
X139700000Y-84670000D02*
X139460000Y-84430000D01*
X139700000Y-87630000D02*
X139700000Y-84670000D01*
%TO.N,Net-(Q8-Pad3)*%
X139700000Y-68795000D02*
X139460000Y-68555000D01*
X139700000Y-71755000D02*
X139700000Y-68795000D01*
%TO.N,Net-(Q9-Pad3)*%
X149860000Y-84670000D02*
X149620000Y-84430000D01*
X149860000Y-87630000D02*
X149860000Y-84670000D01*
%TO.N,Net-(Q10-Pad3)*%
X149860000Y-68795000D02*
X149620000Y-68555000D01*
X149860000Y-72025000D02*
X149860000Y-68795000D01*
%TO.N,Net-(Q11-Pad3)*%
X160020000Y-84670000D02*
X159780000Y-84430000D01*
X160020000Y-87630000D02*
X160020000Y-84670000D01*
%TO.N,Net-(Q12-Pad3)*%
X160274000Y-69049000D02*
X159780000Y-68555000D01*
X160274000Y-71882000D02*
X160274000Y-69049000D01*
%TO.N,Net-(Q13-Pad3)*%
X170180000Y-84670000D02*
X169940000Y-84430000D01*
X170180000Y-87630000D02*
X170180000Y-84670000D01*
D22*
%TO.N,Net-(R1-Pad2)*%
X144780000Y-123825000D02*
X145685000Y-123825000D01*
D21*
X145480000Y-118745000D02*
X144145000Y-118745000D01*
%TO.N,Net-(C33-Pad1)*%
X145050000Y-68585000D02*
X145020000Y-68555000D01*
X145050000Y-74295000D02*
X145050000Y-68585000D01*
%TO.N,Net-(C34-Pad1)*%
X155210000Y-84460000D02*
X155180000Y-84430000D01*
X155210000Y-90170000D02*
X155210000Y-84460000D01*
%TO.N,Net-(C35-Pad1)*%
X155210000Y-68585000D02*
X155180000Y-68555000D01*
X155210000Y-74295000D02*
X155210000Y-68585000D01*
%TO.N,Net-(J4-Pad12)*%
X127635000Y-53975000D02*
X157607000Y-53975000D01*
X167640000Y-64008000D02*
X167640000Y-78130000D01*
X157607000Y-53975000D02*
X167640000Y-64008000D01*
%TO.N,Net-(J4-Pad11)*%
X127635000Y-56515000D02*
X154559000Y-56515000D01*
X157480000Y-59436000D02*
X157480000Y-62255000D01*
X154559000Y-56515000D02*
X157480000Y-59436000D01*
%TO.N,Net-(J4-Pad10)*%
X126457999Y-55337999D02*
X157445999Y-55337999D01*
X125095000Y-53975000D02*
X126457999Y-55337999D01*
X157445999Y-55337999D02*
X163830000Y-61722000D01*
X163830000Y-61722000D02*
X163830000Y-76454000D01*
X162154000Y-78130000D02*
X157480000Y-78130000D01*
X163830000Y-76454000D02*
X162154000Y-78130000D01*
%TO.N,Net-(J4-Pad9)*%
X126599980Y-58019980D02*
X145141980Y-58019980D01*
X125095000Y-56515000D02*
X126599980Y-58019980D01*
X147320000Y-60198000D02*
X147320000Y-62255000D01*
X145141980Y-58019980D02*
X147320000Y-60198000D01*
%TO.N,Net-(J4-Pad8)*%
X144170000Y-78130000D02*
X147320000Y-78130000D01*
X143256000Y-77216000D02*
X144170000Y-78130000D01*
X123917999Y-57079961D02*
X125766038Y-58928000D01*
X123917999Y-55337999D02*
X123917999Y-57079961D01*
X122555000Y-53975000D02*
X123917999Y-55337999D01*
X125766038Y-58928000D02*
X141224000Y-58928000D01*
X143256000Y-60960000D02*
X143256000Y-64770000D01*
X141224000Y-58928000D02*
X143256000Y-60960000D01*
X143256000Y-64770000D02*
X143256000Y-77216000D01*
X143256000Y-64516000D02*
X143256000Y-64770000D01*
%TO.N,Net-(J4-Pad7)*%
X137160000Y-60198000D02*
X137160000Y-62255000D01*
X136652000Y-59690000D02*
X137160000Y-60198000D01*
X125730000Y-59690000D02*
X136652000Y-59690000D01*
X122555000Y-56515000D02*
X125730000Y-59690000D01*
%TO.N,Net-(J4-Pad6)*%
X137160000Y-78130000D02*
X134264000Y-78130000D01*
X134264000Y-78130000D02*
X132080000Y-75946000D01*
X132080000Y-75946000D02*
X132080000Y-61976000D01*
X121377999Y-55337999D02*
X120015000Y-53975000D01*
X121377999Y-57079961D02*
X121377999Y-55337999D01*
X123226038Y-58928000D02*
X121377999Y-57079961D01*
X123226038Y-58928000D02*
X123226038Y-58964038D01*
X124714000Y-60452000D02*
X130556000Y-60452000D01*
X123226038Y-58964038D02*
X124714000Y-60452000D01*
X132080000Y-61976000D02*
X130556000Y-60452000D01*
%TO.N,Net-(J4-Pad5)*%
X123469000Y-62255000D02*
X127000000Y-62255000D01*
X120015000Y-58801000D02*
X123469000Y-62255000D01*
X120015000Y-56515000D02*
X120015000Y-58801000D01*
%TO.N,Net-(J4-Pad4)*%
X127000000Y-78130000D02*
X124612000Y-78130000D01*
X124612000Y-78130000D02*
X121412000Y-74930000D01*
X118652001Y-55152001D02*
X117475000Y-53975000D01*
X118652001Y-58842067D02*
X118652001Y-55152001D01*
X121412000Y-61602066D02*
X118652001Y-58842067D01*
X121412000Y-74930000D02*
X121412000Y-61602066D01*
%TO.N,Net-(J4-Pad3)*%
X116840000Y-57150000D02*
X117475000Y-56515000D01*
X116840000Y-62255000D02*
X116840000Y-57150000D01*
%TO.N,Net-(J4-Pad2)*%
X114198000Y-78130000D02*
X116840000Y-78130000D01*
X112522000Y-76454000D02*
X114198000Y-78130000D01*
X114935000Y-53975000D02*
X113732919Y-53975000D01*
X112522000Y-55185920D02*
X113444960Y-54262960D01*
X113732919Y-53975000D02*
X113444960Y-54262960D01*
X112522000Y-58166000D02*
X112522000Y-55185920D01*
X112522000Y-56388000D02*
X112522000Y-58166000D01*
X112522000Y-58166000D02*
X112522000Y-76454000D01*
%TO.N,Net-(C36-Pad1)*%
X165100000Y-84670000D02*
X165340000Y-84430000D01*
X165100000Y-90170000D02*
X165100000Y-84670000D01*
%TD*%
M02*
