M48
; DRILL file {KiCad (5.1.9)-1} date 08/30/21 22:29:07
; FORMAT={-:-/ absolute / inch / decimal}
; #@! TF.CreationDate,2021-08-30T22:29:07-04:00
; #@! TF.GenerationSoftware,Kicad,Pcbnew,(5.1.9)-1
; #@! TF.FileFunction,Plated,1,2,PTH
FMAT,2
INCH
T1C0.0150
T2C0.0157
T3C0.0394
T4C0.1160
%
G90
G05
T1
X4.625Y-2.825
X4.625Y-3.45
X4.7Y-2.935
X4.7Y-3.56
X5.025Y-2.825
X5.025Y-3.45
X5.1Y-2.94
X5.1Y-3.565
X5.1825Y-4.7625
X5.425Y-2.825
X5.425Y-3.45
X5.5Y-2.94
X5.5Y-3.565
X5.5Y-4.5
X5.6Y-4.5
X5.6Y-4.89
X5.675Y-4.675
X5.7Y-4.875
X5.78Y-4.725
X5.825Y-2.825
X5.825Y-3.45
X5.9Y-2.95
X5.9Y-3.565
X5.975Y-4.625
X6.19Y-4.775
X6.225Y-2.825
X6.225Y-3.45
X6.3Y-3.565
X6.31Y-2.945
X6.615Y-3.45
X6.7Y-3.565
T2
X6.35Y-4.675
T3
X4.2Y-4.275
X4.2Y-4.375
X4.2Y-4.475
X4.525Y-2.125
X4.525Y-2.225
X4.55Y-3.75
X4.55Y-4.35
X4.575Y-4.8
X4.625Y-2.125
X4.625Y-2.225
X4.65Y-3.75
X4.65Y-4.35
X4.675Y-4.8
X4.725Y-2.125
X4.725Y-2.225
X4.75Y-3.75
X4.75Y-4.35
X4.825Y-2.125
X4.825Y-2.225
X4.85Y-3.75
X4.85Y-4.35
X4.925Y-2.125
X4.925Y-2.225
X4.95Y-3.75
X4.95Y-4.35
X5.025Y-2.125
X5.025Y-2.225
X5.05Y-3.75
X5.05Y-4.35
X5.15Y-3.75
X5.15Y-4.35
X5.25Y-3.75
X5.25Y-4.35
X5.35Y-3.75
X5.35Y-4.35
X5.45Y-3.75
X5.45Y-4.35
X5.55Y-3.75
X5.55Y-4.35
X5.65Y-3.75
X5.65Y-4.35
X5.75Y-3.75
X5.75Y-4.35
X5.85Y-3.75
X5.85Y-4.35
X5.95Y-3.75
X5.95Y-4.35
X6.05Y-3.75
X6.05Y-4.35
X6.15Y-3.75
X6.15Y-4.35
X6.25Y-3.75
X6.25Y-4.35
X6.325Y-4.8
X6.35Y-3.75
X6.35Y-4.35
X6.425Y-4.8
X6.45Y-3.75
X6.45Y-4.35
X6.525Y-4.8
X6.55Y-3.75
X6.55Y-4.35
X6.65Y-3.75
X6.65Y-4.35
X6.75Y-3.75
X6.75Y-4.35
X6.85Y-3.75
X6.85Y-4.35
T4
X4.2Y-2.2
X4.2Y-4.8
X6.8Y-2.2
X6.8Y-4.8
T0
M30
