%TF.GenerationSoftware,KiCad,Pcbnew,(5.1.9)-1*%
%TF.CreationDate,2021-10-04T18:28:46-04:00*%
%TF.ProjectId,In9 Music Visualizer RevC,496e3920-4d75-4736-9963-205669737561,rev?*%
%TF.SameCoordinates,Original*%
%TF.FileFunction,Legend,Bot*%
%TF.FilePolarity,Positive*%
%FSLAX46Y46*%
G04 Gerber Fmt 4.6, Leading zero omitted, Abs format (unit mm)*
G04 Created by KiCad (PCBNEW (5.1.9)-1) date 2021-10-04 18:28:46*
%MOMM*%
%LPD*%
G01*
G04 APERTURE LIST*
%ADD10C,0.120000*%
%ADD11C,0.150000*%
G04 APERTURE END LIST*
D10*
%TO.C,R10*%
X61060000Y-66632064D02*
X61060000Y-66177936D01*
X59590000Y-66632064D02*
X59590000Y-66177936D01*
%TO.C,U2*%
X67330000Y-67945000D02*
X67330000Y-69895000D01*
X67330000Y-67945000D02*
X67330000Y-65995000D01*
X62210000Y-67945000D02*
X62210000Y-69895000D01*
X62210000Y-67945000D02*
X62210000Y-64495000D01*
%TO.C,R14*%
X69352936Y-62965000D02*
X69807064Y-62965000D01*
X69352936Y-61495000D02*
X69807064Y-61495000D01*
%TO.C,R13*%
X66201936Y-78761000D02*
X67656064Y-78761000D01*
X66201936Y-76941000D02*
X67656064Y-76941000D01*
%TO.C,R12*%
X61060000Y-76030064D02*
X61060000Y-75575936D01*
X59590000Y-76030064D02*
X59590000Y-75575936D01*
%TO.C,R11*%
X74432936Y-67283000D02*
X74887064Y-67283000D01*
X74432936Y-65813000D02*
X74887064Y-65813000D01*
%TO.C,R8*%
X72925000Y-63002936D02*
X72925000Y-63457064D01*
X74395000Y-63002936D02*
X74395000Y-63457064D01*
%TO.C,R7*%
X58520000Y-71982064D02*
X58520000Y-71527936D01*
X57050000Y-71982064D02*
X57050000Y-71527936D01*
%TO.C,C17*%
X66159748Y-80999000D02*
X66682252Y-80999000D01*
X66159748Y-79529000D02*
X66682252Y-79529000D01*
%TO.C,C16*%
X60586252Y-61495000D02*
X60063748Y-61495000D01*
X60586252Y-62965000D02*
X60063748Y-62965000D01*
%TO.C,C15*%
X64911248Y-62965000D02*
X65433752Y-62965000D01*
X64911248Y-61495000D02*
X65433752Y-61495000D01*
%TO.C,C14*%
X59590000Y-71493748D02*
X59590000Y-72016252D01*
X61060000Y-71493748D02*
X61060000Y-72016252D01*
%TO.C,R10*%
D11*
X58872380Y-65762142D02*
X58396190Y-65428809D01*
X58872380Y-65190714D02*
X57872380Y-65190714D01*
X57872380Y-65571666D01*
X57920000Y-65666904D01*
X57967619Y-65714523D01*
X58062857Y-65762142D01*
X58205714Y-65762142D01*
X58300952Y-65714523D01*
X58348571Y-65666904D01*
X58396190Y-65571666D01*
X58396190Y-65190714D01*
X58872380Y-66714523D02*
X58872380Y-66143095D01*
X58872380Y-66428809D02*
X57872380Y-66428809D01*
X58015238Y-66333571D01*
X58110476Y-66238333D01*
X58158095Y-66143095D01*
X57872380Y-67333571D02*
X57872380Y-67428809D01*
X57920000Y-67524047D01*
X57967619Y-67571666D01*
X58062857Y-67619285D01*
X58253333Y-67666904D01*
X58491428Y-67666904D01*
X58681904Y-67619285D01*
X58777142Y-67571666D01*
X58824761Y-67524047D01*
X58872380Y-67428809D01*
X58872380Y-67333571D01*
X58824761Y-67238333D01*
X58777142Y-67190714D01*
X58681904Y-67143095D01*
X58491428Y-67095476D01*
X58253333Y-67095476D01*
X58062857Y-67143095D01*
X57967619Y-67190714D01*
X57920000Y-67238333D01*
X57872380Y-67333571D01*
%TO.C,U2*%
X60822380Y-68326095D02*
X61631904Y-68326095D01*
X61727142Y-68373714D01*
X61774761Y-68421333D01*
X61822380Y-68516571D01*
X61822380Y-68707047D01*
X61774761Y-68802285D01*
X61727142Y-68849904D01*
X61631904Y-68897523D01*
X60822380Y-68897523D01*
X60917619Y-69326095D02*
X60870000Y-69373714D01*
X60822380Y-69468952D01*
X60822380Y-69707047D01*
X60870000Y-69802285D01*
X60917619Y-69849904D01*
X61012857Y-69897523D01*
X61108095Y-69897523D01*
X61250952Y-69849904D01*
X61822380Y-69278476D01*
X61822380Y-69897523D01*
%TO.C,R14*%
X70222857Y-60904380D02*
X70556190Y-60428190D01*
X70794285Y-60904380D02*
X70794285Y-59904380D01*
X70413333Y-59904380D01*
X70318095Y-59952000D01*
X70270476Y-59999619D01*
X70222857Y-60094857D01*
X70222857Y-60237714D01*
X70270476Y-60332952D01*
X70318095Y-60380571D01*
X70413333Y-60428190D01*
X70794285Y-60428190D01*
X69270476Y-60904380D02*
X69841904Y-60904380D01*
X69556190Y-60904380D02*
X69556190Y-59904380D01*
X69651428Y-60047238D01*
X69746666Y-60142476D01*
X69841904Y-60190095D01*
X68413333Y-60237714D02*
X68413333Y-60904380D01*
X68651428Y-59856761D02*
X68889523Y-60571047D01*
X68270476Y-60571047D01*
%TO.C,R13*%
X63444380Y-77335142D02*
X62968190Y-77001809D01*
X63444380Y-76763714D02*
X62444380Y-76763714D01*
X62444380Y-77144666D01*
X62492000Y-77239904D01*
X62539619Y-77287523D01*
X62634857Y-77335142D01*
X62777714Y-77335142D01*
X62872952Y-77287523D01*
X62920571Y-77239904D01*
X62968190Y-77144666D01*
X62968190Y-76763714D01*
X63444380Y-78287523D02*
X63444380Y-77716095D01*
X63444380Y-78001809D02*
X62444380Y-78001809D01*
X62587238Y-77906571D01*
X62682476Y-77811333D01*
X62730095Y-77716095D01*
X62444380Y-78620857D02*
X62444380Y-79239904D01*
X62825333Y-78906571D01*
X62825333Y-79049428D01*
X62872952Y-79144666D01*
X62920571Y-79192285D01*
X63015809Y-79239904D01*
X63253904Y-79239904D01*
X63349142Y-79192285D01*
X63396761Y-79144666D01*
X63444380Y-79049428D01*
X63444380Y-78763714D01*
X63396761Y-78668476D01*
X63349142Y-78620857D01*
%TO.C,R12*%
X60904380Y-78605142D02*
X60428190Y-78271809D01*
X60904380Y-78033714D02*
X59904380Y-78033714D01*
X59904380Y-78414666D01*
X59952000Y-78509904D01*
X59999619Y-78557523D01*
X60094857Y-78605142D01*
X60237714Y-78605142D01*
X60332952Y-78557523D01*
X60380571Y-78509904D01*
X60428190Y-78414666D01*
X60428190Y-78033714D01*
X60904380Y-79557523D02*
X60904380Y-78986095D01*
X60904380Y-79271809D02*
X59904380Y-79271809D01*
X60047238Y-79176571D01*
X60142476Y-79081333D01*
X60190095Y-78986095D01*
X59999619Y-79938476D02*
X59952000Y-79986095D01*
X59904380Y-80081333D01*
X59904380Y-80319428D01*
X59952000Y-80414666D01*
X59999619Y-80462285D01*
X60094857Y-80509904D01*
X60190095Y-80509904D01*
X60332952Y-80462285D01*
X60904380Y-79890857D01*
X60904380Y-80509904D01*
%TO.C,R11*%
X79382857Y-67000380D02*
X79716190Y-66524190D01*
X79954285Y-67000380D02*
X79954285Y-66000380D01*
X79573333Y-66000380D01*
X79478095Y-66048000D01*
X79430476Y-66095619D01*
X79382857Y-66190857D01*
X79382857Y-66333714D01*
X79430476Y-66428952D01*
X79478095Y-66476571D01*
X79573333Y-66524190D01*
X79954285Y-66524190D01*
X78430476Y-67000380D02*
X79001904Y-67000380D01*
X78716190Y-67000380D02*
X78716190Y-66000380D01*
X78811428Y-66143238D01*
X78906666Y-66238476D01*
X79001904Y-66286095D01*
X77478095Y-67000380D02*
X78049523Y-67000380D01*
X77763809Y-67000380D02*
X77763809Y-66000380D01*
X77859047Y-66143238D01*
X77954285Y-66238476D01*
X78049523Y-66286095D01*
%TO.C,R8*%
X76144380Y-63063333D02*
X75668190Y-62730000D01*
X76144380Y-62491904D02*
X75144380Y-62491904D01*
X75144380Y-62872857D01*
X75192000Y-62968095D01*
X75239619Y-63015714D01*
X75334857Y-63063333D01*
X75477714Y-63063333D01*
X75572952Y-63015714D01*
X75620571Y-62968095D01*
X75668190Y-62872857D01*
X75668190Y-62491904D01*
X75572952Y-63634761D02*
X75525333Y-63539523D01*
X75477714Y-63491904D01*
X75382476Y-63444285D01*
X75334857Y-63444285D01*
X75239619Y-63491904D01*
X75192000Y-63539523D01*
X75144380Y-63634761D01*
X75144380Y-63825238D01*
X75192000Y-63920476D01*
X75239619Y-63968095D01*
X75334857Y-64015714D01*
X75382476Y-64015714D01*
X75477714Y-63968095D01*
X75525333Y-63920476D01*
X75572952Y-63825238D01*
X75572952Y-63634761D01*
X75620571Y-63539523D01*
X75668190Y-63491904D01*
X75763428Y-63444285D01*
X75953904Y-63444285D01*
X76049142Y-63491904D01*
X76096761Y-63539523D01*
X76144380Y-63634761D01*
X76144380Y-63825238D01*
X76096761Y-63920476D01*
X76049142Y-63968095D01*
X75953904Y-64015714D01*
X75763428Y-64015714D01*
X75668190Y-63968095D01*
X75620571Y-63920476D01*
X75572952Y-63825238D01*
%TO.C,R7*%
X56332380Y-71588333D02*
X55856190Y-71255000D01*
X56332380Y-71016904D02*
X55332380Y-71016904D01*
X55332380Y-71397857D01*
X55380000Y-71493095D01*
X55427619Y-71540714D01*
X55522857Y-71588333D01*
X55665714Y-71588333D01*
X55760952Y-71540714D01*
X55808571Y-71493095D01*
X55856190Y-71397857D01*
X55856190Y-71016904D01*
X55332380Y-71921666D02*
X55332380Y-72588333D01*
X56332380Y-72159761D01*
%TO.C,C17*%
X67063857Y-83161142D02*
X67111476Y-83208761D01*
X67254333Y-83256380D01*
X67349571Y-83256380D01*
X67492428Y-83208761D01*
X67587666Y-83113523D01*
X67635285Y-83018285D01*
X67682904Y-82827809D01*
X67682904Y-82684952D01*
X67635285Y-82494476D01*
X67587666Y-82399238D01*
X67492428Y-82304000D01*
X67349571Y-82256380D01*
X67254333Y-82256380D01*
X67111476Y-82304000D01*
X67063857Y-82351619D01*
X66111476Y-83256380D02*
X66682904Y-83256380D01*
X66397190Y-83256380D02*
X66397190Y-82256380D01*
X66492428Y-82399238D01*
X66587666Y-82494476D01*
X66682904Y-82542095D01*
X65778142Y-82256380D02*
X65111476Y-82256380D01*
X65540047Y-83256380D01*
%TO.C,C16*%
X60967857Y-60907142D02*
X61015476Y-60954761D01*
X61158333Y-61002380D01*
X61253571Y-61002380D01*
X61396428Y-60954761D01*
X61491666Y-60859523D01*
X61539285Y-60764285D01*
X61586904Y-60573809D01*
X61586904Y-60430952D01*
X61539285Y-60240476D01*
X61491666Y-60145238D01*
X61396428Y-60050000D01*
X61253571Y-60002380D01*
X61158333Y-60002380D01*
X61015476Y-60050000D01*
X60967857Y-60097619D01*
X60015476Y-61002380D02*
X60586904Y-61002380D01*
X60301190Y-61002380D02*
X60301190Y-60002380D01*
X60396428Y-60145238D01*
X60491666Y-60240476D01*
X60586904Y-60288095D01*
X59158333Y-60002380D02*
X59348809Y-60002380D01*
X59444047Y-60050000D01*
X59491666Y-60097619D01*
X59586904Y-60240476D01*
X59634523Y-60430952D01*
X59634523Y-60811904D01*
X59586904Y-60907142D01*
X59539285Y-60954761D01*
X59444047Y-61002380D01*
X59253571Y-61002380D01*
X59158333Y-60954761D01*
X59110714Y-60907142D01*
X59063095Y-60811904D01*
X59063095Y-60573809D01*
X59110714Y-60478571D01*
X59158333Y-60430952D01*
X59253571Y-60383333D01*
X59444047Y-60383333D01*
X59539285Y-60430952D01*
X59586904Y-60478571D01*
X59634523Y-60573809D01*
%TO.C,C15*%
X65815357Y-60809142D02*
X65862976Y-60856761D01*
X66005833Y-60904380D01*
X66101071Y-60904380D01*
X66243928Y-60856761D01*
X66339166Y-60761523D01*
X66386785Y-60666285D01*
X66434404Y-60475809D01*
X66434404Y-60332952D01*
X66386785Y-60142476D01*
X66339166Y-60047238D01*
X66243928Y-59952000D01*
X66101071Y-59904380D01*
X66005833Y-59904380D01*
X65862976Y-59952000D01*
X65815357Y-59999619D01*
X64862976Y-60904380D02*
X65434404Y-60904380D01*
X65148690Y-60904380D02*
X65148690Y-59904380D01*
X65243928Y-60047238D01*
X65339166Y-60142476D01*
X65434404Y-60190095D01*
X63958214Y-59904380D02*
X64434404Y-59904380D01*
X64482023Y-60380571D01*
X64434404Y-60332952D01*
X64339166Y-60285333D01*
X64101071Y-60285333D01*
X64005833Y-60332952D01*
X63958214Y-60380571D01*
X63910595Y-60475809D01*
X63910595Y-60713904D01*
X63958214Y-60809142D01*
X64005833Y-60856761D01*
X64101071Y-60904380D01*
X64339166Y-60904380D01*
X64434404Y-60856761D01*
X64482023Y-60809142D01*
%TO.C,C14*%
X62841142Y-72509142D02*
X62888761Y-72461523D01*
X62936380Y-72318666D01*
X62936380Y-72223428D01*
X62888761Y-72080571D01*
X62793523Y-71985333D01*
X62698285Y-71937714D01*
X62507809Y-71890095D01*
X62364952Y-71890095D01*
X62174476Y-71937714D01*
X62079238Y-71985333D01*
X61984000Y-72080571D01*
X61936380Y-72223428D01*
X61936380Y-72318666D01*
X61984000Y-72461523D01*
X62031619Y-72509142D01*
X62936380Y-73461523D02*
X62936380Y-72890095D01*
X62936380Y-73175809D02*
X61936380Y-73175809D01*
X62079238Y-73080571D01*
X62174476Y-72985333D01*
X62222095Y-72890095D01*
X62269714Y-74318666D02*
X62936380Y-74318666D01*
X61888761Y-74080571D02*
X62603047Y-73842476D01*
X62603047Y-74461523D01*
%TD*%
M02*
