%TF.GenerationSoftware,KiCad,Pcbnew,(5.1.9)-1*%
%TF.CreationDate,2021-10-04T18:28:45-04:00*%
%TF.ProjectId,In9 Music Visualizer RevC,496e3920-4d75-4736-9963-205669737561,rev?*%
%TF.SameCoordinates,Original*%
%TF.FileFunction,Copper,L1,Top*%
%TF.FilePolarity,Positive*%
%FSLAX46Y46*%
G04 Gerber Fmt 4.6, Leading zero omitted, Abs format (unit mm)*
G04 Created by KiCad (PCBNEW (5.1.9)-1) date 2021-10-04 18:28:45*
%MOMM*%
%LPD*%
G01*
G04 APERTURE LIST*
%TA.AperFunction,NonConductor*%
%ADD10C,0.300000*%
%TD*%
%TA.AperFunction,EtchedComponent*%
%ADD11C,0.381000*%
%TD*%
%TA.AperFunction,ComponentPad*%
%ADD12C,1.700000*%
%TD*%
%TA.AperFunction,ComponentPad*%
%ADD13R,1.700000X1.700000*%
%TD*%
%TA.AperFunction,ComponentPad*%
%ADD14C,1.600000*%
%TD*%
%TA.AperFunction,ComponentPad*%
%ADD15R,1.600000X1.600000*%
%TD*%
%TA.AperFunction,SMDPad,CuDef*%
%ADD16R,5.100000X2.350000*%
%TD*%
%TA.AperFunction,SMDPad,CuDef*%
%ADD17R,1.060000X0.650000*%
%TD*%
%TA.AperFunction,ComponentPad*%
%ADD18C,5.715000*%
%TD*%
%TA.AperFunction,ComponentPad*%
%ADD19O,1.905000X2.000000*%
%TD*%
%TA.AperFunction,ComponentPad*%
%ADD20R,1.905000X2.000000*%
%TD*%
%TA.AperFunction,SMDPad,CuDef*%
%ADD21R,14.000000X3.000000*%
%TD*%
%TA.AperFunction,ComponentPad*%
%ADD22C,4.000000*%
%TD*%
%TA.AperFunction,SMDPad,CuDef*%
%ADD23R,4.500000X3.300000*%
%TD*%
%TA.AperFunction,ComponentPad*%
%ADD24C,2.400000*%
%TD*%
%TA.AperFunction,ComponentPad*%
%ADD25R,2.400000X2.400000*%
%TD*%
%TA.AperFunction,ViaPad*%
%ADD26C,0.762000*%
%TD*%
%TA.AperFunction,ViaPad*%
%ADD27C,1.016000*%
%TD*%
%TA.AperFunction,Conductor*%
%ADD28C,1.016000*%
%TD*%
%TA.AperFunction,Conductor*%
%ADD29C,0.508000*%
%TD*%
%TA.AperFunction,Conductor*%
%ADD30C,0.254000*%
%TD*%
%TA.AperFunction,Conductor*%
%ADD31C,0.762000*%
%TD*%
%TA.AperFunction,Conductor*%
%ADD32C,0.100000*%
%TD*%
G04 APERTURE END LIST*
D10*
X95806571Y-57066571D02*
X95806571Y-55566571D01*
X95806571Y-56280857D02*
X96663714Y-56280857D01*
X96663714Y-57066571D02*
X96663714Y-55566571D01*
X97378000Y-57066571D02*
X97378000Y-55566571D01*
X98878000Y-55638000D02*
X98735142Y-55566571D01*
X98520857Y-55566571D01*
X98306571Y-55638000D01*
X98163714Y-55780857D01*
X98092285Y-55923714D01*
X98020857Y-56209428D01*
X98020857Y-56423714D01*
X98092285Y-56709428D01*
X98163714Y-56852285D01*
X98306571Y-56995142D01*
X98520857Y-57066571D01*
X98663714Y-57066571D01*
X98878000Y-56995142D01*
X98949428Y-56923714D01*
X98949428Y-56423714D01*
X98663714Y-56423714D01*
X99592285Y-57066571D02*
X99592285Y-55566571D01*
X99592285Y-56280857D02*
X100449428Y-56280857D01*
X100449428Y-57066571D02*
X100449428Y-55566571D01*
X102092285Y-55566571D02*
X102592285Y-57066571D01*
X103092285Y-55566571D01*
X103878000Y-55566571D02*
X104163714Y-55566571D01*
X104306571Y-55638000D01*
X104449428Y-55780857D01*
X104520857Y-56066571D01*
X104520857Y-56566571D01*
X104449428Y-56852285D01*
X104306571Y-56995142D01*
X104163714Y-57066571D01*
X103878000Y-57066571D01*
X103735142Y-56995142D01*
X103592285Y-56852285D01*
X103520857Y-56566571D01*
X103520857Y-56066571D01*
X103592285Y-55780857D01*
X103735142Y-55638000D01*
X103878000Y-55566571D01*
X105878000Y-57066571D02*
X105163714Y-57066571D01*
X105163714Y-55566571D01*
X106163714Y-55566571D02*
X107020857Y-55566571D01*
X106592285Y-57066571D02*
X106592285Y-55566571D01*
X107449428Y-56638000D02*
X108163714Y-56638000D01*
X107306571Y-57066571D02*
X107806571Y-55566571D01*
X108306571Y-57066571D01*
X109592285Y-55638000D02*
X109449428Y-55566571D01*
X109235142Y-55566571D01*
X109020857Y-55638000D01*
X108878000Y-55780857D01*
X108806571Y-55923714D01*
X108735142Y-56209428D01*
X108735142Y-56423714D01*
X108806571Y-56709428D01*
X108878000Y-56852285D01*
X109020857Y-56995142D01*
X109235142Y-57066571D01*
X109378000Y-57066571D01*
X109592285Y-56995142D01*
X109663714Y-56923714D01*
X109663714Y-56423714D01*
X109378000Y-56423714D01*
X110306571Y-56280857D02*
X110806571Y-56280857D01*
X111020857Y-57066571D02*
X110306571Y-57066571D01*
X110306571Y-55566571D01*
X111020857Y-55566571D01*
D11*
%TO.C,REF\u002A\u002A*%
X92075000Y-57785000D02*
X91948000Y-57277000D01*
X93218000Y-55499000D02*
X92075000Y-57785000D01*
X91821000Y-55499000D02*
X93218000Y-55499000D01*
X93345000Y-53213000D02*
X91821000Y-55499000D01*
X93599000Y-53594000D02*
X93472000Y-53086000D01*
X94361000Y-53086000D02*
X93599000Y-53594000D01*
X92583000Y-55118000D02*
X94361000Y-53086000D01*
X93853000Y-55118000D02*
X92583000Y-55118000D01*
X92075000Y-57912000D02*
X93853000Y-55118000D01*
X92583000Y-57658000D02*
X92075000Y-57912000D01*
X91821000Y-58293000D02*
X92583000Y-57658000D01*
X91948000Y-57277000D02*
X91821000Y-58293000D01*
X92202000Y-55372000D02*
X93472000Y-55372000D01*
X93599000Y-53467000D02*
X92202000Y-55372000D01*
X113411000Y-57912000D02*
X113284000Y-57404000D01*
X114554000Y-55626000D02*
X113411000Y-57912000D01*
X113157000Y-55626000D02*
X114554000Y-55626000D01*
X114681000Y-53340000D02*
X113157000Y-55626000D01*
X114935000Y-53721000D02*
X114808000Y-53213000D01*
X115697000Y-53213000D02*
X114935000Y-53721000D01*
X113919000Y-55245000D02*
X115697000Y-53213000D01*
X115189000Y-55245000D02*
X113919000Y-55245000D01*
X113411000Y-58039000D02*
X115189000Y-55245000D01*
X113919000Y-57785000D02*
X113411000Y-58039000D01*
X113157000Y-58420000D02*
X113919000Y-57785000D01*
X113284000Y-57404000D02*
X113157000Y-58420000D01*
X113538000Y-55499000D02*
X114808000Y-55499000D01*
X114935000Y-53594000D02*
X113538000Y-55499000D01*
%TD*%
D12*
%TO.P,J5,2*%
%TO.N,+5V*%
X120650000Y-96520000D03*
D13*
%TO.P,J5,1*%
%TO.N,150V*%
X120650000Y-93980000D03*
D12*
%TO.P,J5,3*%
%TO.N,GND*%
X120650000Y-99060000D03*
%TD*%
D14*
%TO.P,C22,2*%
%TO.N,GND*%
X87884000Y-123658000D03*
D15*
%TO.P,C22,1*%
%TO.N,+12V*%
X87884000Y-121158000D03*
%TD*%
D16*
%TO.P,L2,2*%
%TO.N,Net-(C18-Pad2)*%
X92710000Y-117010000D03*
%TO.P,L2,1*%
%TO.N,+5V*%
X92710000Y-112860000D03*
%TD*%
%TO.P,C18,2*%
%TO.N,Net-(C18-Pad2)*%
%TA.AperFunction,SMDPad,CuDef*%
G36*
G01*
X99880000Y-112555000D02*
X99880000Y-113505000D01*
G75*
G02*
X99630000Y-113755000I-250000J0D01*
G01*
X98955000Y-113755000D01*
G75*
G02*
X98705000Y-113505000I0J250000D01*
G01*
X98705000Y-112555000D01*
G75*
G02*
X98955000Y-112305000I250000J0D01*
G01*
X99630000Y-112305000D01*
G75*
G02*
X99880000Y-112555000I0J-250000D01*
G01*
G37*
%TD.AperFunction*%
%TO.P,C18,1*%
%TO.N,Net-(C18-Pad1)*%
%TA.AperFunction,SMDPad,CuDef*%
G36*
G01*
X101955000Y-112555000D02*
X101955000Y-113505000D01*
G75*
G02*
X101705000Y-113755000I-250000J0D01*
G01*
X101030000Y-113755000D01*
G75*
G02*
X100780000Y-113505000I0J250000D01*
G01*
X100780000Y-112555000D01*
G75*
G02*
X101030000Y-112305000I250000J0D01*
G01*
X101705000Y-112305000D01*
G75*
G02*
X101955000Y-112555000I0J-250000D01*
G01*
G37*
%TD.AperFunction*%
%TD*%
D17*
%TO.P,U3,5*%
%TO.N,+12V*%
X101430000Y-116840000D03*
%TO.P,U3,6*%
%TO.N,Net-(C18-Pad1)*%
X101430000Y-115890000D03*
%TO.P,U3,4*%
%TO.N,Net-(C23-Pad2)*%
X101430000Y-117790000D03*
%TO.P,U3,3*%
%TO.N,+12V*%
X99230000Y-117790000D03*
%TO.P,U3,2*%
%TO.N,Net-(C18-Pad2)*%
X99230000Y-116840000D03*
%TO.P,U3,1*%
%TO.N,GND*%
X99230000Y-115890000D03*
%TD*%
%TO.P,C13,2*%
%TO.N,GND*%
%TA.AperFunction,SMDPad,CuDef*%
G36*
G01*
X87540002Y-54230000D02*
X82639998Y-54230000D01*
G75*
G02*
X82390000Y-53980002I0J249998D01*
G01*
X82390000Y-52504998D01*
G75*
G02*
X82639998Y-52255000I249998J0D01*
G01*
X87540002Y-52255000D01*
G75*
G02*
X87790000Y-52504998I0J-249998D01*
G01*
X87790000Y-53980002D01*
G75*
G02*
X87540002Y-54230000I-249998J0D01*
G01*
G37*
%TD.AperFunction*%
%TO.P,C13,1*%
%TO.N,150V*%
%TA.AperFunction,SMDPad,CuDef*%
G36*
G01*
X87540002Y-59505000D02*
X82639998Y-59505000D01*
G75*
G02*
X82390000Y-59255002I0J249998D01*
G01*
X82390000Y-57779998D01*
G75*
G02*
X82639998Y-57530000I249998J0D01*
G01*
X87540002Y-57530000D01*
G75*
G02*
X87790000Y-57779998I0J-249998D01*
G01*
X87790000Y-59255002D01*
G75*
G02*
X87540002Y-59505000I-249998J0D01*
G01*
G37*
%TD.AperFunction*%
%TD*%
%TO.P,C12,2*%
%TO.N,GND*%
%TA.AperFunction,SMDPad,CuDef*%
G36*
G01*
X80555002Y-54230000D02*
X75654998Y-54230000D01*
G75*
G02*
X75405000Y-53980002I0J249998D01*
G01*
X75405000Y-52504998D01*
G75*
G02*
X75654998Y-52255000I249998J0D01*
G01*
X80555002Y-52255000D01*
G75*
G02*
X80805000Y-52504998I0J-249998D01*
G01*
X80805000Y-53980002D01*
G75*
G02*
X80555002Y-54230000I-249998J0D01*
G01*
G37*
%TD.AperFunction*%
%TO.P,C12,1*%
%TO.N,150V*%
%TA.AperFunction,SMDPad,CuDef*%
G36*
G01*
X80555002Y-59505000D02*
X75654998Y-59505000D01*
G75*
G02*
X75405000Y-59255002I0J249998D01*
G01*
X75405000Y-57779998D01*
G75*
G02*
X75654998Y-57530000I249998J0D01*
G01*
X80555002Y-57530000D01*
G75*
G02*
X80805000Y-57779998I0J-249998D01*
G01*
X80805000Y-59255002D01*
G75*
G02*
X80555002Y-59505000I-249998J0D01*
G01*
G37*
%TD.AperFunction*%
%TD*%
%TO.P,C11,2*%
%TO.N,GND*%
%TA.AperFunction,SMDPad,CuDef*%
G36*
G01*
X73570002Y-54230000D02*
X68669998Y-54230000D01*
G75*
G02*
X68420000Y-53980002I0J249998D01*
G01*
X68420000Y-52504998D01*
G75*
G02*
X68669998Y-52255000I249998J0D01*
G01*
X73570002Y-52255000D01*
G75*
G02*
X73820000Y-52504998I0J-249998D01*
G01*
X73820000Y-53980002D01*
G75*
G02*
X73570002Y-54230000I-249998J0D01*
G01*
G37*
%TD.AperFunction*%
%TO.P,C11,1*%
%TO.N,150V*%
%TA.AperFunction,SMDPad,CuDef*%
G36*
G01*
X73570002Y-59505000D02*
X68669998Y-59505000D01*
G75*
G02*
X68420000Y-59255002I0J249998D01*
G01*
X68420000Y-57779998D01*
G75*
G02*
X68669998Y-57530000I249998J0D01*
G01*
X73570002Y-57530000D01*
G75*
G02*
X73820000Y-57779998I0J-249998D01*
G01*
X73820000Y-59255002D01*
G75*
G02*
X73570002Y-59505000I-249998J0D01*
G01*
G37*
%TD.AperFunction*%
%TD*%
%TO.P,C10,2*%
%TO.N,GND*%
%TA.AperFunction,SMDPad,CuDef*%
G36*
G01*
X66585002Y-54230000D02*
X61684998Y-54230000D01*
G75*
G02*
X61435000Y-53980002I0J249998D01*
G01*
X61435000Y-52504998D01*
G75*
G02*
X61684998Y-52255000I249998J0D01*
G01*
X66585002Y-52255000D01*
G75*
G02*
X66835000Y-52504998I0J-249998D01*
G01*
X66835000Y-53980002D01*
G75*
G02*
X66585002Y-54230000I-249998J0D01*
G01*
G37*
%TD.AperFunction*%
%TO.P,C10,1*%
%TO.N,150V*%
%TA.AperFunction,SMDPad,CuDef*%
G36*
G01*
X66585002Y-59505000D02*
X61684998Y-59505000D01*
G75*
G02*
X61435000Y-59255002I0J249998D01*
G01*
X61435000Y-57779998D01*
G75*
G02*
X61684998Y-57530000I249998J0D01*
G01*
X66585002Y-57530000D01*
G75*
G02*
X66835000Y-57779998I0J-249998D01*
G01*
X66835000Y-59255002D01*
G75*
G02*
X66585002Y-59505000I-249998J0D01*
G01*
G37*
%TD.AperFunction*%
%TD*%
D18*
%TO.P,REF\u002A\u002A,1*%
%TO.N,N/C*%
X121920000Y-121920000D03*
%TD*%
%TO.P,REF\u002A\u002A,1*%
%TO.N,N/C*%
X121920000Y-55880000D03*
%TD*%
%TO.P,REF\u002A\u002A,1*%
%TO.N,N/C*%
X55880000Y-121920000D03*
%TD*%
%TO.P,REF\u002A\u002A,1*%
%TO.N,N/C*%
X55880000Y-55880000D03*
%TD*%
%TO.P,R16,2*%
%TO.N,GND*%
%TA.AperFunction,SMDPad,CuDef*%
G36*
G01*
X104590001Y-116440000D02*
X103689999Y-116440000D01*
G75*
G02*
X103440000Y-116190001I0J249999D01*
G01*
X103440000Y-115489999D01*
G75*
G02*
X103689999Y-115240000I249999J0D01*
G01*
X104590001Y-115240000D01*
G75*
G02*
X104840000Y-115489999I0J-249999D01*
G01*
X104840000Y-116190001D01*
G75*
G02*
X104590001Y-116440000I-249999J0D01*
G01*
G37*
%TD.AperFunction*%
%TO.P,R16,1*%
%TO.N,Net-(C23-Pad2)*%
%TA.AperFunction,SMDPad,CuDef*%
G36*
G01*
X104590001Y-118440000D02*
X103689999Y-118440000D01*
G75*
G02*
X103440000Y-118190001I0J249999D01*
G01*
X103440000Y-117489999D01*
G75*
G02*
X103689999Y-117240000I249999J0D01*
G01*
X104590001Y-117240000D01*
G75*
G02*
X104840000Y-117489999I0J-249999D01*
G01*
X104840000Y-118190001D01*
G75*
G02*
X104590001Y-118440000I-249999J0D01*
G01*
G37*
%TD.AperFunction*%
%TD*%
%TO.P,R15,2*%
%TO.N,Net-(C23-Pad2)*%
%TA.AperFunction,SMDPad,CuDef*%
G36*
G01*
X108769999Y-117240000D02*
X109670001Y-117240000D01*
G75*
G02*
X109920000Y-117489999I0J-249999D01*
G01*
X109920000Y-118190001D01*
G75*
G02*
X109670001Y-118440000I-249999J0D01*
G01*
X108769999Y-118440000D01*
G75*
G02*
X108520000Y-118190001I0J249999D01*
G01*
X108520000Y-117489999D01*
G75*
G02*
X108769999Y-117240000I249999J0D01*
G01*
G37*
%TD.AperFunction*%
%TO.P,R15,1*%
%TO.N,+5V*%
%TA.AperFunction,SMDPad,CuDef*%
G36*
G01*
X108769999Y-115240000D02*
X109670001Y-115240000D01*
G75*
G02*
X109920000Y-115489999I0J-249999D01*
G01*
X109920000Y-116190001D01*
G75*
G02*
X109670001Y-116440000I-249999J0D01*
G01*
X108769999Y-116440000D01*
G75*
G02*
X108520000Y-116190001I0J249999D01*
G01*
X108520000Y-115489999D01*
G75*
G02*
X108769999Y-115240000I249999J0D01*
G01*
G37*
%TD.AperFunction*%
%TD*%
%TO.P,R9,2*%
%TO.N,GND*%
%TA.AperFunction,SMDPad,CuDef*%
G36*
G01*
X82861999Y-63519000D02*
X83762001Y-63519000D01*
G75*
G02*
X84012000Y-63768999I0J-249999D01*
G01*
X84012000Y-64469001D01*
G75*
G02*
X83762001Y-64719000I-249999J0D01*
G01*
X82861999Y-64719000D01*
G75*
G02*
X82612000Y-64469001I0J249999D01*
G01*
X82612000Y-63768999D01*
G75*
G02*
X82861999Y-63519000I249999J0D01*
G01*
G37*
%TD.AperFunction*%
%TO.P,R9,1*%
%TO.N,150V*%
%TA.AperFunction,SMDPad,CuDef*%
G36*
G01*
X82861999Y-61519000D02*
X83762001Y-61519000D01*
G75*
G02*
X84012000Y-61768999I0J-249999D01*
G01*
X84012000Y-62469001D01*
G75*
G02*
X83762001Y-62719000I-249999J0D01*
G01*
X82861999Y-62719000D01*
G75*
G02*
X82612000Y-62469001I0J249999D01*
G01*
X82612000Y-61768999D01*
G75*
G02*
X82861999Y-61519000I249999J0D01*
G01*
G37*
%TD.AperFunction*%
%TD*%
D19*
%TO.P,Q2,3*%
%TO.N,Net-(C17-Pad1)*%
X65405000Y-74549000D03*
%TO.P,Q2,2*%
%TO.N,Net-(D1-Pad2)*%
X67945000Y-74549000D03*
D20*
%TO.P,Q2,1*%
%TO.N,Net-(Q2-Pad1)*%
X70485000Y-74549000D03*
%TD*%
D21*
%TO.P,L1,2*%
%TO.N,+12V*%
X66675000Y-104380000D03*
%TO.P,L1,1*%
%TO.N,Net-(D1-Pad2)*%
X66675000Y-83580000D03*
%TD*%
D12*
%TO.P,J1,2*%
%TO.N,GND*%
X79375000Y-121920000D03*
D13*
%TO.P,J1,1*%
%TO.N,+12V*%
X76835000Y-121920000D03*
%TD*%
D22*
%TO.P,HS1,1*%
%TO.N,N/C*%
X80645000Y-78105000D03*
X55245000Y-78105000D03*
%TD*%
D23*
%TO.P,D1,2*%
%TO.N,Net-(D1-Pad2)*%
X63545000Y-64770000D03*
%TO.P,D1,1*%
%TO.N,150V*%
X72345000Y-64770000D03*
%TD*%
%TO.P,C25,2*%
%TO.N,GND*%
%TA.AperFunction,SMDPad,CuDef*%
G36*
G01*
X94645500Y-107944500D02*
X93695500Y-107944500D01*
G75*
G02*
X93445500Y-107694500I0J250000D01*
G01*
X93445500Y-107019500D01*
G75*
G02*
X93695500Y-106769500I250000J0D01*
G01*
X94645500Y-106769500D01*
G75*
G02*
X94895500Y-107019500I0J-250000D01*
G01*
X94895500Y-107694500D01*
G75*
G02*
X94645500Y-107944500I-250000J0D01*
G01*
G37*
%TD.AperFunction*%
%TO.P,C25,1*%
%TO.N,+5V*%
%TA.AperFunction,SMDPad,CuDef*%
G36*
G01*
X94645500Y-110019500D02*
X93695500Y-110019500D01*
G75*
G02*
X93445500Y-109769500I0J250000D01*
G01*
X93445500Y-109094500D01*
G75*
G02*
X93695500Y-108844500I250000J0D01*
G01*
X94645500Y-108844500D01*
G75*
G02*
X94895500Y-109094500I0J-250000D01*
G01*
X94895500Y-109769500D01*
G75*
G02*
X94645500Y-110019500I-250000J0D01*
G01*
G37*
%TD.AperFunction*%
%TD*%
%TO.P,C24,2*%
%TO.N,GND*%
%TA.AperFunction,SMDPad,CuDef*%
G36*
G01*
X92105500Y-107944500D02*
X91155500Y-107944500D01*
G75*
G02*
X90905500Y-107694500I0J250000D01*
G01*
X90905500Y-107019500D01*
G75*
G02*
X91155500Y-106769500I250000J0D01*
G01*
X92105500Y-106769500D01*
G75*
G02*
X92355500Y-107019500I0J-250000D01*
G01*
X92355500Y-107694500D01*
G75*
G02*
X92105500Y-107944500I-250000J0D01*
G01*
G37*
%TD.AperFunction*%
%TO.P,C24,1*%
%TO.N,+5V*%
%TA.AperFunction,SMDPad,CuDef*%
G36*
G01*
X92105500Y-110019500D02*
X91155500Y-110019500D01*
G75*
G02*
X90905500Y-109769500I0J250000D01*
G01*
X90905500Y-109094500D01*
G75*
G02*
X91155500Y-108844500I250000J0D01*
G01*
X92105500Y-108844500D01*
G75*
G02*
X92355500Y-109094500I0J-250000D01*
G01*
X92355500Y-109769500D01*
G75*
G02*
X92105500Y-110019500I-250000J0D01*
G01*
G37*
%TD.AperFunction*%
%TD*%
%TO.P,C23,2*%
%TO.N,Net-(C23-Pad2)*%
%TA.AperFunction,SMDPad,CuDef*%
G36*
G01*
X106205000Y-117290000D02*
X107155000Y-117290000D01*
G75*
G02*
X107405000Y-117540000I0J-250000D01*
G01*
X107405000Y-118215000D01*
G75*
G02*
X107155000Y-118465000I-250000J0D01*
G01*
X106205000Y-118465000D01*
G75*
G02*
X105955000Y-118215000I0J250000D01*
G01*
X105955000Y-117540000D01*
G75*
G02*
X106205000Y-117290000I250000J0D01*
G01*
G37*
%TD.AperFunction*%
%TO.P,C23,1*%
%TO.N,+5V*%
%TA.AperFunction,SMDPad,CuDef*%
G36*
G01*
X106205000Y-115215000D02*
X107155000Y-115215000D01*
G75*
G02*
X107405000Y-115465000I0J-250000D01*
G01*
X107405000Y-116140000D01*
G75*
G02*
X107155000Y-116390000I-250000J0D01*
G01*
X106205000Y-116390000D01*
G75*
G02*
X105955000Y-116140000I0J250000D01*
G01*
X105955000Y-115465000D01*
G75*
G02*
X106205000Y-115215000I250000J0D01*
G01*
G37*
%TD.AperFunction*%
%TD*%
%TO.P,C21,2*%
%TO.N,GND*%
%TA.AperFunction,SMDPad,CuDef*%
G36*
G01*
X98775500Y-121735000D02*
X99725500Y-121735000D01*
G75*
G02*
X99975500Y-121985000I0J-250000D01*
G01*
X99975500Y-122660000D01*
G75*
G02*
X99725500Y-122910000I-250000J0D01*
G01*
X98775500Y-122910000D01*
G75*
G02*
X98525500Y-122660000I0J250000D01*
G01*
X98525500Y-121985000D01*
G75*
G02*
X98775500Y-121735000I250000J0D01*
G01*
G37*
%TD.AperFunction*%
%TO.P,C21,1*%
%TO.N,+12V*%
%TA.AperFunction,SMDPad,CuDef*%
G36*
G01*
X98775500Y-119660000D02*
X99725500Y-119660000D01*
G75*
G02*
X99975500Y-119910000I0J-250000D01*
G01*
X99975500Y-120585000D01*
G75*
G02*
X99725500Y-120835000I-250000J0D01*
G01*
X98775500Y-120835000D01*
G75*
G02*
X98525500Y-120585000I0J250000D01*
G01*
X98525500Y-119910000D01*
G75*
G02*
X98775500Y-119660000I250000J0D01*
G01*
G37*
%TD.AperFunction*%
%TD*%
%TO.P,C20,2*%
%TO.N,GND*%
%TA.AperFunction,SMDPad,CuDef*%
G36*
G01*
X96235500Y-121735000D02*
X97185500Y-121735000D01*
G75*
G02*
X97435500Y-121985000I0J-250000D01*
G01*
X97435500Y-122660000D01*
G75*
G02*
X97185500Y-122910000I-250000J0D01*
G01*
X96235500Y-122910000D01*
G75*
G02*
X95985500Y-122660000I0J250000D01*
G01*
X95985500Y-121985000D01*
G75*
G02*
X96235500Y-121735000I250000J0D01*
G01*
G37*
%TD.AperFunction*%
%TO.P,C20,1*%
%TO.N,+12V*%
%TA.AperFunction,SMDPad,CuDef*%
G36*
G01*
X96235500Y-119660000D02*
X97185500Y-119660000D01*
G75*
G02*
X97435500Y-119910000I0J-250000D01*
G01*
X97435500Y-120585000D01*
G75*
G02*
X97185500Y-120835000I-250000J0D01*
G01*
X96235500Y-120835000D01*
G75*
G02*
X95985500Y-120585000I0J250000D01*
G01*
X95985500Y-119910000D01*
G75*
G02*
X96235500Y-119660000I250000J0D01*
G01*
G37*
%TD.AperFunction*%
%TD*%
%TO.P,C19,2*%
%TO.N,GND*%
%TA.AperFunction,SMDPad,CuDef*%
G36*
G01*
X93695500Y-121735000D02*
X94645500Y-121735000D01*
G75*
G02*
X94895500Y-121985000I0J-250000D01*
G01*
X94895500Y-122660000D01*
G75*
G02*
X94645500Y-122910000I-250000J0D01*
G01*
X93695500Y-122910000D01*
G75*
G02*
X93445500Y-122660000I0J250000D01*
G01*
X93445500Y-121985000D01*
G75*
G02*
X93695500Y-121735000I250000J0D01*
G01*
G37*
%TD.AperFunction*%
%TO.P,C19,1*%
%TO.N,+12V*%
%TA.AperFunction,SMDPad,CuDef*%
G36*
G01*
X93695500Y-119660000D02*
X94645500Y-119660000D01*
G75*
G02*
X94895500Y-119910000I0J-250000D01*
G01*
X94895500Y-120585000D01*
G75*
G02*
X94645500Y-120835000I-250000J0D01*
G01*
X93695500Y-120835000D01*
G75*
G02*
X93445500Y-120585000I0J250000D01*
G01*
X93445500Y-119910000D01*
G75*
G02*
X93695500Y-119660000I250000J0D01*
G01*
G37*
%TD.AperFunction*%
%TD*%
D24*
%TO.P,C9,2*%
%TO.N,GND*%
X98940000Y-69850000D03*
D25*
%TO.P,C9,1*%
%TO.N,150V*%
X91440000Y-69850000D03*
%TD*%
D24*
%TO.P,C8,2*%
%TO.N,GND*%
X98940000Y-88900000D03*
D25*
%TO.P,C8,1*%
%TO.N,150V*%
X91440000Y-88900000D03*
%TD*%
%TO.P,C7,2*%
%TO.N,GND*%
%TA.AperFunction,SMDPad,CuDef*%
G36*
G01*
X63660000Y-111067000D02*
X64610000Y-111067000D01*
G75*
G02*
X64860000Y-111317000I0J-250000D01*
G01*
X64860000Y-111992000D01*
G75*
G02*
X64610000Y-112242000I-250000J0D01*
G01*
X63660000Y-112242000D01*
G75*
G02*
X63410000Y-111992000I0J250000D01*
G01*
X63410000Y-111317000D01*
G75*
G02*
X63660000Y-111067000I250000J0D01*
G01*
G37*
%TD.AperFunction*%
%TO.P,C7,1*%
%TO.N,+12V*%
%TA.AperFunction,SMDPad,CuDef*%
G36*
G01*
X63660000Y-108992000D02*
X64610000Y-108992000D01*
G75*
G02*
X64860000Y-109242000I0J-250000D01*
G01*
X64860000Y-109917000D01*
G75*
G02*
X64610000Y-110167000I-250000J0D01*
G01*
X63660000Y-110167000D01*
G75*
G02*
X63410000Y-109917000I0J250000D01*
G01*
X63410000Y-109242000D01*
G75*
G02*
X63660000Y-108992000I250000J0D01*
G01*
G37*
%TD.AperFunction*%
%TD*%
%TO.P,C6,2*%
%TO.N,GND*%
%TA.AperFunction,SMDPad,CuDef*%
G36*
G01*
X66200000Y-111067000D02*
X67150000Y-111067000D01*
G75*
G02*
X67400000Y-111317000I0J-250000D01*
G01*
X67400000Y-111992000D01*
G75*
G02*
X67150000Y-112242000I-250000J0D01*
G01*
X66200000Y-112242000D01*
G75*
G02*
X65950000Y-111992000I0J250000D01*
G01*
X65950000Y-111317000D01*
G75*
G02*
X66200000Y-111067000I250000J0D01*
G01*
G37*
%TD.AperFunction*%
%TO.P,C6,1*%
%TO.N,+12V*%
%TA.AperFunction,SMDPad,CuDef*%
G36*
G01*
X66200000Y-108992000D02*
X67150000Y-108992000D01*
G75*
G02*
X67400000Y-109242000I0J-250000D01*
G01*
X67400000Y-109917000D01*
G75*
G02*
X67150000Y-110167000I-250000J0D01*
G01*
X66200000Y-110167000D01*
G75*
G02*
X65950000Y-109917000I0J250000D01*
G01*
X65950000Y-109242000D01*
G75*
G02*
X66200000Y-108992000I250000J0D01*
G01*
G37*
%TD.AperFunction*%
%TD*%
D14*
%TO.P,C5,2*%
%TO.N,GND*%
X74168000Y-112101000D03*
D15*
%TO.P,C5,1*%
%TO.N,+12V*%
X74168000Y-109601000D03*
%TD*%
D26*
%TO.N,GND*%
X100076000Y-115887500D03*
D27*
X104140000Y-114808000D03*
X64135000Y-112649000D03*
X66675000Y-112649000D03*
X83312000Y-54610000D03*
X85090000Y-54610000D03*
X86995000Y-54610000D03*
X76327000Y-54610000D03*
X78105000Y-54610000D03*
X80010000Y-54610000D03*
X69342000Y-54610000D03*
X71120000Y-54610000D03*
X73025000Y-54610000D03*
X62357000Y-54610000D03*
X64135000Y-54610000D03*
X66040000Y-54610000D03*
X83312000Y-65151000D03*
X60325000Y-73787000D03*
X58293000Y-62230000D03*
X69342000Y-77851000D03*
X67437000Y-65405000D03*
X71628000Y-62230000D03*
X76708000Y-66548000D03*
X68326000Y-80264000D03*
D26*
X66675000Y-71882000D03*
D27*
X94170500Y-106362500D03*
X91630500Y-106362500D03*
X94170500Y-123317000D03*
X96710500Y-123317000D03*
X99250500Y-123317000D03*
%TO.N,+5V*%
X89090500Y-110426500D03*
X96710500Y-110426500D03*
X109220000Y-114808000D03*
X106680000Y-114808000D03*
X91630500Y-110426500D03*
X94170500Y-110426500D03*
%TO.N,+12V*%
X60960000Y-107315000D03*
X62865000Y-107315000D03*
X64770000Y-107315000D03*
X66675000Y-107315000D03*
X68580000Y-107315000D03*
X70485000Y-107315000D03*
X72390000Y-107315000D03*
X64135000Y-108585000D03*
X66675000Y-108585000D03*
X57785000Y-73787000D03*
X94170500Y-119253000D03*
X96710500Y-119253000D03*
X99250500Y-119253000D03*
%TO.N,150V*%
X83312000Y-59944000D03*
X85090000Y-59944000D03*
X86995000Y-59944000D03*
X76327000Y-59944000D03*
X78105000Y-59944000D03*
X80010000Y-59944000D03*
X69342000Y-59944000D03*
X71120000Y-59944000D03*
X73025000Y-59944000D03*
X62357000Y-59944000D03*
X66040000Y-59944000D03*
X64135000Y-59944000D03*
%TD*%
D28*
%TO.N,GND*%
X86995000Y-54610000D02*
X86995000Y-53183500D01*
X83312000Y-54610000D02*
X83312000Y-53183500D01*
X85090000Y-54610000D02*
X85090000Y-53183500D01*
X80010000Y-54610000D02*
X80010000Y-53183500D01*
X76327000Y-54610000D02*
X76327000Y-53183500D01*
X78105000Y-54610000D02*
X78105000Y-53183500D01*
X73025000Y-54610000D02*
X73025000Y-53183500D01*
X69342000Y-54610000D02*
X69342000Y-53183500D01*
X71120000Y-54610000D02*
X71120000Y-53183500D01*
X66040000Y-54610000D02*
X66040000Y-53183500D01*
X62357000Y-54610000D02*
X62357000Y-53183500D01*
X64135000Y-54610000D02*
X64135000Y-53183500D01*
X83312000Y-65151000D02*
X83312000Y-64119000D01*
X64135000Y-112649000D02*
X64135000Y-111654500D01*
X66675000Y-112649000D02*
X66675000Y-111654500D01*
X91630500Y-106362500D02*
X91630500Y-107357000D01*
X94170500Y-106362500D02*
X94170500Y-107357000D01*
X94170500Y-123317000D02*
X94170500Y-122322500D01*
X96710500Y-122322500D02*
X96710500Y-123317000D01*
X99377500Y-122449500D02*
X99250500Y-122322500D01*
X99250500Y-123317000D02*
X99250500Y-122449500D01*
X104140000Y-114808000D02*
X104140000Y-115840000D01*
D29*
X99232500Y-115887500D02*
X99230000Y-115890000D01*
X100076000Y-115887500D02*
X99232500Y-115887500D01*
D28*
%TO.N,+5V*%
X106680000Y-114808000D02*
X106680000Y-115802500D01*
X109220000Y-114808000D02*
X109220000Y-115840000D01*
X91630500Y-110426500D02*
X91630500Y-109432000D01*
X94170500Y-110426500D02*
X94170500Y-109432000D01*
%TO.N,+12V*%
X64135000Y-109579500D02*
X64135000Y-108585000D01*
X66675000Y-109579500D02*
X66675000Y-108585000D01*
X94170500Y-120247500D02*
X94170500Y-120015000D01*
X94170500Y-120015000D02*
X94170500Y-119253000D01*
X96710500Y-120247500D02*
X96710500Y-119253000D01*
X99250500Y-120247500D02*
X99250500Y-119253000D01*
X94170500Y-120247500D02*
X99250500Y-120247500D01*
D30*
X99365500Y-119138000D02*
X99250500Y-119253000D01*
X101430000Y-116840000D02*
X100711000Y-116840000D01*
X99761000Y-117790000D02*
X99230000Y-117790000D01*
X100711000Y-116840000D02*
X99761000Y-117790000D01*
D31*
X99230000Y-119232500D02*
X99250500Y-119253000D01*
X99230000Y-117983000D02*
X99230000Y-119425500D01*
D28*
X88794500Y-120247500D02*
X87884000Y-121158000D01*
X94170500Y-120247500D02*
X88794500Y-120247500D01*
%TO.N,150V*%
X86995000Y-59944000D02*
X86995000Y-58517500D01*
X83312000Y-59944000D02*
X83312000Y-58517500D01*
X85090000Y-59944000D02*
X85090000Y-58517500D01*
X80010000Y-59944000D02*
X80010000Y-58517500D01*
X76327000Y-59944000D02*
X76327000Y-58517500D01*
X78105000Y-59944000D02*
X78105000Y-58517500D01*
X73025000Y-59944000D02*
X73025000Y-58517500D01*
X69342000Y-59944000D02*
X69342000Y-58517500D01*
X71120000Y-59944000D02*
X71120000Y-58517500D01*
X62357000Y-59944000D02*
X62357000Y-58517500D01*
X66040000Y-59944000D02*
X66040000Y-58517500D01*
X64135000Y-59944000D02*
X64135000Y-58517500D01*
X83312000Y-59944000D02*
X83312000Y-62119000D01*
D31*
%TO.N,Net-(C18-Pad2)*%
X92880000Y-116840000D02*
X92710000Y-117010000D01*
X99230000Y-116840000D02*
X96774000Y-116840000D01*
D30*
X99292500Y-113030000D02*
X98552000Y-113030000D01*
X98552000Y-113030000D02*
X97790000Y-113792000D01*
X97790000Y-113792000D02*
X97790000Y-116078000D01*
%TO.N,Net-(C18-Pad1)*%
X101430000Y-113092500D02*
X101367500Y-113030000D01*
X101430000Y-115890000D02*
X101430000Y-113092500D01*
%TO.N,Net-(C23-Pad2)*%
X109182500Y-117877500D02*
X109220000Y-117840000D01*
X101480000Y-117840000D02*
X101430000Y-117790000D01*
X109220000Y-117840000D02*
X101480000Y-117840000D01*
%TD*%
%TO.N,Net-(D1-Pad2)*%
X66806197Y-63010369D02*
X66928454Y-63061010D01*
X67033436Y-63141564D01*
X67113990Y-63246546D01*
X67164631Y-63368803D01*
X67183000Y-63508328D01*
X67183000Y-64031155D01*
X67029510Y-64061686D01*
X66775273Y-64166995D01*
X66546465Y-64319880D01*
X66351880Y-64514465D01*
X66198995Y-64743273D01*
X66093686Y-64997510D01*
X66040000Y-65267408D01*
X66040000Y-65542592D01*
X66093686Y-65812490D01*
X66198995Y-66066727D01*
X66351880Y-66295535D01*
X66546465Y-66490120D01*
X66775273Y-66643005D01*
X67029510Y-66748314D01*
X67183000Y-66778845D01*
X67183000Y-70717782D01*
X67045445Y-70660805D01*
X66800084Y-70612000D01*
X66549916Y-70612000D01*
X66304555Y-70660805D01*
X66073429Y-70756541D01*
X65865422Y-70895527D01*
X65688527Y-71072422D01*
X65549541Y-71280429D01*
X65453805Y-71511555D01*
X65405000Y-71756916D01*
X65405000Y-72007084D01*
X65453805Y-72252445D01*
X65549541Y-72483571D01*
X65679541Y-72678130D01*
X65405000Y-72651090D01*
X65044004Y-72686645D01*
X64696880Y-72791944D01*
X64376968Y-72962940D01*
X64096563Y-73193063D01*
X63866440Y-73473467D01*
X63695444Y-73793379D01*
X63590145Y-74140503D01*
X63563500Y-74411035D01*
X63563500Y-74686964D01*
X63590145Y-74957496D01*
X63695444Y-75304620D01*
X63866440Y-75624532D01*
X64096563Y-75904937D01*
X64376967Y-76135060D01*
X64696879Y-76306056D01*
X65044003Y-76411355D01*
X65405000Y-76446910D01*
X65765996Y-76411355D01*
X66113120Y-76306056D01*
X66433032Y-76135060D01*
X66713437Y-75904937D01*
X66943560Y-75624533D01*
X67114556Y-75304621D01*
X67219855Y-74957497D01*
X67246500Y-74686965D01*
X67246500Y-74411036D01*
X67219855Y-74140504D01*
X67114556Y-73793380D01*
X66983933Y-73549000D01*
X68639199Y-73549000D01*
X68639199Y-75549000D01*
X68656364Y-75723274D01*
X68707197Y-75890851D01*
X68789747Y-76045291D01*
X68900841Y-76180659D01*
X69036209Y-76291753D01*
X69190649Y-76374303D01*
X69358226Y-76425136D01*
X69532500Y-76442301D01*
X71437500Y-76442301D01*
X71611774Y-76425136D01*
X71779351Y-76374303D01*
X71933791Y-76291753D01*
X72069159Y-76180659D01*
X72180253Y-76045291D01*
X72262803Y-75890851D01*
X72313636Y-75723274D01*
X72330801Y-75549000D01*
X72330801Y-73549000D01*
X72313636Y-73374726D01*
X72262803Y-73207149D01*
X72180253Y-73052709D01*
X72069159Y-72917341D01*
X71933791Y-72806247D01*
X71779351Y-72723697D01*
X71611774Y-72672864D01*
X71437500Y-72655699D01*
X69532500Y-72655699D01*
X69358226Y-72672864D01*
X69190649Y-72723697D01*
X69036209Y-72806247D01*
X68900841Y-72917341D01*
X68789747Y-73052709D01*
X68707197Y-73207149D01*
X68656364Y-73374726D01*
X68639199Y-73549000D01*
X66983933Y-73549000D01*
X66943560Y-73473467D01*
X66713437Y-73193063D01*
X66663402Y-73152000D01*
X66800084Y-73152000D01*
X67045445Y-73103195D01*
X67276571Y-73007459D01*
X67484578Y-72868473D01*
X67661473Y-72691578D01*
X67800459Y-72483571D01*
X67896195Y-72252445D01*
X67945000Y-72007084D01*
X67945000Y-71882000D01*
X74286672Y-71882000D01*
X74426197Y-71900369D01*
X74548454Y-71951010D01*
X74653436Y-72031564D01*
X74733990Y-72136546D01*
X74784631Y-72258803D01*
X74803000Y-72398328D01*
X74803000Y-85716672D01*
X74784631Y-85856197D01*
X74733990Y-85978454D01*
X74653436Y-86083436D01*
X74548454Y-86163990D01*
X74426197Y-86214631D01*
X74286672Y-86233000D01*
X59063328Y-86233000D01*
X58923803Y-86214631D01*
X58801546Y-86163990D01*
X58696564Y-86083436D01*
X58616010Y-85978454D01*
X58565369Y-85856197D01*
X58547000Y-85716672D01*
X58547000Y-80126408D01*
X66929000Y-80126408D01*
X66929000Y-80401592D01*
X66982686Y-80671490D01*
X67087995Y-80925727D01*
X67240880Y-81154535D01*
X67435465Y-81349120D01*
X67664273Y-81502005D01*
X67918510Y-81607314D01*
X68188408Y-81661000D01*
X68463592Y-81661000D01*
X68733490Y-81607314D01*
X68987727Y-81502005D01*
X69216535Y-81349120D01*
X69411120Y-81154535D01*
X69564005Y-80925727D01*
X69669314Y-80671490D01*
X69723000Y-80401592D01*
X69723000Y-80126408D01*
X69669314Y-79856510D01*
X69564005Y-79602273D01*
X69411120Y-79373465D01*
X69285655Y-79248000D01*
X69479592Y-79248000D01*
X69749490Y-79194314D01*
X70003727Y-79089005D01*
X70232535Y-78936120D01*
X70427120Y-78741535D01*
X70580005Y-78512727D01*
X70685314Y-78258490D01*
X70739000Y-77988592D01*
X70739000Y-77713408D01*
X70685314Y-77443510D01*
X70580005Y-77189273D01*
X70427120Y-76960465D01*
X70232535Y-76765880D01*
X70003727Y-76612995D01*
X69749490Y-76507686D01*
X69479592Y-76454000D01*
X69204408Y-76454000D01*
X68934510Y-76507686D01*
X68680273Y-76612995D01*
X68451465Y-76765880D01*
X68256880Y-76960465D01*
X68103995Y-77189273D01*
X67998686Y-77443510D01*
X67945000Y-77713408D01*
X67945000Y-77988592D01*
X67998686Y-78258490D01*
X68103995Y-78512727D01*
X68256880Y-78741535D01*
X68382345Y-78867000D01*
X68188408Y-78867000D01*
X67918510Y-78920686D01*
X67664273Y-79025995D01*
X67435465Y-79178880D01*
X67240880Y-79373465D01*
X67087995Y-79602273D01*
X66982686Y-79856510D01*
X66929000Y-80126408D01*
X58547000Y-80126408D01*
X58547000Y-74958005D01*
X58675535Y-74872120D01*
X58870120Y-74677535D01*
X59023005Y-74448727D01*
X59055000Y-74371485D01*
X59086995Y-74448727D01*
X59239880Y-74677535D01*
X59434465Y-74872120D01*
X59663273Y-75025005D01*
X59917510Y-75130314D01*
X60187408Y-75184000D01*
X60462592Y-75184000D01*
X60732490Y-75130314D01*
X60986727Y-75025005D01*
X61215535Y-74872120D01*
X61410120Y-74677535D01*
X61563005Y-74448727D01*
X61668314Y-74194490D01*
X61722000Y-73924592D01*
X61722000Y-73649408D01*
X61668314Y-73379510D01*
X61563005Y-73125273D01*
X61410120Y-72896465D01*
X61215535Y-72701880D01*
X60986727Y-72548995D01*
X60732490Y-72443686D01*
X60462592Y-72390000D01*
X60187408Y-72390000D01*
X59917510Y-72443686D01*
X59663273Y-72548995D01*
X59434465Y-72701880D01*
X59239880Y-72896465D01*
X59086995Y-73125273D01*
X59055000Y-73202515D01*
X59023005Y-73125273D01*
X58870120Y-72896465D01*
X58675535Y-72701880D01*
X58547000Y-72615995D01*
X58547000Y-63603845D01*
X58700490Y-63573314D01*
X58954727Y-63468005D01*
X59183535Y-63315120D01*
X59378120Y-63120535D01*
X59464005Y-62992000D01*
X66666672Y-62992000D01*
X66806197Y-63010369D01*
%TA.AperFunction,Conductor*%
D32*
G36*
X66806197Y-63010369D02*
G01*
X66928454Y-63061010D01*
X67033436Y-63141564D01*
X67113990Y-63246546D01*
X67164631Y-63368803D01*
X67183000Y-63508328D01*
X67183000Y-64031155D01*
X67029510Y-64061686D01*
X66775273Y-64166995D01*
X66546465Y-64319880D01*
X66351880Y-64514465D01*
X66198995Y-64743273D01*
X66093686Y-64997510D01*
X66040000Y-65267408D01*
X66040000Y-65542592D01*
X66093686Y-65812490D01*
X66198995Y-66066727D01*
X66351880Y-66295535D01*
X66546465Y-66490120D01*
X66775273Y-66643005D01*
X67029510Y-66748314D01*
X67183000Y-66778845D01*
X67183000Y-70717782D01*
X67045445Y-70660805D01*
X66800084Y-70612000D01*
X66549916Y-70612000D01*
X66304555Y-70660805D01*
X66073429Y-70756541D01*
X65865422Y-70895527D01*
X65688527Y-71072422D01*
X65549541Y-71280429D01*
X65453805Y-71511555D01*
X65405000Y-71756916D01*
X65405000Y-72007084D01*
X65453805Y-72252445D01*
X65549541Y-72483571D01*
X65679541Y-72678130D01*
X65405000Y-72651090D01*
X65044004Y-72686645D01*
X64696880Y-72791944D01*
X64376968Y-72962940D01*
X64096563Y-73193063D01*
X63866440Y-73473467D01*
X63695444Y-73793379D01*
X63590145Y-74140503D01*
X63563500Y-74411035D01*
X63563500Y-74686964D01*
X63590145Y-74957496D01*
X63695444Y-75304620D01*
X63866440Y-75624532D01*
X64096563Y-75904937D01*
X64376967Y-76135060D01*
X64696879Y-76306056D01*
X65044003Y-76411355D01*
X65405000Y-76446910D01*
X65765996Y-76411355D01*
X66113120Y-76306056D01*
X66433032Y-76135060D01*
X66713437Y-75904937D01*
X66943560Y-75624533D01*
X67114556Y-75304621D01*
X67219855Y-74957497D01*
X67246500Y-74686965D01*
X67246500Y-74411036D01*
X67219855Y-74140504D01*
X67114556Y-73793380D01*
X66983933Y-73549000D01*
X68639199Y-73549000D01*
X68639199Y-75549000D01*
X68656364Y-75723274D01*
X68707197Y-75890851D01*
X68789747Y-76045291D01*
X68900841Y-76180659D01*
X69036209Y-76291753D01*
X69190649Y-76374303D01*
X69358226Y-76425136D01*
X69532500Y-76442301D01*
X71437500Y-76442301D01*
X71611774Y-76425136D01*
X71779351Y-76374303D01*
X71933791Y-76291753D01*
X72069159Y-76180659D01*
X72180253Y-76045291D01*
X72262803Y-75890851D01*
X72313636Y-75723274D01*
X72330801Y-75549000D01*
X72330801Y-73549000D01*
X72313636Y-73374726D01*
X72262803Y-73207149D01*
X72180253Y-73052709D01*
X72069159Y-72917341D01*
X71933791Y-72806247D01*
X71779351Y-72723697D01*
X71611774Y-72672864D01*
X71437500Y-72655699D01*
X69532500Y-72655699D01*
X69358226Y-72672864D01*
X69190649Y-72723697D01*
X69036209Y-72806247D01*
X68900841Y-72917341D01*
X68789747Y-73052709D01*
X68707197Y-73207149D01*
X68656364Y-73374726D01*
X68639199Y-73549000D01*
X66983933Y-73549000D01*
X66943560Y-73473467D01*
X66713437Y-73193063D01*
X66663402Y-73152000D01*
X66800084Y-73152000D01*
X67045445Y-73103195D01*
X67276571Y-73007459D01*
X67484578Y-72868473D01*
X67661473Y-72691578D01*
X67800459Y-72483571D01*
X67896195Y-72252445D01*
X67945000Y-72007084D01*
X67945000Y-71882000D01*
X74286672Y-71882000D01*
X74426197Y-71900369D01*
X74548454Y-71951010D01*
X74653436Y-72031564D01*
X74733990Y-72136546D01*
X74784631Y-72258803D01*
X74803000Y-72398328D01*
X74803000Y-85716672D01*
X74784631Y-85856197D01*
X74733990Y-85978454D01*
X74653436Y-86083436D01*
X74548454Y-86163990D01*
X74426197Y-86214631D01*
X74286672Y-86233000D01*
X59063328Y-86233000D01*
X58923803Y-86214631D01*
X58801546Y-86163990D01*
X58696564Y-86083436D01*
X58616010Y-85978454D01*
X58565369Y-85856197D01*
X58547000Y-85716672D01*
X58547000Y-80126408D01*
X66929000Y-80126408D01*
X66929000Y-80401592D01*
X66982686Y-80671490D01*
X67087995Y-80925727D01*
X67240880Y-81154535D01*
X67435465Y-81349120D01*
X67664273Y-81502005D01*
X67918510Y-81607314D01*
X68188408Y-81661000D01*
X68463592Y-81661000D01*
X68733490Y-81607314D01*
X68987727Y-81502005D01*
X69216535Y-81349120D01*
X69411120Y-81154535D01*
X69564005Y-80925727D01*
X69669314Y-80671490D01*
X69723000Y-80401592D01*
X69723000Y-80126408D01*
X69669314Y-79856510D01*
X69564005Y-79602273D01*
X69411120Y-79373465D01*
X69285655Y-79248000D01*
X69479592Y-79248000D01*
X69749490Y-79194314D01*
X70003727Y-79089005D01*
X70232535Y-78936120D01*
X70427120Y-78741535D01*
X70580005Y-78512727D01*
X70685314Y-78258490D01*
X70739000Y-77988592D01*
X70739000Y-77713408D01*
X70685314Y-77443510D01*
X70580005Y-77189273D01*
X70427120Y-76960465D01*
X70232535Y-76765880D01*
X70003727Y-76612995D01*
X69749490Y-76507686D01*
X69479592Y-76454000D01*
X69204408Y-76454000D01*
X68934510Y-76507686D01*
X68680273Y-76612995D01*
X68451465Y-76765880D01*
X68256880Y-76960465D01*
X68103995Y-77189273D01*
X67998686Y-77443510D01*
X67945000Y-77713408D01*
X67945000Y-77988592D01*
X67998686Y-78258490D01*
X68103995Y-78512727D01*
X68256880Y-78741535D01*
X68382345Y-78867000D01*
X68188408Y-78867000D01*
X67918510Y-78920686D01*
X67664273Y-79025995D01*
X67435465Y-79178880D01*
X67240880Y-79373465D01*
X67087995Y-79602273D01*
X66982686Y-79856510D01*
X66929000Y-80126408D01*
X58547000Y-80126408D01*
X58547000Y-74958005D01*
X58675535Y-74872120D01*
X58870120Y-74677535D01*
X59023005Y-74448727D01*
X59055000Y-74371485D01*
X59086995Y-74448727D01*
X59239880Y-74677535D01*
X59434465Y-74872120D01*
X59663273Y-75025005D01*
X59917510Y-75130314D01*
X60187408Y-75184000D01*
X60462592Y-75184000D01*
X60732490Y-75130314D01*
X60986727Y-75025005D01*
X61215535Y-74872120D01*
X61410120Y-74677535D01*
X61563005Y-74448727D01*
X61668314Y-74194490D01*
X61722000Y-73924592D01*
X61722000Y-73649408D01*
X61668314Y-73379510D01*
X61563005Y-73125273D01*
X61410120Y-72896465D01*
X61215535Y-72701880D01*
X60986727Y-72548995D01*
X60732490Y-72443686D01*
X60462592Y-72390000D01*
X60187408Y-72390000D01*
X59917510Y-72443686D01*
X59663273Y-72548995D01*
X59434465Y-72701880D01*
X59239880Y-72896465D01*
X59086995Y-73125273D01*
X59055000Y-73202515D01*
X59023005Y-73125273D01*
X58870120Y-72896465D01*
X58675535Y-72701880D01*
X58547000Y-72615995D01*
X58547000Y-63603845D01*
X58700490Y-63573314D01*
X58954727Y-63468005D01*
X59183535Y-63315120D01*
X59378120Y-63120535D01*
X59464005Y-62992000D01*
X66666672Y-62992000D01*
X66806197Y-63010369D01*
G37*
%TD.AperFunction*%
%TD*%
D30*
%TO.N,150V*%
X87888197Y-57295369D02*
X88010454Y-57346010D01*
X88115436Y-57426564D01*
X88195990Y-57531546D01*
X88246631Y-57653803D01*
X88265000Y-57793328D01*
X88265000Y-60316672D01*
X88246631Y-60456197D01*
X88195990Y-60578454D01*
X88115436Y-60683436D01*
X88010454Y-60763990D01*
X87888197Y-60814631D01*
X87748672Y-60833000D01*
X80645000Y-60833000D01*
X80628423Y-60834086D01*
X80464073Y-60855723D01*
X80432049Y-60864304D01*
X80278899Y-60927741D01*
X80250188Y-60944318D01*
X80118675Y-61045231D01*
X80095231Y-61068675D01*
X79994318Y-61200188D01*
X79977741Y-61228899D01*
X79914304Y-61382049D01*
X79905723Y-61414073D01*
X79884086Y-61578423D01*
X79883000Y-61595000D01*
X79883000Y-66158672D01*
X79864631Y-66298197D01*
X79813990Y-66420454D01*
X79733436Y-66525436D01*
X79628454Y-66605990D01*
X79506197Y-66656631D01*
X79366672Y-66675000D01*
X78105000Y-66675000D01*
X78105000Y-66410408D01*
X78051314Y-66140510D01*
X77946005Y-65886273D01*
X77793120Y-65657465D01*
X77598535Y-65462880D01*
X77369727Y-65309995D01*
X77115490Y-65204686D01*
X76845592Y-65151000D01*
X76570408Y-65151000D01*
X76300510Y-65204686D01*
X76046273Y-65309995D01*
X75817465Y-65462880D01*
X75622880Y-65657465D01*
X75469995Y-65886273D01*
X75364686Y-66140510D01*
X75311000Y-66410408D01*
X75311000Y-66675000D01*
X70239328Y-66675000D01*
X70099803Y-66656631D01*
X69977546Y-66605990D01*
X69872564Y-66525436D01*
X69792010Y-66420454D01*
X69741369Y-66298197D01*
X69723000Y-66158672D01*
X69723000Y-62092408D01*
X70231000Y-62092408D01*
X70231000Y-62367592D01*
X70284686Y-62637490D01*
X70389995Y-62891727D01*
X70542880Y-63120535D01*
X70737465Y-63315120D01*
X70966273Y-63468005D01*
X71220510Y-63573314D01*
X71490408Y-63627000D01*
X71765592Y-63627000D01*
X72035490Y-63573314D01*
X72289727Y-63468005D01*
X72518535Y-63315120D01*
X72713120Y-63120535D01*
X72866005Y-62891727D01*
X72971314Y-62637490D01*
X73025000Y-62367592D01*
X73025000Y-62092408D01*
X72971314Y-61822510D01*
X72866005Y-61568273D01*
X72713120Y-61339465D01*
X72518535Y-61144880D01*
X72289727Y-60991995D01*
X72035490Y-60886686D01*
X71765592Y-60833000D01*
X71490408Y-60833000D01*
X71220510Y-60886686D01*
X70966273Y-60991995D01*
X70737465Y-61144880D01*
X70542880Y-61339465D01*
X70389995Y-61568273D01*
X70284686Y-61822510D01*
X70231000Y-62092408D01*
X69723000Y-62092408D01*
X69723000Y-61341000D01*
X69721914Y-61324423D01*
X69700277Y-61160073D01*
X69691696Y-61128049D01*
X69628259Y-60974899D01*
X69611682Y-60946188D01*
X69510769Y-60814675D01*
X69487325Y-60791231D01*
X69355812Y-60690318D01*
X69327101Y-60673741D01*
X69173951Y-60610304D01*
X69141927Y-60601723D01*
X68977577Y-60580086D01*
X68961000Y-60579000D01*
X61603328Y-60579000D01*
X61463803Y-60560631D01*
X61341546Y-60509990D01*
X61236564Y-60429436D01*
X61156010Y-60324454D01*
X61105369Y-60202197D01*
X61087000Y-60062672D01*
X61087000Y-57793328D01*
X61105369Y-57653803D01*
X61156010Y-57531546D01*
X61236564Y-57426564D01*
X61341546Y-57346010D01*
X61463803Y-57295369D01*
X61603328Y-57277000D01*
X87748672Y-57277000D01*
X87888197Y-57295369D01*
%TA.AperFunction,Conductor*%
D32*
G36*
X87888197Y-57295369D02*
G01*
X88010454Y-57346010D01*
X88115436Y-57426564D01*
X88195990Y-57531546D01*
X88246631Y-57653803D01*
X88265000Y-57793328D01*
X88265000Y-60316672D01*
X88246631Y-60456197D01*
X88195990Y-60578454D01*
X88115436Y-60683436D01*
X88010454Y-60763990D01*
X87888197Y-60814631D01*
X87748672Y-60833000D01*
X80645000Y-60833000D01*
X80628423Y-60834086D01*
X80464073Y-60855723D01*
X80432049Y-60864304D01*
X80278899Y-60927741D01*
X80250188Y-60944318D01*
X80118675Y-61045231D01*
X80095231Y-61068675D01*
X79994318Y-61200188D01*
X79977741Y-61228899D01*
X79914304Y-61382049D01*
X79905723Y-61414073D01*
X79884086Y-61578423D01*
X79883000Y-61595000D01*
X79883000Y-66158672D01*
X79864631Y-66298197D01*
X79813990Y-66420454D01*
X79733436Y-66525436D01*
X79628454Y-66605990D01*
X79506197Y-66656631D01*
X79366672Y-66675000D01*
X78105000Y-66675000D01*
X78105000Y-66410408D01*
X78051314Y-66140510D01*
X77946005Y-65886273D01*
X77793120Y-65657465D01*
X77598535Y-65462880D01*
X77369727Y-65309995D01*
X77115490Y-65204686D01*
X76845592Y-65151000D01*
X76570408Y-65151000D01*
X76300510Y-65204686D01*
X76046273Y-65309995D01*
X75817465Y-65462880D01*
X75622880Y-65657465D01*
X75469995Y-65886273D01*
X75364686Y-66140510D01*
X75311000Y-66410408D01*
X75311000Y-66675000D01*
X70239328Y-66675000D01*
X70099803Y-66656631D01*
X69977546Y-66605990D01*
X69872564Y-66525436D01*
X69792010Y-66420454D01*
X69741369Y-66298197D01*
X69723000Y-66158672D01*
X69723000Y-62092408D01*
X70231000Y-62092408D01*
X70231000Y-62367592D01*
X70284686Y-62637490D01*
X70389995Y-62891727D01*
X70542880Y-63120535D01*
X70737465Y-63315120D01*
X70966273Y-63468005D01*
X71220510Y-63573314D01*
X71490408Y-63627000D01*
X71765592Y-63627000D01*
X72035490Y-63573314D01*
X72289727Y-63468005D01*
X72518535Y-63315120D01*
X72713120Y-63120535D01*
X72866005Y-62891727D01*
X72971314Y-62637490D01*
X73025000Y-62367592D01*
X73025000Y-62092408D01*
X72971314Y-61822510D01*
X72866005Y-61568273D01*
X72713120Y-61339465D01*
X72518535Y-61144880D01*
X72289727Y-60991995D01*
X72035490Y-60886686D01*
X71765592Y-60833000D01*
X71490408Y-60833000D01*
X71220510Y-60886686D01*
X70966273Y-60991995D01*
X70737465Y-61144880D01*
X70542880Y-61339465D01*
X70389995Y-61568273D01*
X70284686Y-61822510D01*
X70231000Y-62092408D01*
X69723000Y-62092408D01*
X69723000Y-61341000D01*
X69721914Y-61324423D01*
X69700277Y-61160073D01*
X69691696Y-61128049D01*
X69628259Y-60974899D01*
X69611682Y-60946188D01*
X69510769Y-60814675D01*
X69487325Y-60791231D01*
X69355812Y-60690318D01*
X69327101Y-60673741D01*
X69173951Y-60610304D01*
X69141927Y-60601723D01*
X68977577Y-60580086D01*
X68961000Y-60579000D01*
X61603328Y-60579000D01*
X61463803Y-60560631D01*
X61341546Y-60509990D01*
X61236564Y-60429436D01*
X61156010Y-60324454D01*
X61105369Y-60202197D01*
X61087000Y-60062672D01*
X61087000Y-57793328D01*
X61105369Y-57653803D01*
X61156010Y-57531546D01*
X61236564Y-57426564D01*
X61341546Y-57346010D01*
X61463803Y-57295369D01*
X61603328Y-57277000D01*
X87748672Y-57277000D01*
X87888197Y-57295369D01*
G37*
%TD.AperFunction*%
%TD*%
D30*
%TO.N,+12V*%
X75696197Y-101745369D02*
X75818454Y-101796010D01*
X75923436Y-101876564D01*
X76003990Y-101981546D01*
X76054631Y-102103803D01*
X76073000Y-102243328D01*
X76073000Y-109846672D01*
X76054631Y-109986197D01*
X76003990Y-110108454D01*
X75923436Y-110213436D01*
X75818454Y-110293990D01*
X75696197Y-110344631D01*
X75605806Y-110356531D01*
X75603000Y-109886750D01*
X75444250Y-109728000D01*
X74295000Y-109728000D01*
X74295000Y-109748000D01*
X74041000Y-109748000D01*
X74041000Y-109728000D01*
X72891750Y-109728000D01*
X72733000Y-109886750D01*
X72730155Y-110363000D01*
X59063328Y-110363000D01*
X58923803Y-110344631D01*
X58801546Y-110293990D01*
X58696564Y-110213436D01*
X58616010Y-110108454D01*
X58565369Y-109986197D01*
X58547000Y-109846672D01*
X58547000Y-108801000D01*
X72729928Y-108801000D01*
X72733000Y-109315250D01*
X72891750Y-109474000D01*
X74041000Y-109474000D01*
X74041000Y-108324750D01*
X74295000Y-108324750D01*
X74295000Y-109474000D01*
X75444250Y-109474000D01*
X75603000Y-109315250D01*
X75606072Y-108801000D01*
X75593812Y-108676518D01*
X75557502Y-108556820D01*
X75498537Y-108446506D01*
X75419185Y-108349815D01*
X75322494Y-108270463D01*
X75212180Y-108211498D01*
X75092482Y-108175188D01*
X74968000Y-108162928D01*
X74453750Y-108166000D01*
X74295000Y-108324750D01*
X74041000Y-108324750D01*
X73882250Y-108166000D01*
X73368000Y-108162928D01*
X73243518Y-108175188D01*
X73123820Y-108211498D01*
X73013506Y-108270463D01*
X72916815Y-108349815D01*
X72837463Y-108446506D01*
X72778498Y-108556820D01*
X72742188Y-108676518D01*
X72729928Y-108801000D01*
X58547000Y-108801000D01*
X58547000Y-102243328D01*
X58565369Y-102103803D01*
X58616010Y-101981546D01*
X58696564Y-101876564D01*
X58801546Y-101796010D01*
X58923803Y-101745369D01*
X59063328Y-101727000D01*
X75556672Y-101727000D01*
X75696197Y-101745369D01*
%TA.AperFunction,Conductor*%
D32*
G36*
X75696197Y-101745369D02*
G01*
X75818454Y-101796010D01*
X75923436Y-101876564D01*
X76003990Y-101981546D01*
X76054631Y-102103803D01*
X76073000Y-102243328D01*
X76073000Y-109846672D01*
X76054631Y-109986197D01*
X76003990Y-110108454D01*
X75923436Y-110213436D01*
X75818454Y-110293990D01*
X75696197Y-110344631D01*
X75605806Y-110356531D01*
X75603000Y-109886750D01*
X75444250Y-109728000D01*
X74295000Y-109728000D01*
X74295000Y-109748000D01*
X74041000Y-109748000D01*
X74041000Y-109728000D01*
X72891750Y-109728000D01*
X72733000Y-109886750D01*
X72730155Y-110363000D01*
X59063328Y-110363000D01*
X58923803Y-110344631D01*
X58801546Y-110293990D01*
X58696564Y-110213436D01*
X58616010Y-110108454D01*
X58565369Y-109986197D01*
X58547000Y-109846672D01*
X58547000Y-108801000D01*
X72729928Y-108801000D01*
X72733000Y-109315250D01*
X72891750Y-109474000D01*
X74041000Y-109474000D01*
X74041000Y-108324750D01*
X74295000Y-108324750D01*
X74295000Y-109474000D01*
X75444250Y-109474000D01*
X75603000Y-109315250D01*
X75606072Y-108801000D01*
X75593812Y-108676518D01*
X75557502Y-108556820D01*
X75498537Y-108446506D01*
X75419185Y-108349815D01*
X75322494Y-108270463D01*
X75212180Y-108211498D01*
X75092482Y-108175188D01*
X74968000Y-108162928D01*
X74453750Y-108166000D01*
X74295000Y-108324750D01*
X74041000Y-108324750D01*
X73882250Y-108166000D01*
X73368000Y-108162928D01*
X73243518Y-108175188D01*
X73123820Y-108211498D01*
X73013506Y-108270463D01*
X72916815Y-108349815D01*
X72837463Y-108446506D01*
X72778498Y-108556820D01*
X72742188Y-108676518D01*
X72729928Y-108801000D01*
X58547000Y-108801000D01*
X58547000Y-102243328D01*
X58565369Y-102103803D01*
X58616010Y-101981546D01*
X58696564Y-101876564D01*
X58801546Y-101796010D01*
X58923803Y-101745369D01*
X59063328Y-101727000D01*
X75556672Y-101727000D01*
X75696197Y-101745369D01*
G37*
%TD.AperFunction*%
%TD*%
D30*
%TO.N,GND*%
X88083635Y-51807147D02*
X88136126Y-51925680D01*
X88158152Y-52061773D01*
X88243648Y-54712133D01*
X88229122Y-54854980D01*
X88180484Y-54980936D01*
X88100322Y-55089577D01*
X87994317Y-55173204D01*
X87870002Y-55225875D01*
X87727687Y-55245000D01*
X61603328Y-55245000D01*
X61463803Y-55226631D01*
X61341546Y-55175990D01*
X61236564Y-55095436D01*
X61156010Y-54990454D01*
X61105369Y-54868197D01*
X61087000Y-54728672D01*
X61087000Y-52078328D01*
X61105369Y-51938803D01*
X61156010Y-51816546D01*
X61234695Y-51714000D01*
X88009336Y-51714000D01*
X88083635Y-51807147D01*
%TA.AperFunction,Conductor*%
D32*
G36*
X88083635Y-51807147D02*
G01*
X88136126Y-51925680D01*
X88158152Y-52061773D01*
X88243648Y-54712133D01*
X88229122Y-54854980D01*
X88180484Y-54980936D01*
X88100322Y-55089577D01*
X87994317Y-55173204D01*
X87870002Y-55225875D01*
X87727687Y-55245000D01*
X61603328Y-55245000D01*
X61463803Y-55226631D01*
X61341546Y-55175990D01*
X61236564Y-55095436D01*
X61156010Y-54990454D01*
X61105369Y-54868197D01*
X61087000Y-54728672D01*
X61087000Y-52078328D01*
X61105369Y-51938803D01*
X61156010Y-51816546D01*
X61234695Y-51714000D01*
X88009336Y-51714000D01*
X88083635Y-51807147D01*
G37*
%TD.AperFunction*%
%TD*%
D30*
%TO.N,+5V*%
X96778197Y-108603369D02*
X96900454Y-108654010D01*
X97005436Y-108734564D01*
X97085990Y-108839546D01*
X97136631Y-108961803D01*
X97155000Y-109101328D01*
X97155000Y-113656672D01*
X97136631Y-113796197D01*
X97085990Y-113918454D01*
X97005436Y-114023436D01*
X96900454Y-114103990D01*
X96778197Y-114154631D01*
X96638672Y-114173000D01*
X88781328Y-114173000D01*
X88641803Y-114154631D01*
X88519546Y-114103990D01*
X88414564Y-114023436D01*
X88334010Y-113918454D01*
X88283369Y-113796197D01*
X88265000Y-113656672D01*
X88265000Y-109101328D01*
X88283369Y-108961803D01*
X88334010Y-108839546D01*
X88414564Y-108734564D01*
X88519546Y-108654010D01*
X88641803Y-108603369D01*
X88781328Y-108585000D01*
X96638672Y-108585000D01*
X96778197Y-108603369D01*
%TA.AperFunction,Conductor*%
D32*
G36*
X96778197Y-108603369D02*
G01*
X96900454Y-108654010D01*
X97005436Y-108734564D01*
X97085990Y-108839546D01*
X97136631Y-108961803D01*
X97155000Y-109101328D01*
X97155000Y-113656672D01*
X97136631Y-113796197D01*
X97085990Y-113918454D01*
X97005436Y-114023436D01*
X96900454Y-114103990D01*
X96778197Y-114154631D01*
X96638672Y-114173000D01*
X88781328Y-114173000D01*
X88641803Y-114154631D01*
X88519546Y-114103990D01*
X88414564Y-114023436D01*
X88334010Y-113918454D01*
X88283369Y-113796197D01*
X88265000Y-113656672D01*
X88265000Y-109101328D01*
X88283369Y-108961803D01*
X88334010Y-108839546D01*
X88414564Y-108734564D01*
X88519546Y-108654010D01*
X88641803Y-108603369D01*
X88781328Y-108585000D01*
X96638672Y-108585000D01*
X96778197Y-108603369D01*
G37*
%TD.AperFunction*%
%TD*%
D30*
%TO.N,Net-(C18-Pad2)*%
X97794197Y-115461369D02*
X97916454Y-115512010D01*
X98021436Y-115592564D01*
X98101990Y-115697546D01*
X98152631Y-115819803D01*
X98171000Y-115959328D01*
X98171000Y-117720672D01*
X98152631Y-117860197D01*
X98101990Y-117982454D01*
X98021436Y-118087436D01*
X97916454Y-118167990D01*
X97794197Y-118218631D01*
X97654672Y-118237000D01*
X96760402Y-118237000D01*
X96710500Y-118232085D01*
X96660598Y-118237000D01*
X94220402Y-118237000D01*
X94170500Y-118232085D01*
X94120598Y-118237000D01*
X90305328Y-118237000D01*
X90165803Y-118218631D01*
X90043546Y-118167990D01*
X89938564Y-118087436D01*
X89858010Y-117982454D01*
X89807369Y-117860197D01*
X89789000Y-117720672D01*
X89789000Y-115959328D01*
X89807369Y-115819803D01*
X89858010Y-115697546D01*
X89938564Y-115592564D01*
X90043546Y-115512010D01*
X90165803Y-115461369D01*
X90305328Y-115443000D01*
X97654672Y-115443000D01*
X97794197Y-115461369D01*
%TA.AperFunction,Conductor*%
D32*
G36*
X97794197Y-115461369D02*
G01*
X97916454Y-115512010D01*
X98021436Y-115592564D01*
X98101990Y-115697546D01*
X98152631Y-115819803D01*
X98171000Y-115959328D01*
X98171000Y-117720672D01*
X98152631Y-117860197D01*
X98101990Y-117982454D01*
X98021436Y-118087436D01*
X97916454Y-118167990D01*
X97794197Y-118218631D01*
X97654672Y-118237000D01*
X96760402Y-118237000D01*
X96710500Y-118232085D01*
X96660598Y-118237000D01*
X94220402Y-118237000D01*
X94170500Y-118232085D01*
X94120598Y-118237000D01*
X90305328Y-118237000D01*
X90165803Y-118218631D01*
X90043546Y-118167990D01*
X89938564Y-118087436D01*
X89858010Y-117982454D01*
X89807369Y-117860197D01*
X89789000Y-117720672D01*
X89789000Y-115959328D01*
X89807369Y-115819803D01*
X89858010Y-115697546D01*
X89938564Y-115592564D01*
X90043546Y-115512010D01*
X90165803Y-115461369D01*
X90305328Y-115443000D01*
X97654672Y-115443000D01*
X97794197Y-115461369D01*
G37*
%TD.AperFunction*%
%TD*%
M02*
