%TF.GenerationSoftware,KiCad,Pcbnew,(5.1.9)-1*%
%TF.CreationDate,2021-10-04T18:28:45-04:00*%
%TF.ProjectId,In9 Music Visualizer RevC,496e3920-4d75-4736-9963-205669737561,rev?*%
%TF.SameCoordinates,Original*%
%TF.FileFunction,Copper,L2,Inr*%
%TF.FilePolarity,Positive*%
%FSLAX46Y46*%
G04 Gerber Fmt 4.6, Leading zero omitted, Abs format (unit mm)*
G04 Created by KiCad (PCBNEW (5.1.9)-1) date 2021-10-04 18:28:45*
%MOMM*%
%LPD*%
G01*
G04 APERTURE LIST*
%TA.AperFunction,ComponentPad*%
%ADD10C,1.700000*%
%TD*%
%TA.AperFunction,ComponentPad*%
%ADD11R,1.700000X1.700000*%
%TD*%
%TA.AperFunction,ComponentPad*%
%ADD12C,1.600000*%
%TD*%
%TA.AperFunction,ComponentPad*%
%ADD13R,1.600000X1.600000*%
%TD*%
%TA.AperFunction,ComponentPad*%
%ADD14C,5.715000*%
%TD*%
%TA.AperFunction,ComponentPad*%
%ADD15O,1.905000X2.000000*%
%TD*%
%TA.AperFunction,ComponentPad*%
%ADD16R,1.905000X2.000000*%
%TD*%
%TA.AperFunction,ComponentPad*%
%ADD17C,4.000000*%
%TD*%
%TA.AperFunction,ComponentPad*%
%ADD18C,2.400000*%
%TD*%
%TA.AperFunction,ComponentPad*%
%ADD19R,2.400000X2.400000*%
%TD*%
%TA.AperFunction,ViaPad*%
%ADD20C,0.762000*%
%TD*%
%TA.AperFunction,ViaPad*%
%ADD21C,1.016000*%
%TD*%
%TA.AperFunction,Conductor*%
%ADD22C,0.254000*%
%TD*%
%TA.AperFunction,Conductor*%
%ADD23C,0.100000*%
%TD*%
G04 APERTURE END LIST*
D10*
%TO.N,+5V*%
%TO.C,J5*%
X120650000Y-96520000D03*
D11*
%TO.N,150V*%
X120650000Y-93980000D03*
D10*
%TO.N,GND*%
X120650000Y-99060000D03*
%TD*%
D12*
%TO.N,GND*%
%TO.C,C22*%
X87884000Y-123658000D03*
D13*
%TO.N,+12V*%
X87884000Y-121158000D03*
%TD*%
D14*
%TO.N,N/C*%
%TO.C,REF\u002A\u002A*%
X121920000Y-121920000D03*
%TD*%
%TO.N,N/C*%
%TO.C,REF\u002A\u002A*%
X121920000Y-55880000D03*
%TD*%
%TO.N,N/C*%
%TO.C,REF\u002A\u002A*%
X55880000Y-121920000D03*
%TD*%
%TO.N,N/C*%
%TO.C,REF\u002A\u002A*%
X55880000Y-55880000D03*
%TD*%
D15*
%TO.N,Net-(C17-Pad1)*%
%TO.C,Q2*%
X65405000Y-74549000D03*
%TO.N,Net-(D1-Pad2)*%
X67945000Y-74549000D03*
D16*
%TO.N,Net-(Q2-Pad1)*%
X70485000Y-74549000D03*
%TD*%
D10*
%TO.N,GND*%
%TO.C,J1*%
X79375000Y-121920000D03*
D11*
%TO.N,+12V*%
X76835000Y-121920000D03*
%TD*%
D17*
%TO.N,N/C*%
%TO.C,HS1*%
X80645000Y-78105000D03*
X55245000Y-78105000D03*
%TD*%
D18*
%TO.N,GND*%
%TO.C,C9*%
X98940000Y-69850000D03*
D19*
%TO.N,150V*%
X91440000Y-69850000D03*
%TD*%
D18*
%TO.N,GND*%
%TO.C,C8*%
X98940000Y-88900000D03*
D19*
%TO.N,150V*%
X91440000Y-88900000D03*
%TD*%
D12*
%TO.N,GND*%
%TO.C,C5*%
X74168000Y-112101000D03*
D13*
%TO.N,+12V*%
X74168000Y-109601000D03*
%TD*%
D20*
%TO.N,GND*%
X100076000Y-115887500D03*
D21*
X104140000Y-114808000D03*
X64135000Y-112649000D03*
X66675000Y-112649000D03*
X83312000Y-54610000D03*
X85090000Y-54610000D03*
X86995000Y-54610000D03*
X76327000Y-54610000D03*
X78105000Y-54610000D03*
X80010000Y-54610000D03*
X69342000Y-54610000D03*
X71120000Y-54610000D03*
X73025000Y-54610000D03*
X62357000Y-54610000D03*
X64135000Y-54610000D03*
X66040000Y-54610000D03*
X83312000Y-65151000D03*
X60325000Y-73787000D03*
X58293000Y-62230000D03*
X69342000Y-77851000D03*
X67437000Y-65405000D03*
X71628000Y-62230000D03*
X76708000Y-66548000D03*
X68326000Y-80264000D03*
D20*
X66675000Y-71882000D03*
D21*
X94170500Y-106362500D03*
X91630500Y-106362500D03*
X94170500Y-123317000D03*
X96710500Y-123317000D03*
X99250500Y-123317000D03*
%TO.N,+5V*%
X89090500Y-110426500D03*
X96710500Y-110426500D03*
X109220000Y-114808000D03*
X106680000Y-114808000D03*
X91630500Y-110426500D03*
X94170500Y-110426500D03*
%TO.N,+12V*%
X60960000Y-107315000D03*
X62865000Y-107315000D03*
X64770000Y-107315000D03*
X66675000Y-107315000D03*
X68580000Y-107315000D03*
X70485000Y-107315000D03*
X72390000Y-107315000D03*
X64135000Y-108585000D03*
X66675000Y-108585000D03*
X57785000Y-73787000D03*
X94170500Y-119253000D03*
X96710500Y-119253000D03*
X99250500Y-119253000D03*
%TO.N,150V*%
X83312000Y-59944000D03*
X85090000Y-59944000D03*
X86995000Y-59944000D03*
X76327000Y-59944000D03*
X78105000Y-59944000D03*
X80010000Y-59944000D03*
X69342000Y-59944000D03*
X71120000Y-59944000D03*
X73025000Y-59944000D03*
X62357000Y-59944000D03*
X66040000Y-59944000D03*
X64135000Y-59944000D03*
%TD*%
D22*
%TO.N,GND*%
X126340000Y-126340000D02*
X51460000Y-126340000D01*
X51460000Y-121576019D01*
X52387500Y-121576019D01*
X52387500Y-122263981D01*
X52521715Y-122938725D01*
X52784986Y-123574319D01*
X53167198Y-124146339D01*
X53653661Y-124632802D01*
X54225681Y-125015014D01*
X54861275Y-125278285D01*
X55536019Y-125412500D01*
X56223981Y-125412500D01*
X56898725Y-125278285D01*
X57534319Y-125015014D01*
X58079549Y-124650702D01*
X87070903Y-124650702D01*
X87142486Y-124894671D01*
X87397996Y-125015571D01*
X87672184Y-125084300D01*
X87954512Y-125098217D01*
X88234130Y-125056787D01*
X88500292Y-124961603D01*
X88625514Y-124894671D01*
X88697097Y-124650702D01*
X87884000Y-123837605D01*
X87070903Y-124650702D01*
X58079549Y-124650702D01*
X58106339Y-124632802D01*
X58592802Y-124146339D01*
X58871985Y-123728512D01*
X86443783Y-123728512D01*
X86485213Y-124008130D01*
X86580397Y-124274292D01*
X86647329Y-124399514D01*
X86891298Y-124471097D01*
X87704395Y-123658000D01*
X88063605Y-123658000D01*
X88876702Y-124471097D01*
X89120671Y-124399514D01*
X89241571Y-124144004D01*
X89310300Y-123869816D01*
X89324217Y-123587488D01*
X89282787Y-123307870D01*
X89187603Y-123041708D01*
X89120671Y-122916486D01*
X88876702Y-122844903D01*
X88063605Y-123658000D01*
X87704395Y-123658000D01*
X86891298Y-122844903D01*
X86647329Y-122916486D01*
X86526429Y-123171996D01*
X86457700Y-123446184D01*
X86443783Y-123728512D01*
X58871985Y-123728512D01*
X58975014Y-123574319D01*
X59238285Y-122938725D01*
X59372500Y-122263981D01*
X59372500Y-121576019D01*
X59271847Y-121070000D01*
X75346928Y-121070000D01*
X75346928Y-122770000D01*
X75359188Y-122894482D01*
X75395498Y-123014180D01*
X75454463Y-123124494D01*
X75533815Y-123221185D01*
X75630506Y-123300537D01*
X75740820Y-123359502D01*
X75860518Y-123395812D01*
X75985000Y-123408072D01*
X77685000Y-123408072D01*
X77809482Y-123395812D01*
X77929180Y-123359502D01*
X78039494Y-123300537D01*
X78136185Y-123221185D01*
X78215537Y-123124494D01*
X78274502Y-123014180D01*
X78294457Y-122948397D01*
X78526208Y-122948397D01*
X78603843Y-123197472D01*
X78867883Y-123323371D01*
X79151411Y-123395339D01*
X79443531Y-123410611D01*
X79733019Y-123368599D01*
X80008747Y-123270919D01*
X80146157Y-123197472D01*
X80223792Y-122948397D01*
X79375000Y-122099605D01*
X78526208Y-122948397D01*
X78294457Y-122948397D01*
X78310812Y-122894482D01*
X78323072Y-122770000D01*
X78323072Y-122761458D01*
X78346603Y-122768792D01*
X79195395Y-121920000D01*
X79554605Y-121920000D01*
X80403397Y-122768792D01*
X80652472Y-122691157D01*
X80778371Y-122427117D01*
X80850339Y-122143589D01*
X80865611Y-121851469D01*
X80823599Y-121561981D01*
X80725919Y-121286253D01*
X80652472Y-121148843D01*
X80403397Y-121071208D01*
X79554605Y-121920000D01*
X79195395Y-121920000D01*
X78346603Y-121071208D01*
X78323072Y-121078542D01*
X78323072Y-121070000D01*
X78310812Y-120945518D01*
X78294458Y-120891603D01*
X78526208Y-120891603D01*
X79375000Y-121740395D01*
X80223792Y-120891603D01*
X80146157Y-120642528D01*
X79882117Y-120516629D01*
X79598589Y-120444661D01*
X79306469Y-120429389D01*
X79016981Y-120471401D01*
X78741253Y-120569081D01*
X78603843Y-120642528D01*
X78526208Y-120891603D01*
X78294458Y-120891603D01*
X78274502Y-120825820D01*
X78215537Y-120715506D01*
X78136185Y-120618815D01*
X78039494Y-120539463D01*
X77929180Y-120480498D01*
X77809482Y-120444188D01*
X77685000Y-120431928D01*
X75985000Y-120431928D01*
X75860518Y-120444188D01*
X75740820Y-120480498D01*
X75630506Y-120539463D01*
X75533815Y-120618815D01*
X75454463Y-120715506D01*
X75395498Y-120825820D01*
X75359188Y-120945518D01*
X75346928Y-121070000D01*
X59271847Y-121070000D01*
X59238285Y-120901275D01*
X59013254Y-120358000D01*
X86445928Y-120358000D01*
X86445928Y-121958000D01*
X86458188Y-122082482D01*
X86494498Y-122202180D01*
X86553463Y-122312494D01*
X86632815Y-122409185D01*
X86729506Y-122488537D01*
X86839820Y-122547502D01*
X86959518Y-122583812D01*
X87084000Y-122596072D01*
X87091215Y-122596072D01*
X87070903Y-122665298D01*
X87884000Y-123478395D01*
X88697097Y-122665298D01*
X88676785Y-122596072D01*
X88684000Y-122596072D01*
X88808482Y-122583812D01*
X88928180Y-122547502D01*
X89038494Y-122488537D01*
X89135185Y-122409185D01*
X89214537Y-122312494D01*
X89273502Y-122202180D01*
X89309812Y-122082482D01*
X89322072Y-121958000D01*
X89322072Y-121576019D01*
X118427500Y-121576019D01*
X118427500Y-122263981D01*
X118561715Y-122938725D01*
X118824986Y-123574319D01*
X119207198Y-124146339D01*
X119693661Y-124632802D01*
X120265681Y-125015014D01*
X120901275Y-125278285D01*
X121576019Y-125412500D01*
X122263981Y-125412500D01*
X122938725Y-125278285D01*
X123574319Y-125015014D01*
X124146339Y-124632802D01*
X124632802Y-124146339D01*
X125015014Y-123574319D01*
X125278285Y-122938725D01*
X125412500Y-122263981D01*
X125412500Y-121576019D01*
X125278285Y-120901275D01*
X125015014Y-120265681D01*
X124632802Y-119693661D01*
X124146339Y-119207198D01*
X123574319Y-118824986D01*
X122938725Y-118561715D01*
X122263981Y-118427500D01*
X121576019Y-118427500D01*
X120901275Y-118561715D01*
X120265681Y-118824986D01*
X119693661Y-119207198D01*
X119207198Y-119693661D01*
X118824986Y-120265681D01*
X118561715Y-120901275D01*
X118427500Y-121576019D01*
X89322072Y-121576019D01*
X89322072Y-120358000D01*
X89309812Y-120233518D01*
X89273502Y-120113820D01*
X89214537Y-120003506D01*
X89135185Y-119906815D01*
X89038494Y-119827463D01*
X88928180Y-119768498D01*
X88808482Y-119732188D01*
X88684000Y-119719928D01*
X87084000Y-119719928D01*
X86959518Y-119732188D01*
X86839820Y-119768498D01*
X86729506Y-119827463D01*
X86632815Y-119906815D01*
X86553463Y-120003506D01*
X86494498Y-120113820D01*
X86458188Y-120233518D01*
X86445928Y-120358000D01*
X59013254Y-120358000D01*
X58975014Y-120265681D01*
X58592802Y-119693661D01*
X58106339Y-119207198D01*
X58006405Y-119140424D01*
X93027500Y-119140424D01*
X93027500Y-119365576D01*
X93071425Y-119586401D01*
X93157587Y-119794413D01*
X93282674Y-119981620D01*
X93441880Y-120140826D01*
X93629087Y-120265913D01*
X93837099Y-120352075D01*
X94057924Y-120396000D01*
X94283076Y-120396000D01*
X94503901Y-120352075D01*
X94711913Y-120265913D01*
X94899120Y-120140826D01*
X95058326Y-119981620D01*
X95183413Y-119794413D01*
X95269575Y-119586401D01*
X95313500Y-119365576D01*
X95313500Y-119140424D01*
X95567500Y-119140424D01*
X95567500Y-119365576D01*
X95611425Y-119586401D01*
X95697587Y-119794413D01*
X95822674Y-119981620D01*
X95981880Y-120140826D01*
X96169087Y-120265913D01*
X96377099Y-120352075D01*
X96597924Y-120396000D01*
X96823076Y-120396000D01*
X97043901Y-120352075D01*
X97251913Y-120265913D01*
X97439120Y-120140826D01*
X97598326Y-119981620D01*
X97723413Y-119794413D01*
X97809575Y-119586401D01*
X97853500Y-119365576D01*
X97853500Y-119140424D01*
X98107500Y-119140424D01*
X98107500Y-119365576D01*
X98151425Y-119586401D01*
X98237587Y-119794413D01*
X98362674Y-119981620D01*
X98521880Y-120140826D01*
X98709087Y-120265913D01*
X98917099Y-120352075D01*
X99137924Y-120396000D01*
X99363076Y-120396000D01*
X99583901Y-120352075D01*
X99791913Y-120265913D01*
X99979120Y-120140826D01*
X100138326Y-119981620D01*
X100263413Y-119794413D01*
X100349575Y-119586401D01*
X100393500Y-119365576D01*
X100393500Y-119140424D01*
X100349575Y-118919599D01*
X100263413Y-118711587D01*
X100138326Y-118524380D01*
X99979120Y-118365174D01*
X99791913Y-118240087D01*
X99583901Y-118153925D01*
X99363076Y-118110000D01*
X99137924Y-118110000D01*
X98917099Y-118153925D01*
X98709087Y-118240087D01*
X98521880Y-118365174D01*
X98362674Y-118524380D01*
X98237587Y-118711587D01*
X98151425Y-118919599D01*
X98107500Y-119140424D01*
X97853500Y-119140424D01*
X97809575Y-118919599D01*
X97723413Y-118711587D01*
X97598326Y-118524380D01*
X97439120Y-118365174D01*
X97251913Y-118240087D01*
X97043901Y-118153925D01*
X96823076Y-118110000D01*
X96597924Y-118110000D01*
X96377099Y-118153925D01*
X96169087Y-118240087D01*
X95981880Y-118365174D01*
X95822674Y-118524380D01*
X95697587Y-118711587D01*
X95611425Y-118919599D01*
X95567500Y-119140424D01*
X95313500Y-119140424D01*
X95269575Y-118919599D01*
X95183413Y-118711587D01*
X95058326Y-118524380D01*
X94899120Y-118365174D01*
X94711913Y-118240087D01*
X94503901Y-118153925D01*
X94283076Y-118110000D01*
X94057924Y-118110000D01*
X93837099Y-118153925D01*
X93629087Y-118240087D01*
X93441880Y-118365174D01*
X93282674Y-118524380D01*
X93157587Y-118711587D01*
X93071425Y-118919599D01*
X93027500Y-119140424D01*
X58006405Y-119140424D01*
X57534319Y-118824986D01*
X56898725Y-118561715D01*
X56223981Y-118427500D01*
X55536019Y-118427500D01*
X54861275Y-118561715D01*
X54225681Y-118824986D01*
X53653661Y-119207198D01*
X53167198Y-119693661D01*
X52784986Y-120265681D01*
X52521715Y-120901275D01*
X52387500Y-121576019D01*
X51460000Y-121576019D01*
X51460000Y-114695424D01*
X105537000Y-114695424D01*
X105537000Y-114920576D01*
X105580925Y-115141401D01*
X105667087Y-115349413D01*
X105792174Y-115536620D01*
X105951380Y-115695826D01*
X106138587Y-115820913D01*
X106346599Y-115907075D01*
X106567424Y-115951000D01*
X106792576Y-115951000D01*
X107013401Y-115907075D01*
X107221413Y-115820913D01*
X107408620Y-115695826D01*
X107567826Y-115536620D01*
X107692913Y-115349413D01*
X107779075Y-115141401D01*
X107823000Y-114920576D01*
X107823000Y-114695424D01*
X108077000Y-114695424D01*
X108077000Y-114920576D01*
X108120925Y-115141401D01*
X108207087Y-115349413D01*
X108332174Y-115536620D01*
X108491380Y-115695826D01*
X108678587Y-115820913D01*
X108886599Y-115907075D01*
X109107424Y-115951000D01*
X109332576Y-115951000D01*
X109553401Y-115907075D01*
X109761413Y-115820913D01*
X109948620Y-115695826D01*
X110107826Y-115536620D01*
X110232913Y-115349413D01*
X110319075Y-115141401D01*
X110363000Y-114920576D01*
X110363000Y-114695424D01*
X110319075Y-114474599D01*
X110232913Y-114266587D01*
X110107826Y-114079380D01*
X109948620Y-113920174D01*
X109761413Y-113795087D01*
X109553401Y-113708925D01*
X109332576Y-113665000D01*
X109107424Y-113665000D01*
X108886599Y-113708925D01*
X108678587Y-113795087D01*
X108491380Y-113920174D01*
X108332174Y-114079380D01*
X108207087Y-114266587D01*
X108120925Y-114474599D01*
X108077000Y-114695424D01*
X107823000Y-114695424D01*
X107779075Y-114474599D01*
X107692913Y-114266587D01*
X107567826Y-114079380D01*
X107408620Y-113920174D01*
X107221413Y-113795087D01*
X107013401Y-113708925D01*
X106792576Y-113665000D01*
X106567424Y-113665000D01*
X106346599Y-113708925D01*
X106138587Y-113795087D01*
X105951380Y-113920174D01*
X105792174Y-114079380D01*
X105667087Y-114266587D01*
X105580925Y-114474599D01*
X105537000Y-114695424D01*
X51460000Y-114695424D01*
X51460000Y-113093702D01*
X73354903Y-113093702D01*
X73426486Y-113337671D01*
X73681996Y-113458571D01*
X73956184Y-113527300D01*
X74238512Y-113541217D01*
X74518130Y-113499787D01*
X74784292Y-113404603D01*
X74909514Y-113337671D01*
X74981097Y-113093702D01*
X74168000Y-112280605D01*
X73354903Y-113093702D01*
X51460000Y-113093702D01*
X51460000Y-112171512D01*
X72727783Y-112171512D01*
X72769213Y-112451130D01*
X72864397Y-112717292D01*
X72931329Y-112842514D01*
X73175298Y-112914097D01*
X73988395Y-112101000D01*
X74347605Y-112101000D01*
X75160702Y-112914097D01*
X75404671Y-112842514D01*
X75525571Y-112587004D01*
X75594300Y-112312816D01*
X75608217Y-112030488D01*
X75566787Y-111750870D01*
X75471603Y-111484708D01*
X75404671Y-111359486D01*
X75160702Y-111287903D01*
X74347605Y-112101000D01*
X73988395Y-112101000D01*
X73175298Y-111287903D01*
X72931329Y-111359486D01*
X72810429Y-111614996D01*
X72741700Y-111889184D01*
X72727783Y-112171512D01*
X51460000Y-112171512D01*
X51460000Y-107202424D01*
X59817000Y-107202424D01*
X59817000Y-107427576D01*
X59860925Y-107648401D01*
X59947087Y-107856413D01*
X60072174Y-108043620D01*
X60231380Y-108202826D01*
X60418587Y-108327913D01*
X60626599Y-108414075D01*
X60847424Y-108458000D01*
X61072576Y-108458000D01*
X61293401Y-108414075D01*
X61501413Y-108327913D01*
X61688620Y-108202826D01*
X61847826Y-108043620D01*
X61912500Y-107946828D01*
X61977174Y-108043620D01*
X62136380Y-108202826D01*
X62323587Y-108327913D01*
X62531599Y-108414075D01*
X62752424Y-108458000D01*
X62977576Y-108458000D01*
X62995582Y-108454418D01*
X62992000Y-108472424D01*
X62992000Y-108697576D01*
X63035925Y-108918401D01*
X63122087Y-109126413D01*
X63247174Y-109313620D01*
X63406380Y-109472826D01*
X63593587Y-109597913D01*
X63801599Y-109684075D01*
X64022424Y-109728000D01*
X64247576Y-109728000D01*
X64468401Y-109684075D01*
X64676413Y-109597913D01*
X64863620Y-109472826D01*
X65022826Y-109313620D01*
X65147913Y-109126413D01*
X65234075Y-108918401D01*
X65278000Y-108697576D01*
X65278000Y-108472424D01*
X65253986Y-108351700D01*
X65311413Y-108327913D01*
X65498620Y-108202826D01*
X65657826Y-108043620D01*
X65722500Y-107946828D01*
X65724619Y-107950000D01*
X65662087Y-108043587D01*
X65575925Y-108251599D01*
X65532000Y-108472424D01*
X65532000Y-108697576D01*
X65575925Y-108918401D01*
X65662087Y-109126413D01*
X65787174Y-109313620D01*
X65946380Y-109472826D01*
X66133587Y-109597913D01*
X66341599Y-109684075D01*
X66562424Y-109728000D01*
X66787576Y-109728000D01*
X67008401Y-109684075D01*
X67216413Y-109597913D01*
X67403620Y-109472826D01*
X67562826Y-109313620D01*
X67687913Y-109126413D01*
X67774075Y-108918401D01*
X67818000Y-108697576D01*
X67818000Y-108472424D01*
X67774075Y-108251599D01*
X67687913Y-108043587D01*
X67625381Y-107950000D01*
X67627500Y-107946828D01*
X67692174Y-108043620D01*
X67851380Y-108202826D01*
X68038587Y-108327913D01*
X68246599Y-108414075D01*
X68467424Y-108458000D01*
X68692576Y-108458000D01*
X68913401Y-108414075D01*
X69121413Y-108327913D01*
X69308620Y-108202826D01*
X69467826Y-108043620D01*
X69532500Y-107946828D01*
X69597174Y-108043620D01*
X69756380Y-108202826D01*
X69943587Y-108327913D01*
X70151599Y-108414075D01*
X70372424Y-108458000D01*
X70597576Y-108458000D01*
X70818401Y-108414075D01*
X71026413Y-108327913D01*
X71213620Y-108202826D01*
X71372826Y-108043620D01*
X71437500Y-107946828D01*
X71502174Y-108043620D01*
X71661380Y-108202826D01*
X71848587Y-108327913D01*
X72056599Y-108414075D01*
X72277424Y-108458000D01*
X72502576Y-108458000D01*
X72723401Y-108414075D01*
X72931413Y-108327913D01*
X72996473Y-108284441D01*
X72916815Y-108349815D01*
X72837463Y-108446506D01*
X72778498Y-108556820D01*
X72742188Y-108676518D01*
X72729928Y-108801000D01*
X72729928Y-110401000D01*
X72742188Y-110525482D01*
X72778498Y-110645180D01*
X72837463Y-110755494D01*
X72916815Y-110852185D01*
X73013506Y-110931537D01*
X73123820Y-110990502D01*
X73243518Y-111026812D01*
X73368000Y-111039072D01*
X73375215Y-111039072D01*
X73354903Y-111108298D01*
X74168000Y-111921395D01*
X74981097Y-111108298D01*
X74960785Y-111039072D01*
X74968000Y-111039072D01*
X75092482Y-111026812D01*
X75212180Y-110990502D01*
X75322494Y-110931537D01*
X75419185Y-110852185D01*
X75498537Y-110755494D01*
X75557502Y-110645180D01*
X75593812Y-110525482D01*
X75606072Y-110401000D01*
X75606072Y-110313924D01*
X87947500Y-110313924D01*
X87947500Y-110539076D01*
X87991425Y-110759901D01*
X88077587Y-110967913D01*
X88202674Y-111155120D01*
X88361880Y-111314326D01*
X88549087Y-111439413D01*
X88757099Y-111525575D01*
X88977924Y-111569500D01*
X89203076Y-111569500D01*
X89423901Y-111525575D01*
X89631913Y-111439413D01*
X89819120Y-111314326D01*
X89978326Y-111155120D01*
X90103413Y-110967913D01*
X90189575Y-110759901D01*
X90233500Y-110539076D01*
X90233500Y-110313924D01*
X90487500Y-110313924D01*
X90487500Y-110539076D01*
X90531425Y-110759901D01*
X90617587Y-110967913D01*
X90742674Y-111155120D01*
X90901880Y-111314326D01*
X91089087Y-111439413D01*
X91297099Y-111525575D01*
X91517924Y-111569500D01*
X91743076Y-111569500D01*
X91963901Y-111525575D01*
X92171913Y-111439413D01*
X92359120Y-111314326D01*
X92518326Y-111155120D01*
X92643413Y-110967913D01*
X92729575Y-110759901D01*
X92773500Y-110539076D01*
X92773500Y-110313924D01*
X93027500Y-110313924D01*
X93027500Y-110539076D01*
X93071425Y-110759901D01*
X93157587Y-110967913D01*
X93282674Y-111155120D01*
X93441880Y-111314326D01*
X93629087Y-111439413D01*
X93837099Y-111525575D01*
X94057924Y-111569500D01*
X94283076Y-111569500D01*
X94503901Y-111525575D01*
X94711913Y-111439413D01*
X94899120Y-111314326D01*
X95058326Y-111155120D01*
X95183413Y-110967913D01*
X95269575Y-110759901D01*
X95313500Y-110539076D01*
X95313500Y-110313924D01*
X95567500Y-110313924D01*
X95567500Y-110539076D01*
X95611425Y-110759901D01*
X95697587Y-110967913D01*
X95822674Y-111155120D01*
X95981880Y-111314326D01*
X96169087Y-111439413D01*
X96377099Y-111525575D01*
X96597924Y-111569500D01*
X96823076Y-111569500D01*
X97043901Y-111525575D01*
X97251913Y-111439413D01*
X97439120Y-111314326D01*
X97598326Y-111155120D01*
X97723413Y-110967913D01*
X97809575Y-110759901D01*
X97853500Y-110539076D01*
X97853500Y-110313924D01*
X97809575Y-110093099D01*
X97723413Y-109885087D01*
X97598326Y-109697880D01*
X97439120Y-109538674D01*
X97251913Y-109413587D01*
X97043901Y-109327425D01*
X96823076Y-109283500D01*
X96597924Y-109283500D01*
X96377099Y-109327425D01*
X96169087Y-109413587D01*
X95981880Y-109538674D01*
X95822674Y-109697880D01*
X95697587Y-109885087D01*
X95611425Y-110093099D01*
X95567500Y-110313924D01*
X95313500Y-110313924D01*
X95269575Y-110093099D01*
X95183413Y-109885087D01*
X95058326Y-109697880D01*
X94899120Y-109538674D01*
X94711913Y-109413587D01*
X94503901Y-109327425D01*
X94283076Y-109283500D01*
X94057924Y-109283500D01*
X93837099Y-109327425D01*
X93629087Y-109413587D01*
X93441880Y-109538674D01*
X93282674Y-109697880D01*
X93157587Y-109885087D01*
X93071425Y-110093099D01*
X93027500Y-110313924D01*
X92773500Y-110313924D01*
X92729575Y-110093099D01*
X92643413Y-109885087D01*
X92518326Y-109697880D01*
X92359120Y-109538674D01*
X92171913Y-109413587D01*
X91963901Y-109327425D01*
X91743076Y-109283500D01*
X91517924Y-109283500D01*
X91297099Y-109327425D01*
X91089087Y-109413587D01*
X90901880Y-109538674D01*
X90742674Y-109697880D01*
X90617587Y-109885087D01*
X90531425Y-110093099D01*
X90487500Y-110313924D01*
X90233500Y-110313924D01*
X90189575Y-110093099D01*
X90103413Y-109885087D01*
X89978326Y-109697880D01*
X89819120Y-109538674D01*
X89631913Y-109413587D01*
X89423901Y-109327425D01*
X89203076Y-109283500D01*
X88977924Y-109283500D01*
X88757099Y-109327425D01*
X88549087Y-109413587D01*
X88361880Y-109538674D01*
X88202674Y-109697880D01*
X88077587Y-109885087D01*
X87991425Y-110093099D01*
X87947500Y-110313924D01*
X75606072Y-110313924D01*
X75606072Y-108801000D01*
X75593812Y-108676518D01*
X75557502Y-108556820D01*
X75498537Y-108446506D01*
X75419185Y-108349815D01*
X75322494Y-108270463D01*
X75212180Y-108211498D01*
X75092482Y-108175188D01*
X74968000Y-108162928D01*
X73368000Y-108162928D01*
X73243518Y-108175188D01*
X73123820Y-108211498D01*
X73032941Y-108260075D01*
X73118620Y-108202826D01*
X73277826Y-108043620D01*
X73402913Y-107856413D01*
X73489075Y-107648401D01*
X73533000Y-107427576D01*
X73533000Y-107202424D01*
X73489075Y-106981599D01*
X73402913Y-106773587D01*
X73277826Y-106586380D01*
X73118620Y-106427174D01*
X72931413Y-106302087D01*
X72723401Y-106215925D01*
X72502576Y-106172000D01*
X72277424Y-106172000D01*
X72056599Y-106215925D01*
X71848587Y-106302087D01*
X71661380Y-106427174D01*
X71502174Y-106586380D01*
X71437500Y-106683172D01*
X71372826Y-106586380D01*
X71213620Y-106427174D01*
X71026413Y-106302087D01*
X70818401Y-106215925D01*
X70597576Y-106172000D01*
X70372424Y-106172000D01*
X70151599Y-106215925D01*
X69943587Y-106302087D01*
X69756380Y-106427174D01*
X69597174Y-106586380D01*
X69532500Y-106683172D01*
X69467826Y-106586380D01*
X69308620Y-106427174D01*
X69121413Y-106302087D01*
X68913401Y-106215925D01*
X68692576Y-106172000D01*
X68467424Y-106172000D01*
X68246599Y-106215925D01*
X68038587Y-106302087D01*
X67851380Y-106427174D01*
X67692174Y-106586380D01*
X67627500Y-106683172D01*
X67562826Y-106586380D01*
X67403620Y-106427174D01*
X67216413Y-106302087D01*
X67008401Y-106215925D01*
X66787576Y-106172000D01*
X66562424Y-106172000D01*
X66341599Y-106215925D01*
X66133587Y-106302087D01*
X65946380Y-106427174D01*
X65787174Y-106586380D01*
X65722500Y-106683172D01*
X65657826Y-106586380D01*
X65498620Y-106427174D01*
X65311413Y-106302087D01*
X65103401Y-106215925D01*
X64882576Y-106172000D01*
X64657424Y-106172000D01*
X64436599Y-106215925D01*
X64228587Y-106302087D01*
X64041380Y-106427174D01*
X63882174Y-106586380D01*
X63817500Y-106683172D01*
X63752826Y-106586380D01*
X63593620Y-106427174D01*
X63406413Y-106302087D01*
X63198401Y-106215925D01*
X62977576Y-106172000D01*
X62752424Y-106172000D01*
X62531599Y-106215925D01*
X62323587Y-106302087D01*
X62136380Y-106427174D01*
X61977174Y-106586380D01*
X61912500Y-106683172D01*
X61847826Y-106586380D01*
X61688620Y-106427174D01*
X61501413Y-106302087D01*
X61293401Y-106215925D01*
X61072576Y-106172000D01*
X60847424Y-106172000D01*
X60626599Y-106215925D01*
X60418587Y-106302087D01*
X60231380Y-106427174D01*
X60072174Y-106586380D01*
X59947087Y-106773587D01*
X59860925Y-106981599D01*
X59817000Y-107202424D01*
X51460000Y-107202424D01*
X51460000Y-100088397D01*
X119801208Y-100088397D01*
X119878843Y-100337472D01*
X120142883Y-100463371D01*
X120426411Y-100535339D01*
X120718531Y-100550611D01*
X121008019Y-100508599D01*
X121283747Y-100410919D01*
X121421157Y-100337472D01*
X121498792Y-100088397D01*
X120650000Y-99239605D01*
X119801208Y-100088397D01*
X51460000Y-100088397D01*
X51460000Y-99128531D01*
X119159389Y-99128531D01*
X119201401Y-99418019D01*
X119299081Y-99693747D01*
X119372528Y-99831157D01*
X119621603Y-99908792D01*
X120470395Y-99060000D01*
X120829605Y-99060000D01*
X121678397Y-99908792D01*
X121927472Y-99831157D01*
X122053371Y-99567117D01*
X122125339Y-99283589D01*
X122140611Y-98991469D01*
X122098599Y-98701981D01*
X122000919Y-98426253D01*
X121927472Y-98288843D01*
X121678397Y-98211208D01*
X120829605Y-99060000D01*
X120470395Y-99060000D01*
X119621603Y-98211208D01*
X119372528Y-98288843D01*
X119246629Y-98552883D01*
X119174661Y-98836411D01*
X119159389Y-99128531D01*
X51460000Y-99128531D01*
X51460000Y-93130000D01*
X119161928Y-93130000D01*
X119161928Y-94830000D01*
X119174188Y-94954482D01*
X119210498Y-95074180D01*
X119269463Y-95184494D01*
X119348815Y-95281185D01*
X119445506Y-95360537D01*
X119555820Y-95419502D01*
X119628380Y-95441513D01*
X119496525Y-95573368D01*
X119334010Y-95816589D01*
X119222068Y-96086842D01*
X119165000Y-96373740D01*
X119165000Y-96666260D01*
X119222068Y-96953158D01*
X119334010Y-97223411D01*
X119496525Y-97466632D01*
X119703368Y-97673475D01*
X119876729Y-97789311D01*
X119801208Y-98031603D01*
X120650000Y-98880395D01*
X121498792Y-98031603D01*
X121423271Y-97789311D01*
X121596632Y-97673475D01*
X121803475Y-97466632D01*
X121965990Y-97223411D01*
X122077932Y-96953158D01*
X122135000Y-96666260D01*
X122135000Y-96373740D01*
X122077932Y-96086842D01*
X121965990Y-95816589D01*
X121803475Y-95573368D01*
X121671620Y-95441513D01*
X121744180Y-95419502D01*
X121854494Y-95360537D01*
X121951185Y-95281185D01*
X122030537Y-95184494D01*
X122089502Y-95074180D01*
X122125812Y-94954482D01*
X122138072Y-94830000D01*
X122138072Y-93130000D01*
X122125812Y-93005518D01*
X122089502Y-92885820D01*
X122030537Y-92775506D01*
X121951185Y-92678815D01*
X121854494Y-92599463D01*
X121744180Y-92540498D01*
X121624482Y-92504188D01*
X121500000Y-92491928D01*
X119800000Y-92491928D01*
X119675518Y-92504188D01*
X119555820Y-92540498D01*
X119445506Y-92599463D01*
X119348815Y-92678815D01*
X119269463Y-92775506D01*
X119210498Y-92885820D01*
X119174188Y-93005518D01*
X119161928Y-93130000D01*
X51460000Y-93130000D01*
X51460000Y-87700000D01*
X89601928Y-87700000D01*
X89601928Y-90100000D01*
X89614188Y-90224482D01*
X89650498Y-90344180D01*
X89709463Y-90454494D01*
X89788815Y-90551185D01*
X89885506Y-90630537D01*
X89995820Y-90689502D01*
X90115518Y-90725812D01*
X90240000Y-90738072D01*
X92640000Y-90738072D01*
X92764482Y-90725812D01*
X92884180Y-90689502D01*
X92994494Y-90630537D01*
X93091185Y-90551185D01*
X93170537Y-90454494D01*
X93229502Y-90344180D01*
X93265812Y-90224482D01*
X93270391Y-90177980D01*
X97841626Y-90177980D01*
X97961514Y-90462836D01*
X98285210Y-90623699D01*
X98634069Y-90718322D01*
X98994684Y-90743067D01*
X99353198Y-90696985D01*
X99695833Y-90581846D01*
X99918486Y-90462836D01*
X100038374Y-90177980D01*
X98940000Y-89079605D01*
X97841626Y-90177980D01*
X93270391Y-90177980D01*
X93278072Y-90100000D01*
X93278072Y-88954684D01*
X97096933Y-88954684D01*
X97143015Y-89313198D01*
X97258154Y-89655833D01*
X97377164Y-89878486D01*
X97662020Y-89998374D01*
X98760395Y-88900000D01*
X99119605Y-88900000D01*
X100217980Y-89998374D01*
X100502836Y-89878486D01*
X100663699Y-89554790D01*
X100758322Y-89205931D01*
X100783067Y-88845316D01*
X100736985Y-88486802D01*
X100621846Y-88144167D01*
X100502836Y-87921514D01*
X100217980Y-87801626D01*
X99119605Y-88900000D01*
X98760395Y-88900000D01*
X97662020Y-87801626D01*
X97377164Y-87921514D01*
X97216301Y-88245210D01*
X97121678Y-88594069D01*
X97096933Y-88954684D01*
X93278072Y-88954684D01*
X93278072Y-87700000D01*
X93270392Y-87622020D01*
X97841626Y-87622020D01*
X98940000Y-88720395D01*
X100038374Y-87622020D01*
X99918486Y-87337164D01*
X99594790Y-87176301D01*
X99245931Y-87081678D01*
X98885316Y-87056933D01*
X98526802Y-87103015D01*
X98184167Y-87218154D01*
X97961514Y-87337164D01*
X97841626Y-87622020D01*
X93270392Y-87622020D01*
X93265812Y-87575518D01*
X93229502Y-87455820D01*
X93170537Y-87345506D01*
X93091185Y-87248815D01*
X92994494Y-87169463D01*
X92884180Y-87110498D01*
X92764482Y-87074188D01*
X92640000Y-87061928D01*
X90240000Y-87061928D01*
X90115518Y-87074188D01*
X89995820Y-87110498D01*
X89885506Y-87169463D01*
X89788815Y-87248815D01*
X89709463Y-87345506D01*
X89650498Y-87455820D01*
X89614188Y-87575518D01*
X89601928Y-87700000D01*
X51460000Y-87700000D01*
X51460000Y-77845475D01*
X52610000Y-77845475D01*
X52610000Y-78364525D01*
X52711261Y-78873601D01*
X52909893Y-79353141D01*
X53198262Y-79784715D01*
X53565285Y-80151738D01*
X53996859Y-80440107D01*
X54476399Y-80638739D01*
X54985475Y-80740000D01*
X55504525Y-80740000D01*
X56013601Y-80638739D01*
X56493141Y-80440107D01*
X56924715Y-80151738D01*
X57291738Y-79784715D01*
X57580107Y-79353141D01*
X57778739Y-78873601D01*
X57880000Y-78364525D01*
X57880000Y-77845475D01*
X78010000Y-77845475D01*
X78010000Y-78364525D01*
X78111261Y-78873601D01*
X78309893Y-79353141D01*
X78598262Y-79784715D01*
X78965285Y-80151738D01*
X79396859Y-80440107D01*
X79876399Y-80638739D01*
X80385475Y-80740000D01*
X80904525Y-80740000D01*
X81413601Y-80638739D01*
X81893141Y-80440107D01*
X82324715Y-80151738D01*
X82691738Y-79784715D01*
X82980107Y-79353141D01*
X83178739Y-78873601D01*
X83280000Y-78364525D01*
X83280000Y-77845475D01*
X83178739Y-77336399D01*
X82980107Y-76856859D01*
X82691738Y-76425285D01*
X82324715Y-76058262D01*
X81893141Y-75769893D01*
X81413601Y-75571261D01*
X80904525Y-75470000D01*
X80385475Y-75470000D01*
X79876399Y-75571261D01*
X79396859Y-75769893D01*
X78965285Y-76058262D01*
X78598262Y-76425285D01*
X78309893Y-76856859D01*
X78111261Y-77336399D01*
X78010000Y-77845475D01*
X57880000Y-77845475D01*
X57778739Y-77336399D01*
X57580107Y-76856859D01*
X57291738Y-76425285D01*
X56924715Y-76058262D01*
X56493141Y-75769893D01*
X56013601Y-75571261D01*
X55504525Y-75470000D01*
X54985475Y-75470000D01*
X54476399Y-75571261D01*
X53996859Y-75769893D01*
X53565285Y-76058262D01*
X53198262Y-76425285D01*
X52909893Y-76856859D01*
X52711261Y-77336399D01*
X52610000Y-77845475D01*
X51460000Y-77845475D01*
X51460000Y-73674424D01*
X56642000Y-73674424D01*
X56642000Y-73899576D01*
X56685925Y-74120401D01*
X56772087Y-74328413D01*
X56897174Y-74515620D01*
X57056380Y-74674826D01*
X57243587Y-74799913D01*
X57451599Y-74886075D01*
X57672424Y-74930000D01*
X57897576Y-74930000D01*
X58118401Y-74886075D01*
X58326413Y-74799913D01*
X58513620Y-74674826D01*
X58672826Y-74515620D01*
X58734368Y-74423514D01*
X63817500Y-74423514D01*
X63817500Y-74674485D01*
X63840470Y-74907703D01*
X63931245Y-75206948D01*
X64078655Y-75482734D01*
X64277037Y-75724463D01*
X64518765Y-75922845D01*
X64794551Y-76070255D01*
X65093796Y-76161030D01*
X65405000Y-76191681D01*
X65716203Y-76161030D01*
X66015448Y-76070255D01*
X66291234Y-75922845D01*
X66532963Y-75724463D01*
X66675000Y-75551391D01*
X66817037Y-75724463D01*
X67058765Y-75922845D01*
X67334551Y-76070255D01*
X67633796Y-76161030D01*
X67945000Y-76191681D01*
X68256203Y-76161030D01*
X68555448Y-76070255D01*
X68831234Y-75922845D01*
X68957095Y-75819553D01*
X69001963Y-75903494D01*
X69081315Y-76000185D01*
X69178006Y-76079537D01*
X69288320Y-76138502D01*
X69408018Y-76174812D01*
X69532500Y-76187072D01*
X71437500Y-76187072D01*
X71561982Y-76174812D01*
X71681680Y-76138502D01*
X71791994Y-76079537D01*
X71888685Y-76000185D01*
X71968037Y-75903494D01*
X72027002Y-75793180D01*
X72063312Y-75673482D01*
X72075572Y-75549000D01*
X72075572Y-73549000D01*
X72063312Y-73424518D01*
X72027002Y-73304820D01*
X71968037Y-73194506D01*
X71888685Y-73097815D01*
X71791994Y-73018463D01*
X71681680Y-72959498D01*
X71561982Y-72923188D01*
X71437500Y-72910928D01*
X69532500Y-72910928D01*
X69408018Y-72923188D01*
X69288320Y-72959498D01*
X69178006Y-73018463D01*
X69081315Y-73097815D01*
X69001963Y-73194506D01*
X68957095Y-73278446D01*
X68831235Y-73175155D01*
X68555449Y-73027745D01*
X68256204Y-72936970D01*
X67945000Y-72906319D01*
X67633797Y-72936970D01*
X67334552Y-73027745D01*
X67058766Y-73175155D01*
X66817037Y-73373537D01*
X66675000Y-73546609D01*
X66532963Y-73373537D01*
X66291235Y-73175155D01*
X66015449Y-73027745D01*
X65716204Y-72936970D01*
X65405000Y-72906319D01*
X65093797Y-72936970D01*
X64794552Y-73027745D01*
X64518766Y-73175155D01*
X64277037Y-73373537D01*
X64078655Y-73615265D01*
X63931245Y-73891051D01*
X63840470Y-74190296D01*
X63817500Y-74423514D01*
X58734368Y-74423514D01*
X58797913Y-74328413D01*
X58884075Y-74120401D01*
X58928000Y-73899576D01*
X58928000Y-73674424D01*
X58884075Y-73453599D01*
X58797913Y-73245587D01*
X58672826Y-73058380D01*
X58513620Y-72899174D01*
X58326413Y-72774087D01*
X58118401Y-72687925D01*
X57897576Y-72644000D01*
X57672424Y-72644000D01*
X57451599Y-72687925D01*
X57243587Y-72774087D01*
X57056380Y-72899174D01*
X56897174Y-73058380D01*
X56772087Y-73245587D01*
X56685925Y-73453599D01*
X56642000Y-73674424D01*
X51460000Y-73674424D01*
X51460000Y-68650000D01*
X89601928Y-68650000D01*
X89601928Y-71050000D01*
X89614188Y-71174482D01*
X89650498Y-71294180D01*
X89709463Y-71404494D01*
X89788815Y-71501185D01*
X89885506Y-71580537D01*
X89995820Y-71639502D01*
X90115518Y-71675812D01*
X90240000Y-71688072D01*
X92640000Y-71688072D01*
X92764482Y-71675812D01*
X92884180Y-71639502D01*
X92994494Y-71580537D01*
X93091185Y-71501185D01*
X93170537Y-71404494D01*
X93229502Y-71294180D01*
X93265812Y-71174482D01*
X93270391Y-71127980D01*
X97841626Y-71127980D01*
X97961514Y-71412836D01*
X98285210Y-71573699D01*
X98634069Y-71668322D01*
X98994684Y-71693067D01*
X99353198Y-71646985D01*
X99695833Y-71531846D01*
X99918486Y-71412836D01*
X100038374Y-71127980D01*
X98940000Y-70029605D01*
X97841626Y-71127980D01*
X93270391Y-71127980D01*
X93278072Y-71050000D01*
X93278072Y-69904684D01*
X97096933Y-69904684D01*
X97143015Y-70263198D01*
X97258154Y-70605833D01*
X97377164Y-70828486D01*
X97662020Y-70948374D01*
X98760395Y-69850000D01*
X99119605Y-69850000D01*
X100217980Y-70948374D01*
X100502836Y-70828486D01*
X100663699Y-70504790D01*
X100758322Y-70155931D01*
X100783067Y-69795316D01*
X100736985Y-69436802D01*
X100621846Y-69094167D01*
X100502836Y-68871514D01*
X100217980Y-68751626D01*
X99119605Y-69850000D01*
X98760395Y-69850000D01*
X97662020Y-68751626D01*
X97377164Y-68871514D01*
X97216301Y-69195210D01*
X97121678Y-69544069D01*
X97096933Y-69904684D01*
X93278072Y-69904684D01*
X93278072Y-68650000D01*
X93270392Y-68572020D01*
X97841626Y-68572020D01*
X98940000Y-69670395D01*
X100038374Y-68572020D01*
X99918486Y-68287164D01*
X99594790Y-68126301D01*
X99245931Y-68031678D01*
X98885316Y-68006933D01*
X98526802Y-68053015D01*
X98184167Y-68168154D01*
X97961514Y-68287164D01*
X97841626Y-68572020D01*
X93270392Y-68572020D01*
X93265812Y-68525518D01*
X93229502Y-68405820D01*
X93170537Y-68295506D01*
X93091185Y-68198815D01*
X92994494Y-68119463D01*
X92884180Y-68060498D01*
X92764482Y-68024188D01*
X92640000Y-68011928D01*
X90240000Y-68011928D01*
X90115518Y-68024188D01*
X89995820Y-68060498D01*
X89885506Y-68119463D01*
X89788815Y-68198815D01*
X89709463Y-68295506D01*
X89650498Y-68405820D01*
X89614188Y-68525518D01*
X89601928Y-68650000D01*
X51460000Y-68650000D01*
X51460000Y-59831424D01*
X61214000Y-59831424D01*
X61214000Y-60056576D01*
X61257925Y-60277401D01*
X61344087Y-60485413D01*
X61469174Y-60672620D01*
X61628380Y-60831826D01*
X61815587Y-60956913D01*
X62023599Y-61043075D01*
X62244424Y-61087000D01*
X62469576Y-61087000D01*
X62690401Y-61043075D01*
X62898413Y-60956913D01*
X63085620Y-60831826D01*
X63244826Y-60672620D01*
X63246000Y-60670863D01*
X63247174Y-60672620D01*
X63406380Y-60831826D01*
X63593587Y-60956913D01*
X63801599Y-61043075D01*
X64022424Y-61087000D01*
X64247576Y-61087000D01*
X64468401Y-61043075D01*
X64676413Y-60956913D01*
X64863620Y-60831826D01*
X65022826Y-60672620D01*
X65087500Y-60575828D01*
X65152174Y-60672620D01*
X65311380Y-60831826D01*
X65498587Y-60956913D01*
X65706599Y-61043075D01*
X65927424Y-61087000D01*
X66152576Y-61087000D01*
X66373401Y-61043075D01*
X66581413Y-60956913D01*
X66768620Y-60831826D01*
X66927826Y-60672620D01*
X67052913Y-60485413D01*
X67139075Y-60277401D01*
X67183000Y-60056576D01*
X67183000Y-59831424D01*
X68199000Y-59831424D01*
X68199000Y-60056576D01*
X68242925Y-60277401D01*
X68329087Y-60485413D01*
X68454174Y-60672620D01*
X68613380Y-60831826D01*
X68800587Y-60956913D01*
X69008599Y-61043075D01*
X69229424Y-61087000D01*
X69454576Y-61087000D01*
X69675401Y-61043075D01*
X69883413Y-60956913D01*
X70070620Y-60831826D01*
X70229826Y-60672620D01*
X70231000Y-60670863D01*
X70232174Y-60672620D01*
X70391380Y-60831826D01*
X70578587Y-60956913D01*
X70786599Y-61043075D01*
X71007424Y-61087000D01*
X71232576Y-61087000D01*
X71453401Y-61043075D01*
X71661413Y-60956913D01*
X71848620Y-60831826D01*
X72007826Y-60672620D01*
X72072500Y-60575828D01*
X72137174Y-60672620D01*
X72296380Y-60831826D01*
X72483587Y-60956913D01*
X72691599Y-61043075D01*
X72912424Y-61087000D01*
X73137576Y-61087000D01*
X73358401Y-61043075D01*
X73566413Y-60956913D01*
X73753620Y-60831826D01*
X73912826Y-60672620D01*
X74037913Y-60485413D01*
X74124075Y-60277401D01*
X74168000Y-60056576D01*
X74168000Y-59831424D01*
X75184000Y-59831424D01*
X75184000Y-60056576D01*
X75227925Y-60277401D01*
X75314087Y-60485413D01*
X75439174Y-60672620D01*
X75598380Y-60831826D01*
X75785587Y-60956913D01*
X75993599Y-61043075D01*
X76214424Y-61087000D01*
X76439576Y-61087000D01*
X76660401Y-61043075D01*
X76868413Y-60956913D01*
X77055620Y-60831826D01*
X77214826Y-60672620D01*
X77216000Y-60670863D01*
X77217174Y-60672620D01*
X77376380Y-60831826D01*
X77563587Y-60956913D01*
X77771599Y-61043075D01*
X77992424Y-61087000D01*
X78217576Y-61087000D01*
X78438401Y-61043075D01*
X78646413Y-60956913D01*
X78833620Y-60831826D01*
X78992826Y-60672620D01*
X79057500Y-60575828D01*
X79122174Y-60672620D01*
X79281380Y-60831826D01*
X79468587Y-60956913D01*
X79676599Y-61043075D01*
X79897424Y-61087000D01*
X80122576Y-61087000D01*
X80343401Y-61043075D01*
X80551413Y-60956913D01*
X80738620Y-60831826D01*
X80897826Y-60672620D01*
X81022913Y-60485413D01*
X81109075Y-60277401D01*
X81153000Y-60056576D01*
X81153000Y-59831424D01*
X82169000Y-59831424D01*
X82169000Y-60056576D01*
X82212925Y-60277401D01*
X82299087Y-60485413D01*
X82424174Y-60672620D01*
X82583380Y-60831826D01*
X82770587Y-60956913D01*
X82978599Y-61043075D01*
X83199424Y-61087000D01*
X83424576Y-61087000D01*
X83645401Y-61043075D01*
X83853413Y-60956913D01*
X84040620Y-60831826D01*
X84199826Y-60672620D01*
X84201000Y-60670863D01*
X84202174Y-60672620D01*
X84361380Y-60831826D01*
X84548587Y-60956913D01*
X84756599Y-61043075D01*
X84977424Y-61087000D01*
X85202576Y-61087000D01*
X85423401Y-61043075D01*
X85631413Y-60956913D01*
X85818620Y-60831826D01*
X85977826Y-60672620D01*
X86042500Y-60575828D01*
X86107174Y-60672620D01*
X86266380Y-60831826D01*
X86453587Y-60956913D01*
X86661599Y-61043075D01*
X86882424Y-61087000D01*
X87107576Y-61087000D01*
X87328401Y-61043075D01*
X87536413Y-60956913D01*
X87723620Y-60831826D01*
X87882826Y-60672620D01*
X88007913Y-60485413D01*
X88094075Y-60277401D01*
X88138000Y-60056576D01*
X88138000Y-59831424D01*
X88094075Y-59610599D01*
X88007913Y-59402587D01*
X87882826Y-59215380D01*
X87723620Y-59056174D01*
X87536413Y-58931087D01*
X87328401Y-58844925D01*
X87107576Y-58801000D01*
X86882424Y-58801000D01*
X86661599Y-58844925D01*
X86453587Y-58931087D01*
X86266380Y-59056174D01*
X86107174Y-59215380D01*
X86042500Y-59312172D01*
X85977826Y-59215380D01*
X85818620Y-59056174D01*
X85631413Y-58931087D01*
X85423401Y-58844925D01*
X85202576Y-58801000D01*
X84977424Y-58801000D01*
X84756599Y-58844925D01*
X84548587Y-58931087D01*
X84361380Y-59056174D01*
X84202174Y-59215380D01*
X84201000Y-59217137D01*
X84199826Y-59215380D01*
X84040620Y-59056174D01*
X83853413Y-58931087D01*
X83645401Y-58844925D01*
X83424576Y-58801000D01*
X83199424Y-58801000D01*
X82978599Y-58844925D01*
X82770587Y-58931087D01*
X82583380Y-59056174D01*
X82424174Y-59215380D01*
X82299087Y-59402587D01*
X82212925Y-59610599D01*
X82169000Y-59831424D01*
X81153000Y-59831424D01*
X81109075Y-59610599D01*
X81022913Y-59402587D01*
X80897826Y-59215380D01*
X80738620Y-59056174D01*
X80551413Y-58931087D01*
X80343401Y-58844925D01*
X80122576Y-58801000D01*
X79897424Y-58801000D01*
X79676599Y-58844925D01*
X79468587Y-58931087D01*
X79281380Y-59056174D01*
X79122174Y-59215380D01*
X79057500Y-59312172D01*
X78992826Y-59215380D01*
X78833620Y-59056174D01*
X78646413Y-58931087D01*
X78438401Y-58844925D01*
X78217576Y-58801000D01*
X77992424Y-58801000D01*
X77771599Y-58844925D01*
X77563587Y-58931087D01*
X77376380Y-59056174D01*
X77217174Y-59215380D01*
X77216000Y-59217137D01*
X77214826Y-59215380D01*
X77055620Y-59056174D01*
X76868413Y-58931087D01*
X76660401Y-58844925D01*
X76439576Y-58801000D01*
X76214424Y-58801000D01*
X75993599Y-58844925D01*
X75785587Y-58931087D01*
X75598380Y-59056174D01*
X75439174Y-59215380D01*
X75314087Y-59402587D01*
X75227925Y-59610599D01*
X75184000Y-59831424D01*
X74168000Y-59831424D01*
X74124075Y-59610599D01*
X74037913Y-59402587D01*
X73912826Y-59215380D01*
X73753620Y-59056174D01*
X73566413Y-58931087D01*
X73358401Y-58844925D01*
X73137576Y-58801000D01*
X72912424Y-58801000D01*
X72691599Y-58844925D01*
X72483587Y-58931087D01*
X72296380Y-59056174D01*
X72137174Y-59215380D01*
X72072500Y-59312172D01*
X72007826Y-59215380D01*
X71848620Y-59056174D01*
X71661413Y-58931087D01*
X71453401Y-58844925D01*
X71232576Y-58801000D01*
X71007424Y-58801000D01*
X70786599Y-58844925D01*
X70578587Y-58931087D01*
X70391380Y-59056174D01*
X70232174Y-59215380D01*
X70231000Y-59217137D01*
X70229826Y-59215380D01*
X70070620Y-59056174D01*
X69883413Y-58931087D01*
X69675401Y-58844925D01*
X69454576Y-58801000D01*
X69229424Y-58801000D01*
X69008599Y-58844925D01*
X68800587Y-58931087D01*
X68613380Y-59056174D01*
X68454174Y-59215380D01*
X68329087Y-59402587D01*
X68242925Y-59610599D01*
X68199000Y-59831424D01*
X67183000Y-59831424D01*
X67139075Y-59610599D01*
X67052913Y-59402587D01*
X66927826Y-59215380D01*
X66768620Y-59056174D01*
X66581413Y-58931087D01*
X66373401Y-58844925D01*
X66152576Y-58801000D01*
X65927424Y-58801000D01*
X65706599Y-58844925D01*
X65498587Y-58931087D01*
X65311380Y-59056174D01*
X65152174Y-59215380D01*
X65087500Y-59312172D01*
X65022826Y-59215380D01*
X64863620Y-59056174D01*
X64676413Y-58931087D01*
X64468401Y-58844925D01*
X64247576Y-58801000D01*
X64022424Y-58801000D01*
X63801599Y-58844925D01*
X63593587Y-58931087D01*
X63406380Y-59056174D01*
X63247174Y-59215380D01*
X63246000Y-59217137D01*
X63244826Y-59215380D01*
X63085620Y-59056174D01*
X62898413Y-58931087D01*
X62690401Y-58844925D01*
X62469576Y-58801000D01*
X62244424Y-58801000D01*
X62023599Y-58844925D01*
X61815587Y-58931087D01*
X61628380Y-59056174D01*
X61469174Y-59215380D01*
X61344087Y-59402587D01*
X61257925Y-59610599D01*
X61214000Y-59831424D01*
X51460000Y-59831424D01*
X51460000Y-55536019D01*
X52387500Y-55536019D01*
X52387500Y-56223981D01*
X52521715Y-56898725D01*
X52784986Y-57534319D01*
X53167198Y-58106339D01*
X53653661Y-58592802D01*
X54225681Y-58975014D01*
X54861275Y-59238285D01*
X55536019Y-59372500D01*
X56223981Y-59372500D01*
X56898725Y-59238285D01*
X57534319Y-58975014D01*
X58106339Y-58592802D01*
X58592802Y-58106339D01*
X58975014Y-57534319D01*
X59238285Y-56898725D01*
X59372500Y-56223981D01*
X59372500Y-55536019D01*
X118427500Y-55536019D01*
X118427500Y-56223981D01*
X118561715Y-56898725D01*
X118824986Y-57534319D01*
X119207198Y-58106339D01*
X119693661Y-58592802D01*
X120265681Y-58975014D01*
X120901275Y-59238285D01*
X121576019Y-59372500D01*
X122263981Y-59372500D01*
X122938725Y-59238285D01*
X123574319Y-58975014D01*
X124146339Y-58592802D01*
X124632802Y-58106339D01*
X125015014Y-57534319D01*
X125278285Y-56898725D01*
X125412500Y-56223981D01*
X125412500Y-55536019D01*
X125278285Y-54861275D01*
X125015014Y-54225681D01*
X124632802Y-53653661D01*
X124146339Y-53167198D01*
X123574319Y-52784986D01*
X122938725Y-52521715D01*
X122263981Y-52387500D01*
X121576019Y-52387500D01*
X120901275Y-52521715D01*
X120265681Y-52784986D01*
X119693661Y-53167198D01*
X119207198Y-53653661D01*
X118824986Y-54225681D01*
X118561715Y-54861275D01*
X118427500Y-55536019D01*
X59372500Y-55536019D01*
X59238285Y-54861275D01*
X58975014Y-54225681D01*
X58592802Y-53653661D01*
X58106339Y-53167198D01*
X57534319Y-52784986D01*
X56898725Y-52521715D01*
X56223981Y-52387500D01*
X55536019Y-52387500D01*
X54861275Y-52521715D01*
X54225681Y-52784986D01*
X53653661Y-53167198D01*
X53167198Y-53653661D01*
X52784986Y-54225681D01*
X52521715Y-54861275D01*
X52387500Y-55536019D01*
X51460000Y-55536019D01*
X51460000Y-51460000D01*
X126340001Y-51460000D01*
X126340000Y-126340000D01*
%TA.AperFunction,Conductor*%
D23*
G36*
X126340000Y-126340000D02*
G01*
X51460000Y-126340000D01*
X51460000Y-121576019D01*
X52387500Y-121576019D01*
X52387500Y-122263981D01*
X52521715Y-122938725D01*
X52784986Y-123574319D01*
X53167198Y-124146339D01*
X53653661Y-124632802D01*
X54225681Y-125015014D01*
X54861275Y-125278285D01*
X55536019Y-125412500D01*
X56223981Y-125412500D01*
X56898725Y-125278285D01*
X57534319Y-125015014D01*
X58079549Y-124650702D01*
X87070903Y-124650702D01*
X87142486Y-124894671D01*
X87397996Y-125015571D01*
X87672184Y-125084300D01*
X87954512Y-125098217D01*
X88234130Y-125056787D01*
X88500292Y-124961603D01*
X88625514Y-124894671D01*
X88697097Y-124650702D01*
X87884000Y-123837605D01*
X87070903Y-124650702D01*
X58079549Y-124650702D01*
X58106339Y-124632802D01*
X58592802Y-124146339D01*
X58871985Y-123728512D01*
X86443783Y-123728512D01*
X86485213Y-124008130D01*
X86580397Y-124274292D01*
X86647329Y-124399514D01*
X86891298Y-124471097D01*
X87704395Y-123658000D01*
X88063605Y-123658000D01*
X88876702Y-124471097D01*
X89120671Y-124399514D01*
X89241571Y-124144004D01*
X89310300Y-123869816D01*
X89324217Y-123587488D01*
X89282787Y-123307870D01*
X89187603Y-123041708D01*
X89120671Y-122916486D01*
X88876702Y-122844903D01*
X88063605Y-123658000D01*
X87704395Y-123658000D01*
X86891298Y-122844903D01*
X86647329Y-122916486D01*
X86526429Y-123171996D01*
X86457700Y-123446184D01*
X86443783Y-123728512D01*
X58871985Y-123728512D01*
X58975014Y-123574319D01*
X59238285Y-122938725D01*
X59372500Y-122263981D01*
X59372500Y-121576019D01*
X59271847Y-121070000D01*
X75346928Y-121070000D01*
X75346928Y-122770000D01*
X75359188Y-122894482D01*
X75395498Y-123014180D01*
X75454463Y-123124494D01*
X75533815Y-123221185D01*
X75630506Y-123300537D01*
X75740820Y-123359502D01*
X75860518Y-123395812D01*
X75985000Y-123408072D01*
X77685000Y-123408072D01*
X77809482Y-123395812D01*
X77929180Y-123359502D01*
X78039494Y-123300537D01*
X78136185Y-123221185D01*
X78215537Y-123124494D01*
X78274502Y-123014180D01*
X78294457Y-122948397D01*
X78526208Y-122948397D01*
X78603843Y-123197472D01*
X78867883Y-123323371D01*
X79151411Y-123395339D01*
X79443531Y-123410611D01*
X79733019Y-123368599D01*
X80008747Y-123270919D01*
X80146157Y-123197472D01*
X80223792Y-122948397D01*
X79375000Y-122099605D01*
X78526208Y-122948397D01*
X78294457Y-122948397D01*
X78310812Y-122894482D01*
X78323072Y-122770000D01*
X78323072Y-122761458D01*
X78346603Y-122768792D01*
X79195395Y-121920000D01*
X79554605Y-121920000D01*
X80403397Y-122768792D01*
X80652472Y-122691157D01*
X80778371Y-122427117D01*
X80850339Y-122143589D01*
X80865611Y-121851469D01*
X80823599Y-121561981D01*
X80725919Y-121286253D01*
X80652472Y-121148843D01*
X80403397Y-121071208D01*
X79554605Y-121920000D01*
X79195395Y-121920000D01*
X78346603Y-121071208D01*
X78323072Y-121078542D01*
X78323072Y-121070000D01*
X78310812Y-120945518D01*
X78294458Y-120891603D01*
X78526208Y-120891603D01*
X79375000Y-121740395D01*
X80223792Y-120891603D01*
X80146157Y-120642528D01*
X79882117Y-120516629D01*
X79598589Y-120444661D01*
X79306469Y-120429389D01*
X79016981Y-120471401D01*
X78741253Y-120569081D01*
X78603843Y-120642528D01*
X78526208Y-120891603D01*
X78294458Y-120891603D01*
X78274502Y-120825820D01*
X78215537Y-120715506D01*
X78136185Y-120618815D01*
X78039494Y-120539463D01*
X77929180Y-120480498D01*
X77809482Y-120444188D01*
X77685000Y-120431928D01*
X75985000Y-120431928D01*
X75860518Y-120444188D01*
X75740820Y-120480498D01*
X75630506Y-120539463D01*
X75533815Y-120618815D01*
X75454463Y-120715506D01*
X75395498Y-120825820D01*
X75359188Y-120945518D01*
X75346928Y-121070000D01*
X59271847Y-121070000D01*
X59238285Y-120901275D01*
X59013254Y-120358000D01*
X86445928Y-120358000D01*
X86445928Y-121958000D01*
X86458188Y-122082482D01*
X86494498Y-122202180D01*
X86553463Y-122312494D01*
X86632815Y-122409185D01*
X86729506Y-122488537D01*
X86839820Y-122547502D01*
X86959518Y-122583812D01*
X87084000Y-122596072D01*
X87091215Y-122596072D01*
X87070903Y-122665298D01*
X87884000Y-123478395D01*
X88697097Y-122665298D01*
X88676785Y-122596072D01*
X88684000Y-122596072D01*
X88808482Y-122583812D01*
X88928180Y-122547502D01*
X89038494Y-122488537D01*
X89135185Y-122409185D01*
X89214537Y-122312494D01*
X89273502Y-122202180D01*
X89309812Y-122082482D01*
X89322072Y-121958000D01*
X89322072Y-121576019D01*
X118427500Y-121576019D01*
X118427500Y-122263981D01*
X118561715Y-122938725D01*
X118824986Y-123574319D01*
X119207198Y-124146339D01*
X119693661Y-124632802D01*
X120265681Y-125015014D01*
X120901275Y-125278285D01*
X121576019Y-125412500D01*
X122263981Y-125412500D01*
X122938725Y-125278285D01*
X123574319Y-125015014D01*
X124146339Y-124632802D01*
X124632802Y-124146339D01*
X125015014Y-123574319D01*
X125278285Y-122938725D01*
X125412500Y-122263981D01*
X125412500Y-121576019D01*
X125278285Y-120901275D01*
X125015014Y-120265681D01*
X124632802Y-119693661D01*
X124146339Y-119207198D01*
X123574319Y-118824986D01*
X122938725Y-118561715D01*
X122263981Y-118427500D01*
X121576019Y-118427500D01*
X120901275Y-118561715D01*
X120265681Y-118824986D01*
X119693661Y-119207198D01*
X119207198Y-119693661D01*
X118824986Y-120265681D01*
X118561715Y-120901275D01*
X118427500Y-121576019D01*
X89322072Y-121576019D01*
X89322072Y-120358000D01*
X89309812Y-120233518D01*
X89273502Y-120113820D01*
X89214537Y-120003506D01*
X89135185Y-119906815D01*
X89038494Y-119827463D01*
X88928180Y-119768498D01*
X88808482Y-119732188D01*
X88684000Y-119719928D01*
X87084000Y-119719928D01*
X86959518Y-119732188D01*
X86839820Y-119768498D01*
X86729506Y-119827463D01*
X86632815Y-119906815D01*
X86553463Y-120003506D01*
X86494498Y-120113820D01*
X86458188Y-120233518D01*
X86445928Y-120358000D01*
X59013254Y-120358000D01*
X58975014Y-120265681D01*
X58592802Y-119693661D01*
X58106339Y-119207198D01*
X58006405Y-119140424D01*
X93027500Y-119140424D01*
X93027500Y-119365576D01*
X93071425Y-119586401D01*
X93157587Y-119794413D01*
X93282674Y-119981620D01*
X93441880Y-120140826D01*
X93629087Y-120265913D01*
X93837099Y-120352075D01*
X94057924Y-120396000D01*
X94283076Y-120396000D01*
X94503901Y-120352075D01*
X94711913Y-120265913D01*
X94899120Y-120140826D01*
X95058326Y-119981620D01*
X95183413Y-119794413D01*
X95269575Y-119586401D01*
X95313500Y-119365576D01*
X95313500Y-119140424D01*
X95567500Y-119140424D01*
X95567500Y-119365576D01*
X95611425Y-119586401D01*
X95697587Y-119794413D01*
X95822674Y-119981620D01*
X95981880Y-120140826D01*
X96169087Y-120265913D01*
X96377099Y-120352075D01*
X96597924Y-120396000D01*
X96823076Y-120396000D01*
X97043901Y-120352075D01*
X97251913Y-120265913D01*
X97439120Y-120140826D01*
X97598326Y-119981620D01*
X97723413Y-119794413D01*
X97809575Y-119586401D01*
X97853500Y-119365576D01*
X97853500Y-119140424D01*
X98107500Y-119140424D01*
X98107500Y-119365576D01*
X98151425Y-119586401D01*
X98237587Y-119794413D01*
X98362674Y-119981620D01*
X98521880Y-120140826D01*
X98709087Y-120265913D01*
X98917099Y-120352075D01*
X99137924Y-120396000D01*
X99363076Y-120396000D01*
X99583901Y-120352075D01*
X99791913Y-120265913D01*
X99979120Y-120140826D01*
X100138326Y-119981620D01*
X100263413Y-119794413D01*
X100349575Y-119586401D01*
X100393500Y-119365576D01*
X100393500Y-119140424D01*
X100349575Y-118919599D01*
X100263413Y-118711587D01*
X100138326Y-118524380D01*
X99979120Y-118365174D01*
X99791913Y-118240087D01*
X99583901Y-118153925D01*
X99363076Y-118110000D01*
X99137924Y-118110000D01*
X98917099Y-118153925D01*
X98709087Y-118240087D01*
X98521880Y-118365174D01*
X98362674Y-118524380D01*
X98237587Y-118711587D01*
X98151425Y-118919599D01*
X98107500Y-119140424D01*
X97853500Y-119140424D01*
X97809575Y-118919599D01*
X97723413Y-118711587D01*
X97598326Y-118524380D01*
X97439120Y-118365174D01*
X97251913Y-118240087D01*
X97043901Y-118153925D01*
X96823076Y-118110000D01*
X96597924Y-118110000D01*
X96377099Y-118153925D01*
X96169087Y-118240087D01*
X95981880Y-118365174D01*
X95822674Y-118524380D01*
X95697587Y-118711587D01*
X95611425Y-118919599D01*
X95567500Y-119140424D01*
X95313500Y-119140424D01*
X95269575Y-118919599D01*
X95183413Y-118711587D01*
X95058326Y-118524380D01*
X94899120Y-118365174D01*
X94711913Y-118240087D01*
X94503901Y-118153925D01*
X94283076Y-118110000D01*
X94057924Y-118110000D01*
X93837099Y-118153925D01*
X93629087Y-118240087D01*
X93441880Y-118365174D01*
X93282674Y-118524380D01*
X93157587Y-118711587D01*
X93071425Y-118919599D01*
X93027500Y-119140424D01*
X58006405Y-119140424D01*
X57534319Y-118824986D01*
X56898725Y-118561715D01*
X56223981Y-118427500D01*
X55536019Y-118427500D01*
X54861275Y-118561715D01*
X54225681Y-118824986D01*
X53653661Y-119207198D01*
X53167198Y-119693661D01*
X52784986Y-120265681D01*
X52521715Y-120901275D01*
X52387500Y-121576019D01*
X51460000Y-121576019D01*
X51460000Y-114695424D01*
X105537000Y-114695424D01*
X105537000Y-114920576D01*
X105580925Y-115141401D01*
X105667087Y-115349413D01*
X105792174Y-115536620D01*
X105951380Y-115695826D01*
X106138587Y-115820913D01*
X106346599Y-115907075D01*
X106567424Y-115951000D01*
X106792576Y-115951000D01*
X107013401Y-115907075D01*
X107221413Y-115820913D01*
X107408620Y-115695826D01*
X107567826Y-115536620D01*
X107692913Y-115349413D01*
X107779075Y-115141401D01*
X107823000Y-114920576D01*
X107823000Y-114695424D01*
X108077000Y-114695424D01*
X108077000Y-114920576D01*
X108120925Y-115141401D01*
X108207087Y-115349413D01*
X108332174Y-115536620D01*
X108491380Y-115695826D01*
X108678587Y-115820913D01*
X108886599Y-115907075D01*
X109107424Y-115951000D01*
X109332576Y-115951000D01*
X109553401Y-115907075D01*
X109761413Y-115820913D01*
X109948620Y-115695826D01*
X110107826Y-115536620D01*
X110232913Y-115349413D01*
X110319075Y-115141401D01*
X110363000Y-114920576D01*
X110363000Y-114695424D01*
X110319075Y-114474599D01*
X110232913Y-114266587D01*
X110107826Y-114079380D01*
X109948620Y-113920174D01*
X109761413Y-113795087D01*
X109553401Y-113708925D01*
X109332576Y-113665000D01*
X109107424Y-113665000D01*
X108886599Y-113708925D01*
X108678587Y-113795087D01*
X108491380Y-113920174D01*
X108332174Y-114079380D01*
X108207087Y-114266587D01*
X108120925Y-114474599D01*
X108077000Y-114695424D01*
X107823000Y-114695424D01*
X107779075Y-114474599D01*
X107692913Y-114266587D01*
X107567826Y-114079380D01*
X107408620Y-113920174D01*
X107221413Y-113795087D01*
X107013401Y-113708925D01*
X106792576Y-113665000D01*
X106567424Y-113665000D01*
X106346599Y-113708925D01*
X106138587Y-113795087D01*
X105951380Y-113920174D01*
X105792174Y-114079380D01*
X105667087Y-114266587D01*
X105580925Y-114474599D01*
X105537000Y-114695424D01*
X51460000Y-114695424D01*
X51460000Y-113093702D01*
X73354903Y-113093702D01*
X73426486Y-113337671D01*
X73681996Y-113458571D01*
X73956184Y-113527300D01*
X74238512Y-113541217D01*
X74518130Y-113499787D01*
X74784292Y-113404603D01*
X74909514Y-113337671D01*
X74981097Y-113093702D01*
X74168000Y-112280605D01*
X73354903Y-113093702D01*
X51460000Y-113093702D01*
X51460000Y-112171512D01*
X72727783Y-112171512D01*
X72769213Y-112451130D01*
X72864397Y-112717292D01*
X72931329Y-112842514D01*
X73175298Y-112914097D01*
X73988395Y-112101000D01*
X74347605Y-112101000D01*
X75160702Y-112914097D01*
X75404671Y-112842514D01*
X75525571Y-112587004D01*
X75594300Y-112312816D01*
X75608217Y-112030488D01*
X75566787Y-111750870D01*
X75471603Y-111484708D01*
X75404671Y-111359486D01*
X75160702Y-111287903D01*
X74347605Y-112101000D01*
X73988395Y-112101000D01*
X73175298Y-111287903D01*
X72931329Y-111359486D01*
X72810429Y-111614996D01*
X72741700Y-111889184D01*
X72727783Y-112171512D01*
X51460000Y-112171512D01*
X51460000Y-107202424D01*
X59817000Y-107202424D01*
X59817000Y-107427576D01*
X59860925Y-107648401D01*
X59947087Y-107856413D01*
X60072174Y-108043620D01*
X60231380Y-108202826D01*
X60418587Y-108327913D01*
X60626599Y-108414075D01*
X60847424Y-108458000D01*
X61072576Y-108458000D01*
X61293401Y-108414075D01*
X61501413Y-108327913D01*
X61688620Y-108202826D01*
X61847826Y-108043620D01*
X61912500Y-107946828D01*
X61977174Y-108043620D01*
X62136380Y-108202826D01*
X62323587Y-108327913D01*
X62531599Y-108414075D01*
X62752424Y-108458000D01*
X62977576Y-108458000D01*
X62995582Y-108454418D01*
X62992000Y-108472424D01*
X62992000Y-108697576D01*
X63035925Y-108918401D01*
X63122087Y-109126413D01*
X63247174Y-109313620D01*
X63406380Y-109472826D01*
X63593587Y-109597913D01*
X63801599Y-109684075D01*
X64022424Y-109728000D01*
X64247576Y-109728000D01*
X64468401Y-109684075D01*
X64676413Y-109597913D01*
X64863620Y-109472826D01*
X65022826Y-109313620D01*
X65147913Y-109126413D01*
X65234075Y-108918401D01*
X65278000Y-108697576D01*
X65278000Y-108472424D01*
X65253986Y-108351700D01*
X65311413Y-108327913D01*
X65498620Y-108202826D01*
X65657826Y-108043620D01*
X65722500Y-107946828D01*
X65724619Y-107950000D01*
X65662087Y-108043587D01*
X65575925Y-108251599D01*
X65532000Y-108472424D01*
X65532000Y-108697576D01*
X65575925Y-108918401D01*
X65662087Y-109126413D01*
X65787174Y-109313620D01*
X65946380Y-109472826D01*
X66133587Y-109597913D01*
X66341599Y-109684075D01*
X66562424Y-109728000D01*
X66787576Y-109728000D01*
X67008401Y-109684075D01*
X67216413Y-109597913D01*
X67403620Y-109472826D01*
X67562826Y-109313620D01*
X67687913Y-109126413D01*
X67774075Y-108918401D01*
X67818000Y-108697576D01*
X67818000Y-108472424D01*
X67774075Y-108251599D01*
X67687913Y-108043587D01*
X67625381Y-107950000D01*
X67627500Y-107946828D01*
X67692174Y-108043620D01*
X67851380Y-108202826D01*
X68038587Y-108327913D01*
X68246599Y-108414075D01*
X68467424Y-108458000D01*
X68692576Y-108458000D01*
X68913401Y-108414075D01*
X69121413Y-108327913D01*
X69308620Y-108202826D01*
X69467826Y-108043620D01*
X69532500Y-107946828D01*
X69597174Y-108043620D01*
X69756380Y-108202826D01*
X69943587Y-108327913D01*
X70151599Y-108414075D01*
X70372424Y-108458000D01*
X70597576Y-108458000D01*
X70818401Y-108414075D01*
X71026413Y-108327913D01*
X71213620Y-108202826D01*
X71372826Y-108043620D01*
X71437500Y-107946828D01*
X71502174Y-108043620D01*
X71661380Y-108202826D01*
X71848587Y-108327913D01*
X72056599Y-108414075D01*
X72277424Y-108458000D01*
X72502576Y-108458000D01*
X72723401Y-108414075D01*
X72931413Y-108327913D01*
X72996473Y-108284441D01*
X72916815Y-108349815D01*
X72837463Y-108446506D01*
X72778498Y-108556820D01*
X72742188Y-108676518D01*
X72729928Y-108801000D01*
X72729928Y-110401000D01*
X72742188Y-110525482D01*
X72778498Y-110645180D01*
X72837463Y-110755494D01*
X72916815Y-110852185D01*
X73013506Y-110931537D01*
X73123820Y-110990502D01*
X73243518Y-111026812D01*
X73368000Y-111039072D01*
X73375215Y-111039072D01*
X73354903Y-111108298D01*
X74168000Y-111921395D01*
X74981097Y-111108298D01*
X74960785Y-111039072D01*
X74968000Y-111039072D01*
X75092482Y-111026812D01*
X75212180Y-110990502D01*
X75322494Y-110931537D01*
X75419185Y-110852185D01*
X75498537Y-110755494D01*
X75557502Y-110645180D01*
X75593812Y-110525482D01*
X75606072Y-110401000D01*
X75606072Y-110313924D01*
X87947500Y-110313924D01*
X87947500Y-110539076D01*
X87991425Y-110759901D01*
X88077587Y-110967913D01*
X88202674Y-111155120D01*
X88361880Y-111314326D01*
X88549087Y-111439413D01*
X88757099Y-111525575D01*
X88977924Y-111569500D01*
X89203076Y-111569500D01*
X89423901Y-111525575D01*
X89631913Y-111439413D01*
X89819120Y-111314326D01*
X89978326Y-111155120D01*
X90103413Y-110967913D01*
X90189575Y-110759901D01*
X90233500Y-110539076D01*
X90233500Y-110313924D01*
X90487500Y-110313924D01*
X90487500Y-110539076D01*
X90531425Y-110759901D01*
X90617587Y-110967913D01*
X90742674Y-111155120D01*
X90901880Y-111314326D01*
X91089087Y-111439413D01*
X91297099Y-111525575D01*
X91517924Y-111569500D01*
X91743076Y-111569500D01*
X91963901Y-111525575D01*
X92171913Y-111439413D01*
X92359120Y-111314326D01*
X92518326Y-111155120D01*
X92643413Y-110967913D01*
X92729575Y-110759901D01*
X92773500Y-110539076D01*
X92773500Y-110313924D01*
X93027500Y-110313924D01*
X93027500Y-110539076D01*
X93071425Y-110759901D01*
X93157587Y-110967913D01*
X93282674Y-111155120D01*
X93441880Y-111314326D01*
X93629087Y-111439413D01*
X93837099Y-111525575D01*
X94057924Y-111569500D01*
X94283076Y-111569500D01*
X94503901Y-111525575D01*
X94711913Y-111439413D01*
X94899120Y-111314326D01*
X95058326Y-111155120D01*
X95183413Y-110967913D01*
X95269575Y-110759901D01*
X95313500Y-110539076D01*
X95313500Y-110313924D01*
X95567500Y-110313924D01*
X95567500Y-110539076D01*
X95611425Y-110759901D01*
X95697587Y-110967913D01*
X95822674Y-111155120D01*
X95981880Y-111314326D01*
X96169087Y-111439413D01*
X96377099Y-111525575D01*
X96597924Y-111569500D01*
X96823076Y-111569500D01*
X97043901Y-111525575D01*
X97251913Y-111439413D01*
X97439120Y-111314326D01*
X97598326Y-111155120D01*
X97723413Y-110967913D01*
X97809575Y-110759901D01*
X97853500Y-110539076D01*
X97853500Y-110313924D01*
X97809575Y-110093099D01*
X97723413Y-109885087D01*
X97598326Y-109697880D01*
X97439120Y-109538674D01*
X97251913Y-109413587D01*
X97043901Y-109327425D01*
X96823076Y-109283500D01*
X96597924Y-109283500D01*
X96377099Y-109327425D01*
X96169087Y-109413587D01*
X95981880Y-109538674D01*
X95822674Y-109697880D01*
X95697587Y-109885087D01*
X95611425Y-110093099D01*
X95567500Y-110313924D01*
X95313500Y-110313924D01*
X95269575Y-110093099D01*
X95183413Y-109885087D01*
X95058326Y-109697880D01*
X94899120Y-109538674D01*
X94711913Y-109413587D01*
X94503901Y-109327425D01*
X94283076Y-109283500D01*
X94057924Y-109283500D01*
X93837099Y-109327425D01*
X93629087Y-109413587D01*
X93441880Y-109538674D01*
X93282674Y-109697880D01*
X93157587Y-109885087D01*
X93071425Y-110093099D01*
X93027500Y-110313924D01*
X92773500Y-110313924D01*
X92729575Y-110093099D01*
X92643413Y-109885087D01*
X92518326Y-109697880D01*
X92359120Y-109538674D01*
X92171913Y-109413587D01*
X91963901Y-109327425D01*
X91743076Y-109283500D01*
X91517924Y-109283500D01*
X91297099Y-109327425D01*
X91089087Y-109413587D01*
X90901880Y-109538674D01*
X90742674Y-109697880D01*
X90617587Y-109885087D01*
X90531425Y-110093099D01*
X90487500Y-110313924D01*
X90233500Y-110313924D01*
X90189575Y-110093099D01*
X90103413Y-109885087D01*
X89978326Y-109697880D01*
X89819120Y-109538674D01*
X89631913Y-109413587D01*
X89423901Y-109327425D01*
X89203076Y-109283500D01*
X88977924Y-109283500D01*
X88757099Y-109327425D01*
X88549087Y-109413587D01*
X88361880Y-109538674D01*
X88202674Y-109697880D01*
X88077587Y-109885087D01*
X87991425Y-110093099D01*
X87947500Y-110313924D01*
X75606072Y-110313924D01*
X75606072Y-108801000D01*
X75593812Y-108676518D01*
X75557502Y-108556820D01*
X75498537Y-108446506D01*
X75419185Y-108349815D01*
X75322494Y-108270463D01*
X75212180Y-108211498D01*
X75092482Y-108175188D01*
X74968000Y-108162928D01*
X73368000Y-108162928D01*
X73243518Y-108175188D01*
X73123820Y-108211498D01*
X73032941Y-108260075D01*
X73118620Y-108202826D01*
X73277826Y-108043620D01*
X73402913Y-107856413D01*
X73489075Y-107648401D01*
X73533000Y-107427576D01*
X73533000Y-107202424D01*
X73489075Y-106981599D01*
X73402913Y-106773587D01*
X73277826Y-106586380D01*
X73118620Y-106427174D01*
X72931413Y-106302087D01*
X72723401Y-106215925D01*
X72502576Y-106172000D01*
X72277424Y-106172000D01*
X72056599Y-106215925D01*
X71848587Y-106302087D01*
X71661380Y-106427174D01*
X71502174Y-106586380D01*
X71437500Y-106683172D01*
X71372826Y-106586380D01*
X71213620Y-106427174D01*
X71026413Y-106302087D01*
X70818401Y-106215925D01*
X70597576Y-106172000D01*
X70372424Y-106172000D01*
X70151599Y-106215925D01*
X69943587Y-106302087D01*
X69756380Y-106427174D01*
X69597174Y-106586380D01*
X69532500Y-106683172D01*
X69467826Y-106586380D01*
X69308620Y-106427174D01*
X69121413Y-106302087D01*
X68913401Y-106215925D01*
X68692576Y-106172000D01*
X68467424Y-106172000D01*
X68246599Y-106215925D01*
X68038587Y-106302087D01*
X67851380Y-106427174D01*
X67692174Y-106586380D01*
X67627500Y-106683172D01*
X67562826Y-106586380D01*
X67403620Y-106427174D01*
X67216413Y-106302087D01*
X67008401Y-106215925D01*
X66787576Y-106172000D01*
X66562424Y-106172000D01*
X66341599Y-106215925D01*
X66133587Y-106302087D01*
X65946380Y-106427174D01*
X65787174Y-106586380D01*
X65722500Y-106683172D01*
X65657826Y-106586380D01*
X65498620Y-106427174D01*
X65311413Y-106302087D01*
X65103401Y-106215925D01*
X64882576Y-106172000D01*
X64657424Y-106172000D01*
X64436599Y-106215925D01*
X64228587Y-106302087D01*
X64041380Y-106427174D01*
X63882174Y-106586380D01*
X63817500Y-106683172D01*
X63752826Y-106586380D01*
X63593620Y-106427174D01*
X63406413Y-106302087D01*
X63198401Y-106215925D01*
X62977576Y-106172000D01*
X62752424Y-106172000D01*
X62531599Y-106215925D01*
X62323587Y-106302087D01*
X62136380Y-106427174D01*
X61977174Y-106586380D01*
X61912500Y-106683172D01*
X61847826Y-106586380D01*
X61688620Y-106427174D01*
X61501413Y-106302087D01*
X61293401Y-106215925D01*
X61072576Y-106172000D01*
X60847424Y-106172000D01*
X60626599Y-106215925D01*
X60418587Y-106302087D01*
X60231380Y-106427174D01*
X60072174Y-106586380D01*
X59947087Y-106773587D01*
X59860925Y-106981599D01*
X59817000Y-107202424D01*
X51460000Y-107202424D01*
X51460000Y-100088397D01*
X119801208Y-100088397D01*
X119878843Y-100337472D01*
X120142883Y-100463371D01*
X120426411Y-100535339D01*
X120718531Y-100550611D01*
X121008019Y-100508599D01*
X121283747Y-100410919D01*
X121421157Y-100337472D01*
X121498792Y-100088397D01*
X120650000Y-99239605D01*
X119801208Y-100088397D01*
X51460000Y-100088397D01*
X51460000Y-99128531D01*
X119159389Y-99128531D01*
X119201401Y-99418019D01*
X119299081Y-99693747D01*
X119372528Y-99831157D01*
X119621603Y-99908792D01*
X120470395Y-99060000D01*
X120829605Y-99060000D01*
X121678397Y-99908792D01*
X121927472Y-99831157D01*
X122053371Y-99567117D01*
X122125339Y-99283589D01*
X122140611Y-98991469D01*
X122098599Y-98701981D01*
X122000919Y-98426253D01*
X121927472Y-98288843D01*
X121678397Y-98211208D01*
X120829605Y-99060000D01*
X120470395Y-99060000D01*
X119621603Y-98211208D01*
X119372528Y-98288843D01*
X119246629Y-98552883D01*
X119174661Y-98836411D01*
X119159389Y-99128531D01*
X51460000Y-99128531D01*
X51460000Y-93130000D01*
X119161928Y-93130000D01*
X119161928Y-94830000D01*
X119174188Y-94954482D01*
X119210498Y-95074180D01*
X119269463Y-95184494D01*
X119348815Y-95281185D01*
X119445506Y-95360537D01*
X119555820Y-95419502D01*
X119628380Y-95441513D01*
X119496525Y-95573368D01*
X119334010Y-95816589D01*
X119222068Y-96086842D01*
X119165000Y-96373740D01*
X119165000Y-96666260D01*
X119222068Y-96953158D01*
X119334010Y-97223411D01*
X119496525Y-97466632D01*
X119703368Y-97673475D01*
X119876729Y-97789311D01*
X119801208Y-98031603D01*
X120650000Y-98880395D01*
X121498792Y-98031603D01*
X121423271Y-97789311D01*
X121596632Y-97673475D01*
X121803475Y-97466632D01*
X121965990Y-97223411D01*
X122077932Y-96953158D01*
X122135000Y-96666260D01*
X122135000Y-96373740D01*
X122077932Y-96086842D01*
X121965990Y-95816589D01*
X121803475Y-95573368D01*
X121671620Y-95441513D01*
X121744180Y-95419502D01*
X121854494Y-95360537D01*
X121951185Y-95281185D01*
X122030537Y-95184494D01*
X122089502Y-95074180D01*
X122125812Y-94954482D01*
X122138072Y-94830000D01*
X122138072Y-93130000D01*
X122125812Y-93005518D01*
X122089502Y-92885820D01*
X122030537Y-92775506D01*
X121951185Y-92678815D01*
X121854494Y-92599463D01*
X121744180Y-92540498D01*
X121624482Y-92504188D01*
X121500000Y-92491928D01*
X119800000Y-92491928D01*
X119675518Y-92504188D01*
X119555820Y-92540498D01*
X119445506Y-92599463D01*
X119348815Y-92678815D01*
X119269463Y-92775506D01*
X119210498Y-92885820D01*
X119174188Y-93005518D01*
X119161928Y-93130000D01*
X51460000Y-93130000D01*
X51460000Y-87700000D01*
X89601928Y-87700000D01*
X89601928Y-90100000D01*
X89614188Y-90224482D01*
X89650498Y-90344180D01*
X89709463Y-90454494D01*
X89788815Y-90551185D01*
X89885506Y-90630537D01*
X89995820Y-90689502D01*
X90115518Y-90725812D01*
X90240000Y-90738072D01*
X92640000Y-90738072D01*
X92764482Y-90725812D01*
X92884180Y-90689502D01*
X92994494Y-90630537D01*
X93091185Y-90551185D01*
X93170537Y-90454494D01*
X93229502Y-90344180D01*
X93265812Y-90224482D01*
X93270391Y-90177980D01*
X97841626Y-90177980D01*
X97961514Y-90462836D01*
X98285210Y-90623699D01*
X98634069Y-90718322D01*
X98994684Y-90743067D01*
X99353198Y-90696985D01*
X99695833Y-90581846D01*
X99918486Y-90462836D01*
X100038374Y-90177980D01*
X98940000Y-89079605D01*
X97841626Y-90177980D01*
X93270391Y-90177980D01*
X93278072Y-90100000D01*
X93278072Y-88954684D01*
X97096933Y-88954684D01*
X97143015Y-89313198D01*
X97258154Y-89655833D01*
X97377164Y-89878486D01*
X97662020Y-89998374D01*
X98760395Y-88900000D01*
X99119605Y-88900000D01*
X100217980Y-89998374D01*
X100502836Y-89878486D01*
X100663699Y-89554790D01*
X100758322Y-89205931D01*
X100783067Y-88845316D01*
X100736985Y-88486802D01*
X100621846Y-88144167D01*
X100502836Y-87921514D01*
X100217980Y-87801626D01*
X99119605Y-88900000D01*
X98760395Y-88900000D01*
X97662020Y-87801626D01*
X97377164Y-87921514D01*
X97216301Y-88245210D01*
X97121678Y-88594069D01*
X97096933Y-88954684D01*
X93278072Y-88954684D01*
X93278072Y-87700000D01*
X93270392Y-87622020D01*
X97841626Y-87622020D01*
X98940000Y-88720395D01*
X100038374Y-87622020D01*
X99918486Y-87337164D01*
X99594790Y-87176301D01*
X99245931Y-87081678D01*
X98885316Y-87056933D01*
X98526802Y-87103015D01*
X98184167Y-87218154D01*
X97961514Y-87337164D01*
X97841626Y-87622020D01*
X93270392Y-87622020D01*
X93265812Y-87575518D01*
X93229502Y-87455820D01*
X93170537Y-87345506D01*
X93091185Y-87248815D01*
X92994494Y-87169463D01*
X92884180Y-87110498D01*
X92764482Y-87074188D01*
X92640000Y-87061928D01*
X90240000Y-87061928D01*
X90115518Y-87074188D01*
X89995820Y-87110498D01*
X89885506Y-87169463D01*
X89788815Y-87248815D01*
X89709463Y-87345506D01*
X89650498Y-87455820D01*
X89614188Y-87575518D01*
X89601928Y-87700000D01*
X51460000Y-87700000D01*
X51460000Y-77845475D01*
X52610000Y-77845475D01*
X52610000Y-78364525D01*
X52711261Y-78873601D01*
X52909893Y-79353141D01*
X53198262Y-79784715D01*
X53565285Y-80151738D01*
X53996859Y-80440107D01*
X54476399Y-80638739D01*
X54985475Y-80740000D01*
X55504525Y-80740000D01*
X56013601Y-80638739D01*
X56493141Y-80440107D01*
X56924715Y-80151738D01*
X57291738Y-79784715D01*
X57580107Y-79353141D01*
X57778739Y-78873601D01*
X57880000Y-78364525D01*
X57880000Y-77845475D01*
X78010000Y-77845475D01*
X78010000Y-78364525D01*
X78111261Y-78873601D01*
X78309893Y-79353141D01*
X78598262Y-79784715D01*
X78965285Y-80151738D01*
X79396859Y-80440107D01*
X79876399Y-80638739D01*
X80385475Y-80740000D01*
X80904525Y-80740000D01*
X81413601Y-80638739D01*
X81893141Y-80440107D01*
X82324715Y-80151738D01*
X82691738Y-79784715D01*
X82980107Y-79353141D01*
X83178739Y-78873601D01*
X83280000Y-78364525D01*
X83280000Y-77845475D01*
X83178739Y-77336399D01*
X82980107Y-76856859D01*
X82691738Y-76425285D01*
X82324715Y-76058262D01*
X81893141Y-75769893D01*
X81413601Y-75571261D01*
X80904525Y-75470000D01*
X80385475Y-75470000D01*
X79876399Y-75571261D01*
X79396859Y-75769893D01*
X78965285Y-76058262D01*
X78598262Y-76425285D01*
X78309893Y-76856859D01*
X78111261Y-77336399D01*
X78010000Y-77845475D01*
X57880000Y-77845475D01*
X57778739Y-77336399D01*
X57580107Y-76856859D01*
X57291738Y-76425285D01*
X56924715Y-76058262D01*
X56493141Y-75769893D01*
X56013601Y-75571261D01*
X55504525Y-75470000D01*
X54985475Y-75470000D01*
X54476399Y-75571261D01*
X53996859Y-75769893D01*
X53565285Y-76058262D01*
X53198262Y-76425285D01*
X52909893Y-76856859D01*
X52711261Y-77336399D01*
X52610000Y-77845475D01*
X51460000Y-77845475D01*
X51460000Y-73674424D01*
X56642000Y-73674424D01*
X56642000Y-73899576D01*
X56685925Y-74120401D01*
X56772087Y-74328413D01*
X56897174Y-74515620D01*
X57056380Y-74674826D01*
X57243587Y-74799913D01*
X57451599Y-74886075D01*
X57672424Y-74930000D01*
X57897576Y-74930000D01*
X58118401Y-74886075D01*
X58326413Y-74799913D01*
X58513620Y-74674826D01*
X58672826Y-74515620D01*
X58734368Y-74423514D01*
X63817500Y-74423514D01*
X63817500Y-74674485D01*
X63840470Y-74907703D01*
X63931245Y-75206948D01*
X64078655Y-75482734D01*
X64277037Y-75724463D01*
X64518765Y-75922845D01*
X64794551Y-76070255D01*
X65093796Y-76161030D01*
X65405000Y-76191681D01*
X65716203Y-76161030D01*
X66015448Y-76070255D01*
X66291234Y-75922845D01*
X66532963Y-75724463D01*
X66675000Y-75551391D01*
X66817037Y-75724463D01*
X67058765Y-75922845D01*
X67334551Y-76070255D01*
X67633796Y-76161030D01*
X67945000Y-76191681D01*
X68256203Y-76161030D01*
X68555448Y-76070255D01*
X68831234Y-75922845D01*
X68957095Y-75819553D01*
X69001963Y-75903494D01*
X69081315Y-76000185D01*
X69178006Y-76079537D01*
X69288320Y-76138502D01*
X69408018Y-76174812D01*
X69532500Y-76187072D01*
X71437500Y-76187072D01*
X71561982Y-76174812D01*
X71681680Y-76138502D01*
X71791994Y-76079537D01*
X71888685Y-76000185D01*
X71968037Y-75903494D01*
X72027002Y-75793180D01*
X72063312Y-75673482D01*
X72075572Y-75549000D01*
X72075572Y-73549000D01*
X72063312Y-73424518D01*
X72027002Y-73304820D01*
X71968037Y-73194506D01*
X71888685Y-73097815D01*
X71791994Y-73018463D01*
X71681680Y-72959498D01*
X71561982Y-72923188D01*
X71437500Y-72910928D01*
X69532500Y-72910928D01*
X69408018Y-72923188D01*
X69288320Y-72959498D01*
X69178006Y-73018463D01*
X69081315Y-73097815D01*
X69001963Y-73194506D01*
X68957095Y-73278446D01*
X68831235Y-73175155D01*
X68555449Y-73027745D01*
X68256204Y-72936970D01*
X67945000Y-72906319D01*
X67633797Y-72936970D01*
X67334552Y-73027745D01*
X67058766Y-73175155D01*
X66817037Y-73373537D01*
X66675000Y-73546609D01*
X66532963Y-73373537D01*
X66291235Y-73175155D01*
X66015449Y-73027745D01*
X65716204Y-72936970D01*
X65405000Y-72906319D01*
X65093797Y-72936970D01*
X64794552Y-73027745D01*
X64518766Y-73175155D01*
X64277037Y-73373537D01*
X64078655Y-73615265D01*
X63931245Y-73891051D01*
X63840470Y-74190296D01*
X63817500Y-74423514D01*
X58734368Y-74423514D01*
X58797913Y-74328413D01*
X58884075Y-74120401D01*
X58928000Y-73899576D01*
X58928000Y-73674424D01*
X58884075Y-73453599D01*
X58797913Y-73245587D01*
X58672826Y-73058380D01*
X58513620Y-72899174D01*
X58326413Y-72774087D01*
X58118401Y-72687925D01*
X57897576Y-72644000D01*
X57672424Y-72644000D01*
X57451599Y-72687925D01*
X57243587Y-72774087D01*
X57056380Y-72899174D01*
X56897174Y-73058380D01*
X56772087Y-73245587D01*
X56685925Y-73453599D01*
X56642000Y-73674424D01*
X51460000Y-73674424D01*
X51460000Y-68650000D01*
X89601928Y-68650000D01*
X89601928Y-71050000D01*
X89614188Y-71174482D01*
X89650498Y-71294180D01*
X89709463Y-71404494D01*
X89788815Y-71501185D01*
X89885506Y-71580537D01*
X89995820Y-71639502D01*
X90115518Y-71675812D01*
X90240000Y-71688072D01*
X92640000Y-71688072D01*
X92764482Y-71675812D01*
X92884180Y-71639502D01*
X92994494Y-71580537D01*
X93091185Y-71501185D01*
X93170537Y-71404494D01*
X93229502Y-71294180D01*
X93265812Y-71174482D01*
X93270391Y-71127980D01*
X97841626Y-71127980D01*
X97961514Y-71412836D01*
X98285210Y-71573699D01*
X98634069Y-71668322D01*
X98994684Y-71693067D01*
X99353198Y-71646985D01*
X99695833Y-71531846D01*
X99918486Y-71412836D01*
X100038374Y-71127980D01*
X98940000Y-70029605D01*
X97841626Y-71127980D01*
X93270391Y-71127980D01*
X93278072Y-71050000D01*
X93278072Y-69904684D01*
X97096933Y-69904684D01*
X97143015Y-70263198D01*
X97258154Y-70605833D01*
X97377164Y-70828486D01*
X97662020Y-70948374D01*
X98760395Y-69850000D01*
X99119605Y-69850000D01*
X100217980Y-70948374D01*
X100502836Y-70828486D01*
X100663699Y-70504790D01*
X100758322Y-70155931D01*
X100783067Y-69795316D01*
X100736985Y-69436802D01*
X100621846Y-69094167D01*
X100502836Y-68871514D01*
X100217980Y-68751626D01*
X99119605Y-69850000D01*
X98760395Y-69850000D01*
X97662020Y-68751626D01*
X97377164Y-68871514D01*
X97216301Y-69195210D01*
X97121678Y-69544069D01*
X97096933Y-69904684D01*
X93278072Y-69904684D01*
X93278072Y-68650000D01*
X93270392Y-68572020D01*
X97841626Y-68572020D01*
X98940000Y-69670395D01*
X100038374Y-68572020D01*
X99918486Y-68287164D01*
X99594790Y-68126301D01*
X99245931Y-68031678D01*
X98885316Y-68006933D01*
X98526802Y-68053015D01*
X98184167Y-68168154D01*
X97961514Y-68287164D01*
X97841626Y-68572020D01*
X93270392Y-68572020D01*
X93265812Y-68525518D01*
X93229502Y-68405820D01*
X93170537Y-68295506D01*
X93091185Y-68198815D01*
X92994494Y-68119463D01*
X92884180Y-68060498D01*
X92764482Y-68024188D01*
X92640000Y-68011928D01*
X90240000Y-68011928D01*
X90115518Y-68024188D01*
X89995820Y-68060498D01*
X89885506Y-68119463D01*
X89788815Y-68198815D01*
X89709463Y-68295506D01*
X89650498Y-68405820D01*
X89614188Y-68525518D01*
X89601928Y-68650000D01*
X51460000Y-68650000D01*
X51460000Y-59831424D01*
X61214000Y-59831424D01*
X61214000Y-60056576D01*
X61257925Y-60277401D01*
X61344087Y-60485413D01*
X61469174Y-60672620D01*
X61628380Y-60831826D01*
X61815587Y-60956913D01*
X62023599Y-61043075D01*
X62244424Y-61087000D01*
X62469576Y-61087000D01*
X62690401Y-61043075D01*
X62898413Y-60956913D01*
X63085620Y-60831826D01*
X63244826Y-60672620D01*
X63246000Y-60670863D01*
X63247174Y-60672620D01*
X63406380Y-60831826D01*
X63593587Y-60956913D01*
X63801599Y-61043075D01*
X64022424Y-61087000D01*
X64247576Y-61087000D01*
X64468401Y-61043075D01*
X64676413Y-60956913D01*
X64863620Y-60831826D01*
X65022826Y-60672620D01*
X65087500Y-60575828D01*
X65152174Y-60672620D01*
X65311380Y-60831826D01*
X65498587Y-60956913D01*
X65706599Y-61043075D01*
X65927424Y-61087000D01*
X66152576Y-61087000D01*
X66373401Y-61043075D01*
X66581413Y-60956913D01*
X66768620Y-60831826D01*
X66927826Y-60672620D01*
X67052913Y-60485413D01*
X67139075Y-60277401D01*
X67183000Y-60056576D01*
X67183000Y-59831424D01*
X68199000Y-59831424D01*
X68199000Y-60056576D01*
X68242925Y-60277401D01*
X68329087Y-60485413D01*
X68454174Y-60672620D01*
X68613380Y-60831826D01*
X68800587Y-60956913D01*
X69008599Y-61043075D01*
X69229424Y-61087000D01*
X69454576Y-61087000D01*
X69675401Y-61043075D01*
X69883413Y-60956913D01*
X70070620Y-60831826D01*
X70229826Y-60672620D01*
X70231000Y-60670863D01*
X70232174Y-60672620D01*
X70391380Y-60831826D01*
X70578587Y-60956913D01*
X70786599Y-61043075D01*
X71007424Y-61087000D01*
X71232576Y-61087000D01*
X71453401Y-61043075D01*
X71661413Y-60956913D01*
X71848620Y-60831826D01*
X72007826Y-60672620D01*
X72072500Y-60575828D01*
X72137174Y-60672620D01*
X72296380Y-60831826D01*
X72483587Y-60956913D01*
X72691599Y-61043075D01*
X72912424Y-61087000D01*
X73137576Y-61087000D01*
X73358401Y-61043075D01*
X73566413Y-60956913D01*
X73753620Y-60831826D01*
X73912826Y-60672620D01*
X74037913Y-60485413D01*
X74124075Y-60277401D01*
X74168000Y-60056576D01*
X74168000Y-59831424D01*
X75184000Y-59831424D01*
X75184000Y-60056576D01*
X75227925Y-60277401D01*
X75314087Y-60485413D01*
X75439174Y-60672620D01*
X75598380Y-60831826D01*
X75785587Y-60956913D01*
X75993599Y-61043075D01*
X76214424Y-61087000D01*
X76439576Y-61087000D01*
X76660401Y-61043075D01*
X76868413Y-60956913D01*
X77055620Y-60831826D01*
X77214826Y-60672620D01*
X77216000Y-60670863D01*
X77217174Y-60672620D01*
X77376380Y-60831826D01*
X77563587Y-60956913D01*
X77771599Y-61043075D01*
X77992424Y-61087000D01*
X78217576Y-61087000D01*
X78438401Y-61043075D01*
X78646413Y-60956913D01*
X78833620Y-60831826D01*
X78992826Y-60672620D01*
X79057500Y-60575828D01*
X79122174Y-60672620D01*
X79281380Y-60831826D01*
X79468587Y-60956913D01*
X79676599Y-61043075D01*
X79897424Y-61087000D01*
X80122576Y-61087000D01*
X80343401Y-61043075D01*
X80551413Y-60956913D01*
X80738620Y-60831826D01*
X80897826Y-60672620D01*
X81022913Y-60485413D01*
X81109075Y-60277401D01*
X81153000Y-60056576D01*
X81153000Y-59831424D01*
X82169000Y-59831424D01*
X82169000Y-60056576D01*
X82212925Y-60277401D01*
X82299087Y-60485413D01*
X82424174Y-60672620D01*
X82583380Y-60831826D01*
X82770587Y-60956913D01*
X82978599Y-61043075D01*
X83199424Y-61087000D01*
X83424576Y-61087000D01*
X83645401Y-61043075D01*
X83853413Y-60956913D01*
X84040620Y-60831826D01*
X84199826Y-60672620D01*
X84201000Y-60670863D01*
X84202174Y-60672620D01*
X84361380Y-60831826D01*
X84548587Y-60956913D01*
X84756599Y-61043075D01*
X84977424Y-61087000D01*
X85202576Y-61087000D01*
X85423401Y-61043075D01*
X85631413Y-60956913D01*
X85818620Y-60831826D01*
X85977826Y-60672620D01*
X86042500Y-60575828D01*
X86107174Y-60672620D01*
X86266380Y-60831826D01*
X86453587Y-60956913D01*
X86661599Y-61043075D01*
X86882424Y-61087000D01*
X87107576Y-61087000D01*
X87328401Y-61043075D01*
X87536413Y-60956913D01*
X87723620Y-60831826D01*
X87882826Y-60672620D01*
X88007913Y-60485413D01*
X88094075Y-60277401D01*
X88138000Y-60056576D01*
X88138000Y-59831424D01*
X88094075Y-59610599D01*
X88007913Y-59402587D01*
X87882826Y-59215380D01*
X87723620Y-59056174D01*
X87536413Y-58931087D01*
X87328401Y-58844925D01*
X87107576Y-58801000D01*
X86882424Y-58801000D01*
X86661599Y-58844925D01*
X86453587Y-58931087D01*
X86266380Y-59056174D01*
X86107174Y-59215380D01*
X86042500Y-59312172D01*
X85977826Y-59215380D01*
X85818620Y-59056174D01*
X85631413Y-58931087D01*
X85423401Y-58844925D01*
X85202576Y-58801000D01*
X84977424Y-58801000D01*
X84756599Y-58844925D01*
X84548587Y-58931087D01*
X84361380Y-59056174D01*
X84202174Y-59215380D01*
X84201000Y-59217137D01*
X84199826Y-59215380D01*
X84040620Y-59056174D01*
X83853413Y-58931087D01*
X83645401Y-58844925D01*
X83424576Y-58801000D01*
X83199424Y-58801000D01*
X82978599Y-58844925D01*
X82770587Y-58931087D01*
X82583380Y-59056174D01*
X82424174Y-59215380D01*
X82299087Y-59402587D01*
X82212925Y-59610599D01*
X82169000Y-59831424D01*
X81153000Y-59831424D01*
X81109075Y-59610599D01*
X81022913Y-59402587D01*
X80897826Y-59215380D01*
X80738620Y-59056174D01*
X80551413Y-58931087D01*
X80343401Y-58844925D01*
X80122576Y-58801000D01*
X79897424Y-58801000D01*
X79676599Y-58844925D01*
X79468587Y-58931087D01*
X79281380Y-59056174D01*
X79122174Y-59215380D01*
X79057500Y-59312172D01*
X78992826Y-59215380D01*
X78833620Y-59056174D01*
X78646413Y-58931087D01*
X78438401Y-58844925D01*
X78217576Y-58801000D01*
X77992424Y-58801000D01*
X77771599Y-58844925D01*
X77563587Y-58931087D01*
X77376380Y-59056174D01*
X77217174Y-59215380D01*
X77216000Y-59217137D01*
X77214826Y-59215380D01*
X77055620Y-59056174D01*
X76868413Y-58931087D01*
X76660401Y-58844925D01*
X76439576Y-58801000D01*
X76214424Y-58801000D01*
X75993599Y-58844925D01*
X75785587Y-58931087D01*
X75598380Y-59056174D01*
X75439174Y-59215380D01*
X75314087Y-59402587D01*
X75227925Y-59610599D01*
X75184000Y-59831424D01*
X74168000Y-59831424D01*
X74124075Y-59610599D01*
X74037913Y-59402587D01*
X73912826Y-59215380D01*
X73753620Y-59056174D01*
X73566413Y-58931087D01*
X73358401Y-58844925D01*
X73137576Y-58801000D01*
X72912424Y-58801000D01*
X72691599Y-58844925D01*
X72483587Y-58931087D01*
X72296380Y-59056174D01*
X72137174Y-59215380D01*
X72072500Y-59312172D01*
X72007826Y-59215380D01*
X71848620Y-59056174D01*
X71661413Y-58931087D01*
X71453401Y-58844925D01*
X71232576Y-58801000D01*
X71007424Y-58801000D01*
X70786599Y-58844925D01*
X70578587Y-58931087D01*
X70391380Y-59056174D01*
X70232174Y-59215380D01*
X70231000Y-59217137D01*
X70229826Y-59215380D01*
X70070620Y-59056174D01*
X69883413Y-58931087D01*
X69675401Y-58844925D01*
X69454576Y-58801000D01*
X69229424Y-58801000D01*
X69008599Y-58844925D01*
X68800587Y-58931087D01*
X68613380Y-59056174D01*
X68454174Y-59215380D01*
X68329087Y-59402587D01*
X68242925Y-59610599D01*
X68199000Y-59831424D01*
X67183000Y-59831424D01*
X67139075Y-59610599D01*
X67052913Y-59402587D01*
X66927826Y-59215380D01*
X66768620Y-59056174D01*
X66581413Y-58931087D01*
X66373401Y-58844925D01*
X66152576Y-58801000D01*
X65927424Y-58801000D01*
X65706599Y-58844925D01*
X65498587Y-58931087D01*
X65311380Y-59056174D01*
X65152174Y-59215380D01*
X65087500Y-59312172D01*
X65022826Y-59215380D01*
X64863620Y-59056174D01*
X64676413Y-58931087D01*
X64468401Y-58844925D01*
X64247576Y-58801000D01*
X64022424Y-58801000D01*
X63801599Y-58844925D01*
X63593587Y-58931087D01*
X63406380Y-59056174D01*
X63247174Y-59215380D01*
X63246000Y-59217137D01*
X63244826Y-59215380D01*
X63085620Y-59056174D01*
X62898413Y-58931087D01*
X62690401Y-58844925D01*
X62469576Y-58801000D01*
X62244424Y-58801000D01*
X62023599Y-58844925D01*
X61815587Y-58931087D01*
X61628380Y-59056174D01*
X61469174Y-59215380D01*
X61344087Y-59402587D01*
X61257925Y-59610599D01*
X61214000Y-59831424D01*
X51460000Y-59831424D01*
X51460000Y-55536019D01*
X52387500Y-55536019D01*
X52387500Y-56223981D01*
X52521715Y-56898725D01*
X52784986Y-57534319D01*
X53167198Y-58106339D01*
X53653661Y-58592802D01*
X54225681Y-58975014D01*
X54861275Y-59238285D01*
X55536019Y-59372500D01*
X56223981Y-59372500D01*
X56898725Y-59238285D01*
X57534319Y-58975014D01*
X58106339Y-58592802D01*
X58592802Y-58106339D01*
X58975014Y-57534319D01*
X59238285Y-56898725D01*
X59372500Y-56223981D01*
X59372500Y-55536019D01*
X118427500Y-55536019D01*
X118427500Y-56223981D01*
X118561715Y-56898725D01*
X118824986Y-57534319D01*
X119207198Y-58106339D01*
X119693661Y-58592802D01*
X120265681Y-58975014D01*
X120901275Y-59238285D01*
X121576019Y-59372500D01*
X122263981Y-59372500D01*
X122938725Y-59238285D01*
X123574319Y-58975014D01*
X124146339Y-58592802D01*
X124632802Y-58106339D01*
X125015014Y-57534319D01*
X125278285Y-56898725D01*
X125412500Y-56223981D01*
X125412500Y-55536019D01*
X125278285Y-54861275D01*
X125015014Y-54225681D01*
X124632802Y-53653661D01*
X124146339Y-53167198D01*
X123574319Y-52784986D01*
X122938725Y-52521715D01*
X122263981Y-52387500D01*
X121576019Y-52387500D01*
X120901275Y-52521715D01*
X120265681Y-52784986D01*
X119693661Y-53167198D01*
X119207198Y-53653661D01*
X118824986Y-54225681D01*
X118561715Y-54861275D01*
X118427500Y-55536019D01*
X59372500Y-55536019D01*
X59238285Y-54861275D01*
X58975014Y-54225681D01*
X58592802Y-53653661D01*
X58106339Y-53167198D01*
X57534319Y-52784986D01*
X56898725Y-52521715D01*
X56223981Y-52387500D01*
X55536019Y-52387500D01*
X54861275Y-52521715D01*
X54225681Y-52784986D01*
X53653661Y-53167198D01*
X53167198Y-53653661D01*
X52784986Y-54225681D01*
X52521715Y-54861275D01*
X52387500Y-55536019D01*
X51460000Y-55536019D01*
X51460000Y-51460000D01*
X126340001Y-51460000D01*
X126340000Y-126340000D01*
G37*
%TD.AperFunction*%
%TD*%
M02*
