%TF.GenerationSoftware,KiCad,Pcbnew,(5.1.9)-1*%
%TF.CreationDate,2021-10-04T18:28:46-04:00*%
%TF.ProjectId,In9 Music Visualizer RevC,496e3920-4d75-4736-9963-205669737561,rev?*%
%TF.SameCoordinates,Original*%
%TF.FileFunction,Paste,Top*%
%TF.FilePolarity,Positive*%
%FSLAX46Y46*%
G04 Gerber Fmt 4.6, Leading zero omitted, Abs format (unit mm)*
G04 Created by KiCad (PCBNEW (5.1.9)-1) date 2021-10-04 18:28:46*
%MOMM*%
%LPD*%
G01*
G04 APERTURE LIST*
%ADD10R,5.100000X2.350000*%
%ADD11R,1.060000X0.650000*%
%ADD12R,14.000000X3.000000*%
%ADD13R,4.500000X3.300000*%
G04 APERTURE END LIST*
D10*
%TO.C,L2*%
X92710000Y-117010000D03*
X92710000Y-112860000D03*
%TD*%
%TO.C,C18*%
G36*
G01*
X99880000Y-112555000D02*
X99880000Y-113505000D01*
G75*
G02*
X99630000Y-113755000I-250000J0D01*
G01*
X98955000Y-113755000D01*
G75*
G02*
X98705000Y-113505000I0J250000D01*
G01*
X98705000Y-112555000D01*
G75*
G02*
X98955000Y-112305000I250000J0D01*
G01*
X99630000Y-112305000D01*
G75*
G02*
X99880000Y-112555000I0J-250000D01*
G01*
G37*
G36*
G01*
X101955000Y-112555000D02*
X101955000Y-113505000D01*
G75*
G02*
X101705000Y-113755000I-250000J0D01*
G01*
X101030000Y-113755000D01*
G75*
G02*
X100780000Y-113505000I0J250000D01*
G01*
X100780000Y-112555000D01*
G75*
G02*
X101030000Y-112305000I250000J0D01*
G01*
X101705000Y-112305000D01*
G75*
G02*
X101955000Y-112555000I0J-250000D01*
G01*
G37*
%TD*%
D11*
%TO.C,U3*%
X101430000Y-116840000D03*
X101430000Y-115890000D03*
X101430000Y-117790000D03*
X99230000Y-117790000D03*
X99230000Y-116840000D03*
X99230000Y-115890000D03*
%TD*%
%TO.C,C13*%
G36*
G01*
X87540002Y-54230000D02*
X82639998Y-54230000D01*
G75*
G02*
X82390000Y-53980002I0J249998D01*
G01*
X82390000Y-52504998D01*
G75*
G02*
X82639998Y-52255000I249998J0D01*
G01*
X87540002Y-52255000D01*
G75*
G02*
X87790000Y-52504998I0J-249998D01*
G01*
X87790000Y-53980002D01*
G75*
G02*
X87540002Y-54230000I-249998J0D01*
G01*
G37*
G36*
G01*
X87540002Y-59505000D02*
X82639998Y-59505000D01*
G75*
G02*
X82390000Y-59255002I0J249998D01*
G01*
X82390000Y-57779998D01*
G75*
G02*
X82639998Y-57530000I249998J0D01*
G01*
X87540002Y-57530000D01*
G75*
G02*
X87790000Y-57779998I0J-249998D01*
G01*
X87790000Y-59255002D01*
G75*
G02*
X87540002Y-59505000I-249998J0D01*
G01*
G37*
%TD*%
%TO.C,C12*%
G36*
G01*
X80555002Y-54230000D02*
X75654998Y-54230000D01*
G75*
G02*
X75405000Y-53980002I0J249998D01*
G01*
X75405000Y-52504998D01*
G75*
G02*
X75654998Y-52255000I249998J0D01*
G01*
X80555002Y-52255000D01*
G75*
G02*
X80805000Y-52504998I0J-249998D01*
G01*
X80805000Y-53980002D01*
G75*
G02*
X80555002Y-54230000I-249998J0D01*
G01*
G37*
G36*
G01*
X80555002Y-59505000D02*
X75654998Y-59505000D01*
G75*
G02*
X75405000Y-59255002I0J249998D01*
G01*
X75405000Y-57779998D01*
G75*
G02*
X75654998Y-57530000I249998J0D01*
G01*
X80555002Y-57530000D01*
G75*
G02*
X80805000Y-57779998I0J-249998D01*
G01*
X80805000Y-59255002D01*
G75*
G02*
X80555002Y-59505000I-249998J0D01*
G01*
G37*
%TD*%
%TO.C,C11*%
G36*
G01*
X73570002Y-54230000D02*
X68669998Y-54230000D01*
G75*
G02*
X68420000Y-53980002I0J249998D01*
G01*
X68420000Y-52504998D01*
G75*
G02*
X68669998Y-52255000I249998J0D01*
G01*
X73570002Y-52255000D01*
G75*
G02*
X73820000Y-52504998I0J-249998D01*
G01*
X73820000Y-53980002D01*
G75*
G02*
X73570002Y-54230000I-249998J0D01*
G01*
G37*
G36*
G01*
X73570002Y-59505000D02*
X68669998Y-59505000D01*
G75*
G02*
X68420000Y-59255002I0J249998D01*
G01*
X68420000Y-57779998D01*
G75*
G02*
X68669998Y-57530000I249998J0D01*
G01*
X73570002Y-57530000D01*
G75*
G02*
X73820000Y-57779998I0J-249998D01*
G01*
X73820000Y-59255002D01*
G75*
G02*
X73570002Y-59505000I-249998J0D01*
G01*
G37*
%TD*%
%TO.C,C10*%
G36*
G01*
X66585002Y-54230000D02*
X61684998Y-54230000D01*
G75*
G02*
X61435000Y-53980002I0J249998D01*
G01*
X61435000Y-52504998D01*
G75*
G02*
X61684998Y-52255000I249998J0D01*
G01*
X66585002Y-52255000D01*
G75*
G02*
X66835000Y-52504998I0J-249998D01*
G01*
X66835000Y-53980002D01*
G75*
G02*
X66585002Y-54230000I-249998J0D01*
G01*
G37*
G36*
G01*
X66585002Y-59505000D02*
X61684998Y-59505000D01*
G75*
G02*
X61435000Y-59255002I0J249998D01*
G01*
X61435000Y-57779998D01*
G75*
G02*
X61684998Y-57530000I249998J0D01*
G01*
X66585002Y-57530000D01*
G75*
G02*
X66835000Y-57779998I0J-249998D01*
G01*
X66835000Y-59255002D01*
G75*
G02*
X66585002Y-59505000I-249998J0D01*
G01*
G37*
%TD*%
%TO.C,R16*%
G36*
G01*
X104590001Y-116440000D02*
X103689999Y-116440000D01*
G75*
G02*
X103440000Y-116190001I0J249999D01*
G01*
X103440000Y-115489999D01*
G75*
G02*
X103689999Y-115240000I249999J0D01*
G01*
X104590001Y-115240000D01*
G75*
G02*
X104840000Y-115489999I0J-249999D01*
G01*
X104840000Y-116190001D01*
G75*
G02*
X104590001Y-116440000I-249999J0D01*
G01*
G37*
G36*
G01*
X104590001Y-118440000D02*
X103689999Y-118440000D01*
G75*
G02*
X103440000Y-118190001I0J249999D01*
G01*
X103440000Y-117489999D01*
G75*
G02*
X103689999Y-117240000I249999J0D01*
G01*
X104590001Y-117240000D01*
G75*
G02*
X104840000Y-117489999I0J-249999D01*
G01*
X104840000Y-118190001D01*
G75*
G02*
X104590001Y-118440000I-249999J0D01*
G01*
G37*
%TD*%
%TO.C,R15*%
G36*
G01*
X108769999Y-117240000D02*
X109670001Y-117240000D01*
G75*
G02*
X109920000Y-117489999I0J-249999D01*
G01*
X109920000Y-118190001D01*
G75*
G02*
X109670001Y-118440000I-249999J0D01*
G01*
X108769999Y-118440000D01*
G75*
G02*
X108520000Y-118190001I0J249999D01*
G01*
X108520000Y-117489999D01*
G75*
G02*
X108769999Y-117240000I249999J0D01*
G01*
G37*
G36*
G01*
X108769999Y-115240000D02*
X109670001Y-115240000D01*
G75*
G02*
X109920000Y-115489999I0J-249999D01*
G01*
X109920000Y-116190001D01*
G75*
G02*
X109670001Y-116440000I-249999J0D01*
G01*
X108769999Y-116440000D01*
G75*
G02*
X108520000Y-116190001I0J249999D01*
G01*
X108520000Y-115489999D01*
G75*
G02*
X108769999Y-115240000I249999J0D01*
G01*
G37*
%TD*%
%TO.C,R9*%
G36*
G01*
X82861999Y-63519000D02*
X83762001Y-63519000D01*
G75*
G02*
X84012000Y-63768999I0J-249999D01*
G01*
X84012000Y-64469001D01*
G75*
G02*
X83762001Y-64719000I-249999J0D01*
G01*
X82861999Y-64719000D01*
G75*
G02*
X82612000Y-64469001I0J249999D01*
G01*
X82612000Y-63768999D01*
G75*
G02*
X82861999Y-63519000I249999J0D01*
G01*
G37*
G36*
G01*
X82861999Y-61519000D02*
X83762001Y-61519000D01*
G75*
G02*
X84012000Y-61768999I0J-249999D01*
G01*
X84012000Y-62469001D01*
G75*
G02*
X83762001Y-62719000I-249999J0D01*
G01*
X82861999Y-62719000D01*
G75*
G02*
X82612000Y-62469001I0J249999D01*
G01*
X82612000Y-61768999D01*
G75*
G02*
X82861999Y-61519000I249999J0D01*
G01*
G37*
%TD*%
D12*
%TO.C,L1*%
X66675000Y-104380000D03*
X66675000Y-83580000D03*
%TD*%
D13*
%TO.C,D1*%
X63545000Y-64770000D03*
X72345000Y-64770000D03*
%TD*%
%TO.C,C25*%
G36*
G01*
X94645500Y-107944500D02*
X93695500Y-107944500D01*
G75*
G02*
X93445500Y-107694500I0J250000D01*
G01*
X93445500Y-107019500D01*
G75*
G02*
X93695500Y-106769500I250000J0D01*
G01*
X94645500Y-106769500D01*
G75*
G02*
X94895500Y-107019500I0J-250000D01*
G01*
X94895500Y-107694500D01*
G75*
G02*
X94645500Y-107944500I-250000J0D01*
G01*
G37*
G36*
G01*
X94645500Y-110019500D02*
X93695500Y-110019500D01*
G75*
G02*
X93445500Y-109769500I0J250000D01*
G01*
X93445500Y-109094500D01*
G75*
G02*
X93695500Y-108844500I250000J0D01*
G01*
X94645500Y-108844500D01*
G75*
G02*
X94895500Y-109094500I0J-250000D01*
G01*
X94895500Y-109769500D01*
G75*
G02*
X94645500Y-110019500I-250000J0D01*
G01*
G37*
%TD*%
%TO.C,C24*%
G36*
G01*
X92105500Y-107944500D02*
X91155500Y-107944500D01*
G75*
G02*
X90905500Y-107694500I0J250000D01*
G01*
X90905500Y-107019500D01*
G75*
G02*
X91155500Y-106769500I250000J0D01*
G01*
X92105500Y-106769500D01*
G75*
G02*
X92355500Y-107019500I0J-250000D01*
G01*
X92355500Y-107694500D01*
G75*
G02*
X92105500Y-107944500I-250000J0D01*
G01*
G37*
G36*
G01*
X92105500Y-110019500D02*
X91155500Y-110019500D01*
G75*
G02*
X90905500Y-109769500I0J250000D01*
G01*
X90905500Y-109094500D01*
G75*
G02*
X91155500Y-108844500I250000J0D01*
G01*
X92105500Y-108844500D01*
G75*
G02*
X92355500Y-109094500I0J-250000D01*
G01*
X92355500Y-109769500D01*
G75*
G02*
X92105500Y-110019500I-250000J0D01*
G01*
G37*
%TD*%
%TO.C,C23*%
G36*
G01*
X106205000Y-117290000D02*
X107155000Y-117290000D01*
G75*
G02*
X107405000Y-117540000I0J-250000D01*
G01*
X107405000Y-118215000D01*
G75*
G02*
X107155000Y-118465000I-250000J0D01*
G01*
X106205000Y-118465000D01*
G75*
G02*
X105955000Y-118215000I0J250000D01*
G01*
X105955000Y-117540000D01*
G75*
G02*
X106205000Y-117290000I250000J0D01*
G01*
G37*
G36*
G01*
X106205000Y-115215000D02*
X107155000Y-115215000D01*
G75*
G02*
X107405000Y-115465000I0J-250000D01*
G01*
X107405000Y-116140000D01*
G75*
G02*
X107155000Y-116390000I-250000J0D01*
G01*
X106205000Y-116390000D01*
G75*
G02*
X105955000Y-116140000I0J250000D01*
G01*
X105955000Y-115465000D01*
G75*
G02*
X106205000Y-115215000I250000J0D01*
G01*
G37*
%TD*%
%TO.C,C21*%
G36*
G01*
X98775500Y-121735000D02*
X99725500Y-121735000D01*
G75*
G02*
X99975500Y-121985000I0J-250000D01*
G01*
X99975500Y-122660000D01*
G75*
G02*
X99725500Y-122910000I-250000J0D01*
G01*
X98775500Y-122910000D01*
G75*
G02*
X98525500Y-122660000I0J250000D01*
G01*
X98525500Y-121985000D01*
G75*
G02*
X98775500Y-121735000I250000J0D01*
G01*
G37*
G36*
G01*
X98775500Y-119660000D02*
X99725500Y-119660000D01*
G75*
G02*
X99975500Y-119910000I0J-250000D01*
G01*
X99975500Y-120585000D01*
G75*
G02*
X99725500Y-120835000I-250000J0D01*
G01*
X98775500Y-120835000D01*
G75*
G02*
X98525500Y-120585000I0J250000D01*
G01*
X98525500Y-119910000D01*
G75*
G02*
X98775500Y-119660000I250000J0D01*
G01*
G37*
%TD*%
%TO.C,C20*%
G36*
G01*
X96235500Y-121735000D02*
X97185500Y-121735000D01*
G75*
G02*
X97435500Y-121985000I0J-250000D01*
G01*
X97435500Y-122660000D01*
G75*
G02*
X97185500Y-122910000I-250000J0D01*
G01*
X96235500Y-122910000D01*
G75*
G02*
X95985500Y-122660000I0J250000D01*
G01*
X95985500Y-121985000D01*
G75*
G02*
X96235500Y-121735000I250000J0D01*
G01*
G37*
G36*
G01*
X96235500Y-119660000D02*
X97185500Y-119660000D01*
G75*
G02*
X97435500Y-119910000I0J-250000D01*
G01*
X97435500Y-120585000D01*
G75*
G02*
X97185500Y-120835000I-250000J0D01*
G01*
X96235500Y-120835000D01*
G75*
G02*
X95985500Y-120585000I0J250000D01*
G01*
X95985500Y-119910000D01*
G75*
G02*
X96235500Y-119660000I250000J0D01*
G01*
G37*
%TD*%
%TO.C,C19*%
G36*
G01*
X93695500Y-121735000D02*
X94645500Y-121735000D01*
G75*
G02*
X94895500Y-121985000I0J-250000D01*
G01*
X94895500Y-122660000D01*
G75*
G02*
X94645500Y-122910000I-250000J0D01*
G01*
X93695500Y-122910000D01*
G75*
G02*
X93445500Y-122660000I0J250000D01*
G01*
X93445500Y-121985000D01*
G75*
G02*
X93695500Y-121735000I250000J0D01*
G01*
G37*
G36*
G01*
X93695500Y-119660000D02*
X94645500Y-119660000D01*
G75*
G02*
X94895500Y-119910000I0J-250000D01*
G01*
X94895500Y-120585000D01*
G75*
G02*
X94645500Y-120835000I-250000J0D01*
G01*
X93695500Y-120835000D01*
G75*
G02*
X93445500Y-120585000I0J250000D01*
G01*
X93445500Y-119910000D01*
G75*
G02*
X93695500Y-119660000I250000J0D01*
G01*
G37*
%TD*%
%TO.C,C7*%
G36*
G01*
X63660000Y-111067000D02*
X64610000Y-111067000D01*
G75*
G02*
X64860000Y-111317000I0J-250000D01*
G01*
X64860000Y-111992000D01*
G75*
G02*
X64610000Y-112242000I-250000J0D01*
G01*
X63660000Y-112242000D01*
G75*
G02*
X63410000Y-111992000I0J250000D01*
G01*
X63410000Y-111317000D01*
G75*
G02*
X63660000Y-111067000I250000J0D01*
G01*
G37*
G36*
G01*
X63660000Y-108992000D02*
X64610000Y-108992000D01*
G75*
G02*
X64860000Y-109242000I0J-250000D01*
G01*
X64860000Y-109917000D01*
G75*
G02*
X64610000Y-110167000I-250000J0D01*
G01*
X63660000Y-110167000D01*
G75*
G02*
X63410000Y-109917000I0J250000D01*
G01*
X63410000Y-109242000D01*
G75*
G02*
X63660000Y-108992000I250000J0D01*
G01*
G37*
%TD*%
%TO.C,C6*%
G36*
G01*
X66200000Y-111067000D02*
X67150000Y-111067000D01*
G75*
G02*
X67400000Y-111317000I0J-250000D01*
G01*
X67400000Y-111992000D01*
G75*
G02*
X67150000Y-112242000I-250000J0D01*
G01*
X66200000Y-112242000D01*
G75*
G02*
X65950000Y-111992000I0J250000D01*
G01*
X65950000Y-111317000D01*
G75*
G02*
X66200000Y-111067000I250000J0D01*
G01*
G37*
G36*
G01*
X66200000Y-108992000D02*
X67150000Y-108992000D01*
G75*
G02*
X67400000Y-109242000I0J-250000D01*
G01*
X67400000Y-109917000D01*
G75*
G02*
X67150000Y-110167000I-250000J0D01*
G01*
X66200000Y-110167000D01*
G75*
G02*
X65950000Y-109917000I0J250000D01*
G01*
X65950000Y-109242000D01*
G75*
G02*
X66200000Y-108992000I250000J0D01*
G01*
G37*
%TD*%
M02*
